<svg width="1069" height="13" viewBox="0 0 1069 13" fill="none" xmlns="http://www.w3.org/2000/svg">
<path d="M468 1L457 12" stroke="#F1F1F1" stroke-opacity="0.3" stroke-width="2"/>
<path d="M474 1L463 12" stroke="#F1F1F1" stroke-opacity="0.3" stroke-width="2"/>
<path d="M480 1L469 12" stroke="#F1F1F1" stroke-opacity="0.3" stroke-width="2"/>
<path d="M486 1L475 12" stroke="#F1F1F1" stroke-opacity="0.3" stroke-width="2"/>
<path d="M492 1L481 12" stroke="#F1F1F1" stroke-opacity="0.3" stroke-width="2"/>
<path d="M12 1L1 12" stroke="#F1F1F1" stroke-opacity="0.3" stroke-width="2"/>
<path d="M498 1L487 12" stroke="#F1F1F1" stroke-opacity="0.3" stroke-width="2"/>
<path d="M18 1L7 12" stroke="#F1F1F1" stroke-opacity="0.3" stroke-width="2"/>
<path d="M504 1L493 12" stroke="#F1F1F1" stroke-opacity="0.3" stroke-width="2"/>
<path d="M24 1L13 12" stroke="#F1F1F1" stroke-opacity="0.3" stroke-width="2"/>
<path d="M510 1L499 12" stroke="#F1F1F1" stroke-opacity="0.3" stroke-width="2"/>
<path d="M30 1L19 12" stroke="#F1F1F1" stroke-opacity="0.3" stroke-width="2"/>
<path d="M516 1L505 12" stroke="#F1F1F1" stroke-opacity="0.3" stroke-width="2"/>
<path d="M36 1L25 12" stroke="#F1F1F1" stroke-opacity="0.3" stroke-width="2"/>
<path d="M522 1L511 12" stroke="#F1F1F1" stroke-opacity="0.3" stroke-width="2"/>
<path d="M42 1L31 12" stroke="#F1F1F1" stroke-opacity="0.3" stroke-width="2"/>
<path d="M528 1L517 12" stroke="#F1F1F1" stroke-opacity="0.3" stroke-width="2"/>
<path d="M48 1L37 12" stroke="#F1F1F1" stroke-opacity="0.3" stroke-width="2"/>
<path d="M534 1L523 12" stroke="#F1F1F1" stroke-opacity="0.3" stroke-width="2"/>
<path d="M54 1L43 12" stroke="#F1F1F1" stroke-opacity="0.3" stroke-width="2"/>
<path d="M540 1L529 12" stroke="#F1F1F1" stroke-opacity="0.3" stroke-width="2"/>
<path d="M60 1L49 12" stroke="#F1F1F1" stroke-opacity="0.3" stroke-width="2"/>
<path d="M546 1L535 12" stroke="#F1F1F1" stroke-opacity="0.3" stroke-width="2"/>
<path d="M66 1L55 12" stroke="#F1F1F1" stroke-opacity="0.3" stroke-width="2"/>
<path d="M552 1L541 12" stroke="#F1F1F1" stroke-opacity="0.3" stroke-width="2"/>
<path d="M72 1L61 12" stroke="#F1F1F1" stroke-opacity="0.3" stroke-width="2"/>
<path d="M558 1L547 12" stroke="#F1F1F1" stroke-opacity="0.3" stroke-width="2"/>
<path d="M78 1L67 12" stroke="#F1F1F1" stroke-opacity="0.3" stroke-width="2"/>
<path d="M564 1L553 12" stroke="#F1F1F1" stroke-opacity="0.3" stroke-width="2"/>
<path d="M84 1L73 12" stroke="#F1F1F1" stroke-opacity="0.3" stroke-width="2"/>
<path d="M570 1L559 12" stroke="#F1F1F1" stroke-opacity="0.3" stroke-width="2"/>
<path d="M90 1L79 12" stroke="#F1F1F1" stroke-opacity="0.3" stroke-width="2"/>
<path d="M576 1L565 12" stroke="#F1F1F1" stroke-opacity="0.3" stroke-width="2"/>
<path d="M96 1L85 12" stroke="#F1F1F1" stroke-opacity="0.3" stroke-width="2"/>
<path d="M582 1L571 12" stroke="#F1F1F1" stroke-opacity="0.3" stroke-width="2"/>
<path d="M102 1L91 12" stroke="#F1F1F1" stroke-opacity="0.3" stroke-width="2"/>
<path d="M588 1L577 12" stroke="#F1F1F1" stroke-opacity="0.3" stroke-width="2"/>
<path d="M108 1L97 12" stroke="#F1F1F1" stroke-opacity="0.3" stroke-width="2"/>
<path d="M594 1L583 12" stroke="#F1F1F1" stroke-opacity="0.3" stroke-width="2"/>
<path d="M114 1L103 12" stroke="#F1F1F1" stroke-opacity="0.3" stroke-width="2"/>
<path d="M600 1L589 12" stroke="#F1F1F1" stroke-opacity="0.3" stroke-width="2"/>
<path d="M120 1L109 12" stroke="#F1F1F1" stroke-opacity="0.3" stroke-width="2"/>
<path d="M606 1L595 12" stroke="#F1F1F1" stroke-opacity="0.3" stroke-width="2"/>
<path d="M126 1L115 12" stroke="#F1F1F1" stroke-opacity="0.3" stroke-width="2"/>
<path d="M612 1L601 12" stroke="#F1F1F1" stroke-opacity="0.3" stroke-width="2"/>
<path d="M132 1L121 12" stroke="#F1F1F1" stroke-opacity="0.3" stroke-width="2"/>
<path d="M618 1L607 12" stroke="#F1F1F1" stroke-opacity="0.3" stroke-width="2"/>
<path d="M138 1L127 12" stroke="#F1F1F1" stroke-opacity="0.3" stroke-width="2"/>
<path d="M624 1L613 12" stroke="#F1F1F1" stroke-opacity="0.3" stroke-width="2"/>
<path d="M144 1L133 12" stroke="#F1F1F1" stroke-opacity="0.3" stroke-width="2"/>
<path d="M630 1L619 12" stroke="#F1F1F1" stroke-opacity="0.3" stroke-width="2"/>
<path d="M150 1L139 12" stroke="#F1F1F1" stroke-opacity="0.3" stroke-width="2"/>
<path d="M636 1L625 12" stroke="#F1F1F1" stroke-opacity="0.3" stroke-width="2"/>
<path d="M156 1L145 12" stroke="#F1F1F1" stroke-opacity="0.3" stroke-width="2"/>
<path d="M642 1L631 12" stroke="#F1F1F1" stroke-opacity="0.3" stroke-width="2"/>
<path d="M162 1L151 12" stroke="#F1F1F1" stroke-opacity="0.3" stroke-width="2"/>
<path d="M648 1L637 12" stroke="#F1F1F1" stroke-opacity="0.3" stroke-width="2"/>
<path d="M168 1L157 12" stroke="#F1F1F1" stroke-opacity="0.3" stroke-width="2"/>
<path d="M654 1L643 12" stroke="#F1F1F1" stroke-opacity="0.3" stroke-width="2"/>
<path d="M174 1L163 12" stroke="#F1F1F1" stroke-opacity="0.3" stroke-width="2"/>
<path d="M660 1L649 12" stroke="#F1F1F1" stroke-opacity="0.3" stroke-width="2"/>
<path d="M180 1L169 12" stroke="#F1F1F1" stroke-opacity="0.3" stroke-width="2"/>
<path d="M666 1L655 12" stroke="#F1F1F1" stroke-opacity="0.3" stroke-width="2"/>
<path d="M186 1L175 12" stroke="#F1F1F1" stroke-opacity="0.3" stroke-width="2"/>
<path d="M672 1L661 12" stroke="#F1F1F1" stroke-opacity="0.3" stroke-width="2"/>
<path d="M192 1L181 12" stroke="#F1F1F1" stroke-opacity="0.3" stroke-width="2"/>
<path d="M678 1L667 12" stroke="#F1F1F1" stroke-opacity="0.3" stroke-width="2"/>
<path d="M198 1L187 12" stroke="#F1F1F1" stroke-opacity="0.3" stroke-width="2"/>
<path d="M684 1L673 12" stroke="#F1F1F1" stroke-opacity="0.3" stroke-width="2"/>
<path d="M204 1L193 12" stroke="#F1F1F1" stroke-opacity="0.3" stroke-width="2"/>
<path d="M690 1L679 12" stroke="#F1F1F1" stroke-opacity="0.3" stroke-width="2"/>
<path d="M210 1L199 12" stroke="#F1F1F1" stroke-opacity="0.3" stroke-width="2"/>
<path d="M696 1L685 12" stroke="#F1F1F1" stroke-opacity="0.3" stroke-width="2"/>
<path d="M216 1L205 12" stroke="#F1F1F1" stroke-opacity="0.3" stroke-width="2"/>
<path d="M702 1L691 12" stroke="#F1F1F1" stroke-opacity="0.3" stroke-width="2"/>
<path d="M222 1L211 12" stroke="#F1F1F1" stroke-opacity="0.3" stroke-width="2"/>
<path d="M708 1L697 12" stroke="#F1F1F1" stroke-opacity="0.3" stroke-width="2"/>
<path d="M228 1L217 12" stroke="#F1F1F1" stroke-opacity="0.3" stroke-width="2"/>
<path d="M714 1L703 12" stroke="#F1F1F1" stroke-opacity="0.3" stroke-width="2"/>
<path d="M234 1L223 12" stroke="#F1F1F1" stroke-opacity="0.3" stroke-width="2"/>
<path d="M720 1L709 12" stroke="#F1F1F1" stroke-opacity="0.3" stroke-width="2"/>
<path d="M240 1L229 12" stroke="#F1F1F1" stroke-opacity="0.3" stroke-width="2"/>
<path d="M726 1L715 12" stroke="#F1F1F1" stroke-opacity="0.3" stroke-width="2"/>
<path d="M246 1L235 12" stroke="#F1F1F1" stroke-opacity="0.3" stroke-width="2"/>
<path d="M732 1L721 12" stroke="#F1F1F1" stroke-opacity="0.3" stroke-width="2"/>
<path d="M252 1L241 12" stroke="#F1F1F1" stroke-opacity="0.3" stroke-width="2"/>
<path d="M738 1L727 12" stroke="#F1F1F1" stroke-opacity="0.3" stroke-width="2"/>
<path d="M258 1L247 12" stroke="#F1F1F1" stroke-opacity="0.3" stroke-width="2"/>
<path d="M744 1L733 12" stroke="#F1F1F1" stroke-opacity="0.3" stroke-width="2"/>
<path d="M264 1L253 12" stroke="#F1F1F1" stroke-opacity="0.3" stroke-width="2"/>
<path d="M750 1L739 12" stroke="#F1F1F1" stroke-opacity="0.3" stroke-width="2"/>
<path d="M270 1L259 12" stroke="#F1F1F1" stroke-opacity="0.3" stroke-width="2"/>
<path d="M756 1L745 12" stroke="#F1F1F1" stroke-opacity="0.3" stroke-width="2"/>
<path d="M276 1L265 12" stroke="#F1F1F1" stroke-opacity="0.3" stroke-width="2"/>
<path d="M762 1L751 12" stroke="#F1F1F1" stroke-opacity="0.3" stroke-width="2"/>
<path d="M282 1L271 12" stroke="#F1F1F1" stroke-opacity="0.3" stroke-width="2"/>
<path d="M768 1L757 12" stroke="#F1F1F1" stroke-opacity="0.3" stroke-width="2"/>
<path d="M288 1L277 12" stroke="#F1F1F1" stroke-opacity="0.3" stroke-width="2"/>
<path d="M774 1L763 12" stroke="#F1F1F1" stroke-opacity="0.3" stroke-width="2"/>
<path d="M294 1L283 12" stroke="#F1F1F1" stroke-opacity="0.3" stroke-width="2"/>
<path d="M780 1L769 12" stroke="#F1F1F1" stroke-opacity="0.3" stroke-width="2"/>
<path d="M300 1L289 12" stroke="#F1F1F1" stroke-opacity="0.3" stroke-width="2"/>
<path d="M786 1L775 12" stroke="#F1F1F1" stroke-opacity="0.3" stroke-width="2"/>
<path d="M306 1L295 12" stroke="#F1F1F1" stroke-opacity="0.3" stroke-width="2"/>
<path d="M792 1L781 12" stroke="#F1F1F1" stroke-opacity="0.3" stroke-width="2"/>
<path d="M312 1L301 12" stroke="#F1F1F1" stroke-opacity="0.3" stroke-width="2"/>
<path d="M798 1L787 12" stroke="#F1F1F1" stroke-opacity="0.3" stroke-width="2"/>
<path d="M948 1L937 12" stroke="#F1F1F1" stroke-opacity="0.3" stroke-width="2"/>
<path d="M318 1L307 12" stroke="#F1F1F1" stroke-opacity="0.3" stroke-width="2"/>
<path d="M804 1L793 12" stroke="#F1F1F1" stroke-opacity="0.3" stroke-width="2"/>
<path d="M954 1L943 12" stroke="#F1F1F1" stroke-opacity="0.3" stroke-width="2"/>
<path d="M324 1L313 12" stroke="#F1F1F1" stroke-opacity="0.3" stroke-width="2"/>
<path d="M810 1L799 12" stroke="#F1F1F1" stroke-opacity="0.3" stroke-width="2"/>
<path d="M960 1L949 12" stroke="#F1F1F1" stroke-opacity="0.3" stroke-width="2"/>
<path d="M330 1L319 12" stroke="#F1F1F1" stroke-opacity="0.3" stroke-width="2"/>
<path d="M816 1L805 12" stroke="#F1F1F1" stroke-opacity="0.3" stroke-width="2"/>
<path d="M966 1L955 12" stroke="#F1F1F1" stroke-opacity="0.3" stroke-width="2"/>
<path d="M336 1L325 12" stroke="#F1F1F1" stroke-opacity="0.3" stroke-width="2"/>
<path d="M822 1L811 12" stroke="#F1F1F1" stroke-opacity="0.3" stroke-width="2"/>
<path d="M972 1L961 12" stroke="#F1F1F1" stroke-opacity="0.3" stroke-width="2"/>
<path d="M342 1L331 12" stroke="#F1F1F1" stroke-opacity="0.3" stroke-width="2"/>
<path d="M828 1L817 12" stroke="#F1F1F1" stroke-opacity="0.3" stroke-width="2"/>
<path d="M978 1L967 12" stroke="#F1F1F1" stroke-opacity="0.3" stroke-width="2"/>
<path d="M348 1L337 12" stroke="#F1F1F1" stroke-opacity="0.3" stroke-width="2"/>
<path d="M834 1L823 12" stroke="#F1F1F1" stroke-opacity="0.3" stroke-width="2"/>
<path d="M984 1L973 12" stroke="#F1F1F1" stroke-opacity="0.3" stroke-width="2"/>
<path d="M354 1L343 12" stroke="#F1F1F1" stroke-opacity="0.3" stroke-width="2"/>
<path d="M840 1L829 12" stroke="#F1F1F1" stroke-opacity="0.3" stroke-width="2"/>
<path d="M990 1L979 12" stroke="#F1F1F1" stroke-opacity="0.3" stroke-width="2"/>
<path d="M360 1L349 12" stroke="#F1F1F1" stroke-opacity="0.3" stroke-width="2"/>
<path d="M846 1L835 12" stroke="#F1F1F1" stroke-opacity="0.3" stroke-width="2"/>
<path d="M996 1L985 12" stroke="#F1F1F1" stroke-opacity="0.3" stroke-width="2"/>
<path d="M366 1L355 12" stroke="#F1F1F1" stroke-opacity="0.3" stroke-width="2"/>
<path d="M852 1L841 12" stroke="#F1F1F1" stroke-opacity="0.3" stroke-width="2"/>
<path d="M1002 1L991 12" stroke="#F1F1F1" stroke-opacity="0.3" stroke-width="2"/>
<path d="M372 1L361 12" stroke="#F1F1F1" stroke-opacity="0.3" stroke-width="2"/>
<path d="M858 1L847 12" stroke="#F1F1F1" stroke-opacity="0.3" stroke-width="2"/>
<path d="M1008 1L997 12" stroke="#F1F1F1" stroke-opacity="0.3" stroke-width="2"/>
<path d="M378 1L367 12" stroke="#F1F1F1" stroke-opacity="0.3" stroke-width="2"/>
<path d="M864 1L853 12" stroke="#F1F1F1" stroke-opacity="0.3" stroke-width="2"/>
<path d="M1014 1L1003 12" stroke="#F1F1F1" stroke-opacity="0.3" stroke-width="2"/>
<path d="M384 1L373 12" stroke="#F1F1F1" stroke-opacity="0.3" stroke-width="2"/>
<path d="M870 1L859 12" stroke="#F1F1F1" stroke-opacity="0.3" stroke-width="2"/>
<path d="M1020 1L1009 12" stroke="#F1F1F1" stroke-opacity="0.3" stroke-width="2"/>
<path d="M390 1L379 12" stroke="#F1F1F1" stroke-opacity="0.3" stroke-width="2"/>
<path d="M876 1L865 12" stroke="#F1F1F1" stroke-opacity="0.3" stroke-width="2"/>
<path d="M1026 1L1015 12" stroke="#F1F1F1" stroke-opacity="0.3" stroke-width="2"/>
<path d="M396 1L385 12" stroke="#F1F1F1" stroke-opacity="0.3" stroke-width="2"/>
<path d="M882 1L871 12" stroke="#F1F1F1" stroke-opacity="0.3" stroke-width="2"/>
<path d="M1032 1L1021 12" stroke="#F1F1F1" stroke-opacity="0.3" stroke-width="2"/>
<path d="M402 1L391 12" stroke="#F1F1F1" stroke-opacity="0.3" stroke-width="2"/>
<path d="M888 1L877 12" stroke="#F1F1F1" stroke-opacity="0.3" stroke-width="2"/>
<path d="M1038 1L1027 12" stroke="#F1F1F1" stroke-opacity="0.3" stroke-width="2"/>
<path d="M408 1L397 12" stroke="#F1F1F1" stroke-opacity="0.3" stroke-width="2"/>
<path d="M894 1L883 12" stroke="#F1F1F1" stroke-opacity="0.3" stroke-width="2"/>
<path d="M1044 1L1033 12" stroke="#F1F1F1" stroke-opacity="0.3" stroke-width="2"/>
<path d="M414 1L403 12" stroke="#F1F1F1" stroke-opacity="0.3" stroke-width="2"/>
<path d="M900 1L889 12" stroke="#F1F1F1" stroke-opacity="0.3" stroke-width="2"/>
<path d="M1050 1L1039 12" stroke="#F1F1F1" stroke-opacity="0.3" stroke-width="2"/>
<path d="M420 1L409 12" stroke="#F1F1F1" stroke-opacity="0.3" stroke-width="2"/>
<path d="M906 1L895 12" stroke="#F1F1F1" stroke-opacity="0.3" stroke-width="2"/>
<path d="M1056 1L1045 12" stroke="#F1F1F1" stroke-opacity="0.3" stroke-width="2"/>
<path d="M426 1L415 12" stroke="#F1F1F1" stroke-opacity="0.3" stroke-width="2"/>
<path d="M912 1L901 12" stroke="#F1F1F1" stroke-opacity="0.3" stroke-width="2"/>
<path d="M1062 1L1051 12" stroke="#F1F1F1" stroke-opacity="0.3" stroke-width="2"/>
<path d="M432 1L421 12" stroke="#F1F1F1" stroke-opacity="0.3" stroke-width="2"/>
<path d="M918 1L907 12" stroke="#F1F1F1" stroke-opacity="0.3" stroke-width="2"/>
<path d="M1068 1L1057 12" stroke="#F1F1F1" stroke-opacity="0.3" stroke-width="2"/>
<path d="M438 1L427 12" stroke="#F1F1F1" stroke-opacity="0.3" stroke-width="2"/>
<path d="M924 1L913 12" stroke="#F1F1F1" stroke-opacity="0.3" stroke-width="2"/>
<path d="M444 1L433 12" stroke="#F1F1F1" stroke-opacity="0.3" stroke-width="2"/>
<path d="M930 1L919 12" stroke="#F1F1F1" stroke-opacity="0.3" stroke-width="2"/>
<path d="M450 1L439 12" stroke="#F1F1F1" stroke-opacity="0.3" stroke-width="2"/>
<path d="M936 1L925 12" stroke="#F1F1F1" stroke-opacity="0.3" stroke-width="2"/>
<path d="M456 1L445 12" stroke="#F1F1F1" stroke-opacity="0.3" stroke-width="2"/>
<path d="M942 1L931 12" stroke="#F1F1F1" stroke-opacity="0.3" stroke-width="2"/>
<path d="M462 1L451 12" stroke="#F1F1F1" stroke-opacity="0.3" stroke-width="2"/>
</svg>
