<svg width="210" height="170" viewBox="0 0 210 170" fill="none" xmlns="http://www.w3.org/2000/svg">
<path d="M62.5837 169.158H141.568C141.039 161.521 148.715 156.649 155.702 153.527C164.488 149.602 173.45 145.669 180.79 139.441C188.13 133.21 193.741 124.208 193.541 114.576C193.319 103.976 186.34 94.7591 183.894 84.4448C180.997 72.2285 184.626 59.5581 186.548 47.1487C188.469 34.7394 188.094 20.521 179.225 11.6403C171.924 4.32555 160.662 2.61305 150.358 3.34953C140.053 4.08601 129.927 6.86033 119.597 6.91754C107.607 6.98546 95.9377 3.40316 84.122 1.35102C72.3063 -0.701116 59.4655 -1.05148 49.0573 4.91188C37.4846 11.5438 30.9624 25.9838 33.6305 39.0617C35.4879 48.1677 41.2742 56.3405 41.7422 65.6251C42.1315 73.3546 38.7526 80.7695 34.7663 87.4014C28.2478 98.252 19.8254 108.155 15.6536 120.11C11.4816 132.066 12.9139 147.346 23.2366 154.668C34.2485 162.472 54.24 158.547 62.5837 169.158Z" fill="#ECF0F7"/>
<path d="M155.155 47.1307L169.552 21.0305L171.609 22.8163L156.664 50.2902L155.155 47.1307Z" fill="white"/>
<path d="M80.0602 156.728C80.0924 156.721 80.1247 156.71 80.1534 156.696C80.4005 156.585 80.5152 156.295 80.4005 156.044C51.3696 91.0437 26.7307 45.6876 11.026 28.3301C10.6785 27.943 10.4242 27.667 10.3239 27.5237C10.1663 27.3014 9.8581 27.2477 9.63605 27.4018C9.4139 27.5595 9.36016 27.8641 9.51429 28.0899C9.65034 28.2835 9.89396 28.5523 10.2916 28.9931C25.9319 46.2754 50.5099 91.5418 79.5014 156.452C79.6017 156.667 79.8381 156.779 80.0602 156.728Z" fill="#7BE1C9"/>
<path d="M1.33584 26.0398C3.18077 27.9787 11.5883 30.8854 12.14 30.3585C12.6917 29.8317 10.1949 21.2909 8.34997 19.3519C6.50514 17.413 3.43868 17.3413 1.50425 19.1871C-0.433779 21.0364 -0.508994 24.1044 1.33584 26.0398Z" fill="#7BE1C9"/>
<path d="M17.4277 30.5807C16.9835 33.283 19.7812 41.9457 20.555 42.0711C21.3252 42.2001 26.7595 34.8958 27.2073 32.1935C27.6515 29.4911 25.8245 26.9393 23.1271 26.4948C20.426 26.0504 17.8755 27.8783 17.4277 30.5807Z" fill="#7BE1C9"/>
<path d="M10.0084 47.3181C12.738 47.1461 20.5439 42.4617 20.4937 41.684C20.4436 40.9027 12.1111 37.2505 9.3779 37.4226C6.64816 37.5946 4.57399 39.9529 4.74599 42.6839C4.9215 45.4186 7.27865 47.4901 10.0084 47.3181Z" fill="#7BE1C9"/>
<path d="M46.4117 72.4064C45.1794 76.8327 48.2888 91.7961 49.5498 92.1474C50.8143 92.4986 61.2029 81.2985 62.4352 76.8722C63.6676 72.4459 61.0776 67.8583 56.6534 66.6254C52.2293 65.3925 47.6439 67.9801 46.4117 72.4064Z" fill="#7BE1C9"/>
<path d="M31.0036 98.9966C35.5926 99.2008 49.4631 92.8033 49.5205 91.4916C49.5778 90.1798 36.3305 82.5745 31.7416 82.3702C27.1527 82.1659 23.2659 85.7213 23.0617 90.3124C22.8576 94.9036 26.4148 98.7923 31.0036 98.9966Z" fill="#7BE1C9"/>
<path d="M60.4319 87.7929C57.7703 92.7461 57.4515 111.444 58.8629 112.204C60.2743 112.964 75.6961 102.394 78.3577 97.4412C81.0193 92.488 79.1673 86.3127 74.2166 83.6498C69.2659 80.9832 63.0936 82.8398 60.4319 87.7929Z" fill="#7BE1C9"/>
<path d="M38.0217 122.877C43.6315 122.547 59.7125 113.01 59.6193 111.408C59.5262 109.806 42.4422 102.215 36.8323 102.545C31.2225 102.874 26.9381 107.691 27.2677 113.308C27.5936 118.924 32.4082 123.207 38.0217 122.877Z" fill="#7BE1C9"/>
<path d="M70.602 108.896C67.9403 113.849 67.6216 132.547 69.033 133.307C70.4444 134.066 85.866 123.497 88.528 118.544C91.189 113.591 89.3371 107.415 84.3867 104.753C79.4359 102.09 73.2637 103.946 70.602 108.896Z" fill="#7BE1C9"/>
<path d="M48.1919 143.983C53.8018 143.654 69.8827 134.117 69.7895 132.515C69.6964 130.912 52.6124 123.321 47.0026 123.651C41.3927 123.981 37.1083 128.798 37.4378 134.414C37.7639 140.03 42.5785 144.313 48.1919 143.983Z" fill="#7BE1C9"/>
<path d="M90.2441 134.536C85.895 138.102 78.4834 155.266 79.5007 156.51C80.5181 157.75 98.7985 153.854 103.148 150.288C107.497 146.722 108.13 140.306 104.57 135.959C101.002 131.608 94.5892 130.97 90.2441 134.536Z" fill="#7BE1C9"/>
<path d="M57.4846 164.961C63.0945 165.337 80.2357 157.886 80.3431 156.284C80.4506 154.682 64.4486 145.016 58.8423 144.639C53.2324 144.263 48.382 148.51 48.0094 154.119C47.6333 159.732 51.8748 164.585 57.4846 164.961Z" fill="#7BE1C9"/>
<path d="M26.3832 43.6122C25.9318 46.3576 28.7761 55.1564 29.5606 55.2854C30.3452 55.4145 35.8655 47.9955 36.3205 45.2501C36.7719 42.5047 34.9162 39.9135 32.1721 39.4619C29.4281 39.0103 26.8381 40.8668 26.3832 43.6122Z" fill="#7BE1C9"/>
<path d="M19.2255 60.7405C22.0018 60.5648 29.9294 55.8088 29.8793 55.0167C29.8291 54.2247 21.3606 50.5116 18.5843 50.6872C15.8081 50.8628 13.7016 53.257 13.8808 56.0346C14.0563 58.8087 16.4492 60.9161 19.2255 60.7405Z" fill="#7BE1C9"/>
<path d="M36.2236 55.5185C35.2636 59.3534 38.2655 72.1449 39.3617 72.4209C40.4543 72.6968 49.1377 62.8335 50.0979 59.0022C51.0579 55.1673 48.733 51.2822 44.8999 50.3216C41.0705 49.3575 37.1836 51.6872 36.2236 55.5185Z" fill="#7BE1C9"/>
<path d="M24.2802 80.0979C28.2207 79.847 39.487 73.0911 39.4154 71.9657C39.3438 70.8403 27.3144 65.5646 23.3703 65.8155C19.4298 66.0664 16.435 69.4676 16.6858 73.4101C16.9401 77.3525 20.3397 80.3488 24.2802 80.0979Z" fill="#7BE1C9"/>
<path d="M153.335 144.399C153.32 144.392 153.306 144.381 153.291 144.371C153.185 144.285 153.167 144.127 153.252 144.016C175.864 115.673 193.804 96.4556 203.763 89.9039C203.985 89.757 204.142 89.653 204.21 89.5957C204.318 89.5061 204.476 89.5169 204.565 89.6244C204.655 89.7319 204.644 89.8896 204.537 89.9792C204.443 90.058 204.293 90.1584 204.038 90.3268C194.123 96.8498 176.222 116.028 153.643 144.331C153.571 144.424 153.439 144.453 153.335 144.399Z" fill="#7BE1C9"/>
<path d="M208.835 90.0184C207.678 90.7388 203.16 91.0972 202.957 90.7675C202.753 90.4377 205.074 86.5455 206.231 85.8251C207.388 85.1047 208.911 85.4595 209.627 86.6171C210.347 87.7748 209.993 89.298 208.835 90.0184Z" fill="#7BE1C9"/>
<path d="M200.321 90.1978C200.195 91.5884 197.709 95.4986 197.311 95.4628C196.914 95.4269 195.166 91.1332 195.291 89.7426C195.416 88.352 196.642 87.3306 198.031 87.456C199.422 87.5815 200.446 88.8108 200.321 90.1978Z" fill="#7BE1C9"/>
<path d="M201.843 99.3979C200.517 98.9643 197.269 95.6562 197.391 95.2799C197.516 94.9 202.091 94.1652 203.416 94.5989C204.742 95.0326 205.461 96.459 205.028 97.7851C204.595 99.1112 203.168 99.8352 201.843 99.3979Z" fill="#7BE1C9"/>
<path d="M180.69 107.122C180.733 109.462 177.29 116.444 176.623 116.454C175.957 116.465 172.264 109.616 172.221 107.276C172.178 104.935 174.041 103.004 176.38 102.96C178.719 102.917 180.65 104.781 180.69 107.122Z" fill="#7BE1C9"/>
<path d="M184.895 122.2C182.606 121.716 176.584 116.788 176.723 116.132C176.863 115.48 184.365 113.422 186.654 113.906C188.942 114.39 190.405 116.641 189.917 118.931C189.434 121.221 187.183 122.683 184.895 122.2Z" fill="#7BE1C9"/>
<path d="M171.813 112.913C172.493 115.695 170.264 124.956 169.469 125.149C168.674 125.343 162.423 118.16 161.743 115.379C161.062 112.598 162.764 109.788 165.544 109.107C168.327 108.43 171.131 110.132 171.813 112.913Z" fill="#7BE1C9"/>
<path d="M178.385 133.077C175.659 132.199 168.95 125.443 169.201 124.662C169.451 123.884 178.844 122.325 181.567 123.203C184.293 124.081 185.786 127.006 184.909 129.73C184.031 132.461 181.111 133.959 178.385 133.077Z" fill="#7BE1C9"/>
<path d="M164.103 122.02C164.784 124.802 162.556 134.063 161.761 134.256C160.965 134.45 154.714 127.267 154.034 124.486C153.353 121.705 155.054 118.895 157.834 118.214C160.614 117.533 163.423 119.239 164.103 122.02Z" fill="#7BE1C9"/>
<path d="M170.677 142.184C167.95 141.306 161.241 134.55 161.491 133.769C161.742 132.991 171.135 131.432 173.857 132.31C176.583 133.188 178.078 136.113 177.2 138.837C176.323 141.568 173.403 143.066 170.677 142.184Z" fill="#7BE1C9"/>
<path d="M151.15 132.153C152.837 134.464 154.302 143.876 153.643 144.36C152.984 144.844 144.465 140.586 142.778 138.271C141.091 135.959 141.595 132.712 143.907 131.024C146.217 129.335 149.459 129.841 151.15 132.153Z" fill="#7BE1C9"/>
<path d="M163.416 151.341C160.604 150.811 153.1 144.948 153.253 144.141C153.404 143.338 162.528 140.614 165.34 141.148C168.153 141.679 170.005 144.392 169.47 147.209C168.944 150.023 166.232 151.872 163.416 151.341Z" fill="#7BE1C9"/>
<path d="M194.242 95.4806C194.117 96.8927 191.588 100.867 191.186 100.832C190.785 100.796 189.008 96.4303 189.133 95.0218C189.259 93.6097 190.506 92.5703 191.917 92.6958C193.329 92.8212 194.37 94.0685 194.242 95.4806Z" fill="#7BE1C9"/>
<path d="M195.585 104.842C194.238 104.401 190.935 101.043 191.061 100.66C191.186 100.276 195.836 99.527 197.183 99.9678C198.53 100.409 199.261 101.86 198.82 103.204C198.379 104.548 196.932 105.283 195.585 104.842Z" fill="#7BE1C9"/>
<path d="M187.868 100.093C187.854 102.107 184.737 108.032 184.164 108.025C183.59 108.021 180.567 102.05 180.582 100.036C180.596 98.0216 182.24 96.4052 184.254 96.4195C186.266 96.4374 187.886 98.0825 187.868 100.093Z" fill="#7BE1C9"/>
<path d="M190.62 113.738C188.707 113.111 184.014 108.34 184.193 107.792C184.372 107.247 190.977 106.183 192.89 106.81C194.804 107.437 195.843 109.498 195.215 111.408C194.592 113.326 192.532 114.365 190.62 113.738Z" fill="#7BE1C9"/>
<path d="M125.419 157.309C125.419 157.309 103.402 119.709 173.597 92.9895C173.597 92.9931 172.236 170.373 125.419 157.309Z" fill="#95E7D4"/>
<path d="M173.687 92.8713L123.506 152.162C120.278 141.034 119.071 113.659 173.687 92.8713Z" fill="#7BE1C9"/>
<path d="M125.623 149.883C125.573 149.883 125.52 149.865 125.477 149.829C125.38 149.747 125.369 149.607 125.451 149.51L173.515 92.7245C173.597 92.6277 173.741 92.617 173.833 92.6994C173.93 92.7818 173.941 92.9216 173.858 93.0184L125.795 149.804C125.752 149.858 125.687 149.883 125.623 149.883Z" fill="#1C2A47"/>
<path d="M148.597 122.741C148.485 122.741 148.389 122.658 148.374 122.544C148.356 122.418 148.446 122.307 148.568 122.289L169.044 119.544C169.166 119.522 169.281 119.612 169.299 119.737C169.317 119.863 169.227 119.974 169.105 119.992L148.629 122.737C148.615 122.741 148.604 122.741 148.597 122.741Z" fill="#1C2A47"/>
<path d="M138.301 134.905C138.287 134.905 138.269 134.905 138.255 134.902C138.133 134.876 138.055 134.758 138.08 134.633L142.124 114.748C142.149 114.627 142.271 114.548 142.393 114.573C142.515 114.598 142.593 114.716 142.568 114.842L138.524 134.726C138.502 134.833 138.405 134.905 138.301 134.905Z" fill="#1C2A47"/>
<path d="M119.877 159.735C119.877 159.735 124.416 128.687 175.889 145.277C175.889 145.274 140.317 188.153 119.877 159.735Z" fill="#7BE1C9"/>
<path d="M175.889 145.274L119.877 159.732C119.877 159.735 135.181 189.798 175.889 145.274Z" fill="#3A6B5F"/>
<path d="M161.284 154.757C161.277 154.757 161.27 154.757 161.259 154.753L148.181 152.087C148.08 152.065 148.016 151.969 148.037 151.872C148.059 151.772 148.156 151.711 148.252 151.729L161.331 154.395C161.431 154.417 161.496 154.513 161.474 154.61C161.46 154.703 161.378 154.764 161.284 154.757Z" fill="#7BE1C9"/>
<path d="M142.721 163.617C142.706 163.617 142.692 163.613 142.681 163.61L125.812 158.363C125.715 158.334 125.662 158.23 125.69 158.133C125.719 158.036 125.823 157.983 125.92 158.011L142.789 163.258C142.886 163.287 142.939 163.391 142.911 163.488C142.886 163.574 142.807 163.624 142.721 163.617Z" fill="#7BE1C9"/>
<path d="M71.1216 158.044C71.1216 158.044 91.8274 122.68 25.8092 97.552C25.8128 97.552 27.0917 170.33 71.1216 158.044Z" fill="#7BE1C9"/>
<path d="M25.7263 97.4375L72.923 153.202C75.9572 142.736 77.0927 116.988 25.7263 97.4375Z" fill="#95E7D4"/>
<path d="M70.9318 151.073C70.8672 151.073 70.8028 151.044 70.7598 150.994L25.555 97.5843C25.4761 97.4875 25.4868 97.3442 25.58 97.2653C25.6767 97.1865 25.8165 97.1972 25.8988 97.2904L71.1037 150.7C71.1825 150.797 71.1718 150.94 71.0786 151.019C71.0356 151.055 70.9819 151.073 70.9318 151.073Z" fill="#1C2A47"/>
<path d="M49.3272 125.547C49.3165 125.547 49.3057 125.547 49.295 125.544L30.0367 122.963C29.9112 122.945 29.8253 122.834 29.8432 122.709C29.8611 122.583 29.9757 122.494 30.0975 122.515L49.3559 125.096C49.4812 125.113 49.5673 125.225 49.5494 125.35C49.535 125.465 49.4383 125.547 49.3272 125.547Z" fill="#1C2A47"/>
<path d="M59.0099 136.987C58.906 136.987 58.8093 136.912 58.7878 136.805L54.9834 118.103C54.9583 117.981 55.0371 117.859 55.159 117.834C55.2772 117.809 55.4025 117.888 55.4276 118.01L59.232 136.711C59.2571 136.833 59.1783 136.955 59.0565 136.98C59.0386 136.987 59.0243 136.987 59.0099 136.987Z" fill="#1C2A47"/>
<path d="M76.3347 160.323C76.3347 160.323 72.0645 131.12 23.6535 146.725C23.6571 146.725 57.1121 187.053 76.3347 160.323Z" fill="#3A6B5F"/>
<path d="M23.6571 146.725L76.3381 160.323C76.3346 160.323 61.9445 188.601 23.6571 146.725Z" fill="#95E7D4"/>
<path d="M37.3919 155.646C37.3991 155.646 37.4062 155.646 37.4133 155.642L49.7149 153.134C49.808 153.116 49.869 153.022 49.8511 152.929C49.8331 152.836 49.74 152.779 49.6469 152.793L37.3453 155.302C37.2521 155.32 37.1913 155.413 37.2092 155.506C37.2271 155.592 37.3059 155.65 37.3919 155.646Z" fill="#3A6B5F"/>
<path d="M54.8487 163.979C54.863 163.979 54.8738 163.975 54.8881 163.972L70.7541 159.036C70.8436 159.008 70.8937 158.911 70.8687 158.821C70.84 158.732 70.7433 158.678 70.6538 158.707L54.7878 163.642C54.6983 163.671 54.6481 163.767 54.6732 163.857C54.6983 163.936 54.7735 163.982 54.8487 163.979Z" fill="#3A6B5F"/>
<path d="M91.2999 25.9C90.8524 26.2799 90.4259 26.6849 90.0253 27.115C86.722 30.6309 86.9368 36.7453 82.3553 39.118C79.0776 40.8168 75.1478 39.3868 71.4688 39.1215C68.7534 38.9244 65.9341 39.4226 63.6451 40.8992C61.3596 42.3759 59.683 44.9098 59.6042 47.6301C59.5254 50.3038 60.9118 52.8126 61.1375 55.4755C61.3417 57.9019 60.5249 60.4 58.92 62.235C57.2077 64.1955 54.7539 65.3281 52.7298 66.966C50.7058 68.6039 49.0258 71.2238 49.8139 73.7076C50.6593 76.3705 53.8941 77.5891 55.044 80.1337C56.2799 82.872 54.718 85.965 53.5896 88.7462C52.4611 91.5274 52.0743 95.3731 54.6356 96.9357C55.7712 97.631 57.1933 97.6346 58.5188 97.5128C59.3929 97.4303 60.3243 97.3085 61.1124 97.6991C61.5888 97.9357 61.9614 98.3335 62.2945 98.7457C64.2935 101.204 65.5974 104.591 68.5815 105.656C70.1218 106.204 71.8162 105.993 73.4354 105.763C76.8207 105.283 80.3815 104.674 83.0112 102.484C87.5681 98.6848 87.7429 91.5561 91.6904 87.1262C94.8359 83.5959 99.8193 82.3917 104.522 81.9329C109.226 81.4742 114.083 81.5494 118.49 79.8399C121.126 78.8184 123.52 77.1662 125.411 75.0659C126.654 73.6825 127.718 72.0123 127.833 70.1558C128.08 66.1452 124.014 63.1382 123.208 59.2029C122.556 56.0131 123.755 52.9237 123.802 49.7482C123.845 46.6373 122.405 43.5801 121.176 40.7738C118.687 35.1002 114.661 26.7853 109.065 23.6528C103.519 20.549 96.0286 21.8715 91.2999 25.9Z" fill="#1C2A47"/>
<path fill-rule="evenodd" clip-rule="evenodd" d="M165.341 64.0703L169.838 71.0697L161.146 77.5374L161.147 77.5389C161.147 77.5389 148.76 104.555 137.457 104.77C126.155 104.989 117.679 92.3768 117.898 91.7245C118.116 91.0722 125.288 83.4311 125.288 83.4311H128.982V83.4346C128.982 83.4346 134.197 90.4235 138.543 90.4235C142.323 90.4235 154.003 76.4331 156.974 72.7962C157.01 72.7383 158.558 70.1986 160.033 67.9857C160.126 67.8202 162.368 63.8194 163.698 62.6472C165.056 61.4501 166.99 60.2567 167.22 60.7441C167.329 60.9757 166.674 61.9935 165.852 63.2718C165.688 63.5289 165.515 63.7964 165.341 64.0703ZM65.521 103.849C64.7079 101.566 71.7721 93.3159 71.7721 93.3159L61.8061 83.4311C61.8061 83.4311 52.1555 93.9001 51.6683 100.749C51.2048 107.217 69.9318 126.917 73.1821 130.337L73.183 130.338C73.3741 130.539 73.5115 130.683 73.5883 130.765C74.0664 131.277 74.4186 132.214 74.6748 133.22C74.4362 134.623 73.8237 136.56 72.395 138.998C71.0265 141.335 72.5813 147.98 73.2798 147.972C73.9784 147.965 73.6738 143.901 73.6738 143.901C73.6738 143.901 74.1968 148.972 75.0782 148.944C75.9594 148.911 75.4901 143.686 75.4901 143.686C75.4901 143.686 76.2889 149.198 77.1881 148.876C78.0873 148.549 77.7899 143.385 77.7899 143.385C77.7899 143.385 78.9649 149.277 79.4521 148.532C79.7612 148.059 79.8294 145.956 79.8848 144.253C79.9166 143.272 79.9441 142.424 80.0109 142.098C80.1014 141.656 80.7277 140.189 81.4049 138.602L81.405 138.601C81.6312 138.071 81.8631 137.528 82.0827 137.005C82.3077 137.314 82.5918 138.179 82.8964 139.106C83.3539 140.498 83.8573 142.031 84.2768 142.037C84.8392 142.045 84.7014 140.061 84.5805 138.324C84.5395 137.736 84.5006 137.177 84.4916 136.733C84.4556 134.98 81.7156 130.375 81.7156 130.375L81.7155 130.376C81.1058 129.273 80.3937 128.129 79.7676 127.165C78.3888 124.737 75.6143 120.343 72.8739 116.002H72.8738H72.8736L72.8734 116.001C69.3766 110.463 65.9353 105.012 65.521 103.849Z" fill="#B5C4E2"/>
<path d="M165.341 64.0703L164.498 63.5337L164.155 64.0733L164.501 64.6112L165.341 64.0703ZM169.838 71.0697L170.434 71.8723L171.183 71.3148L170.678 70.5287L169.838 71.0697ZM161.146 77.5374L160.55 76.7348L159.812 77.2835L160.297 78.065L161.146 77.5374ZM161.147 77.5389L162.055 77.9561L162.278 77.4677L161.996 77.0113L161.147 77.5389ZM137.457 104.77L137.438 103.771L137.457 104.77ZM117.898 91.7245L116.951 91.4066L117.898 91.7245ZM125.288 83.4311V82.4311H124.856L124.561 82.7463L125.288 83.4311ZM128.982 83.4311H129.98V82.4311H128.982V83.4311ZM128.982 83.4346H127.983V83.767L128.182 84.0332L128.982 83.4346ZM156.974 72.7962L157.747 73.4294L157.791 73.3759L157.827 73.3168L156.974 72.7962ZM160.033 67.9857L160.864 68.5409L160.885 68.5083L160.905 68.4741L160.033 67.9857ZM163.698 62.6472L164.358 63.3977L163.698 62.6472ZM167.22 60.7441L168.123 60.3181L167.22 60.7441ZM165.852 63.2718L166.692 63.813L165.852 63.2718ZM71.772 93.3159L72.5304 93.9667L73.1353 93.2603L72.4751 92.6055L71.772 93.3159ZM65.5209 103.849L66.4618 103.513L65.5209 103.849ZM61.8061 83.4311L62.5092 82.7207L61.7739 81.9915L61.0721 82.7529L61.8061 83.4311ZM51.6682 100.749L52.6645 100.821L52.6646 100.82L51.6682 100.749ZM73.1819 130.337L73.9244 129.668L73.9151 129.657L73.9055 129.647L73.1819 130.337ZM73.182 130.337L72.4395 131.006L72.4571 131.025L72.4757 131.044L73.182 130.337ZM73.182 130.337L72.4757 131.044L72.4965 131.065L72.5183 131.084L73.182 130.337ZM73.182 130.337L73.9049 129.647L73.8764 129.617L73.8456 129.589L73.182 130.337ZM73.1829 130.338L73.9065 129.648L73.9058 129.647L73.1829 130.338ZM73.5882 130.765L74.3178 130.082L73.5882 130.765ZM74.6747 133.22L75.6594 133.388L75.695 133.178L75.6426 132.973L74.6747 133.22ZM72.3949 138.998L71.5333 138.492H71.5331L72.3949 138.998ZM73.2797 147.972L73.29 148.972L73.2797 147.972ZM73.6737 143.901L74.6673 143.798L72.6777 143.976L73.6737 143.901ZM75.0781 148.944L75.1104 149.943H75.1145L75.0781 148.944ZM75.49 143.686L76.4785 143.542L74.4951 143.775L75.49 143.686ZM77.188 148.876L77.5249 149.817L77.5282 149.816L77.188 148.876ZM77.7898 143.385L78.7693 143.189L76.7925 143.442L77.7898 143.385ZM79.452 148.532L80.2879 149.079L79.452 148.532ZM79.8847 144.253L80.8831 144.286L79.8847 144.253ZM80.0108 142.098L79.0323 141.897L80.0108 142.098ZM81.4048 138.602L82.3234 138.994L82.3268 138.986L81.4048 138.602ZM81.4049 138.601L80.4862 138.209L80.4828 138.217L81.4049 138.601ZM82.0826 137.005L82.8906 136.417L81.8484 134.981L81.1617 136.617L82.0826 137.005ZM82.8963 139.106L83.8452 138.793L82.8963 139.106ZM84.2768 142.037L84.2907 141.037L84.2768 142.037ZM84.5804 138.324L85.5773 138.255L84.5804 138.324ZM84.4915 136.733L85.4904 136.712L84.4915 136.733ZM81.7155 130.375L82.5737 129.863L80.9588 127.149L80.7195 130.299L81.7155 130.375ZM81.7154 130.376L80.8416 130.86L82.4584 133.784L82.7115 130.451L81.7154 130.376ZM79.7675 127.165L78.8992 127.659L78.914 127.685L78.9302 127.71L79.7675 127.165ZM72.8738 116.002L72.0233 116.527L72.0295 116.536L72.8738 116.002ZM72.8737 116.002L73.7243 115.478L73.7181 115.468L72.8737 116.002ZM164.501 64.6112L168.998 71.6107L170.678 70.5287L166.181 63.5293L164.501 64.6112ZM169.242 70.2671L160.55 76.7348L161.742 78.34L170.434 71.8723L169.242 70.2671ZM160.297 78.065L160.298 78.0665L161.996 77.0113L161.995 77.0098L160.297 78.065ZM161.147 77.5389C160.239 77.1217 160.239 77.1217 160.239 77.1217C160.239 77.1219 160.239 77.122 160.239 77.1223C160.239 77.123 160.238 77.124 160.238 77.1254C160.236 77.1283 160.234 77.1327 160.231 77.1388C160.226 77.151 160.217 77.1695 160.206 77.1942C160.183 77.2436 160.148 77.3177 160.102 77.4149C160.01 77.6092 159.873 77.8956 159.695 78.2611C159.338 78.9922 158.815 80.039 158.151 81.2966C156.823 83.8138 154.939 87.1663 152.709 90.5198C150.474 93.8803 147.915 97.2054 145.246 99.6928C142.549 102.205 139.887 103.724 137.438 103.771L137.476 105.77C140.677 105.709 143.802 103.77 146.607 101.157C149.439 98.5181 152.097 95.0488 154.372 91.6282C156.651 88.2008 158.57 84.7856 159.918 82.2306C160.592 80.952 161.126 79.8864 161.49 79.1392C161.672 78.7656 161.813 78.4714 161.908 78.2698C161.956 78.1691 161.992 78.0914 162.017 78.0386C162.029 78.0122 162.038 77.9919 162.045 77.9781C162.048 77.9712 162.05 77.9659 162.052 77.9622C162.053 77.9604 162.054 77.9589 162.054 77.9579C162.054 77.9574 162.055 77.9569 162.055 77.9567C162.055 77.9563 162.055 77.9561 161.147 77.5389ZM137.438 103.771C132.16 103.873 127.456 100.971 124.031 97.836C122.331 96.2798 120.981 94.6978 120.075 93.4736C119.621 92.8603 119.287 92.3483 119.079 91.9841C118.973 91.7991 118.911 91.6718 118.881 91.5994C118.865 91.5612 118.868 91.563 118.876 91.5937C118.879 91.6096 118.888 91.6522 118.892 91.713C118.894 91.7662 118.896 91.8906 118.845 92.0425L116.951 91.4066C116.849 91.7091 116.914 91.9786 116.929 92.0462C116.957 92.1629 116.997 92.2725 117.034 92.3624C117.11 92.5464 117.218 92.7567 117.346 92.9786C117.602 93.4281 117.983 94.0068 118.469 94.6642C119.444 95.9814 120.879 97.6611 122.684 99.3121C126.267 102.592 131.452 105.887 137.476 105.77L137.438 103.771ZM118.845 92.0425C118.805 92.1604 118.759 92.2055 118.834 92.0994C118.881 92.0318 118.955 91.9344 119.058 91.8059C119.262 91.5506 119.549 91.2107 119.898 90.8103C120.593 90.0115 121.503 89.0024 122.412 88.0082C123.319 87.0152 124.221 86.0419 124.895 85.3166C125.232 84.9541 125.513 84.6537 125.708 84.444C125.807 84.3392 125.884 84.257 125.936 84.2011C125.962 84.1732 125.982 84.1518 125.996 84.1374C126.002 84.1303 126.008 84.1248 126.011 84.1212C126.013 84.1194 126.014 84.118 126.015 84.1171C126.015 84.1167 126.016 84.1163 126.016 84.1161C126.016 84.116 126.016 84.1159 126.016 84.1159C126.016 84.1158 126.016 84.1158 125.288 83.4311C124.561 82.7463 124.56 82.7463 124.56 82.7464C124.56 82.7465 124.56 82.7466 124.56 82.7467C124.56 82.7469 124.56 82.7473 124.559 82.7478C124.558 82.7487 124.557 82.7501 124.555 82.752C124.552 82.7557 124.546 82.7613 124.54 82.7686C124.526 82.7831 124.506 82.8048 124.479 82.8329C124.426 82.8893 124.349 82.9719 124.25 83.0773C124.053 83.2881 123.771 83.5897 123.433 83.9537C122.756 84.6815 121.851 85.6594 120.938 86.6582C120.026 87.6558 119.103 88.6793 118.391 89.4967C118.037 89.9043 117.728 90.2685 117.498 90.5559C117.384 90.6987 117.282 90.8324 117.2 90.9484C117.146 91.0259 117.018 91.2071 116.951 91.4066L118.845 92.0425ZM125.288 84.4311H128.982V82.4311H125.288V84.4311ZM127.983 83.4311V83.4346H129.98V83.4311H127.983ZM128.982 83.4346C128.182 84.0332 128.182 84.0334 128.182 84.0336C128.182 84.0337 128.182 84.0339 128.182 84.0341C128.183 84.0345 128.183 84.0351 128.184 84.0357C128.184 84.037 128.186 84.0387 128.187 84.0408C128.19 84.045 128.194 84.0509 128.2 84.0584C128.211 84.0733 128.227 84.0947 128.248 84.1222C128.29 84.177 128.352 84.256 128.431 84.3556C128.588 84.5548 128.817 84.837 129.103 85.1747C129.676 85.8486 130.489 86.7505 131.447 87.6559C132.4 88.5581 133.519 89.4847 134.704 90.1909C135.879 90.8903 137.201 91.4235 138.543 91.4235V89.4235C137.711 89.4235 136.752 89.0832 135.726 88.4721C134.712 87.8679 133.712 87.0473 132.818 86.2022C131.928 85.3604 131.166 84.5151 130.625 83.8786C130.355 83.5611 130.142 83.2973 129.997 83.1143C129.925 83.0228 129.87 82.9516 129.834 82.9041C129.815 82.8803 129.802 82.8625 129.793 82.851C129.789 82.8453 129.786 82.8412 129.784 82.8386C129.783 82.8374 129.782 82.8366 129.782 82.8361C129.782 82.8359 129.782 82.8358 129.782 82.8358V82.8359C129.782 82.836 129.782 82.8361 128.982 83.4346ZM138.543 91.4235C139.281 91.4235 140.063 91.0976 140.79 90.6853C141.546 90.2569 142.373 89.6577 143.232 88.9551C144.952 87.5481 146.892 85.6512 148.784 83.6637C152.575 79.6838 156.257 75.2537 157.747 73.4294L156.201 72.163C154.72 73.9755 151.076 78.3591 147.339 82.2836C145.467 84.2484 143.593 86.0764 141.967 87.4063C141.153 88.0721 140.424 88.5943 139.805 88.9452C139.158 89.3123 138.749 89.4235 138.543 89.4235V91.4235ZM157.827 73.3168C157.862 73.26 159.4 70.7354 160.864 68.5409L159.202 67.4305C157.714 69.6618 156.158 72.2167 156.122 72.2756L157.827 73.3168ZM160.905 68.4741C160.947 68.398 161.521 67.3743 162.245 66.2291C162.998 65.0388 163.82 63.873 164.358 63.3977L163.037 61.8968C162.247 62.5936 161.281 64.0144 160.557 65.1589C159.805 66.3485 159.211 67.4079 159.161 67.4974L160.905 68.4741ZM164.358 63.3977C164.994 62.8372 165.761 62.2819 166.375 61.9339C166.691 61.7541 166.908 61.6634 167.018 61.6344C167.081 61.618 167.027 61.6434 166.909 61.6257C166.753 61.6021 166.466 61.4896 166.316 61.1701L168.123 60.3181C167.916 59.8768 167.518 59.6949 167.207 59.648C166.934 59.6068 166.681 59.655 166.509 59.7006C166.149 59.7956 165.754 59.9867 165.389 60.194C164.639 60.6202 163.76 61.2602 163.037 61.8968L164.358 63.3977ZM166.316 61.1701C166.198 60.9194 166.239 60.7117 166.242 60.6963C166.249 60.6527 166.256 60.6444 166.24 60.6869C166.207 60.7689 166.137 60.9094 166.017 61.1197C165.781 61.5344 165.429 62.0825 165.012 62.7306L166.692 63.813C167.097 63.1828 167.483 62.5828 167.752 62.1111C167.885 61.8782 168.01 61.641 168.096 61.427C168.138 61.3216 168.185 61.1858 168.21 61.0373C168.231 60.9169 168.269 60.6267 168.123 60.3181L166.316 61.1701ZM165.012 62.7306C164.847 62.9873 164.674 63.2572 164.498 63.5337L166.184 64.6069C166.357 64.3357 166.527 64.0704 166.692 63.813L165.012 62.7306ZM71.772 93.3159C71.0136 92.6651 71.0135 92.6652 71.0134 92.6653C71.0133 92.6654 71.0132 92.6655 71.013 92.6657C71.0127 92.6661 71.0123 92.6665 71.0118 92.6671C71.0108 92.6683 71.0094 92.67 71.0075 92.6722C71.0038 92.6766 70.9983 92.6829 70.9914 92.6912C70.9774 92.7077 70.9568 92.7318 70.9303 92.7632C70.8773 92.8259 70.8003 92.9175 70.7029 93.0345C70.508 93.2685 70.2314 93.6043 69.9024 94.0142C69.2452 94.8328 68.3745 95.9521 67.5269 97.1477C66.6839 98.337 65.8432 99.6305 65.2616 100.792C64.9715 101.372 64.7292 101.951 64.5893 102.49C64.4562 103.002 64.3779 103.618 64.58 104.185L66.4618 103.513C66.4646 103.521 66.4516 103.489 66.4552 103.393C66.4589 103.298 66.4778 103.166 66.5228 102.993C66.6137 102.643 66.7898 102.203 67.0476 101.688C67.5619 100.661 68.3347 99.4639 69.1561 98.3052C69.973 97.1528 70.8175 96.0669 71.4595 95.2671C71.7801 94.8678 72.049 94.5413 72.2374 94.3152C72.3314 94.2021 72.4054 94.1143 72.4554 94.055C72.4805 94.0254 72.4996 94.0029 72.5122 93.988C72.5185 93.9806 72.5232 93.9751 72.5263 93.9715C72.5278 93.9697 72.5289 93.9684 72.5296 93.9676C72.5299 93.9672 72.5302 93.9669 72.5303 93.9668C72.5304 93.9667 72.5304 93.9667 72.5304 93.9666C72.5304 93.9666 72.5304 93.9667 71.772 93.3159ZM61.103 84.1415L71.069 94.0263L72.4751 92.6055L62.5092 82.7207L61.103 84.1415ZM52.6646 100.82C52.7728 99.2995 53.4015 97.4987 54.3508 95.6017C55.293 93.7193 56.5138 91.8145 57.7332 90.1022C58.9508 88.3926 60.1551 86.8912 61.0557 85.8167C61.5057 85.2799 61.8788 84.8509 62.1386 84.557C62.2684 84.41 62.3698 84.297 62.4383 84.2212C62.4726 84.1833 62.4986 84.1548 62.5158 84.136C62.5244 84.1266 62.5306 84.1196 62.5347 84.1151C62.5368 84.1129 62.5383 84.1113 62.5392 84.1103C62.5396 84.1098 62.5399 84.1095 62.5401 84.1093C62.5402 84.1092 62.5402 84.1092 62.5402 84.1092C62.5402 84.1092 62.5401 84.1093 61.8061 83.4311C61.0721 82.7529 61.0719 82.753 61.0718 82.7532C61.0717 82.7533 61.0714 82.7536 61.0712 82.7538C61.0708 82.7543 61.0702 82.7549 61.0695 82.7557C61.0681 82.7572 61.066 82.7594 61.0635 82.7622C61.0583 82.7679 61.0508 82.7761 61.0411 82.7867C61.0217 82.8079 60.9935 82.839 60.9569 82.8794C60.8838 82.9604 60.7774 83.0789 60.6424 83.2316C60.3725 83.537 59.9878 83.9794 59.5254 84.5311C58.6014 85.6335 57.3625 87.1774 56.1065 88.9412C54.8524 90.7023 53.5691 92.699 52.5647 94.7058C51.5676 96.6981 50.8073 98.7743 50.6718 100.678L52.6646 100.82ZM73.9055 129.647C72.2812 127.938 66.8098 122.182 61.8058 116.053C59.3018 112.986 56.9339 109.849 55.2259 107.093C54.3716 105.714 53.6963 104.453 53.2512 103.36C52.7978 102.246 52.623 101.401 52.6645 100.821L50.6719 100.678C50.5976 101.714 50.9067 102.9 51.4013 104.115C51.9043 105.35 52.6414 106.716 53.5283 108.147C55.3028 111.011 57.7329 114.225 60.259 117.319C65.3149 123.512 70.8321 129.315 72.4583 131.026L73.9055 129.647ZM73.9244 129.668L72.4394 131.006H72.4395L73.9244 129.668ZM73.8883 129.63L72.4757 131.044L73.8883 129.63ZM73.8456 129.589L72.5183 131.084H72.5184L73.8456 129.589ZM73.9058 129.647H73.9049L72.4592 131.027L72.4601 131.028L73.9058 129.647ZM74.3178 130.082C74.2372 129.996 74.0957 129.847 73.9065 129.648L72.4593 131.027C72.6522 131.23 72.7856 131.37 72.8587 131.449L74.3178 130.082ZM75.6426 132.973C75.385 131.961 74.9857 130.797 74.3178 130.082L72.8587 131.448C73.1469 131.757 73.452 132.466 73.7068 133.467L75.6426 132.973ZM73.2564 139.504C74.7397 136.973 75.3985 134.922 75.6594 133.388L73.69 133.052C73.4738 134.324 72.9075 136.147 71.5333 138.492L73.2564 139.504ZM73.2695 146.973C73.6229 146.969 73.8211 147.167 73.8414 147.187C73.8823 147.227 73.8825 147.241 73.8507 147.186C73.791 147.082 73.7028 146.884 73.6005 146.581C73.4001 145.988 73.1948 145.143 73.049 144.21C72.9035 143.277 72.8231 142.295 72.8558 141.425C72.8896 140.525 73.0408 139.872 73.2566 139.504L71.5331 138.492C71.0649 139.292 70.8972 140.346 70.8594 141.35C70.8206 142.382 70.9159 143.499 71.0753 144.519C71.2345 145.538 71.4634 146.499 71.7081 147.222C71.8285 147.578 71.9657 147.916 72.1193 148.184C72.1942 148.314 72.2981 148.472 72.4379 148.61C72.5571 148.728 72.8492 148.977 73.29 148.972L73.2695 146.973ZM73.6737 143.901C72.6777 143.976 72.6777 143.976 72.6777 143.976C72.6778 143.976 72.6778 143.977 72.6778 143.977C72.678 143.979 72.6781 143.981 72.6784 143.985C72.6789 143.991 72.6796 144.002 72.6806 144.016C72.6825 144.043 72.6853 144.085 72.6885 144.138C72.6952 144.245 72.7041 144.398 72.7126 144.582C72.7298 144.953 72.7452 145.441 72.7399 145.923C72.7344 146.418 72.7073 146.858 72.6534 147.154C72.6246 147.311 72.601 147.353 72.6124 147.331C72.6197 147.317 72.6611 147.24 72.7597 147.157C72.8725 147.063 73.0491 146.975 73.2695 146.973L73.29 148.972C73.9428 148.966 74.2701 148.473 74.382 148.26C74.5105 148.014 74.5776 147.738 74.6186 147.513C74.704 147.045 74.7318 146.467 74.7375 145.945C74.7434 145.411 74.7264 144.882 74.7083 144.49C74.6991 144.293 74.6897 144.129 74.6824 144.013C74.6788 143.955 74.6757 143.909 74.6735 143.878C74.6724 143.862 74.6715 143.849 74.6709 143.841C74.6706 143.836 74.6703 143.833 74.6701 143.83C74.6701 143.829 74.67 143.828 74.6699 143.828C74.6699 143.827 74.6699 143.827 74.6699 143.827L74.6698 143.826C74.6698 143.826 74.6698 143.826 73.6737 143.901ZM75.0456 147.944C75.4514 147.931 75.6193 148.212 75.5728 148.148C75.554 148.122 75.499 148.026 75.4245 147.823C75.2803 147.43 75.1444 146.864 75.0266 146.246C74.911 145.639 74.8209 145.026 74.7595 144.562C74.729 144.33 74.7057 144.138 74.6902 144.004C74.6825 143.937 74.6767 143.885 74.6728 143.85C74.6709 143.832 74.6695 143.819 74.6686 143.81C74.6681 143.806 74.6678 143.803 74.6676 143.801C74.6675 143.8 74.6674 143.799 74.6674 143.799C74.6673 143.798 74.6673 143.798 74.6673 143.798C74.6673 143.798 74.6673 143.798 73.6737 143.901C72.6802 144.004 72.6802 144.004 72.6802 144.004H72.6803C72.6803 144.005 72.6803 144.005 72.6804 144.005C72.6805 144.006 72.6806 144.007 72.6807 144.009C72.681 144.012 72.6815 144.016 72.682 144.021C72.6832 144.032 72.6847 144.047 72.6868 144.066C72.6911 144.106 72.6974 144.162 72.7057 144.234C72.7222 144.377 72.7468 144.58 72.779 144.824C72.8433 145.31 72.939 145.963 73.0642 146.62C73.1874 147.267 73.3474 147.963 73.5492 148.513C73.6477 148.781 73.778 149.077 73.9565 149.323C74.1074 149.531 74.4843 149.964 75.1104 149.943L75.0456 147.944ZM75.49 143.686C74.4951 143.775 74.4951 143.775 74.4951 143.775V143.776C74.4952 143.776 74.4952 143.777 74.4953 143.778C74.4955 143.78 74.4958 143.783 74.4962 143.788C74.497 143.797 74.4982 143.81 74.4997 143.829C74.5027 143.865 74.5072 143.919 74.5126 143.988C74.5233 144.127 74.5379 144.325 74.5526 144.565C74.5821 145.044 74.6122 145.678 74.6156 146.308C74.6191 146.95 74.5944 147.539 74.5281 147.949C74.5122 148.047 74.4954 148.125 74.4794 148.184C74.4629 148.245 74.4515 148.269 74.4519 148.268C74.4527 148.267 74.4598 148.252 74.4754 148.23C74.4909 148.208 74.5192 148.172 74.564 148.132C74.6625 148.044 74.8273 147.952 75.0415 147.944L75.1145 149.943C75.7966 149.918 76.1281 149.389 76.2456 149.149C76.382 148.87 76.4549 148.549 76.5002 148.268C76.5938 147.689 76.617 146.966 76.6133 146.297C76.6096 145.617 76.5774 144.942 76.5465 144.441C76.531 144.19 76.5158 143.98 76.5043 143.833C76.4986 143.759 76.4938 143.701 76.4904 143.661C76.4887 143.641 76.4874 143.625 76.4864 143.614C76.486 143.609 76.4856 143.604 76.4853 143.602C76.4852 143.6 76.4851 143.599 76.485 143.598L76.4849 143.597C76.4849 143.597 76.4849 143.596 75.49 143.686ZM76.8511 147.934C77.0435 147.865 77.2428 147.881 77.3994 147.945C77.5307 147.999 77.5939 148.07 77.5988 148.076C77.6027 148.08 77.5495 148.013 77.4618 147.808C77.2962 147.42 77.1278 146.831 76.9745 146.174C76.8244 145.531 76.7001 144.872 76.6129 144.371C76.5696 144.121 76.5357 143.912 76.5128 143.767C76.5014 143.694 76.4927 143.637 76.4869 143.599C76.484 143.579 76.4819 143.565 76.4805 143.555C76.4798 143.551 76.4792 143.547 76.4789 143.545C76.4788 143.544 76.4786 143.543 76.4786 143.543C76.4785 143.542 76.4785 143.542 76.4785 143.542C76.4785 143.542 76.4785 143.542 75.49 143.686C74.5014 143.83 74.5015 143.83 74.5015 143.83C74.5016 143.83 74.5016 143.831 74.5017 143.831C74.5018 143.832 74.502 143.833 74.5022 143.835C74.5027 143.838 74.5033 143.842 74.5042 143.848C74.5058 143.859 74.5083 143.876 74.5115 143.897C74.5178 143.939 74.5272 144 74.5394 144.078C74.5636 144.232 74.5992 144.452 74.6448 144.714C74.7356 145.236 74.8671 145.935 75.0291 146.629C75.1879 147.31 75.3878 148.039 75.6249 148.594C75.7385 148.86 75.8951 149.171 76.1149 149.415C76.3258 149.649 76.8399 150.063 77.5249 149.817L76.8511 147.934ZM77.7898 143.385C76.7925 143.442 76.7925 143.442 76.7925 143.442C76.7925 143.442 76.7925 143.442 76.7926 143.443C76.7926 143.443 76.7926 143.444 76.7927 143.445C76.7928 143.447 76.793 143.45 76.7932 143.454C76.7937 143.463 76.7944 143.477 76.7953 143.495C76.7972 143.53 76.7998 143.584 76.8029 143.652C76.8091 143.79 76.817 143.987 76.8237 144.225C76.8373 144.703 76.8459 145.339 76.8276 145.979C76.809 146.629 76.7636 147.244 76.6794 147.697C76.6364 147.928 76.5922 148.067 76.5619 148.134C76.5131 148.242 76.5666 148.037 76.8477 147.935L77.5282 149.816C78.0342 149.632 78.2752 149.195 78.3821 148.958C78.5076 148.68 78.5877 148.363 78.6434 148.063C78.7562 147.456 78.8051 146.719 78.8246 146.037C78.8443 145.345 78.8349 144.669 78.8207 144.169C78.8136 143.918 78.8053 143.709 78.7987 143.562C78.7954 143.489 78.7925 143.431 78.7905 143.391C78.7894 143.371 78.7886 143.356 78.788 143.345C78.7877 143.34 78.7875 143.335 78.7873 143.332C78.7872 143.331 78.7872 143.33 78.7871 143.329V143.328H78.787C78.787 143.327 78.787 143.327 77.7898 143.385ZM78.6161 147.984C78.6804 147.886 78.9386 147.569 79.4151 147.599C79.7911 147.622 79.984 147.856 79.9913 147.865C80.0367 147.916 80.0031 147.893 79.9143 147.671C79.7612 147.287 79.5818 146.674 79.4056 145.989C79.2325 145.315 79.0734 144.615 78.957 144.081C78.8989 143.814 78.8518 143.59 78.8193 143.433C78.8031 143.355 78.7905 143.293 78.782 143.252C78.7777 143.231 78.7745 143.215 78.7724 143.204C78.7713 143.199 78.7705 143.195 78.77 143.193C78.7698 143.191 78.7696 143.19 78.7695 143.19C78.7694 143.189 78.7694 143.189 78.7694 143.189C78.7693 143.189 78.7693 143.189 78.7693 143.189C78.7693 143.189 78.7693 143.189 77.7898 143.385C76.8102 143.581 76.8103 143.581 76.8103 143.581C76.8104 143.581 76.8105 143.582 76.8105 143.582C76.8107 143.583 76.8109 143.584 76.8113 143.586C76.8119 143.589 76.8128 143.593 76.814 143.599C76.8163 143.611 76.8198 143.628 76.8243 143.65C76.8332 143.694 76.8464 143.758 76.8632 143.84C76.8968 144.002 76.9454 144.233 77.0051 144.507C77.1242 145.054 77.2893 145.78 77.4709 146.487C77.6492 147.181 77.855 147.901 78.0592 148.413C78.149 148.638 78.2872 148.953 78.4901 149.184C78.5762 149.282 78.8442 149.567 79.2909 149.595C79.8382 149.629 80.1627 149.271 80.2879 149.079L78.6161 147.984ZM78.8863 144.221C78.8584 145.078 78.8282 146.005 78.7677 146.775C78.7374 147.161 78.7011 147.486 78.6583 147.731C78.6063 148.028 78.5682 148.058 78.6161 147.984L80.2879 149.079C80.4904 148.769 80.5767 148.358 80.6261 148.075C80.6848 147.74 80.727 147.344 80.7593 146.932C80.8241 146.107 80.8556 145.131 80.8831 144.286L78.8863 144.221ZM79.0323 141.897C78.9812 142.147 78.9556 142.517 78.937 142.879C78.9173 143.266 78.9022 143.733 78.8863 144.221L80.8831 144.286C80.899 143.792 80.9136 143.345 80.9322 142.981C80.9521 142.592 80.9738 142.375 80.9893 142.299L79.0323 141.897ZM80.4862 138.209C80.1487 139 79.8192 139.772 79.5627 140.402C79.3238 140.989 79.1005 141.565 79.0323 141.897L80.9893 142.299C80.9893 142.299 80.9897 142.297 80.9911 142.291C80.9924 142.286 80.9944 142.278 80.9971 142.268C81.0027 142.248 81.0105 142.222 81.0211 142.188C81.0424 142.121 81.0717 142.036 81.1097 141.932C81.1857 141.724 81.2885 141.462 81.4129 141.156C81.6615 140.545 81.9836 139.79 82.3233 138.994L80.4862 138.209ZM80.4828 138.217H80.4827L82.3268 138.986L80.4828 138.217ZM81.1617 136.617C80.9435 137.137 80.7128 137.678 80.4863 138.209L82.3234 138.994C82.5495 138.465 82.7826 137.918 83.0032 137.392L81.1617 136.617ZM83.8452 138.793C83.6944 138.335 83.5416 137.868 83.3967 137.476C83.2659 137.123 83.0961 136.7 82.8906 136.417L81.2746 137.592C81.2712 137.588 81.2983 137.627 81.3522 137.746C81.4016 137.855 81.4585 137.997 81.523 138.171C81.6525 138.521 81.7934 138.95 81.9476 139.418L83.8452 138.793ZM84.2907 141.037C84.5494 141.041 84.7083 141.16 84.7512 141.195C84.7972 141.233 84.8022 141.251 84.7742 141.209C84.7173 141.126 84.6314 140.963 84.5215 140.702C84.3047 140.19 84.078 139.502 83.8452 138.793L81.9476 139.418C82.172 140.102 82.4259 140.877 82.6808 141.481C82.8064 141.778 82.9532 142.087 83.1231 142.336C83.208 142.46 83.3248 142.61 83.4806 142.738C83.6335 142.864 83.9002 143.032 84.2628 143.037L84.2907 141.037ZM83.5845 138.394C83.6455 139.279 83.7054 140.154 83.6864 140.806C83.6764 141.143 83.6465 141.335 83.6225 141.414C83.6095 141.456 83.6215 141.387 83.7054 141.292C83.8143 141.167 84.021 141.033 84.2907 141.037L84.2628 143.037C84.6733 143.043 84.9989 142.849 85.2077 142.61C85.3905 142.402 85.4824 142.165 85.5343 141.995C85.6382 141.65 85.6722 141.239 85.6832 140.864C85.7052 140.092 85.6362 139.106 85.5773 138.255L83.5845 138.394ZM83.4926 136.753C83.5026 137.227 83.5436 137.814 83.5845 138.394L85.5773 138.255C85.5353 137.659 85.4994 137.127 85.4904 136.712L83.4926 136.753ZM81.7155 130.375C80.8574 130.887 80.8574 130.887 80.8573 130.886C80.8574 130.887 80.8574 130.887 80.8576 130.887C80.8578 130.887 80.8582 130.888 80.8587 130.889C80.8598 130.891 80.8616 130.894 80.8639 130.898C80.8687 130.906 80.8759 130.918 80.8855 130.934C80.9045 130.967 80.933 131.015 80.9695 131.078C81.0424 131.204 81.1472 131.386 81.2732 131.611C81.5259 132.062 81.8621 132.679 82.1982 133.346C82.5357 134.017 82.8657 134.725 83.1111 135.361C83.3698 136.03 83.4876 136.504 83.4926 136.753L85.4904 136.712C85.4774 136.085 85.2397 135.327 84.975 134.639C84.6963 133.919 84.3347 133.146 83.9821 132.447C83.6285 131.744 83.2779 131.1 83.0152 130.632C82.8839 130.398 82.7743 130.207 82.6972 130.074C82.6587 130.008 82.6282 129.956 82.6072 129.92C82.5966 129.902 82.5885 129.888 82.5829 129.878C82.5801 129.874 82.5779 129.87 82.5764 129.867C82.5756 129.866 82.575 129.865 82.5745 129.864C82.5743 129.864 82.5741 129.864 82.574 129.863C82.5739 129.863 82.5739 129.863 82.5738 129.863C82.5738 129.863 82.5737 129.863 81.7155 130.375ZM82.7115 130.451L80.7195 130.299L80.7194 130.3L82.7115 130.451ZM78.9302 127.71C79.5495 128.663 80.2478 129.786 80.8416 130.86L82.5893 129.891C81.9637 128.76 81.2377 127.594 80.605 126.62L78.9302 127.71ZM72.0295 116.536C74.7771 120.888 77.535 125.257 78.8992 127.659L80.6359 126.671C79.2424 124.217 76.4513 119.797 73.7182 115.468L72.0295 116.536ZM72.0233 116.527H72.0234L73.7243 115.478H73.7242L72.0233 116.527ZM64.58 104.185C64.7192 104.576 65.0609 105.214 65.4861 105.957C65.9291 106.731 66.5136 107.705 67.19 108.808C68.5435 111.015 70.282 113.769 72.0294 116.536L73.7181 115.468C71.9684 112.697 70.2377 109.955 68.8926 107.762C68.2198 106.664 67.6476 105.711 67.2196 104.963C66.7737 104.184 66.5299 103.705 66.4618 103.513L64.58 104.185Z" fill="#1C2A47"/>
<path d="M165.22 55.902C157.981 55.902 152.092 47.6444 152.092 37.4908C152.092 27.3372 157.981 19.0796 165.22 19.0796C172.46 19.0796 178.349 27.3372 178.349 37.4908C178.349 47.6408 172.46 55.902 165.22 55.902ZM165.22 20.8895C158.98 20.8895 153.901 28.3372 153.901 37.4872C153.901 46.6409 158.977 54.0849 165.22 54.0849C171.461 54.0849 176.54 46.6373 176.54 37.4872C176.54 28.3372 171.461 20.8895 165.22 20.8895Z" fill="#1C2A47"/>
<path d="M165.797 70.2703V54.9951H163.985V69.5606C163.985 72.2773 163.688 75.0263 162.717 77.5638C162.559 77.9688 162.516 78.4311 162.617 78.9114C162.803 79.7859 163.512 80.492 164.386 80.6748C165.89 80.9902 167.22 79.8504 167.22 78.3989C167.22 78.1588 167.184 77.9258 167.116 77.7072C166.36 75.2844 165.797 72.8078 165.797 70.2703Z" fill="#1C2A47"/>
<path d="M116.595 122.927C116.595 122.927 123.341 131.102 126.382 140.668C129.423 150.234 127.46 170 127.46 170H104.86C104.86 170 104.641 151.736 103.774 151.517C102.904 151.298 97.9066 170 97.9066 170H74.0017C74.0017 170 68.0265 140.213 84.9201 122.927L100.729 123.906L116.595 122.927Z" fill="#3A6B5F"/>
<path d="M116.596 118.687V122.927C116.596 122.927 108.554 130.755 84.9211 122.927L84.8671 118.687L105.623 117.383L116.596 118.687Z" fill="#1C2A47"/>
<path d="M108.56 67.5501C108.56 67.5501 116.935 67.2383 121.183 70.1736C124.225 72.2739 130.934 84.1156 130.934 84.1156L123.229 90.6672C123.229 90.6672 125.067 97.8138 117.891 101.398L116.591 118.684C116.591 118.684 103.118 126.511 84.8622 118.684C84.8622 118.684 81.3843 86.2875 78.1243 89.1117C74.8645 91.9395 72.9086 94.4376 72.9086 94.4376L60.7395 82.3701C60.7395 82.3701 74.0083 69.0733 78.3966 66.9874C88.6988 62.0952 97.0285 66.801 97.0285 66.801L108.56 67.5501Z" fill="#6C8AC5"/>
<path fill-rule="evenodd" clip-rule="evenodd" d="M88.7249 35.6556C89.1374 28.7384 94.7431 23.1186 101.657 22.7136C109.696 22.2405 116.338 28.6488 116.284 36.5767C116.28 36.7489 116.274 36.9178 116.267 37.0898L116.266 37.1107L116.28 37.1071C116.278 37.5341 116.284 38.0528 116.291 38.6438C116.363 44.6122 116.522 57.9648 108.618 58.8551L108.561 67.55C108.561 67.55 105.029 70.876 97.0295 66.8081L97.549 63.3352C98.0644 59.8945 97.1794 56.4251 95.2166 53.5543C94.4594 52.4488 93.7622 51.1832 93.083 49.7643C90.1503 50.4626 87.679 46.755 89.1873 45.2644C89.6798 44.7801 90.2621 44.577 90.8435 44.5334C90.5238 43.7278 90.1972 42.8913 89.8606 42.0244C89.0115 40.0926 88.589 37.9315 88.7249 35.6556Z" fill="#B5C4E2"/>
<path d="M101.657 22.7136L101.715 23.7119H101.716L101.657 22.7136ZM88.7248 35.6556L89.7227 35.7154V35.7151L88.7248 35.6556ZM116.284 36.5767L117.283 36.5967V36.5835L116.284 36.5767ZM116.267 37.0899L115.269 37.0499L116.267 37.0899ZM116.266 37.1107L115.268 37.0707L115.214 38.4042L116.508 38.0809L116.266 37.1107ZM116.28 37.1071L117.279 37.1132L117.287 35.8248L116.038 36.1369L116.28 37.1071ZM116.291 38.6438L115.292 38.6558L116.291 38.6438ZM108.618 58.8551L108.506 57.8614L107.625 57.9606L107.619 58.8485L108.618 58.8551ZM108.561 67.55L109.245 68.2784L109.556 67.9849L109.559 67.5566L108.561 67.55ZM97.0295 66.8081L96.0416 66.66L95.9347 67.3731L96.577 67.6997L97.0295 66.8081ZM97.5489 63.3352L96.561 63.1867V63.1871L97.5489 63.3352ZM95.2165 53.5543L96.0406 52.9894V52.989L95.2165 53.5543ZM93.0829 49.7643L93.9829 49.3316L93.6343 48.6048L92.8512 48.7914L93.0829 49.7643ZM89.1873 45.2644L88.4871 44.5516L88.4861 44.5526L89.1873 45.2644ZM90.8434 44.5334L90.9183 45.5306L92.2738 45.4288L91.7714 44.1641L90.8434 44.5334ZM89.8605 42.0244L90.7915 41.6622L90.7845 41.6418L90.7755 41.6217L89.8605 42.0244ZM101.599 21.7153C94.1787 22.15 88.1704 28.1741 87.7279 35.5961L89.7227 35.7151C90.1043 29.3026 95.3084 24.0872 101.715 23.7119L101.599 21.7153ZM117.283 36.5835C117.341 28.0803 110.217 21.2082 101.598 21.7153L101.716 23.7119C109.176 23.2729 115.335 29.2173 115.285 36.5699L117.283 36.5835ZM117.265 37.13C117.272 36.9595 117.279 36.7806 117.283 36.5967L115.285 36.5567C115.282 36.7173 115.276 36.8763 115.269 37.0499L117.265 37.13ZM117.264 37.1507L117.265 37.1299L115.269 37.0499L115.268 37.0707L117.264 37.1507ZM116.038 36.1369L116.024 36.1405L116.508 38.0809L116.523 38.0774L116.038 36.1369ZM117.29 38.6319C117.283 38.0377 117.277 37.5292 117.279 37.1132L115.281 37.1011C115.279 37.539 115.285 38.0678 115.292 38.6558L117.29 38.6319ZM108.729 59.8488C113.381 59.3249 115.468 55.1245 116.42 50.8725C117.389 46.5446 117.325 41.5976 117.29 38.6319L115.292 38.6558C115.328 41.6585 115.38 46.372 114.471 50.4351C113.544 54.574 111.759 57.495 108.506 57.8614L108.729 59.8488ZM109.559 67.5566L109.616 58.8617L107.619 58.8485L107.562 67.5434L109.559 67.5566ZM96.577 67.6997C100.733 69.8135 103.833 70.0555 105.963 69.6901C107.021 69.5086 107.816 69.1808 108.361 68.8847C108.632 68.7369 108.84 68.5976 108.987 68.4892C109.06 68.435 109.118 68.3885 109.161 68.3525C109.182 68.3345 109.2 68.319 109.214 68.3066C109.221 68.3004 109.227 68.2949 109.232 68.2902C109.235 68.2878 109.237 68.2856 109.239 68.2837C109.24 68.2827 109.241 68.2818 109.242 68.2809C109.243 68.2805 109.243 68.2798 109.244 68.2796C109.244 68.279 109.245 68.2784 108.561 67.55C107.876 66.8216 107.876 66.821 107.877 66.8205C107.877 66.8203 107.878 66.8197 107.878 66.8194C107.879 66.8187 107.879 66.8181 107.88 66.8175C107.881 66.8164 107.882 66.8154 107.883 66.8146C107.885 66.8131 107.886 66.8123 107.886 66.8122C107.886 66.8121 107.883 66.8149 107.877 66.8202C107.864 66.8309 107.838 66.8519 107.799 66.8807C107.722 66.9383 107.591 67.027 107.407 67.1276C107.038 67.328 106.45 67.5774 105.626 67.7189C103.99 67.9995 101.324 67.8706 97.481 65.9165L96.577 67.6997ZM96.561 63.1871L96.0416 66.66L98.0174 66.9562L98.5368 63.4832L96.561 63.1871ZM94.3925 54.1192C96.2234 56.7968 97.0365 60.0138 96.561 63.1867L98.5358 63.4836C99.0922 59.7752 98.1363 56.0534 96.0406 52.9894L94.3925 54.1192ZM92.1819 50.1969C92.8762 51.6447 93.5973 52.9586 94.3925 54.1196L96.0406 52.989C95.3214 51.9389 94.6492 50.7216 93.9829 49.3316L92.1819 50.1969ZM88.4861 44.5526C87.8378 45.1929 87.663 46.0395 87.7559 46.8134C87.8468 47.5747 88.1954 48.3227 88.6809 48.9485C89.6398 50.1846 91.3579 51.203 93.3137 50.7371L92.8512 48.7914C91.8753 49.0239 90.8914 48.5377 90.2591 47.7219C89.9484 47.3218 89.7786 46.907 89.7397 46.5757C89.7007 46.257 89.7826 46.0812 89.8895 45.9762L88.4861 44.5526ZM90.7685 43.5362C89.9974 43.5941 89.1773 43.8717 88.4871 44.5516L89.8885 45.9772C90.1812 45.6886 90.5268 45.56 90.9183 45.5306L90.7685 43.5362ZM88.9296 42.3867C89.2662 43.254 89.5938 44.0935 89.9155 44.9027L91.7714 44.1641C91.4528 43.3622 91.1281 42.5285 90.7915 41.6622L88.9296 42.3867ZM87.7279 35.5958C87.5821 38.0351 88.0356 40.3545 88.9466 42.4272L90.7755 41.6217C89.9884 39.8308 89.5958 37.8279 89.7227 35.7154L87.7279 35.5958Z" fill="#1C2A47"/>
<path d="M113.457 43.4617C113.526 42.7987 113.046 42.2073 112.383 42.1392C111.72 42.0711 111.129 42.5514 111.061 43.2144C110.993 43.8775 111.473 44.4688 112.136 44.5369C112.795 44.605 113.386 44.1248 113.457 43.4617Z" fill="#1C2A47"/>
<path d="M102.088 44.6624C102.156 43.9993 101.676 43.408 101.013 43.3399C100.351 43.2718 99.7594 43.752 99.6915 44.4151C99.6235 45.0781 100.103 45.6695 100.766 45.7376C101.429 45.8057 102.02 45.3254 102.088 44.6624Z" fill="#1C2A47"/>
<path d="M111.623 51.1243C111.623 51.1243 109.968 50.1853 109.363 50.386C108.757 50.5867 108.457 51.3429 108.457 51.3429C108.457 51.3429 108.055 50.619 107.307 50.6441C106.558 50.6691 104.132 52.1995 104.132 52.1995C104.132 52.1995 106.637 55.2675 108.879 54.7478C111.165 54.2174 111.623 51.1243 111.623 51.1243Z" fill="#6C8AC5"/>
<path d="M98.0274 42.4511C97.8845 42.4619 97.7377 42.4117 97.6298 42.3006C97.437 42.1035 97.444 41.7845 97.6408 41.591C97.7017 41.5336 99.1351 40.1824 101.374 40.1108C101.649 40.1036 101.882 40.3186 101.889 40.5946C101.897 40.8706 101.66 41.1071 101.406 41.1107C99.5397 41.168 98.35 42.297 98.336 42.3078C98.2501 42.3938 98.1392 42.4404 98.0274 42.4511Z" fill="#1C2A47"/>
<path d="M110.402 39.5265C110.276 39.4584 110.18 39.3366 110.147 39.1861C110.093 38.9137 110.266 38.652 110.537 38.5947C110.62 38.5768 112.536 38.2004 114.478 39.3581C114.715 39.5014 114.794 39.8061 114.654 40.0426C114.514 40.2792 114.195 40.3544 113.97 40.2183C112.364 39.2613 110.756 39.5731 110.738 39.5731C110.616 39.6018 110.501 39.5803 110.402 39.5265Z" fill="#1C2A47"/>
<path d="M107.475 49.2857C108.896 49.0778 109.377 48.0134 109.427 47.3969C109.434 47.2894 109.402 47.1819 109.334 47.0994C108.065 45.5332 108.212 43.2538 108.216 43.2288C108.234 42.9958 108.058 42.795 107.825 42.7771C107.597 42.7591 107.392 42.9348 107.374 43.1677C107.367 43.2717 107.206 45.6622 108.56 47.4758C108.474 47.8091 108.126 48.5474 106.776 48.4721C106.54 48.4614 106.342 48.637 106.332 48.8699C106.317 49.1029 106.497 49.3 106.73 49.3144C107.001 49.3287 107.249 49.318 107.475 49.2857Z" fill="#1C2A47"/>
<path d="M104.132 52.2033C104.132 52.2033 108.714 51.7911 111.623 51.1245C111.623 51.1245 110.38 53.5186 108.628 53.6154C106.876 53.7086 104.132 52.2033 104.132 52.2033Z" fill="white"/>
<path d="M100.479 36.6628C98.0354 39.5157 95.4383 42.3112 93.6074 45.5763C93.4036 45.9347 91.9672 48.6371 92.3758 48.9525C90.1473 47.2357 88.7319 44.6875 87.5432 42.1428C85.4795 37.7273 86.1238 32.4444 88.7109 28.3872C91.268 24.3767 95.5282 22.3123 100.203 21.961C105.218 21.5847 110.673 23.3051 113.708 27.5091C116.556 31.4552 116.657 36.4227 116.953 41.0819C116.617 35.8492 109.617 31.9032 105.418 30.0287C105.54 30.0825 102.256 34.5267 102.083 34.7417C101.56 35.3905 101.023 36.0284 100.479 36.6628Z" fill="#1C2A47"/>
<path d="M95.8389 99.0179C89.7278 99.0179 87.1766 92.9035 87.1516 92.8426C87.1057 92.7279 87.1586 92.5953 87.2775 92.5487C87.3924 92.4985 87.5242 92.5559 87.5712 92.6741C87.5961 92.7351 90.0324 98.5663 95.8389 98.5663C101.653 98.5663 103.906 94.33 103.928 94.2869C103.985 94.1758 104.122 94.1328 104.232 94.1902C104.343 94.2475 104.386 94.3837 104.329 94.4948C104.311 94.5378 101.94 99.0179 95.8389 99.0179Z" fill="#95E7D4"/>
<path d="M123.233 90.8965C123.122 90.8965 123.021 90.8104 123.007 90.6957C123.004 90.6563 122.477 86.5705 119.318 83.5994C119.229 83.5133 119.221 83.37 119.307 83.2804C119.393 83.1908 119.536 83.1836 119.626 83.2696C122.907 86.3591 123.434 90.47 123.452 90.6456C123.466 90.771 123.38 90.8821 123.255 90.8965C123.251 90.8965 123.24 90.8965 123.233 90.8965Z" fill="#95E7D4"/>
<path d="M103.093 47.9775C103.093 48.7194 102.18 49.3216 101.055 49.3216C99.9302 49.3216 99.0162 48.7194 99.0162 47.9775C99.0162 47.2356 99.9302 46.6335 101.055 46.6335C102.18 46.6335 103.093 47.2356 103.093 47.9775Z" fill="#91A7D3"/>
<path d="M114.725 46.9348C114.725 47.6767 113.811 48.2788 112.686 48.2788C111.561 48.2788 110.647 47.6767 110.647 46.9348C110.647 46.1929 111.561 45.5908 112.686 45.5908C113.811 45.5908 114.725 46.1893 114.725 46.9348Z" fill="#91A7D3"/>
<path d="M167.567 67.5285L167.203 67.1864V67.1865L167.202 67.187L167.201 67.1884L167.2 67.1892L167.192 67.1981L167.159 67.2333C167.13 67.2642 167.086 67.3097 167.031 67.3675C166.921 67.4832 166.763 67.6482 166.572 67.8449C166.189 68.2388 165.675 68.758 165.146 69.2625C164.724 69.6662 164.3 70.0533 163.931 70.3582C164.208 69.871 164.584 69.2869 164.977 68.7031C165.068 68.5687 165.159 68.4347 165.251 68.3025C165.262 68.2877 165.274 68.2729 165.286 68.2581C165.714 67.7151 166.109 67.1636 166.396 66.7494C166.54 66.5419 166.656 66.3679 166.737 66.2455C166.778 66.1843 166.81 66.1359 166.831 66.1027L166.856 66.0643L166.863 66.0542L166.865 66.0515V66.0507V66.0505C166.865 66.0504 166.865 66.0503 166.446 65.7795L167.567 67.5285ZM167.567 67.5285L167.933 67.8687V67.8688L167.932 67.8693L167.93 67.8716L167.922 67.8808L167.888 67.9174C167.858 67.9497 167.815 67.9973 167.759 68.0582C167.648 68.18 167.491 68.3549 167.302 68.5665C166.925 68.9903 166.43 69.5593 165.953 70.1433C165.475 70.7287 165.026 71.3156 164.732 71.7819C164.738 71.7781 164.744 71.7743 164.751 71.7705C165.233 71.4766 165.841 71.0276 166.449 70.5497C167.052 70.0746 167.64 69.5815 168.079 69.2064C168.298 69.019 168.478 68.8616 168.604 68.7511C168.667 68.6959 168.716 68.6524 168.75 68.6229L168.788 68.5893L168.797 68.5808L168.799 68.5787L168.8 68.5783V68.5782L169.133 68.9514L168.8 68.5782L169.47 69.318L169.471 69.319V69.3191L169.47 69.3195L169.468 69.3214L169.459 69.3294L169.425 69.3613C169.395 69.3895 169.35 69.4311 169.294 69.4844C169.182 69.5912 169.02 69.7447 168.829 69.931C168.445 70.3043 167.943 70.8067 167.462 71.3274C166.977 71.8523 166.531 72.3789 166.247 72.8034C166.192 72.8862 166.146 72.9607 166.108 73.0268C166.161 73.0066 166.22 72.982 166.284 72.9526C166.675 72.7731 167.162 72.4678 167.651 72.1263C168.135 71.7881 168.601 71.4284 168.948 71.152C169.121 71.0142 169.264 70.8977 169.362 70.8159C169.411 70.7751 169.45 70.7429 169.476 70.7211C169.816 70.2787 169.943 69.9627 169.981 69.7416C170.017 69.5277 169.977 69.3621 169.898 69.1978C169.856 69.1098 169.804 69.0228 169.74 68.9241C169.727 68.9032 169.712 68.8806 169.697 68.857C169.646 68.7793 169.587 68.6895 169.538 68.6042C169.404 68.3728 169.255 68.0378 169.357 67.6289C169.37 67.5781 169.367 67.4825 169.281 67.3216C169.197 67.1631 169.058 66.9922 168.892 66.8262C168.729 66.6632 168.557 66.5217 168.423 66.4198C168.358 66.3694 168.303 66.3297 168.265 66.3032C168.246 66.2899 168.232 66.28 168.222 66.2737L168.212 66.267L168.211 66.266V66.2659V66.2658L168.21 66.2657L168.005 66.1312L167.986 65.8856C167.976 65.75 167.874 65.6005 167.677 65.4536C167.586 65.3866 167.495 65.3346 167.426 65.2994C167.392 65.282 167.364 65.2694 167.347 65.2616L167.328 65.2538L167.327 65.2535V65.2534V65.2532L167.326 65.2529L167.079 65.1581L167.019 64.8995V64.8992V64.8989V64.8986V64.8984V64.8983L167.017 64.8896C167.015 64.8811 167.011 64.8673 167.006 64.8491C166.996 64.8127 166.981 64.7597 166.959 64.697C166.916 64.5682 166.853 64.415 166.774 64.2843C166.689 64.1448 166.618 64.0851 166.582 64.0676C166.571 64.0621 166.566 64.062 166.561 64.0624C166.553 64.0629 166.521 64.0668 166.46 64.1025L166.458 64.1037C166.408 64.133 166.289 64.23 166.103 64.4256C165.927 64.6101 165.718 64.8522 165.491 65.1356C165.037 65.7021 164.524 66.4149 164.071 67.1212C163.615 67.8326 163.235 68.5147 163.033 69.0242C162.998 69.1115 162.97 69.1886 162.949 69.256C163.043 69.1921 163.153 69.1058 163.276 68.9958C163.64 68.6717 164.05 68.2053 164.448 67.7064C164.809 67.1833 165.16 66.69 165.442 66.3019C165.622 66.0543 165.772 65.849 165.878 65.7054C165.931 65.6336 165.973 65.5773 166.002 65.5388L166.035 65.4947L166.043 65.4832L166.045 65.4803L166.046 65.4795V65.4793C166.046 65.4792 166.046 65.4792 166.446 65.7795L167.567 67.5285ZM167.567 67.5285L167.203 67.1864L167.933 67.8687L167.567 67.5285ZM166.446 65.7795L166.046 65.4792L166.865 66.0503L166.446 65.7795ZM162.887 69.5694C162.887 69.5694 162.887 69.5689 162.887 69.5678V69.5694ZM165.798 73.1039C165.798 73.1038 165.8 73.1038 165.803 73.1044C165.8 73.1043 165.798 73.104 165.798 73.1039ZM165.977 73.327C165.977 73.3333 165.976 73.337 165.976 73.3372C165.976 73.3374 165.976 73.3342 165.977 73.327Z" fill="#91A7D3" stroke="#1C2A47"/>
<path d="M105.443 128.163C103.244 128.163 101.457 126.375 101.457 124.174C101.457 121.974 103.244 120.185 105.443 120.185C107.643 120.185 109.431 121.974 109.431 124.174C109.427 126.371 107.64 128.163 105.443 128.163ZM105.443 121.995C104.243 121.995 103.269 122.974 103.269 124.171C103.269 125.371 104.246 126.346 105.443 126.346C106.644 126.346 107.618 125.371 107.618 124.171C107.618 122.974 106.64 121.995 105.443 121.995Z" fill="#7BE1C9"/>
<path d="M74.258 28.3454L76.5432 24.8204L74.258 19.2017L71.9727 24.8204L74.258 28.3454Z" fill="white"/>
<path d="M123.602 11.8867L121.333 15.4258L123.65 21.0304L125.904 15.3975L123.602 11.8867Z" fill="white"/>
<path d="M140.055 49.376L137.788 52.9137L140.104 58.5196L142.358 52.8889L140.055 49.376Z" fill="white"/>
<path d="M45.9024 33.8315L43.6362 37.3693L45.9508 42.9752L48.2066 37.3445L45.9024 33.8315Z" fill="white"/>
<mask id="mask0_10_1634" style="mask-type:alpha" maskUnits="userSpaceOnUse" x="88" y="22" width="29" height="47">
<path fill-rule="evenodd" clip-rule="evenodd" d="M88.7249 35.6556C89.1374 28.7384 94.7431 23.1186 101.657 22.7136C109.696 22.2405 116.338 28.6488 116.284 36.5767C116.28 36.7489 116.274 36.9178 116.267 37.0898L116.266 37.1107L116.28 37.1071C116.278 37.5341 116.284 38.0528 116.291 38.6438C116.363 44.6122 116.522 57.9648 108.618 58.8551L108.561 67.55C108.561 67.55 105.029 70.876 97.0295 66.8081L97.549 63.3352C98.0644 59.8945 97.1794 56.4251 95.2166 53.5543C94.4594 52.4488 93.7622 51.1832 93.083 49.7643C90.1503 50.4626 87.679 46.755 89.1873 45.2644C89.6798 44.7801 90.2621 44.577 90.8435 44.5334C90.5238 43.7278 90.1972 42.8913 89.8606 42.0244C89.0115 40.0926 88.589 37.9315 88.7249 35.6556Z" fill="white"/>
</mask>
<g mask="url(#mask0_10_1634)">
</g>
<mask id="mask1_10_1634" style="mask-type:alpha" maskUnits="userSpaceOnUse" x="51" y="60" width="119" height="89">
<path fill-rule="evenodd" clip-rule="evenodd" d="M165.341 64.0703L169.838 71.0697L161.146 77.5374L161.147 77.5389C161.147 77.5389 148.76 104.555 137.457 104.77C126.155 104.989 117.679 92.3768 117.898 91.7245C118.116 91.0722 125.288 83.4311 125.288 83.4311H128.982V83.4346C128.982 83.4346 134.197 90.4235 138.543 90.4235C142.323 90.4235 154.003 76.4331 156.974 72.7962C157.01 72.7383 158.558 70.1986 160.033 67.9857C160.126 67.8202 162.368 63.8194 163.698 62.6472C165.056 61.4501 166.99 60.2567 167.22 60.7441C167.329 60.9757 166.674 61.9935 165.852 63.2718C165.688 63.5289 165.515 63.7964 165.341 64.0703ZM65.521 103.849C64.7079 101.566 71.7721 93.3159 71.7721 93.3159L61.8061 83.4311C61.8061 83.4311 52.1555 93.9001 51.6683 100.749C51.2048 107.217 69.9318 126.917 73.1821 130.337L73.183 130.338C73.3741 130.539 73.5115 130.683 73.5883 130.765C74.0664 131.277 74.4186 132.214 74.6748 133.22C74.4362 134.623 73.8237 136.56 72.395 138.998C71.0265 141.335 72.5813 147.98 73.2798 147.972C73.9784 147.965 73.6738 143.901 73.6738 143.901C73.6738 143.901 74.1968 148.972 75.0782 148.944C75.9594 148.911 75.4901 143.686 75.4901 143.686C75.4901 143.686 76.2889 149.198 77.1881 148.876C78.0873 148.549 77.7899 143.385 77.7899 143.385C77.7899 143.385 78.9649 149.277 79.4521 148.532C79.7612 148.059 79.8294 145.956 79.8848 144.253C79.9166 143.272 79.9441 142.424 80.0109 142.098C80.1014 141.656 80.7277 140.189 81.4049 138.602L81.405 138.601C81.6312 138.071 81.8631 137.528 82.0827 137.005C82.3077 137.314 82.5918 138.179 82.8964 139.106C83.3539 140.498 83.8573 142.031 84.2768 142.037C84.8392 142.045 84.7014 140.061 84.5805 138.324C84.5395 137.736 84.5006 137.177 84.4916 136.733C84.4556 134.98 81.7156 130.375 81.7156 130.375L81.7155 130.376C81.1058 129.273 80.3937 128.129 79.7676 127.165C78.3888 124.737 75.6143 120.343 72.8739 116.002H72.8738H72.8736L72.8734 116.001C69.3766 110.463 65.9353 105.012 65.521 103.849Z" fill="white"/>
</mask>
<g mask="url(#mask1_10_1634)">
</g>
</svg>
