<svg width="600" height="485" viewBox="0 0 600 485" fill="none" xmlns="http://www.w3.org/2000/svg">
<path d="M178.811 482.598H404.479C402.969 460.81 424.899 446.91 444.862 438.004C469.965 426.806 495.571 415.585 516.542 397.817C537.515 380.04 553.546 354.358 552.975 326.879C552.341 296.637 532.401 270.342 525.412 240.916C517.135 206.064 527.504 169.916 532.995 134.512C538.483 99.1095 537.412 58.5452 512.072 33.2091C491.213 12.3405 459.035 7.45488 429.593 9.55601C400.152 11.6571 371.219 19.5721 341.706 19.7353C307.447 19.9291 274.108 9.70902 240.348 3.85438C206.589 -2.00024 169.901 -2.99981 140.164 14.0133C107.099 32.9338 88.464 74.1302 96.0871 111.441C101.394 137.42 117.926 160.736 119.263 187.225C120.376 209.276 110.722 230.431 99.3323 249.351C80.7081 280.307 56.6439 308.56 44.7244 342.667C32.8047 376.777 36.8969 420.369 66.3901 441.259C97.8529 463.523 154.971 452.325 178.811 482.598Z" fill="#ECF0F7"/>
<path d="M443.301 134.461L484.435 59.9988L490.311 65.0936L447.61 143.475L443.301 134.461Z" fill="white"/>
<path d="M228.743 447.136C228.836 447.116 228.928 447.085 229.01 447.045C229.716 446.728 230.043 445.901 229.716 445.185C146.77 259.742 76.3734 130.344 31.5029 80.8241C30.51 79.7197 29.7834 78.9323 29.4968 78.5235C29.0465 77.8893 28.166 77.7361 27.5316 78.1757C26.8969 78.6256 26.7433 79.4946 27.1837 80.1388C27.5724 80.6912 28.2685 81.458 29.4046 82.7156C74.0911 132.021 144.314 261.163 227.147 446.349C227.433 446.962 228.109 447.282 228.743 447.136Z" fill="#7BE1C9"/>
<path d="M3.81668 74.29C9.08791 79.8216 33.1095 88.1143 34.6858 86.611C36.262 85.1081 29.1283 60.7417 23.8571 55.2099C18.5861 49.6783 9.8248 49.4737 4.29785 54.7397C-1.23937 60.0156 -1.45427 68.7685 3.81668 74.29Z" fill="#7BE1C9"/>
<path d="M49.7933 87.2449C48.5242 94.9544 56.5178 119.669 58.7284 120.026C60.9291 120.394 76.4557 99.5556 77.7351 91.8461C79.0043 84.1363 73.7844 76.8562 66.0773 75.5881C58.36 74.3202 51.0727 79.5351 49.7933 87.2449Z" fill="#7BE1C9"/>
<path d="M28.5954 134.996C36.3944 134.505 58.6968 121.141 58.5535 118.922C58.4103 116.693 34.6032 106.274 26.794 106.765C18.9947 107.255 13.0685 113.983 13.56 121.775C14.0614 129.577 20.7962 135.487 28.5954 134.996Z" fill="#7BE1C9"/>
<path d="M132.605 206.571C129.084 219.199 137.968 261.889 141.571 262.891C145.184 263.893 174.866 231.94 178.386 219.312C181.907 206.684 174.507 193.596 161.867 190.078C149.227 186.561 136.126 193.943 132.605 206.571Z" fill="#7BE1C9"/>
<path d="M88.5819 282.431C101.693 283.014 141.323 264.762 141.487 261.02C141.651 257.278 103.801 235.58 90.6903 234.997C77.5791 234.414 66.4741 244.558 65.8907 257.656C65.3074 270.754 75.4708 281.849 88.5819 282.431Z" fill="#7BE1C9"/>
<path d="M172.662 250.468C165.058 264.599 164.147 317.943 168.179 320.112C172.212 322.28 216.274 292.124 223.879 277.994C231.484 263.863 226.192 246.245 212.047 238.648C197.902 231.04 180.267 236.337 172.662 250.468Z" fill="#7BE1C9"/>
<path d="M108.633 350.561C124.661 349.62 170.607 322.411 170.341 317.841C170.075 313.27 121.264 291.614 105.235 292.555C89.2072 293.494 76.966 307.236 77.9076 323.261C78.8388 339.283 92.5948 351.503 108.633 350.561Z" fill="#7BE1C9"/>
<path d="M201.72 310.674C194.115 324.805 193.204 378.149 197.237 380.317C201.27 382.483 245.331 352.33 252.937 338.199C260.54 324.069 255.249 306.449 241.105 298.854C226.96 291.257 209.325 296.552 201.72 310.674Z" fill="#7BE1C9"/>
<path d="M137.691 410.775C153.719 409.837 199.665 382.628 199.398 378.058C199.132 373.484 150.321 351.828 134.293 352.769C118.265 353.711 106.024 367.453 106.965 383.475C107.897 399.498 121.653 411.717 137.691 410.775Z" fill="#7BE1C9"/>
<path d="M257.84 383.824C245.414 393.997 224.238 442.965 227.145 446.514C230.052 450.052 282.281 438.937 294.707 428.763C307.134 418.589 308.943 400.285 298.771 387.883C288.577 375.47 270.255 373.65 257.84 383.824Z" fill="#7BE1C9"/>
<path d="M164.242 470.624C180.27 471.696 229.245 450.439 229.552 445.869C229.859 441.298 184.139 413.722 168.121 412.646C152.093 411.573 138.234 423.69 137.17 439.692C136.095 455.706 148.214 469.551 164.242 470.624Z" fill="#7BE1C9"/>
<path d="M75.3807 124.423C74.091 132.256 82.2176 157.358 84.459 157.726C86.7005 158.095 102.473 136.929 103.773 129.096C105.063 121.264 99.7607 113.871 91.9204 112.583C84.0803 111.294 76.6803 116.591 75.3807 124.423Z" fill="#7BE1C9"/>
<path d="M54.9301 173.289C62.8624 172.788 85.5127 159.219 85.3694 156.959C85.2261 154.7 61.0304 144.107 53.0982 144.608C45.1659 145.109 39.1475 151.939 39.6595 159.863C40.161 167.778 46.9979 173.79 54.9301 173.289Z" fill="#7BE1C9"/>
<path d="M103.496 158.391C100.753 169.332 109.33 205.825 112.462 206.613C115.584 207.4 140.393 179.26 143.137 168.33C145.88 157.389 139.237 146.305 128.285 143.565C117.344 140.814 106.239 147.461 103.496 158.391Z" fill="#7BE1C9"/>
<path d="M69.372 228.515C80.6308 227.799 112.82 208.525 112.615 205.314C112.411 202.103 78.0411 187.052 66.7723 187.768C55.5138 188.484 46.9571 198.187 47.6738 209.435C48.4004 220.682 58.1135 229.231 69.372 228.515Z" fill="#7BE1C9"/>
<path d="M438.101 411.962C438.058 411.942 438.018 411.911 437.975 411.882C437.67 411.637 437.619 411.186 437.864 410.869C502.469 330.009 553.726 275.182 582.179 256.491C582.813 256.071 583.264 255.775 583.458 255.611C583.766 255.356 584.217 255.386 584.471 255.693C584.728 256 584.697 256.45 584.391 256.705C584.123 256.93 583.695 257.217 582.967 257.697C554.636 276.307 503.49 331.021 438.98 411.768C438.775 412.033 438.398 412.116 438.101 411.962Z" fill="#7BE1C9"/>
<path d="M596.671 256.817C593.367 258.872 580.458 259.895 579.876 258.954C579.294 258.013 585.926 246.909 589.231 244.854C592.536 242.799 596.888 243.811 598.935 247.113C600.992 250.416 599.979 254.762 596.671 256.817Z" fill="#7BE1C9"/>
<path d="M572.345 257.329C571.985 261.296 564.882 272.452 563.746 272.35C562.61 272.247 557.616 259.998 557.975 256.03C558.332 252.063 561.834 249.149 565.804 249.507C569.776 249.865 572.702 253.372 572.345 257.329Z" fill="#7BE1C9"/>
<path d="M576.694 283.576C572.907 282.339 563.626 272.901 563.974 271.828C564.331 270.744 577.402 268.648 581.189 269.885C584.976 271.122 587.031 275.192 585.795 278.975C584.557 282.758 580.481 284.824 576.694 283.576Z" fill="#7BE1C9"/>
<path d="M516.256 305.613C516.379 312.288 506.541 332.208 504.638 332.236C502.734 332.268 492.183 312.728 492.06 306.052C491.938 299.373 497.26 293.864 503.941 293.739C510.625 293.616 516.142 298.934 516.256 305.613Z" fill="#7BE1C9"/>
<path d="M528.271 348.629C521.73 347.249 504.526 333.189 504.923 331.318C505.323 329.458 526.756 323.586 533.297 324.967C539.835 326.348 544.014 332.77 542.621 339.303C541.24 345.836 534.81 350.007 528.271 348.629Z" fill="#7BE1C9"/>
<path d="M490.893 322.134C492.837 330.071 486.47 356.492 484.198 357.043C481.926 357.596 464.066 337.103 462.123 329.169C460.176 321.235 465.039 313.219 472.982 311.276C480.933 309.344 488.947 314.2 490.893 322.134Z" fill="#7BE1C9"/>
<path d="M509.672 379.661C501.884 377.156 482.714 357.881 483.43 355.653C484.147 353.433 510.982 348.986 518.762 351.491C526.551 353.995 530.817 362.34 528.312 370.112C525.803 377.903 517.461 382.177 509.672 379.661Z" fill="#7BE1C9"/>
<path d="M468.867 348.116C470.813 356.053 464.446 382.474 462.174 383.024C459.899 383.578 442.04 363.085 440.096 355.151C438.152 347.217 443.013 339.2 450.955 337.257C458.898 335.315 466.923 340.182 468.867 348.116Z" fill="#7BE1C9"/>
<path d="M487.648 405.643C479.857 403.138 460.687 383.863 461.404 381.635C462.12 379.416 488.958 374.968 496.735 377.473C504.524 379.978 508.793 388.323 506.285 396.094C503.779 403.885 495.437 408.159 487.648 405.643Z" fill="#7BE1C9"/>
<path d="M431.856 377.025C436.677 383.618 440.863 410.47 438.98 411.851C437.096 413.231 412.758 401.084 407.938 394.479C403.117 387.883 404.558 378.619 411.163 373.804C417.764 368.985 427.025 370.429 431.856 377.025Z" fill="#7BE1C9"/>
<path d="M466.903 431.767C458.869 430.255 437.428 413.528 437.867 411.226C438.298 408.935 464.366 401.163 472.4 402.687C480.436 404.202 485.728 411.942 484.201 419.978C482.697 428.007 474.948 433.282 466.903 431.767Z" fill="#7BE1C9"/>
<path d="M554.976 272.401C554.619 276.429 547.393 287.768 546.246 287.668C545.101 287.565 540.024 275.11 540.381 271.092C540.74 267.063 544.302 264.098 548.335 264.456C552.367 264.813 555.344 268.372 554.976 272.401Z" fill="#7BE1C9"/>
<path d="M558.814 299.108C554.967 297.85 545.529 288.27 545.888 287.177C546.245 286.081 559.53 283.945 563.38 285.202C567.227 286.461 569.316 290.6 568.058 294.435C566.796 298.269 562.664 300.366 558.814 299.108Z" fill="#7BE1C9"/>
<path d="M536.764 285.559C536.724 291.305 527.82 308.209 526.182 308.189C524.544 308.177 515.905 291.142 515.948 285.397C515.988 279.65 520.685 275.038 526.439 275.079C532.189 275.13 536.816 279.824 536.764 285.559Z" fill="#7BE1C9"/>
<path d="M544.627 324.488C539.162 322.699 525.754 309.088 526.265 307.524C526.776 305.969 545.649 302.934 551.114 304.723C556.582 306.512 559.55 312.391 557.758 317.841C555.977 323.312 550.092 326.277 544.627 324.488Z" fill="#7BE1C9"/>
<path d="M358.339 448.793C358.339 448.793 295.435 341.522 495.99 265.294C495.99 265.304 492.103 486.064 358.339 448.793Z" fill="#95E7D4"/>
<path d="M496.247 264.956L352.874 434.109C343.653 402.362 340.202 324.263 496.247 264.956Z" fill="#7BE1C9"/>
<path d="M358.924 427.607C358.779 427.607 358.627 427.556 358.505 427.453C358.228 427.219 358.196 426.82 358.43 426.543L495.756 264.537C495.99 264.261 496.401 264.231 496.667 264.466C496.944 264.701 496.975 265.1 496.738 265.376L359.415 427.382C359.292 427.536 359.107 427.607 358.924 427.607Z" fill="#1C2A47"/>
<path d="M424.562 350.173C424.242 350.173 423.968 349.936 423.926 349.611C423.874 349.252 424.131 348.935 424.479 348.884L482.982 341.052C483.33 340.989 483.659 341.246 483.71 341.603C483.761 341.962 483.505 342.279 483.156 342.33L424.653 350.162C424.613 350.173 424.582 350.173 424.562 350.173Z" fill="#1C2A47"/>
<path d="M395.146 384.876C395.106 384.876 395.055 384.876 395.015 384.867C394.667 384.793 394.441 384.457 394.513 384.1L406.068 327.369C406.14 327.024 406.488 326.799 406.836 326.87C407.184 326.941 407.41 327.278 407.338 327.637L395.783 384.365C395.72 384.671 395.443 384.876 395.146 384.876Z" fill="#1C2A47"/>
<path d="M342.505 455.714C342.505 455.714 355.474 367.136 502.54 414.466C502.54 414.458 400.906 536.789 342.505 455.714Z" fill="#7BE1C9"/>
<path d="M502.54 414.458L342.505 455.706C342.505 455.714 386.231 541.482 502.54 414.458Z" fill="#3A6B5F"/>
<path d="M460.813 441.513C460.793 441.513 460.773 441.513 460.741 441.501L423.375 433.895C423.086 433.832 422.904 433.558 422.964 433.282C423.027 432.996 423.303 432.822 423.577 432.874L460.947 440.48C461.232 440.543 461.418 440.816 461.355 441.093C461.315 441.358 461.081 441.532 460.813 441.513Z" fill="#7BE1C9"/>
<path d="M407.775 466.789C407.732 466.789 407.692 466.778 407.661 466.769L359.463 451.8C359.187 451.717 359.035 451.42 359.115 451.144C359.198 450.867 359.495 450.716 359.772 450.796L407.969 465.765C408.246 465.848 408.397 466.145 408.317 466.421C408.246 466.667 408.02 466.809 407.775 466.789Z" fill="#7BE1C9"/>
<path d="M203.204 450.89C203.204 450.89 262.364 349.999 73.7405 278.31C73.7508 278.31 77.4046 485.941 203.204 450.89Z" fill="#7BE1C9"/>
<path d="M73.5037 277.983L208.351 437.077C217.02 407.218 220.265 333.76 73.5037 277.983Z" fill="#95E7D4"/>
<path d="M202.662 431.002C202.478 431.002 202.294 430.919 202.171 430.777L73.0141 278.402C72.7889 278.126 72.8195 277.717 73.0857 277.492C73.362 277.267 73.7613 277.298 73.9964 277.564L203.153 429.938C203.378 430.215 203.348 430.623 203.082 430.848C202.959 430.951 202.805 431.002 202.662 431.002Z" fill="#1C2A47"/>
<path d="M140.935 358.178C140.904 358.178 140.873 358.178 140.843 358.17L85.8189 350.806C85.4605 350.755 85.215 350.438 85.2661 350.082C85.3172 349.722 85.6448 349.468 85.9927 349.528L141.017 356.892C141.375 356.94 141.621 357.26 141.57 357.616C141.528 357.944 141.252 358.178 140.935 358.178Z" fill="#1C2A47"/>
<path d="M168.6 390.816C168.303 390.816 168.027 390.602 167.965 390.296L157.095 336.941C157.024 336.593 157.249 336.245 157.597 336.173C157.935 336.102 158.293 336.327 158.365 336.675L169.234 390.028C169.306 390.376 169.081 390.724 168.733 390.796C168.682 390.816 168.641 390.816 168.6 390.816Z" fill="#1C2A47"/>
<path d="M218.099 457.392C218.099 457.392 205.899 374.078 67.5815 418.598C67.5918 418.598 163.177 533.651 218.099 457.392Z" fill="#3A6B5F"/>
<path d="M67.5916 418.598L218.109 457.392C218.099 457.392 176.984 538.068 67.5916 418.598Z" fill="#95E7D4"/>
<path d="M106.834 444.049C106.855 444.049 106.875 444.049 106.895 444.038L142.043 436.883C142.309 436.831 142.483 436.563 142.432 436.298C142.38 436.032 142.114 435.87 141.848 435.91L106.701 443.068C106.435 443.119 106.261 443.385 106.312 443.65C106.363 443.895 106.588 444.061 106.834 444.049Z" fill="#3A6B5F"/>
<path d="M156.711 467.823C156.751 467.823 156.782 467.811 156.823 467.803L202.155 453.721C202.41 453.641 202.553 453.364 202.482 453.107C202.4 452.853 202.124 452.699 201.868 452.782L156.537 466.861C156.281 466.944 156.137 467.218 156.209 467.475C156.281 467.7 156.496 467.831 156.711 467.823Z" fill="#3A6B5F"/>
<path d="M260.857 73.8912C259.578 74.975 258.36 76.1304 257.215 77.3575C247.777 87.3881 248.391 104.832 235.301 111.601C225.936 116.448 214.708 112.368 204.197 111.611C196.438 111.049 188.383 112.47 181.843 116.683C175.313 120.896 170.523 128.125 170.298 135.886C170.073 143.514 174.034 150.671 174.679 158.268C175.262 165.191 172.928 172.318 168.343 177.553C163.451 183.146 156.44 186.377 150.657 191.05C144.874 195.723 140.074 203.197 142.325 210.283C144.741 217.881 153.983 221.357 157.269 228.617C160.8 236.429 156.337 245.253 153.113 253.188C149.889 261.122 148.784 272.094 156.102 276.552C159.346 278.535 163.41 278.546 167.197 278.198C169.694 277.963 172.355 277.615 174.607 278.73C175.968 279.405 177.033 280.54 177.984 281.716C183.696 288.729 187.421 298.392 195.947 301.431C200.348 302.994 205.189 302.392 209.815 301.736C219.488 300.366 229.662 298.629 237.175 292.381C250.194 281.542 250.694 261.204 261.973 248.566C270.96 238.494 285.198 235.059 298.634 233.75C312.074 232.441 325.952 232.656 338.544 227.779C346.076 224.864 352.914 220.151 358.316 214.159C361.869 210.212 364.909 205.447 365.237 200.15C365.942 188.708 354.326 180.13 352.023 168.902C350.16 159.802 353.587 150.988 353.721 141.929C353.844 133.053 349.729 124.331 346.218 116.325C339.106 100.139 327.602 76.4169 311.614 67.48C295.769 58.6251 274.367 62.3981 260.857 73.8912Z" fill="#1C2A47"/>
<path fill-rule="evenodd" clip-rule="evenodd" d="M472.403 182.789L485.251 202.758L460.416 221.21L460.419 221.214C460.419 221.214 425.027 298.29 392.735 298.903C360.442 299.528 336.227 263.546 336.852 261.685C337.474 259.824 357.965 238.024 357.965 238.024H368.519V238.034C368.519 238.034 383.42 257.973 395.837 257.973C406.636 257.973 440.007 218.059 448.498 207.683C448.601 207.518 453.021 200.272 457.237 193.959C457.502 193.487 463.909 182.073 467.708 178.729C471.589 175.314 477.114 171.909 477.771 173.299C478.082 173.96 476.213 176.864 473.864 180.511C473.393 181.244 472.899 182.007 472.403 182.789ZM187.203 296.275C184.88 289.762 205.063 266.225 205.063 266.225L176.589 238.024C176.589 238.024 149.016 267.891 147.624 287.431C146.299 305.884 199.805 362.087 209.092 371.844L209.094 371.847C209.64 372.42 210.033 372.831 210.252 373.065C211.618 374.526 212.624 377.199 213.357 380.069C212.675 384.072 210.925 389.598 206.843 396.553C202.933 403.221 207.375 422.178 209.371 422.156C211.367 422.136 210.497 410.541 210.497 410.541C210.497 410.541 211.991 425.009 214.509 424.929C217.027 424.835 215.686 409.928 215.686 409.928C215.686 409.928 217.968 425.653 220.537 424.735C223.106 423.802 222.257 409.069 222.257 409.069C222.257 409.069 225.614 425.879 227.006 423.753C227.889 422.404 228.084 416.404 228.242 411.546C228.333 408.747 228.412 406.328 228.603 405.398C228.861 404.137 230.651 399.951 232.585 395.424L232.586 395.421C233.232 393.909 233.895 392.36 234.522 390.867C235.165 391.749 235.977 394.217 236.847 396.862C238.154 400.833 239.592 405.206 240.791 405.223C242.398 405.246 242.004 399.586 241.658 394.631C241.541 392.953 241.43 391.358 241.404 390.091C241.302 385.09 233.473 371.952 233.473 371.952L233.473 371.955C231.731 368.809 229.696 365.545 227.907 362.795C223.968 355.868 216.041 343.332 208.211 330.947H208.211H208.21L208.21 330.944C198.219 315.145 188.387 299.593 187.203 296.275Z" fill="#B5C4E2"/>
<path d="M472.402 182.789L469.994 181.258L469.015 182.797L470.002 184.332L472.402 182.789ZM485.251 202.758L486.955 205.047L489.095 203.457L487.651 201.214L485.251 202.758ZM460.416 221.21L458.715 218.92L456.606 220.485L457.993 222.715L460.416 221.21ZM460.419 221.214L463.013 222.404L463.652 221.011L462.845 219.709L460.419 221.214ZM392.735 298.903L392.68 296.053L392.735 298.903ZM336.852 261.685L334.146 260.778L336.852 261.685ZM357.965 238.024V235.171H356.732L355.887 236.07L357.965 238.024ZM368.519 238.024H371.373V235.171H368.519V238.024ZM368.519 238.034H365.665V238.982L366.233 239.742L368.519 238.034ZM448.498 207.683L450.707 209.49L450.832 209.337L450.935 209.168L448.498 207.683ZM457.237 193.959L459.611 195.543L459.671 195.45L459.728 195.353L457.237 193.959ZM467.708 178.729L469.594 180.87L467.708 178.729ZM477.771 173.299L480.351 172.084L477.771 173.299ZM473.864 180.511L476.264 182.055L473.864 180.511ZM205.063 266.225L207.23 268.081L208.958 266.066L207.072 264.198L205.063 266.225ZM187.203 296.275L189.891 295.317L187.203 296.275ZM176.589 238.024L178.598 235.997L176.497 233.917L174.492 236.089L176.589 238.024ZM147.624 287.431L150.47 287.637L150.47 287.634L147.624 287.431ZM209.091 371.844L211.213 369.935L211.186 369.904L211.159 369.875L209.091 371.844ZM209.091 371.844L206.97 373.753L207.02 373.807L207.073 373.861L209.091 371.844ZM209.091 371.844L207.073 373.861L207.133 373.921L207.195 373.975L209.091 371.844ZM209.091 371.844L211.157 369.875L211.076 369.79L210.988 369.71L209.091 371.844ZM209.094 371.847L211.161 369.878L211.159 369.875L209.094 371.847ZM210.252 373.065L212.337 371.116L210.252 373.065ZM213.356 380.069L216.17 380.548L216.271 379.949L216.122 379.364L213.356 380.069ZM206.843 396.553L204.381 395.11H204.38L206.843 396.553ZM209.371 422.156L209.4 425.009L209.371 422.156ZM210.496 410.541L213.335 410.247L207.651 410.755L210.496 410.541ZM214.509 424.929L214.601 427.779H214.613L214.509 424.929ZM215.686 409.928L218.51 409.517L212.843 410.182L215.686 409.928ZM220.537 424.735L221.5 427.419L221.509 427.416L220.537 424.735ZM222.257 409.069L225.055 408.51L219.407 409.232L222.257 409.069ZM227.006 423.753L229.394 425.314L227.006 423.753ZM228.242 411.546L231.094 411.64L228.242 411.546ZM228.602 405.397L225.807 404.824L228.602 405.397ZM232.585 395.424L235.21 396.542L235.22 396.519L232.585 395.424ZM232.585 395.421L229.961 394.302L229.951 394.325L232.585 395.421ZM234.522 390.867L236.83 389.19L233.853 385.093L231.891 389.76L234.522 390.867ZM236.847 396.861L239.558 395.968L236.847 396.861ZM240.791 405.223L240.831 402.37L240.791 405.223ZM241.658 394.63L244.507 394.434L241.658 394.63ZM241.404 390.091L244.258 390.031L241.404 390.091ZM233.473 371.952L235.925 370.492L231.311 362.749L230.627 371.736L233.473 371.952ZM233.473 371.955L230.976 373.336L235.595 381.678L236.319 372.169L233.473 371.955ZM227.907 362.794L225.426 364.204L225.469 364.278L225.515 364.349L227.907 362.794ZM208.211 330.947L205.781 332.445L205.799 332.471L208.211 330.947ZM208.211 330.947L210.641 329.452L210.623 329.424L208.211 330.947ZM470.002 184.332L482.851 204.301L487.651 201.214L474.803 181.245L470.002 184.332ZM483.55 200.468L458.715 218.92L462.12 223.499L486.955 205.047L483.55 200.468ZM457.993 222.715L457.996 222.719L462.845 219.709L462.842 219.704L457.993 222.715ZM460.419 221.214C457.824 220.024 457.825 220.024 457.825 220.024C457.825 220.024 457.825 220.024 457.825 220.025C457.825 220.027 457.822 220.03 457.822 220.034C457.816 220.042 457.81 220.055 457.802 220.072C457.787 220.107 457.762 220.16 457.73 220.23C457.665 220.371 457.565 220.583 457.434 220.86C457.171 221.414 456.78 222.231 456.272 223.274C455.25 225.36 453.758 228.346 451.86 231.934C448.067 239.116 442.684 248.68 436.311 258.248C429.924 267.835 422.615 277.321 414.99 284.418C407.284 291.585 399.678 295.919 392.68 296.053L392.789 301.756C401.936 301.582 410.863 296.05 418.877 288.595C426.968 281.066 434.562 271.169 441.063 261.41C447.573 251.632 453.058 241.888 456.908 234.599C458.835 230.951 460.359 227.911 461.4 225.779C461.92 224.714 462.322 223.874 462.593 223.299C462.73 223.012 462.833 222.79 462.905 222.639C462.939 222.564 462.964 222.506 462.984 222.467C462.993 222.447 462.999 222.432 463.004 222.421C463.007 222.416 463.01 222.412 463.01 222.409C463.01 222.408 463.013 222.406 463.013 222.406C463.013 222.405 463.013 222.404 460.419 221.214ZM392.68 296.053C377.6 296.344 364.161 288.065 354.375 279.12C349.517 274.681 345.659 270.167 343.07 266.675C341.775 264.925 340.821 263.464 340.225 262.425C339.922 261.897 339.745 261.534 339.66 261.328C339.614 261.219 339.623 261.224 339.646 261.311C339.654 261.357 339.68 261.478 339.691 261.652C339.697 261.803 339.703 262.158 339.557 262.592L334.146 260.778C333.855 261.641 334.04 262.409 334.083 262.602C334.163 262.935 334.277 263.248 334.383 263.504C334.6 264.029 334.908 264.629 335.273 265.262C336.007 266.545 337.094 268.196 338.484 270.071C341.269 273.829 345.368 278.621 350.525 283.331C360.762 292.689 375.577 302.09 392.789 301.756L392.68 296.053ZM339.557 262.592C339.443 262.928 339.312 263.057 339.526 262.754C339.66 262.561 339.871 262.283 340.165 261.917C340.747 261.188 341.569 260.219 342.565 259.076C344.552 256.797 347.151 253.919 349.749 251.082C352.34 248.249 354.917 245.472 356.843 243.403C357.805 242.369 358.607 241.512 359.167 240.914C359.449 240.615 359.669 240.38 359.817 240.221C359.891 240.141 359.949 240.08 359.988 240.039C360.006 240.019 360.023 240.003 360.031 239.993C360.037 239.988 360.04 239.984 360.043 239.981C360.043 239.98 360.046 239.979 360.046 239.978C360.046 239.978 360.046 239.978 360.046 239.978C360.046 239.977 360.046 239.977 357.965 238.024C355.887 236.07 355.885 236.07 355.885 236.071C355.885 236.071 355.885 236.071 355.885 236.071C355.885 236.072 355.885 236.073 355.882 236.075C355.879 236.077 355.876 236.081 355.87 236.087C355.862 236.097 355.845 236.113 355.827 236.134C355.787 236.175 355.73 236.237 355.653 236.317C355.502 236.478 355.282 236.714 355 237.015C354.438 237.616 353.633 238.476 352.665 239.515C350.73 241.591 348.145 244.381 345.536 247.231C342.93 250.077 340.293 252.997 338.261 255.329C337.248 256.492 336.366 257.531 335.71 258.351C335.382 258.758 335.091 259.139 334.857 259.47C334.703 259.691 334.337 260.208 334.146 260.778L339.557 262.592ZM357.965 240.877H368.519V235.171H357.965V240.877ZM365.665 238.024V238.034H371.373V238.024H365.665ZM368.519 238.034C366.233 239.742 366.233 239.742 366.233 239.743C366.233 239.743 366.233 239.744 366.233 239.744C366.236 239.745 366.236 239.747 366.239 239.749C366.239 239.753 366.244 239.757 366.247 239.763C366.259 239.775 366.27 239.792 366.287 239.814C366.319 239.856 366.364 239.917 366.424 239.996C366.544 240.152 366.721 240.377 366.946 240.661C367.394 241.23 368.048 242.035 368.867 242.998C370.502 244.921 372.826 247.494 375.562 250.077C378.285 252.651 381.482 255.295 384.869 257.309C388.225 259.305 392.004 260.826 395.837 260.826V255.12C393.46 255.12 390.72 254.149 387.789 252.406C384.892 250.682 382.035 248.341 379.481 245.93C376.938 243.528 374.761 241.117 373.214 239.301C372.443 238.395 371.835 237.642 371.421 237.12C371.213 236.859 371.056 236.656 370.953 236.52C370.899 236.453 370.862 236.402 370.836 236.369C370.825 236.353 370.816 236.341 370.811 236.334C370.808 236.33 370.805 236.328 370.805 236.326C370.805 236.326 370.805 236.326 370.805 236.326V236.326C370.805 236.326 370.805 236.326 368.519 238.034ZM395.837 260.826C397.946 260.826 400.181 259.896 402.258 258.72C404.416 257.498 406.779 255.788 409.233 253.784C414.148 249.77 419.69 244.358 425.098 238.688C435.929 227.333 446.449 214.694 450.707 209.49L446.289 205.877C442.056 211.048 431.645 223.554 420.969 234.75C415.62 240.356 410.266 245.571 405.62 249.365C403.294 251.264 401.211 252.754 399.444 253.755C397.595 254.803 396.425 255.12 395.837 255.12V260.826ZM450.935 209.168C451.035 209.006 455.43 201.804 459.611 195.543L454.862 192.375C450.613 198.741 446.166 206.03 446.063 206.198L450.935 209.168ZM459.728 195.353C459.848 195.135 461.489 192.215 463.558 188.948C465.71 185.552 468.056 182.226 469.594 180.87L465.821 176.588C463.564 178.576 460.804 182.629 458.735 185.894C456.586 189.288 454.888 192.311 454.745 192.566L459.728 195.353ZM469.594 180.87C471.412 179.271 473.604 177.687 475.356 176.694C476.261 176.181 476.88 175.922 477.194 175.839C477.374 175.792 477.22 175.865 476.883 175.814C476.438 175.747 475.616 175.426 475.188 174.515L480.351 172.084C479.76 170.825 478.624 170.306 477.734 170.172C476.954 170.055 476.232 170.192 475.739 170.322C474.711 170.593 473.584 171.138 472.539 171.73C470.396 172.946 467.885 174.772 465.821 176.588L469.594 180.87ZM475.188 174.515C474.851 173.799 474.968 173.207 474.977 173.163C474.997 173.039 475.017 173.015 474.971 173.136C474.877 173.37 474.677 173.771 474.335 174.371C473.661 175.554 472.654 177.118 471.463 178.967L476.264 182.055C477.42 180.257 478.524 178.545 479.292 177.199C479.671 176.535 480.028 175.858 480.274 175.248C480.393 174.947 480.528 174.559 480.599 174.136C480.659 173.792 480.767 172.964 480.351 172.084L475.188 174.515ZM471.463 178.967C470.993 179.699 470.496 180.469 469.994 181.258L474.811 184.32C475.305 183.546 475.79 182.789 476.264 182.055L471.463 178.967ZM205.063 266.225C202.896 264.368 202.896 264.368 202.896 264.369C202.895 264.369 202.895 264.369 202.894 264.37C202.894 264.371 202.892 264.372 202.891 264.374C202.888 264.377 202.884 264.382 202.879 264.388C202.868 264.401 202.852 264.419 202.832 264.442C202.793 264.49 202.734 264.558 202.658 264.648C202.507 264.827 202.287 265.088 202.008 265.422C201.451 266.089 200.661 267.047 199.721 268.217C197.843 270.552 195.356 273.746 192.934 277.157C190.525 280.55 188.124 284.24 186.462 287.554C185.633 289.209 184.941 290.86 184.541 292.398C184.161 293.859 183.937 295.616 184.514 297.234L189.891 295.317C189.899 295.34 189.862 295.248 189.872 294.974C189.883 294.703 189.937 294.327 190.065 293.833C190.325 292.835 190.828 291.579 191.565 290.11C193.034 287.18 195.242 283.765 197.589 280.459C199.923 277.171 202.336 274.073 204.17 271.791C205.086 270.652 205.854 269.721 206.392 269.076C206.661 268.753 206.873 268.502 207.015 268.333C207.087 268.249 207.142 268.185 207.178 268.142C207.196 268.121 207.209 268.105 207.218 268.095C207.222 268.09 207.226 268.086 207.228 268.084C207.228 268.083 207.229 268.082 207.23 268.082C207.23 268.081 207.23 268.081 207.23 268.081C207.23 268.081 207.23 268.081 205.063 266.225ZM174.58 240.051L203.054 268.251L207.072 264.198L178.598 235.997L174.58 240.051ZM150.47 287.634C150.779 283.296 152.576 278.158 155.288 272.746C157.98 267.376 161.468 261.941 164.952 257.056C168.431 252.179 171.872 247.895 174.445 244.83C175.731 243.298 176.797 242.075 177.539 241.236C177.91 240.817 178.2 240.494 178.395 240.278C178.493 240.17 178.567 240.089 178.616 240.035C178.641 240.008 178.659 239.988 178.671 239.975C178.677 239.969 178.681 239.965 178.684 239.962C178.685 239.96 178.686 239.959 178.686 239.959C178.686 239.959 178.686 239.959 178.686 239.959C178.686 239.959 178.686 239.959 176.589 238.024C174.492 236.089 174.491 236.089 174.491 236.09C174.491 236.09 174.49 236.091 174.489 236.092C174.488 236.093 174.486 236.095 174.484 236.097C174.48 236.101 174.474 236.108 174.467 236.116C174.452 236.132 174.431 236.155 174.403 236.186C174.348 236.246 174.267 236.335 174.163 236.45C173.954 236.681 173.65 237.019 173.264 237.455C172.493 238.326 171.394 239.588 170.073 241.162C167.432 244.307 163.893 248.712 160.304 253.744C156.721 258.768 153.055 264.465 150.185 270.19C147.336 275.874 145.164 281.797 144.777 287.229L150.47 287.634ZM211.159 369.875C206.518 365 190.885 348.578 176.588 331.093C169.434 322.343 162.668 313.393 157.788 305.53C155.347 301.596 153.418 297.998 152.146 294.88C150.851 291.702 150.351 289.291 150.47 287.637L144.777 287.229C144.565 290.184 145.448 293.568 146.861 297.034C148.298 300.558 150.404 304.455 152.938 308.537C158.008 316.708 164.951 325.877 172.169 334.704C186.614 352.373 202.378 368.928 207.024 373.81L211.159 369.875ZM211.213 369.935L206.97 373.753H206.97L211.213 369.935ZM211.109 369.827L207.073 373.861L211.109 369.827ZM210.988 369.71L207.195 373.975H207.196L210.988 369.71ZM211.159 369.875H211.157L207.026 373.812L207.029 373.815L211.159 369.875ZM212.337 371.116C212.106 370.871 211.702 370.446 211.161 369.878L207.027 373.812C207.578 374.392 207.959 374.791 208.168 375.016L212.337 371.116ZM216.122 379.364C215.386 376.477 214.245 373.156 212.337 371.116L208.168 375.014C208.991 375.895 209.863 377.918 210.591 380.774L216.122 379.364ZM209.304 397.997C213.542 390.776 215.424 384.925 216.17 380.548L210.543 379.59C209.925 383.219 208.307 388.42 204.381 395.11L209.304 397.997ZM209.341 419.306C210.351 419.294 210.917 419.859 210.975 419.916C211.092 420.03 211.093 420.07 211.002 419.913C210.832 419.616 210.579 419.052 210.287 418.187C209.714 416.495 209.128 414.085 208.712 411.423C208.296 408.761 208.066 405.959 208.159 403.477C208.256 400.91 208.688 399.047 209.305 397.997L204.38 395.11C203.043 397.392 202.563 400.399 202.455 403.263C202.345 406.208 202.617 409.394 203.072 412.304C203.527 415.212 204.181 417.953 204.88 420.016C205.224 421.032 205.616 421.996 206.055 422.76C206.269 423.131 206.566 423.582 206.966 423.976C207.306 424.312 208.141 425.023 209.4 425.009L209.341 419.306ZM210.496 410.541C207.651 410.755 207.651 410.755 207.651 410.755C207.651 410.755 207.651 410.758 207.651 410.758C207.651 410.764 207.652 410.77 207.652 410.781C207.654 410.798 207.656 410.829 207.659 410.869C207.664 410.946 207.672 411.066 207.682 411.217C207.701 411.523 207.726 411.959 207.75 412.484C207.799 413.543 207.843 414.935 207.828 416.31C207.813 417.722 207.735 418.977 207.581 419.822C207.499 420.27 207.432 420.39 207.464 420.327C207.485 420.287 207.603 420.067 207.885 419.83C208.207 419.562 208.712 419.311 209.341 419.306L209.4 425.009C211.265 424.991 212.2 423.585 212.52 422.977C212.887 422.275 213.079 421.488 213.196 420.846C213.44 419.511 213.519 417.862 213.536 416.373C213.553 414.849 213.504 413.34 213.452 412.222C213.426 411.66 213.399 411.192 213.378 410.861C213.368 410.695 213.359 410.564 213.353 410.476C213.35 410.43 213.347 410.393 213.346 410.37C213.345 410.356 213.344 410.347 213.343 410.339C213.343 410.336 213.343 410.333 213.343 410.333C213.343 410.33 213.343 410.33 213.343 410.33L213.342 410.327C213.342 410.327 213.342 410.327 210.496 410.541ZM214.416 422.076C215.575 422.039 216.055 422.84 215.922 422.658C215.869 422.584 215.711 422.31 215.499 421.73C215.087 420.609 214.698 418.995 214.362 417.231C214.031 415.5 213.774 413.751 213.599 412.427C213.511 411.765 213.445 411.217 213.401 410.835C213.379 410.644 213.362 410.496 213.351 410.396C213.346 410.344 213.342 410.307 213.339 410.282C213.338 410.27 213.337 410.262 213.336 410.256C213.336 410.253 213.336 410.25 213.336 410.25C213.335 410.247 213.335 410.247 213.335 410.247C213.335 410.247 213.335 410.247 210.496 410.541C207.658 410.835 207.658 410.835 207.658 410.835H207.658C207.658 410.838 207.658 410.838 207.658 410.838C207.658 410.841 207.659 410.844 207.659 410.849C207.66 410.858 207.661 410.869 207.663 410.884C207.666 410.915 207.671 410.958 207.677 411.012C207.689 411.126 207.707 411.286 207.731 411.491C207.778 411.899 207.848 412.478 207.94 413.175C208.124 414.561 208.397 416.424 208.755 418.298C209.107 420.144 209.564 422.13 210.141 423.699C210.422 424.464 210.794 425.308 211.304 426.01C211.735 426.603 212.812 427.839 214.601 427.779L214.416 422.076ZM215.686 409.928C212.843 410.182 212.843 410.182 212.843 410.182V410.185C212.844 410.185 212.844 410.188 212.844 410.19C212.844 410.196 212.845 410.205 212.846 410.219C212.849 410.245 212.852 410.282 212.856 410.336C212.865 410.439 212.878 410.593 212.893 410.789C212.924 411.186 212.965 411.751 213.007 412.436C213.092 413.802 213.178 415.611 213.187 417.408C213.197 419.24 213.127 420.92 212.937 422.09C212.892 422.37 212.844 422.592 212.798 422.76C212.751 422.934 212.719 423.003 212.72 423C212.722 422.997 212.742 422.954 212.787 422.892C212.831 422.829 212.912 422.726 213.04 422.612C213.322 422.361 213.792 422.099 214.404 422.076L214.613 427.779C216.562 427.707 217.509 426.198 217.844 425.514C218.234 424.718 218.443 423.802 218.572 423C218.839 421.348 218.906 419.286 218.895 417.377C218.885 415.437 218.793 413.511 218.704 412.082C218.66 411.366 218.616 410.767 218.584 410.347C218.567 410.136 218.554 409.971 218.544 409.857C218.539 409.799 218.535 409.754 218.533 409.722C218.531 409.708 218.53 409.694 218.529 409.688C218.529 409.683 218.529 409.68 218.529 409.677L218.528 409.674C218.528 409.674 218.528 409.671 215.686 409.928ZM219.575 422.047C220.124 421.85 220.694 421.896 221.141 422.079C221.516 422.233 221.697 422.435 221.711 422.452C221.722 422.464 221.57 422.273 221.319 421.688C220.846 420.581 220.365 418.9 219.927 417.026C219.498 415.192 219.143 413.311 218.894 411.882C218.77 411.169 218.674 410.573 218.608 410.159C218.575 409.951 218.551 409.788 218.534 409.68C218.526 409.623 218.52 409.583 218.516 409.554C218.514 409.543 218.512 409.531 218.511 409.526C218.511 409.523 218.51 409.52 218.51 409.52C218.51 409.517 218.51 409.517 218.51 409.517C218.51 409.517 218.51 409.517 215.686 409.928C212.861 410.339 212.862 410.339 212.862 410.339C212.862 410.339 212.862 410.342 212.862 410.342C212.862 410.344 212.863 410.347 212.864 410.353C212.865 410.362 212.867 410.373 212.869 410.39C212.874 410.421 212.881 410.47 212.89 410.53C212.908 410.65 212.935 410.824 212.97 411.046C213.039 411.486 213.141 412.113 213.271 412.861C213.53 414.35 213.906 416.344 214.369 418.324C214.823 420.267 215.394 422.347 216.071 423.93C216.396 424.689 216.843 425.576 217.471 426.272C218.074 426.94 219.543 428.121 221.5 427.419L219.575 422.047ZM222.257 409.069C219.407 409.232 219.407 409.232 219.407 409.232C219.407 409.232 219.407 409.232 219.408 409.235C219.408 409.235 219.408 409.237 219.408 409.24C219.408 409.246 219.409 409.255 219.409 409.266C219.411 409.292 219.413 409.332 219.415 409.383C219.421 409.483 219.428 409.637 219.437 409.831C219.455 410.225 219.477 410.787 219.496 411.466C219.535 412.829 219.56 414.644 219.507 416.47C219.454 418.324 219.325 420.079 219.084 421.371C218.961 422.03 218.835 422.427 218.748 422.618C218.609 422.926 218.762 422.341 219.565 422.05L221.509 427.416C222.955 426.891 223.643 425.645 223.949 424.969C224.308 424.175 224.536 423.271 224.695 422.415C225.018 420.683 225.157 418.581 225.213 416.635C225.27 414.661 225.242 412.732 225.202 411.306C225.182 410.59 225.158 409.993 225.139 409.574C225.13 409.366 225.121 409.2 225.116 409.086C225.113 409.029 225.11 408.986 225.109 408.955C225.108 408.941 225.107 408.926 225.107 408.918C225.106 408.915 225.106 408.912 225.106 408.909V408.907H225.106C225.106 408.904 225.106 408.904 222.257 409.069ZM224.617 422.19C224.801 421.91 225.539 421.006 226.9 421.091C227.975 421.157 228.526 421.825 228.547 421.85C228.676 421.996 228.58 421.93 228.327 421.297C227.889 420.201 227.377 418.452 226.873 416.498C226.379 414.575 225.924 412.578 225.592 411.055C225.425 410.293 225.291 409.654 225.198 409.206C225.152 408.984 225.116 408.807 225.092 408.69C225.079 408.63 225.07 408.584 225.064 408.553C225.061 408.538 225.059 408.527 225.057 408.521C225.057 408.516 225.056 408.513 225.056 408.513C225.056 408.51 225.056 408.51 225.056 408.51C225.055 408.51 225.055 408.51 225.055 408.51C225.055 408.51 225.055 408.51 222.257 409.069C219.458 409.628 219.458 409.628 219.458 409.628C219.458 409.628 219.459 409.631 219.459 409.631C219.459 409.634 219.46 409.637 219.461 409.643C219.463 409.651 219.465 409.663 219.469 409.68C219.475 409.714 219.485 409.762 219.498 409.825C219.523 409.951 219.561 410.133 219.609 410.367C219.705 410.829 219.844 411.488 220.015 412.27C220.355 413.831 220.827 415.902 221.345 417.919C221.855 419.899 222.443 421.953 223.026 423.414C223.283 424.056 223.678 424.954 224.258 425.613C224.504 425.893 225.269 426.706 226.546 426.786C228.109 426.883 229.036 425.862 229.394 425.314L224.617 422.19ZM225.389 411.454C225.31 413.899 225.223 416.544 225.051 418.741C224.964 419.842 224.86 420.769 224.738 421.468C224.59 422.315 224.48 422.401 224.617 422.19L229.394 425.314C229.973 424.429 230.219 423.257 230.36 422.449C230.528 421.494 230.649 420.364 230.741 419.189C230.926 416.835 231.016 414.05 231.094 411.64L225.389 411.454ZM225.807 404.824C225.661 405.537 225.588 406.593 225.534 407.626C225.478 408.73 225.435 410.062 225.389 411.454L231.094 411.64C231.14 410.23 231.182 408.955 231.235 407.917C231.292 406.807 231.354 406.188 231.398 405.971L225.807 404.824ZM229.961 394.302C228.996 396.559 228.055 398.761 227.322 400.559C226.639 402.233 226.001 403.877 225.807 404.824L231.398 405.971C231.398 405.971 231.399 405.965 231.403 405.948C231.407 405.934 231.413 405.911 231.42 405.882C231.436 405.825 231.459 405.751 231.489 405.654C231.55 405.463 231.634 405.221 231.742 404.924C231.959 404.33 232.253 403.583 232.608 402.71C233.319 400.967 234.239 398.813 235.21 396.542L229.961 394.302ZM229.951 394.325H229.951L235.22 396.519L229.951 394.325ZM231.891 389.76C231.267 391.244 230.608 392.787 229.961 394.302L235.21 396.542C235.856 395.033 236.522 393.472 237.152 391.971L231.891 389.76ZM239.558 395.968C239.127 394.662 238.69 393.329 238.276 392.211C237.903 391.204 237.417 389.997 236.83 389.19L232.213 392.542C232.204 392.531 232.281 392.642 232.435 392.981C232.576 393.292 232.739 393.698 232.923 394.194C233.293 395.192 233.696 396.416 234.136 397.752L239.558 395.968ZM240.831 402.37C241.57 402.382 242.024 402.721 242.146 402.821C242.278 402.93 242.292 402.981 242.212 402.861C242.049 402.624 241.804 402.159 241.49 401.415C240.871 399.954 240.223 397.991 239.558 395.968L234.136 397.752C234.777 399.703 235.503 401.914 236.231 403.637C236.59 404.484 237.009 405.366 237.494 406.076C237.737 406.43 238.071 406.858 238.516 407.223C238.953 407.583 239.715 408.062 240.751 408.076L240.831 402.37ZM238.813 394.83C238.987 397.355 239.158 399.851 239.104 401.711C239.076 402.673 238.99 403.221 238.921 403.446C238.884 403.566 238.919 403.369 239.158 403.098C239.469 402.741 240.06 402.359 240.831 402.37L240.751 408.076C241.924 408.093 242.854 407.54 243.451 406.858C243.973 406.265 244.235 405.589 244.384 405.104C244.681 404.119 244.778 402.947 244.809 401.877C244.872 399.674 244.675 396.861 244.507 394.434L238.813 394.83ZM238.55 390.148C238.579 391.501 238.696 393.175 238.813 394.83L244.507 394.434C244.387 392.733 244.284 391.215 244.258 390.031L238.55 390.148ZM233.473 371.952C231.021 373.413 231.021 373.413 231.021 373.41C231.021 373.413 231.021 373.413 231.022 373.413C231.022 373.413 231.023 373.416 231.025 373.419C231.028 373.425 231.033 373.433 231.04 373.444C231.053 373.467 231.074 373.502 231.101 373.547C231.156 373.641 231.237 373.778 231.341 373.958C231.55 374.317 231.849 374.837 232.209 375.479C232.931 376.765 233.892 378.526 234.852 380.428C235.816 382.343 236.759 384.363 237.46 386.177C238.199 388.086 238.536 389.438 238.55 390.148L244.258 390.031C244.221 388.243 243.542 386.08 242.786 384.117C241.989 382.063 240.956 379.858 239.949 377.864C238.939 375.858 237.937 374.021 237.186 372.686C236.811 372.018 236.498 371.473 236.278 371.094C236.168 370.905 236.081 370.757 236.021 370.654C235.99 370.603 235.967 370.563 235.951 370.534C235.943 370.523 235.937 370.512 235.932 370.503C235.93 370.5 235.928 370.497 235.927 370.495C235.926 370.495 235.926 370.495 235.926 370.492C235.925 370.492 235.925 370.492 235.925 370.492C235.925 370.492 235.925 370.492 233.473 371.952ZM236.319 372.169L230.627 371.736L230.627 371.738L236.319 372.169ZM225.515 364.349C227.284 367.068 229.279 370.272 230.976 373.336L235.97 370.572C234.182 367.345 232.108 364.018 230.3 361.24L225.515 364.349ZM205.799 332.471C213.649 344.887 221.529 357.351 225.426 364.204L230.388 361.385C226.407 354.384 218.432 341.774 210.623 329.424L205.799 332.471ZM205.781 332.445H205.781L210.641 329.452H210.641L205.781 332.445ZM184.514 297.234C184.912 298.349 185.888 300.17 187.103 302.289C188.369 304.497 190.039 307.276 191.972 310.423C195.839 316.719 200.806 324.576 205.798 332.471L210.623 329.424C205.624 321.518 200.679 313.695 196.836 307.439C194.914 304.306 193.279 301.587 192.056 299.453C190.782 297.231 190.085 295.864 189.891 295.317L184.514 297.234Z" fill="#1C2A47"/>
<path d="M472.057 159.485C451.375 159.485 434.548 135.927 434.548 106.959C434.548 77.9914 451.375 54.433 472.057 54.433C492.743 54.433 509.569 77.9914 509.569 106.959C509.569 135.916 492.743 159.485 472.057 159.485ZM472.057 59.5965C454.229 59.5965 439.716 80.8444 439.716 106.949C439.716 133.064 454.22 154.301 472.057 154.301C489.889 154.301 504.401 133.053 504.401 106.949C504.401 80.8444 489.889 59.5965 472.057 59.5965Z" fill="#1C2A47"/>
<path d="M473.707 200.477V156.898H468.53V198.452C468.53 206.203 467.679 214.046 464.905 221.285C464.454 222.44 464.332 223.759 464.62 225.13C465.151 227.625 467.177 229.639 469.674 230.16C473.972 231.06 477.771 227.809 477.771 223.667C477.771 222.983 477.668 222.318 477.474 221.694C475.314 214.782 473.707 207.716 473.707 200.477Z" fill="#1C2A47"/>
<path d="M333.127 350.703C333.127 350.703 352.403 374.026 361.09 401.318C369.781 428.609 364.173 485 364.173 485H299.599C299.599 485 298.974 432.894 296.497 432.269C294.011 431.644 279.733 485 279.733 485H211.433C211.433 485 194.361 400.019 242.629 350.703L287.798 353.497L333.127 350.703Z" fill="#3A6B5F"/>
<path d="M333.13 338.607V350.704C333.13 350.704 310.153 373.036 242.632 350.704L242.477 338.607L301.779 334.887L333.13 338.607Z" fill="#1C2A47"/>
<path d="M310.17 192.716C310.17 192.716 334.1 191.827 346.238 200.201C354.929 206.193 374.098 239.977 374.098 239.977L352.083 258.668C352.083 258.668 357.334 279.057 336.832 289.283L333.116 338.598C333.116 338.598 294.622 360.928 242.463 338.598C242.463 338.598 232.526 246.173 223.212 254.23C213.898 262.298 208.31 269.425 208.31 269.425L173.541 234.997C173.541 234.997 211.452 197.062 223.99 191.111C253.425 177.154 277.224 190.579 277.224 190.579L310.17 192.716Z" fill="#6C8AC5"/>
<path fill-rule="evenodd" clip-rule="evenodd" d="M253.499 101.723C254.678 81.9889 270.695 65.9559 290.45 64.8005C313.418 63.4507 332.394 81.7332 332.24 104.351C332.228 104.842 332.211 105.324 332.191 105.815L332.188 105.875L332.228 105.864C332.223 107.082 332.24 108.562 332.26 110.248C332.465 127.276 332.919 165.37 310.336 167.91L310.173 192.716C310.173 192.716 300.082 202.205 277.227 190.599L278.711 180.691C280.184 170.875 277.655 160.977 272.047 152.787C269.884 149.633 267.892 146.023 265.951 141.975C257.572 143.967 250.511 133.389 254.821 129.137C256.228 127.755 257.892 127.175 259.553 127.051C258.639 124.753 257.706 122.366 256.744 119.893C254.319 114.382 253.111 108.216 253.499 101.723Z" fill="#B5C4E2"/>
<path d="M290.449 64.8006L290.615 67.6487H290.618L290.449 64.8006ZM253.499 101.723L256.351 101.894V101.893L253.499 101.723ZM332.24 104.351L335.094 104.408V104.371L332.24 104.351ZM332.191 105.815L329.34 105.701L332.191 105.815ZM332.188 105.875L329.337 105.761L329.183 109.565L332.879 108.643L332.188 105.875ZM332.228 105.864L335.082 105.882L335.105 102.206L331.538 103.097L332.228 105.864ZM332.26 110.249L329.406 110.283L332.26 110.249ZM310.336 167.91L310.016 165.075L307.499 165.358L307.482 167.891L310.336 167.91ZM310.173 192.716L312.128 194.794L313.018 193.957L313.027 192.735L310.173 192.716ZM277.227 190.6L274.405 190.177L274.099 192.212L275.934 193.143L277.227 190.6ZM278.711 180.692L275.889 180.268V180.269L278.711 180.692ZM272.047 152.787L274.402 151.176V151.175L272.047 152.787ZM265.951 141.975L268.523 140.74L267.527 138.667L265.289 139.199L265.951 141.975ZM254.821 129.137L252.82 127.103L252.817 127.106L254.821 129.137ZM259.553 127.051L259.767 129.896L263.64 129.606L262.204 125.998L259.553 127.051ZM256.744 119.893L259.404 118.86L259.384 118.802L259.359 118.744L256.744 119.893ZM290.284 61.9526C269.082 63.1927 251.916 80.3791 250.651 101.554L256.351 101.893C257.441 83.5987 272.31 68.7195 290.615 67.6487L290.284 61.9526ZM335.094 104.371C335.259 80.1115 314.905 60.5058 290.281 61.9526L290.618 67.6487C311.931 66.3963 329.529 83.3553 329.386 104.332L335.094 104.371ZM335.042 105.93C335.062 105.443 335.082 104.933 335.094 104.408L329.386 104.294C329.377 104.752 329.36 105.206 329.34 105.701L335.042 105.93ZM335.039 105.989L335.042 105.93L329.34 105.701L329.337 105.761L335.039 105.989ZM331.538 103.097L331.498 103.107L332.879 108.643L332.922 108.633L331.538 103.097ZM335.114 110.215C335.094 108.519 335.077 107.069 335.082 105.882L329.374 105.847C329.369 107.097 329.386 108.605 329.406 110.283L335.114 110.215ZM310.655 170.745C323.946 169.251 329.908 157.267 332.628 145.136C335.396 132.789 335.214 118.676 335.114 110.215L329.406 110.283C329.509 118.849 329.657 132.297 327.06 143.888C324.411 155.696 319.311 164.03 310.016 165.075L310.655 170.745ZM313.027 192.735L313.19 167.929L307.482 167.891L307.319 192.697L313.027 192.735ZM275.934 193.143C287.81 199.174 296.665 199.864 302.753 198.822C305.775 198.304 308.047 197.369 309.602 196.524C310.379 196.102 310.972 195.705 311.392 195.396C311.6 195.241 311.766 195.108 311.888 195.006C311.948 194.954 312 194.91 312.04 194.875C312.06 194.857 312.077 194.841 312.091 194.828C312.099 194.821 312.105 194.815 312.111 194.809C312.114 194.807 312.117 194.804 312.119 194.801C312.122 194.8 312.122 194.798 312.125 194.798C312.125 194.796 312.128 194.794 310.173 192.716C308.218 190.638 308.218 190.636 308.221 190.635C308.221 190.634 308.224 190.633 308.224 190.632C308.227 190.63 308.227 190.628 308.23 190.626C308.232 190.623 308.235 190.62 308.238 190.618C308.244 190.614 308.247 190.612 308.247 190.611C308.247 190.611 308.238 190.619 308.221 190.634C308.184 190.665 308.11 190.725 307.998 190.807C307.776 190.971 307.402 191.224 306.877 191.511C305.824 192.083 304.143 192.794 301.788 193.198C297.113 193.999 289.496 193.631 278.517 188.056L275.934 193.143ZM275.889 180.269L274.405 190.177L280.05 191.022L281.534 181.114L275.889 180.269ZM269.693 154.399C274.924 162.038 277.247 171.216 275.889 180.268L281.531 181.115C283.121 170.535 280.389 159.917 274.402 151.176L269.693 154.399ZM263.377 143.209C265.36 147.339 267.421 151.088 269.693 154.4L274.402 151.175C272.347 148.179 270.426 144.706 268.523 140.74L263.377 143.209ZM252.817 127.106C250.965 128.933 250.466 131.348 250.731 133.556C250.991 135.728 251.987 137.862 253.374 139.647C256.114 143.174 261.022 146.079 266.611 144.75L265.289 139.199C262.501 139.862 259.69 138.475 257.883 136.148C256.996 135.006 256.51 133.823 256.399 132.878C256.288 131.969 256.522 131.467 256.827 131.167L252.817 127.106ZM259.339 124.206C257.135 124.371 254.792 125.163 252.82 127.103L256.824 131.17C257.661 130.347 258.648 129.98 259.767 129.896L259.339 124.206ZM254.085 120.927C255.046 123.401 255.982 125.796 256.901 128.105L262.204 125.998C261.294 123.71 260.366 121.331 259.404 118.86L254.085 120.927ZM250.651 101.553C250.235 108.512 251.53 115.129 254.133 121.042L259.359 118.744C257.11 113.635 255.988 107.921 256.351 101.894L250.651 101.553Z" fill="#1C2A47"/>
<path d="M324.163 123.994C324.36 122.102 322.987 120.415 321.095 120.221C319.2 120.026 317.511 121.397 317.317 123.288C317.122 125.18 318.495 126.867 320.387 127.061C322.271 127.256 323.96 125.886 324.163 123.994Z" fill="#1C2A47"/>
<path d="M291.679 127.419C291.873 125.528 290.504 123.841 288.609 123.646C286.716 123.452 285.027 124.822 284.833 126.714C284.639 128.605 286.009 130.292 287.904 130.487C289.796 130.681 291.485 129.311 291.679 127.419Z" fill="#1C2A47"/>
<path d="M318.923 145.855C318.923 145.855 314.194 143.176 312.465 143.748C310.735 144.321 309.876 146.478 309.876 146.478C309.876 146.478 308.729 144.413 306.591 144.485C304.451 144.556 297.521 148.922 297.521 148.922C297.521 148.922 304.676 157.675 311.083 156.192C317.613 154.679 318.923 145.855 318.923 145.855Z" fill="#6C8AC5"/>
<path d="M280.078 121.11C279.67 121.141 279.251 120.998 278.942 120.681C278.392 120.119 278.411 119.209 278.974 118.657C279.148 118.493 283.243 114.638 289.639 114.434C290.427 114.413 291.092 115.026 291.112 115.814C291.134 116.601 290.458 117.276 289.73 117.286C284.399 117.45 281 120.671 280.96 120.702C280.715 120.947 280.398 121.08 280.078 121.11Z" fill="#1C2A47"/>
<path d="M315.433 112.767C315.073 112.572 314.799 112.225 314.705 111.796C314.551 111.018 315.045 110.272 315.821 110.108C316.058 110.057 321.532 108.983 327.08 112.286C327.756 112.695 327.982 113.564 327.582 114.239C327.183 114.914 326.272 115.129 325.627 114.74C321.041 112.01 316.446 112.9 316.395 112.9C316.047 112.981 315.718 112.92 315.433 112.767Z" fill="#1C2A47"/>
<path d="M307.071 140.609C311.132 140.016 312.505 136.98 312.647 135.221C312.667 134.914 312.576 134.607 312.382 134.372C308.757 129.904 309.177 123.4 309.188 123.329C309.24 122.664 308.737 122.092 308.072 122.041C307.419 121.989 306.834 122.491 306.783 123.155C306.763 123.452 306.303 130.272 310.17 135.446C309.925 136.397 308.932 138.503 305.073 138.288C304.399 138.258 303.834 138.759 303.806 139.423C303.763 140.088 304.277 140.65 304.942 140.691C305.718 140.732 306.426 140.702 307.071 140.609Z" fill="#1C2A47"/>
<path d="M297.521 148.933C297.521 148.933 310.612 147.757 318.923 145.855C318.923 145.855 315.373 152.685 310.367 152.962C305.361 153.228 297.521 148.933 297.521 148.933Z" fill="white"/>
<path d="M287.082 104.597C280.101 112.736 272.681 120.711 267.45 130.027C266.867 131.049 262.763 138.759 263.931 139.659C257.564 134.761 253.52 127.491 250.123 120.231C244.227 107.634 246.068 92.562 253.46 80.9871C260.766 69.5453 272.938 63.6557 286.294 62.6535C300.624 61.5799 316.209 66.4881 324.879 78.4819C333.016 89.7399 333.304 103.912 334.152 117.204C333.19 102.276 313.193 91.018 301.195 85.6702C301.543 85.8236 292.159 98.5027 291.665 99.1161C290.173 100.967 288.637 102.787 287.082 104.597Z" fill="#1C2A47"/>
<path d="M273.825 282.492C256.365 282.492 249.076 265.048 249.005 264.875C248.873 264.547 249.025 264.169 249.364 264.036C249.692 263.893 250.069 264.057 250.203 264.394C250.275 264.568 257.235 281.204 273.825 281.204C290.438 281.204 296.874 269.118 296.937 268.995C297.099 268.678 297.49 268.555 297.807 268.719C298.124 268.883 298.247 269.271 298.084 269.588C298.033 269.711 291.257 282.492 273.825 282.492Z" fill="#95E7D4"/>
<path d="M352.095 259.322C351.778 259.322 351.49 259.077 351.45 258.75C351.441 258.637 349.934 246.981 340.907 238.504C340.653 238.259 340.63 237.85 340.876 237.594C341.124 237.339 341.532 237.318 341.789 237.563C351.164 246.377 352.668 258.106 352.72 258.607C352.76 258.964 352.514 259.281 352.157 259.322C352.146 259.322 352.115 259.322 352.095 259.322Z" fill="#95E7D4"/>
<path d="M294.551 136.877C294.551 138.994 291.942 140.712 288.728 140.712C285.515 140.712 282.904 138.994 282.904 136.877C282.904 134.76 285.515 133.043 288.728 133.043C291.942 133.043 294.551 134.76 294.551 136.877Z" fill="#91A7D3"/>
<path d="M327.785 133.902C327.785 136.019 325.173 137.737 321.96 137.737C318.746 137.737 316.135 136.019 316.135 133.902C316.135 131.786 318.746 130.068 321.96 130.068C325.173 130.068 327.785 131.775 327.785 133.902Z" fill="#91A7D3"/>
<path d="M478.764 192.655L477.722 191.679V191.679L477.719 191.681L477.717 191.685L477.714 191.687L477.691 191.712L477.597 191.813C477.514 191.901 477.388 192.031 477.231 192.196C476.917 192.526 476.467 192.996 475.919 193.558C474.826 194.681 473.356 196.163 471.846 197.602C470.639 198.754 469.429 199.858 468.373 200.728C469.166 199.338 470.239 197.671 471.364 196.006C471.623 195.622 471.883 195.24 472.146 194.863C472.177 194.821 472.211 194.779 472.246 194.736C473.47 193.187 474.597 191.614 475.416 190.432C475.827 189.84 476.161 189.344 476.392 188.995C476.509 188.82 476.601 188.682 476.661 188.587L476.732 188.478L476.752 188.449L476.758 188.441V188.439V188.438C476.758 188.438 476.758 188.438 475.559 187.665L478.764 192.655ZM478.764 192.655L479.809 193.625V193.626L479.806 193.627L479.8 193.634L479.777 193.66L479.68 193.764C479.594 193.857 479.472 193.992 479.312 194.166C478.995 194.514 478.544 195.013 478.005 195.616C476.929 196.825 475.513 198.449 474.152 200.115C472.785 201.785 471.504 203.459 470.662 204.79C470.679 204.779 470.696 204.768 470.716 204.757C472.094 203.919 473.832 202.638 475.568 201.274C477.291 199.919 478.972 198.512 480.225 197.442C480.85 196.907 481.367 196.458 481.726 196.143C481.906 195.985 482.046 195.861 482.143 195.777L482.251 195.681L482.277 195.657L482.283 195.651L482.286 195.65V195.65L483.236 196.714L482.286 195.65L484.201 197.76L484.204 197.763V197.763L484.201 197.764L484.195 197.77L484.169 197.793L484.072 197.884C483.987 197.964 483.858 198.083 483.698 198.235C483.376 198.54 482.914 198.978 482.369 199.509C481.273 200.574 479.837 202.007 478.461 203.493C477.077 204.99 475.802 206.493 474.991 207.704C474.834 207.94 474.703 208.153 474.594 208.341C474.746 208.284 474.914 208.213 475.097 208.129C476.215 207.617 477.605 206.746 479.004 205.772C480.385 204.807 481.718 203.781 482.708 202.992C483.202 202.599 483.61 202.267 483.892 202.034C484.032 201.917 484.144 201.825 484.218 201.763C485.188 200.501 485.551 199.599 485.659 198.969C485.762 198.358 485.648 197.886 485.422 197.417C485.302 197.166 485.154 196.918 484.971 196.636C484.934 196.577 484.891 196.512 484.849 196.445C484.703 196.223 484.535 195.967 484.395 195.724C484.012 195.064 483.584 194.108 483.878 192.941C483.915 192.796 483.907 192.524 483.661 192.065C483.419 191.612 483.022 191.125 482.548 190.651C482.083 190.186 481.592 189.783 481.21 189.492C481.021 189.348 480.864 189.235 480.756 189.159C480.702 189.121 480.662 189.093 480.633 189.075L480.605 189.056L480.602 189.053V189.053V189.052L480.599 189.052L480.014 188.668L479.96 187.968C479.931 187.581 479.64 187.154 479.078 186.735C478.818 186.544 478.558 186.396 478.359 186.295C478.262 186.246 478.182 186.21 478.133 186.188L478.079 186.165L478.076 186.164V186.164V186.164L478.073 186.163L477.368 185.892L477.197 185.154V185.154V185.153V185.152V185.151V185.151L477.191 185.126C477.186 185.102 477.174 185.063 477.16 185.011C477.132 184.907 477.089 184.756 477.026 184.577C476.903 184.209 476.723 183.772 476.498 183.399C476.255 183.001 476.053 182.831 475.947 182.781C475.916 182.765 475.901 182.765 475.887 182.766C475.864 182.768 475.773 182.779 475.599 182.881L475.593 182.884C475.451 182.968 475.111 183.244 474.58 183.802C474.078 184.329 473.481 185.02 472.831 185.828C471.535 187.444 470.068 189.478 468.775 191.493C467.471 193.522 466.386 195.468 465.807 196.922C465.707 197.171 465.627 197.391 465.567 197.583C465.838 197.401 466.152 197.155 466.503 196.841C467.542 195.916 468.715 194.586 469.851 193.162C470.881 191.67 471.886 190.263 472.691 189.155C473.205 188.449 473.635 187.863 473.938 187.454C474.089 187.249 474.209 187.088 474.292 186.978L474.386 186.853L474.409 186.82L474.415 186.811L474.417 186.809V186.809C474.417 186.808 474.417 186.808 475.559 187.665L478.764 192.655ZM478.764 192.655L477.722 191.679L479.809 193.625L478.764 192.655ZM475.559 187.665L474.417 186.808L476.758 188.438L475.559 187.665ZM465.39 198.477C465.39 198.477 465.39 198.476 465.39 198.473V198.477ZM473.71 208.561C473.71 208.561 473.715 208.561 473.724 208.563C473.715 208.562 473.71 208.561 473.71 208.561ZM474.221 209.198C474.221 209.216 474.218 209.226 474.218 209.227C474.218 209.227 474.218 209.218 474.221 209.198Z" fill="#91A7D3" stroke="#1C2A47"/>
<path d="M301.266 365.642C294.981 365.642 289.876 360.541 289.876 354.261C289.876 347.985 294.981 342.881 301.266 342.881C307.55 342.881 312.659 347.985 312.659 354.261C312.647 360.529 307.542 365.642 301.266 365.642ZM301.266 348.045C297.838 348.045 295.053 350.838 295.053 354.253C295.053 357.676 297.847 360.458 301.266 360.458C304.696 360.458 307.479 357.676 307.479 354.253C307.479 350.838 304.685 348.045 301.266 348.045Z" fill="#7BE1C9"/>
<path d="M212.166 80.8677L218.695 70.8111L212.166 54.7812L205.636 70.8111L212.166 80.8677Z" fill="white"/>
<path d="M353.148 33.9121L346.667 44.009L353.285 59.9986L359.726 43.9282L353.148 33.9121Z" fill="white"/>
<path d="M400.158 140.867L393.679 150.96L400.298 166.953L406.736 150.889L400.158 140.867Z" fill="white"/>
<path d="M131.15 96.5194L124.675 106.613L131.288 122.606L137.733 106.542L131.15 96.5194Z" fill="white"/>
<mask id="mask0_30_3420" style="mask-type:alpha" maskUnits="userSpaceOnUse" x="253" y="64" width="80" height="133">
<path fill-rule="evenodd" clip-rule="evenodd" d="M253.5 101.723C254.678 81.9889 270.695 65.9559 290.45 64.8005C313.418 63.4507 332.394 81.7332 332.24 104.351C332.228 104.842 332.211 105.324 332.191 105.815L332.189 105.875L332.228 105.864C332.223 107.082 332.24 108.562 332.26 110.248C332.465 127.276 332.919 165.37 310.336 167.91L310.173 192.716C310.173 192.716 300.082 202.205 277.227 190.599L278.711 180.691C280.184 170.875 277.655 160.977 272.047 152.787C269.884 149.633 267.892 146.023 265.951 141.975C257.572 143.967 250.512 133.389 254.821 129.137C256.228 127.755 257.892 127.175 259.553 127.051C258.64 124.753 257.706 122.366 256.745 119.893C254.319 114.382 253.111 108.216 253.5 101.723Z" fill="white"/>
</mask>
<g mask="url(#mask0_30_3420)">
</g>
<mask id="mask1_30_3420" style="mask-type:alpha" maskUnits="userSpaceOnUse" x="147" y="172" width="339" height="253">
<path fill-rule="evenodd" clip-rule="evenodd" d="M472.403 182.789L485.251 202.758L460.416 221.21L460.419 221.214C460.419 221.214 425.027 298.29 392.735 298.903C360.442 299.528 336.227 263.546 336.852 261.685C337.474 259.824 357.965 238.024 357.965 238.024H368.519V238.034C368.519 238.034 383.42 257.973 395.837 257.973C406.636 257.973 440.007 218.059 448.498 207.683C448.601 207.518 453.021 200.272 457.237 193.959C457.502 193.487 463.909 182.073 467.708 178.729C471.589 175.314 477.114 171.909 477.771 173.299C478.082 173.96 476.213 176.864 473.864 180.511C473.393 181.244 472.899 182.007 472.403 182.789ZM187.203 296.275C184.88 289.762 205.063 266.225 205.063 266.225L176.589 238.024C176.589 238.024 149.016 267.891 147.624 287.431C146.299 305.884 199.805 362.087 209.092 371.844L209.094 371.847C209.64 372.42 210.033 372.831 210.252 373.065C211.618 374.526 212.624 377.199 213.357 380.069C212.675 384.072 210.925 389.598 206.843 396.553C202.933 403.221 207.375 422.178 209.371 422.156C211.367 422.136 210.497 410.541 210.497 410.541C210.497 410.541 211.991 425.009 214.509 424.929C217.027 424.835 215.686 409.928 215.686 409.928C215.686 409.928 217.968 425.653 220.537 424.735C223.106 423.802 222.257 409.069 222.257 409.069C222.257 409.069 225.614 425.879 227.006 423.753C227.889 422.404 228.084 416.404 228.242 411.546C228.333 408.747 228.412 406.328 228.603 405.398C228.861 404.137 230.651 399.951 232.585 395.424L232.586 395.421C233.232 393.909 233.895 392.36 234.522 390.867C235.165 391.749 235.977 394.217 236.847 396.862C238.154 400.833 239.592 405.206 240.791 405.223C242.398 405.246 242.004 399.586 241.658 394.631C241.541 392.953 241.43 391.358 241.404 390.091C241.302 385.09 233.473 371.952 233.473 371.952L233.473 371.955C231.731 368.809 229.696 365.545 227.907 362.795C223.968 355.868 216.041 343.332 208.211 330.947H208.211H208.21L208.21 330.944C198.219 315.145 188.387 299.593 187.203 296.275Z" fill="white"/>
</mask>
<g mask="url(#mask1_30_3420)">
</g>
</svg>
