<svg width="227" height="176" viewBox="0 0 227 176" fill="none" xmlns="http://www.w3.org/2000/svg">
<path d="M69.8526 31.2521C25.3463 37.8424 3.3237 75.3105 0.494067 101.749C-2.96299 134.021 12.0303 151.079 40.0068 148.865C70.3392 146.459 105.23 143.183 142.873 148.865C180.529 154.547 208.698 159.755 222.526 125.166C236.355 90.5773 218.173 24.6875 167.226 13.1066C129.698 4.57134 116.203 24.3932 69.8526 31.2521Z" fill="#ECF0F7"/>
<path d="M173.269 159.166C173.269 159.166 173.603 135.621 165.805 128.633C158.007 121.647 137.048 90.4102 154 82.7198C170.952 75.0294 176.048 103.245 186.919 112.805C197.789 122.364 188.583 158.296 188.583 158.296L173.269 159.166Z" fill="#DAE1F0"/>
<path d="M183.923 163.863L183.154 163.786C183.179 163.505 185.984 135.71 180.927 123.234C178.583 117.462 173.923 111.922 168.968 106.048C163 98.9716 156.842 91.6642 153.628 82.8348L154.346 82.5789C157.508 91.2812 163.628 98.5367 169.544 105.562C174.537 111.474 179.237 117.065 181.63 122.952C186.778 135.595 183.961 163.594 183.923 163.863Z" fill="#B5C4E2"/>
<path d="M166.842 103.936C166.15 102.042 166.188 97.9857 166.227 93.686C166.265 89.5533 166.303 84.8697 165.497 83.7047L166.124 83.2698C167.059 84.6397 167.021 89.0414 166.983 93.699C166.944 97.7427 166.919 101.914 167.558 103.68L166.842 103.936Z" fill="#B5C4E2"/>
<path d="M170.543 107.917C169.94 107.201 166.189 105.639 162.233 103.988C154.179 100.648 147.969 97.9098 147.342 95.8238L148.071 95.6058C148.648 97.5258 156.676 100.853 162.527 103.285C167.419 105.319 170.453 106.599 171.131 107.431L170.543 107.917Z" fill="#B5C4E2"/>
<path d="M178.698 118.691C178.225 117.769 177.905 114.341 177.443 108.786C177.047 103.987 176.599 98.5617 175.997 97.4868L176.663 97.1028C177.354 98.3187 177.764 103.373 178.212 108.723C178.57 113.035 178.929 117.488 179.377 118.332L178.698 118.691Z" fill="#B5C4E2"/>
<path d="M182.233 127.355C180.939 125.294 174.575 123.682 168.954 122.261C163.193 120.802 157.751 119.433 156.433 117.488L157.06 117.053C158.225 118.755 163.782 120.163 169.147 121.519C175.459 123.119 181.426 124.629 182.885 126.945L182.233 127.355Z" fill="#B5C4E2"/>
<path d="M183.602 146.998C183.051 142.493 177.418 139.921 173.307 138.04C171.861 137.387 170.619 136.811 169.902 136.274L170.362 135.659C171.016 136.146 172.233 136.696 173.628 137.336C177.661 139.179 183.756 141.968 184.358 146.895L183.602 146.998Z" fill="#B5C4E2"/>
<path d="M184.55 139.46L183.782 139.409C183.897 137.745 185.433 134.175 187.059 130.387C188.788 126.343 190.759 121.762 190.618 120.15L191.387 120.086C191.554 121.877 189.71 126.164 187.776 130.681C186.24 134.252 184.665 137.924 184.55 139.46Z" fill="#B5C4E2"/>
<path d="M180.414 158.079C189.531 145.218 179.044 102.58 199.812 85.2917C220.567 68.004 235.202 77.9723 221.912 102.49C208.622 127.009 204.102 155.827 196.893 158.488C189.685 161.15 180.414 158.079 180.414 158.079Z" fill="#DAE1F0"/>
<path d="M187.789 163.991L187.034 163.85C187.072 163.645 190.939 143.196 199.21 116.259C204.639 98.5747 211.322 90.2443 215.74 84.7287C218.198 81.658 219.978 79.4311 220.657 76.8723L221.399 77.0633C220.683 79.7771 218.865 82.0539 216.342 85.2027C211.963 90.6663 205.343 98.9327 199.953 116.477C191.694 143.388 187.827 163.799 187.789 163.991Z" fill="#B5C4E2"/>
<path d="M203.768 105.881L203.167 105.395C205.599 102.362 210.657 100.007 215.561 97.7175C220.555 95.3887 225.279 93.1869 226.111 90.717L226.841 90.961C225.893 93.7378 221.041 96.0027 215.893 98.4085C211.066 100.673 206.086 103.002 203.768 105.881Z" fill="#B5C4E2"/>
<path d="M199.953 116.49L199.223 116.272C199.774 114.469 199.696 109.081 199.62 103.386C199.479 92.7521 199.517 85.0997 201.31 83.6028L201.81 84.1917C200.158 85.5736 200.286 95.4519 200.388 103.373C200.465 109.375 200.542 114.558 199.953 116.49Z" fill="#B5C4E2"/>
<path d="M194.844 134.239L194.102 134.034C194.985 130.847 199.889 127.457 205.087 123.887C209.658 120.738 214.396 117.475 215.688 114.621L216.393 114.941C215.023 117.987 210.196 121.314 205.535 124.526C200.67 127.853 195.651 131.321 194.844 134.239Z" fill="#B5C4E2"/>
<path d="M193.256 140.266L192.513 140.074C193.32 136.862 190.772 126.932 188.916 119.689C187.546 114.366 186.778 111.295 186.944 110.373L187.699 110.501C187.559 111.308 188.583 115.287 189.658 119.497C191.643 127.24 194.102 136.862 193.256 140.266Z" fill="#B5C4E2"/>
<path d="M189.8 154.664L189.044 154.497C189.44 152.68 192.847 150.863 196.79 148.764C200.465 146.806 204.626 144.592 205.317 142.608L206.048 142.864C205.253 145.117 201.13 147.318 197.149 149.442C193.704 151.285 190.119 153.192 189.8 154.664Z" fill="#B5C4E2"/>
<path d="M64.1677 115.952C64.1677 115.952 64.1421 103.181 63.8604 92.5861C63.5787 81.9909 73.617 70.3327 75.9729 64.2932C78.3288 58.2396 75.8577 48.9881 84.3597 44.8932C84.3597 44.8932 79.3659 53.7995 83.8854 58.4196C88.4055 63.0383 82.6185 78.9321 81.7219 85.7526C80.8253 92.5471 75.6784 110.604 64.1677 115.952Z" fill="#DAE1F0"/>
<path d="M52.2217 136.977C52.2217 136.977 46.0758 108.441 36.4217 96.323C26.7675 84.2039 27.4205 86.0467 13.3234 83.0779C-0.760792 80.1092 0.00743234 90.4364 0.00743234 90.4364C0.00743234 90.4364 7.89461 85.9577 12.44 91.8693C16.9981 97.7819 18.3041 105.574 27.2285 117.821C36.1528 130.067 52.2217 136.977 52.2217 136.977Z" fill="#DAE1F0"/>
<path d="M22.1837 50.3958C25.0133 60.7355 46.4726 66.1871 51.4021 77.1793C56.3316 88.1715 54.2061 114.763 54.2061 114.763C54.2061 114.763 40.8005 103.207 39.8914 92.9951C38.9823 82.7839 32.0043 78.7272 26.601 68.3369C21.2105 57.9329 22.1837 50.3958 22.1837 50.3958Z" fill="#DAE1F0"/>
<path d="M60.0321 163.006L59.2639 163.057C59.2511 162.762 57.2664 133.586 53.835 114.84L53.5661 113.368C50.2243 95.0811 48.2141 84.0379 38.0734 74.2487C27.6511 64.1654 21.8894 50.6902 21.8381 50.5494L22.5423 50.2551C22.5936 50.3831 28.304 63.7294 38.6112 73.6987C48.9183 83.654 50.9541 94.7872 54.3216 113.227L54.5905 114.699C58.0346 133.484 60.0193 162.711 60.0321 163.006Z" fill="#DAE1F0"/>
<path d="M58.5085 153.293C57.6122 143.938 49.3537 132.997 40.6214 121.417C35.4231 114.52 30.0454 107.404 25.5385 99.8677L26.1915 99.4707C30.6729 106.969 36.0377 114.072 41.2233 120.943C50.0324 132.613 58.342 143.644 59.264 153.216L58.5085 153.293Z" fill="#B5C4E2"/>
<path d="M56.8951 136.657C55.8964 128.685 59.5071 122.812 62.9897 117.142C65.2048 113.534 67.4967 109.81 68.5722 105.574C71.3123 94.7869 73.3865 74.3894 73.3993 74.1844L74.1676 74.2614C74.1419 74.4664 72.0677 94.9149 69.3148 105.753C68.2137 110.105 65.8834 113.88 63.6428 117.539C60.0704 123.362 56.6902 128.851 57.6505 136.555L56.8951 136.657Z" fill="#B5C4E2"/>
<path d="M96.2928 122.722C96.2928 122.722 93.4629 149.339 91.0302 152.41C88.6105 155.482 80.416 157.016 80.416 161.112C80.416 165.207 148.532 164.695 149.045 161.112C149.557 157.528 142.566 154.97 139.916 152.41C137.265 149.851 134.193 122.722 134.193 122.722H96.2928Z" fill="#273B63"/>
<path d="M91.0562 157.912L91.0172 157.144C91.3114 157.131 120.223 155.621 139.929 157.144L139.865 157.912C120.21 156.402 91.3504 157.899 91.0562 157.912Z" fill="#C8F2E9"/>
<path d="M40.3269 27.6177C35.4103 29.5884 34.642 124.565 40.2757 129.683C45.9094 134.802 185.728 133.778 187.776 129.683C189.825 125.589 194.204 31.9302 186.189 26.8115C178.174 21.6929 52.2858 22.8062 40.3269 27.6177Z" fill="#273B63"/>
<path d="M44.9364 33.0822C41.0696 35.8463 42.3756 110.233 44.9364 113.304C47.4972 116.375 178.097 116.375 181.682 113.304C185.267 110.233 184.243 36.2941 181.682 33.0822C179.121 29.8702 49.0336 30.1518 44.9364 33.0822Z" fill="#DAE1F0"/>
<path d="M129.954 115.608C129.954 115.608 129.954 105.626 131.747 102.043C133.539 98.46 140.453 86.6868 143.27 74.4027C146.087 62.1176 142.758 31.4059 138.917 31.4059C135.075 31.4059 135.331 54.1838 135.331 54.1838C135.331 54.1838 135.588 25.5195 130.979 25.5195C126.369 25.5195 126.113 52.3922 126.113 52.3922C126.113 52.3922 126.369 20.4009 120.992 20.4009C115.614 20.4009 115.87 52.1364 115.87 52.1364C115.87 52.1364 115.652 26.0314 110.633 26.0314C105.614 26.0314 106.651 65.9563 105.371 77.7295C104.09 89.5026 110.633 115.608 110.633 115.608H129.954Z" fill="white"/>
<path d="M141.452 80.8001C142.156 78.7142 142.771 76.5644 143.27 74.4025C143.897 71.6637 144.218 68.017 144.295 63.9983C132.297 65.9561 113.219 73.4166 105.473 76.5644C105.435 76.9743 105.396 77.3583 105.358 77.7163C105.307 78.1903 105.268 78.7022 105.243 79.2132C112.106 81.645 128.546 86.2777 141.452 80.8001Z" fill="#ECF0F7"/>
<path d="M60.7748 4.021C58.7133 7.32246 58.2524 71.5866 60.7748 75.8993C63.2971 80.212 160.748 77.3712 165.063 71.7786C169.378 66.187 166.855 12.2748 165.063 5.4414C163.27 -1.36641 64.3727 -1.72468 60.7748 4.021Z" fill="#B5C4E2"/>
<path d="M113.258 58.6749C103.45 58.6749 62.2344 6.47818 60.4802 4.25154L61.082 3.77808C61.5045 4.31554 103.809 57.9075 113.258 57.9075C122.707 57.9075 164.358 5.74873 164.768 5.22407L165.37 5.69754C163.641 7.86018 123.066 58.6749 113.258 58.6749Z" fill="#3D5C9B"/>
<path d="M61.0563 76.1685L60.4929 75.6436C60.6851 75.4386 80.0447 54.4268 95.23 44.0232L95.6653 44.663C80.557 55.0155 61.2484 75.9635 61.0563 76.1685Z" fill="#3D5C9B"/>
<path d="M164.781 72.0606C148.097 54.1579 133.309 42.5514 133.168 42.4362L133.641 41.8348C133.795 41.9499 148.623 53.5949 165.344 71.5487L164.781 72.0606Z" fill="#3D5C9B"/>
<path d="M104.961 49.9607C99.8393 49.9607 103.578 61.3495 102.042 66.7241C100.505 72.0987 95.8956 76.9613 97.1765 85.9187C98.4564 94.877 105.626 100.763 107.163 104.858C108.699 108.953 107.163 115.607 107.163 115.607H124.32C124.32 115.607 123.296 109.209 122.784 95.8999C122.272 82.5919 112.067 80.0331 110.633 77.9852C109.212 75.9374 113.31 70.5628 113.053 63.6533C112.797 56.7428 107.637 49.9607 104.961 49.9607Z" fill="white"/>
<path d="M114.512 128.545C114.384 128.545 114.256 128.545 114.129 128.532C111.414 128.315 110.531 126.254 110.595 124.565C110.672 122.556 112.029 120.482 114.167 120.482C116.19 120.482 117.7 121.186 118.443 122.453C119.096 123.592 119.045 125.09 118.316 126.369C117.508 127.726 116.087 128.545 114.512 128.545ZM114.167 121.238C112.503 121.238 111.427 122.94 111.363 124.59C111.312 126.011 112.016 127.598 114.192 127.764C114.295 127.777 114.41 127.777 114.512 127.777C115.818 127.777 116.984 127.099 117.636 125.96C118.239 124.923 118.29 123.72 117.764 122.812C117.176 121.801 115.895 121.238 114.167 121.238Z" fill="#C8F2E9"/>
<path d="M52.0297 2.05082C65.3585 4.26466 66.9333 13.2222 66.6773 24.6368C66.434 36.0513 73.3865 43.4989 78.0984 43.4989C78.0984 43.4989 71.8884 45.7383 67.1766 43.4989C62.452 41.2595 57.7402 47.4659 45.5765 44.497C33.4128 41.5154 22.4783 32.6858 27.7023 17.3683C32.9134 2.05083 43.0926 0.553635 52.0297 2.05082Z" fill="#7BE1C9"/>
<path d="M45.8838 20.0292C45.8838 20.0292 50.4932 10.7133 55.1025 15.4096C59.712 20.106 48.3421 28.3598 46.1911 33.6064C46.1911 33.6064 34.2066 22.0766 39.1233 15.4096C44.04 8.74263 45.8838 20.0292 45.8838 20.0292Z" fill="white"/>
<path d="M142.015 53.518C142.015 53.518 146.624 44.2021 151.234 48.8984C155.844 53.5948 144.474 61.8483 142.322 67.0949C142.322 67.0949 130.338 55.5654 135.254 48.8984C140.172 42.2314 142.015 53.518 142.015 53.518Z" fill="#65BAA6"/>
<path d="M148.122 35.8843C161.221 38.0725 162.77 46.8637 162.527 58.0865C162.284 69.3086 169.121 76.6281 173.756 76.6281C173.756 76.6281 167.649 78.8299 163.014 76.6281C158.378 74.4273 153.731 80.5318 141.772 77.601C129.813 74.6702 119.071 65.9819 124.192 50.933C129.327 35.8843 139.339 34.4255 148.122 35.8843Z" fill="white"/>
<path d="M142.015 53.518C142.015 53.518 146.624 44.2021 151.234 48.8984C155.844 53.5947 144.474 61.8482 142.322 67.0948C142.322 67.0948 130.338 55.5654 135.254 48.8984C140.172 42.2314 142.015 53.518 142.015 53.518Z" fill="#7BE1C9"/>
<path d="M103.094 150.272C103.012 151.074 102.885 151.859 102.709 152.623C100.456 162.352 90.3448 169.098 72.3064 170.324C35.8832 172.796 15.8161 170.599 8.66866 153.293C7.05225 149.381 6.42533 144.327 6.51379 138.805C6.81089 119.873 15.4642 95.3942 21.3144 92.3124C28.8738 88.3287 34.2341 90.3896 34.2341 90.3896C46.4669 92.9984 65.9841 128.846 81.2406 130.219C96.497 131.593 104.161 139.603 103.094 150.272Z" fill="#95E7D4"/>
<path d="M22.9627 114.15C22.9627 114.15 32.0342 121.429 35.1953 129.532C38.3566 137.636 38.3566 144.777 44.9539 146.15C51.5513 147.523 63.922 148.348 76.4297 144.639C88.9378 140.932 89.212 136.536 76.0176 134.202C62.8229 131.867 48.3911 119.369 44.2677 110.442C40.1445 101.514 40.2815 97.9428 37.6703 95.6089C35.0592 93.2741 31.21 92.4502 27.3618 96.9818C23.5136 101.514 21.3136 109.068 22.9627 114.15Z" fill="#65BAA6"/>
<path d="M50.5344 89.8534C50.6927 89.6375 50.8881 89.4435 51.0384 89.2245C51.7122 88.2466 50.9738 87.1377 50.133 86.5657C49.5618 86.1767 49.4768 85.8677 49.6165 85.1538C49.7271 84.5908 50.0472 84.2169 49.9384 83.6289C49.8483 83.1389 49.6333 82.438 49.2496 82.119C48.857 81.792 48.2787 81.819 47.826 81.6261C46.7029 81.1481 47.7463 80.2542 47.2671 79.4152C46.5491 78.1603 44.4967 78.4613 43.2756 78.2753C43.2845 78.2773 43.2906 78.2743 43.2924 78.2663C42.2437 77.8483 42.0607 76.7474 40.7157 76.9714C40.0808 77.0764 39.6404 77.4754 39.1107 77.7873C38.192 78.3283 37.4183 77.5844 36.5288 77.9183C35.5234 78.2973 34.7214 79.2022 34.4385 80.2372C34.0449 81.6771 33.2102 81.2561 32.0739 81.773C31.4708 82.048 30.7201 82.239 30.8457 83.0829C30.913 83.5339 31.3108 83.9209 31.3426 84.3669C31.3825 84.9368 30.843 85.2608 30.5256 85.6848C30.1843 86.1417 29.9615 86.8077 30.1923 87.3556C30.4407 87.9476 31.1366 88.2376 31.1693 88.9585C31.2145 89.9635 29.8005 90.7874 30.3771 91.8843C30.7581 92.6103 31.584 92.6103 32.1332 93.0742C32.5019 93.3862 32.4497 93.8512 32.4073 94.2681C32.2915 95.412 32.8229 96.426 34.1643 96.162C35.1414 95.969 35.855 95.859 36.5491 96.699C37.1548 97.4329 37.7499 97.7959 38.7739 97.7089C39.4247 97.6539 40.0278 97.3839 40.6503 97.2099C41.2339 97.0459 41.4134 97.1439 41.9369 97.3049C43.0413 97.6459 43.6806 96.594 44.7072 96.607C45.1015 96.613 45.3607 96.9099 45.763 96.9769C46.2299 97.0539 46.7401 96.9009 47.1398 96.666C47.665 96.356 47.9135 95.99 48.0921 95.416C48.246 94.9211 48.3566 94.7451 48.8349 94.5441C50.0472 94.0322 50.7069 93.4722 50.6273 92.0573C50.5954 91.4963 50.1966 91.0474 50.2577 90.4974C50.286 90.2464 50.3965 90.0414 50.5344 89.8534Z" fill="#1C2A47"/>
<path d="M94.7559 172.475C94.7559 174.421 76.6642 176 54.3465 176C32.029 176 13.9373 174.422 13.9373 172.475C13.9373 170.527 32.029 168.949 54.3465 168.949C76.6642 168.95 94.7559 170.528 94.7559 172.475Z" fill="#DAE1F0"/>
<path d="M50.7272 107.649C50.7272 107.649 58.3786 115.707 61.4938 116.486L56.4995 119.645L49.8562 115.936C49.8571 115.936 47.383 109.343 50.7272 107.649Z" fill="#B5C4E2"/>
<path d="M50.7274 107.649L50.6628 107.71C50.6636 107.711 52.5772 109.727 54.8824 111.84C56.0346 112.897 57.285 113.98 58.4441 114.847C59.0242 115.281 59.5804 115.661 60.0925 115.959C60.6044 116.256 61.0704 116.471 61.4727 116.571L61.4939 116.486L61.4471 116.411L56.4979 119.542L49.9006 115.859L49.8573 115.936L49.9403 115.905C49.9403 115.905 49.9368 115.896 49.9306 115.88C49.8352 115.619 49.064 113.427 49.0649 111.336C49.0649 110.582 49.1649 109.842 49.4284 109.212C49.6919 108.581 50.1146 108.06 50.768 107.728L50.7274 107.649L50.6628 107.71L50.7274 107.649L50.6876 107.571C49.9926 107.922 49.539 108.483 49.2648 109.143C48.9898 109.804 48.8881 110.566 48.8881 111.336C48.889 113.611 49.7732 115.963 49.775 115.968L49.7865 115.998L56.5041 119.748L61.7168 116.45L61.516 116.4C61.1394 116.306 60.6849 116.099 60.1817 115.806C58.4194 114.783 56.0673 112.726 54.1618 110.928C53.2086 110.028 52.3659 109.193 51.7619 108.583C51.4595 108.278 51.2172 108.029 51.0501 107.857C50.9669 107.77 50.9024 107.703 50.8583 107.658C50.8149 107.612 50.7919 107.588 50.7919 107.588L50.7468 107.541L50.6885 107.571L50.7274 107.649Z" fill="#3D5C9B"/>
<path d="M54.7815 124.93C54.7815 124.93 66.9912 123.032 74.5055 126.419C82.0192 129.806 80.0038 135.484 77.6208 140.336C75.2377 145.189 73.0394 147.021 73.0394 147.021L68.4581 145.098C68.4581 145.098 70.1072 136.858 72.8564 132.737C72.8564 132.737 62.1358 138.413 56.3626 138.138C50.5901 137.864 50.6812 127.059 50.6812 127.059L54.7815 124.93Z" fill="#1C2A47"/>
<path d="M37.2468 98.884C37.2468 98.884 34.0962 100.554 31.7141 101.469C29.3319 102.385 28.5988 105.909 29.973 108.473C31.3471 111.037 34.7833 117.584 36.2494 121.475C37.7155 125.366 38.5634 128.571 38.5634 128.571C38.5634 128.571 46.558 130.105 51.0022 128.502C55.4465 126.9 54.7824 124.932 54.7824 124.932C54.7824 124.932 51.9191 114.883 51.5063 112.181C51.5063 112.181 52.7433 109.388 51.7352 106.917C50.7272 104.445 48.1161 103.438 46.833 101.927C45.5499 100.417 40.5795 98.45 37.2468 98.884Z" fill="white"/>
<path d="M46.9718 88.4783C46.8674 89.8512 46.7462 91.2301 46.9329 93.148C47.0814 94.7139 46.328 95.9548 44.151 97.7137C44.151 97.7137 43.3534 97.7847 42.4524 97.5207C42.4356 97.5207 42.4197 97.5157 42.4029 97.5097L42.6062 99.0156L42.6504 99.3346L42.6778 99.5655C42.6778 99.5655 42.7106 100.531 41.5778 100.806C40.4398 101.081 38.1036 99.9825 37.2458 98.8836C37.2458 98.8836 37.3829 94.7639 37.0372 93.149C37.0372 93.149 35.9761 91.3961 35.3881 88.9963C34.8054 86.5895 36.6083 84.2497 38.2858 83.3867C39.9685 82.5298 45.0485 82.5028 46.5933 86.0075C46.5924 86.0055 47.0769 87.1044 46.9718 88.4783Z" fill="#B5C4E2"/>
<path d="M46.9717 88.4782L46.8834 88.4712C46.8188 89.3232 46.7472 90.1801 46.7472 91.168C46.7472 91.773 46.7737 92.4259 46.8454 93.1559C46.8569 93.2789 46.8631 93.4009 46.8631 93.5199C46.8622 94.2008 46.6702 94.8238 46.229 95.4847C45.7869 96.1447 45.0937 96.8396 44.0962 97.6446L44.1519 97.7136L44.1439 97.6246H44.1404C44.121 97.6266 44.0299 97.6326 43.8866 97.6326C43.5842 97.6326 43.0511 97.6026 42.4781 97.4346L42.4657 97.4316H42.4533V97.4406L42.4542 97.4316H42.4533V97.4406L42.4542 97.4316L42.4488 97.4306L42.432 97.4256L42.2976 97.3796L42.5205 99.0255L42.5647 99.3444L42.6522 99.3314L42.5647 99.3424L42.592 99.5734L42.6796 99.5624L42.5912 99.5644V99.5654V99.5704C42.5912 99.6094 42.5841 99.8394 42.4533 100.083C42.3878 100.206 42.2914 100.333 42.149 100.445C42.0058 100.557 41.8157 100.655 41.5592 100.717C41.4479 100.744 41.3206 100.758 41.1826 100.757C40.5972 100.758 39.8121 100.516 39.0861 100.151C38.3592 99.7874 37.6872 99.3004 37.3175 98.8255L37.2477 98.8805L37.3361 98.8835C37.3361 98.8825 37.3626 98.0745 37.3626 97.0336C37.3626 96.3777 37.352 95.6297 37.3166 94.9318C37.2813 94.2328 37.2229 93.5859 37.1247 93.1269L37.1212 93.1119L37.1133 93.0999C37.1133 93.0999 37.1097 93.0939 37.1018 93.0809C36.9859 92.8839 36.0221 91.209 35.4739 88.9712C35.3987 88.6622 35.3642 88.3552 35.3642 88.0513C35.3642 87.0463 35.7445 86.0834 36.3069 85.2775C36.8683 84.4725 37.6119 83.8276 38.3255 83.4606C38.5961 83.3236 38.9658 83.2046 39.3982 83.1216C39.8306 83.0386 40.3275 82.9906 40.8537 82.9906C41.9015 82.9906 43.067 83.1816 44.0936 83.6576C45.1202 84.1356 46.0071 84.8955 46.5111 86.0384L46.512 86.0404C46.5323 86.0874 46.8984 86.9533 46.8975 88.0823C46.8975 88.2073 46.8931 88.3362 46.8834 88.4682L46.9717 88.4782L47.0602 88.4852C47.0708 88.3492 47.0752 88.2153 47.0752 88.0853C47.0752 86.8824 46.6764 85.9774 46.6738 85.9704C46.1503 84.7815 45.2245 83.9906 44.1687 83.5006C43.112 83.0106 41.9227 82.8167 40.8537 82.8167C40.3169 82.8167 39.8102 82.8656 39.3654 82.9516C38.9206 83.0366 38.5378 83.1576 38.246 83.3076C37.5024 83.6896 36.7419 84.3515 36.1627 85.1805C35.5844 86.0084 35.1891 87.0053 35.1883 88.0543C35.1883 88.3722 35.2245 88.6932 35.3023 89.0162C35.8939 91.431 36.9594 93.1889 36.9621 93.1939L37.0382 93.1479L36.9515 93.1659C37.0461 93.6069 37.1053 94.2498 37.1398 94.9428C37.1743 95.6367 37.1849 96.3827 37.1849 97.0366C37.1849 97.5546 37.1779 98.0165 37.1716 98.3475C37.168 98.5125 37.1645 98.6465 37.1627 98.7385C37.1601 98.8305 37.1583 98.8795 37.1583 98.8795L37.1574 98.9115L37.177 98.9365C37.5739 99.4454 38.261 99.9394 39.0056 100.312C39.7501 100.685 40.5495 100.935 41.1817 100.936C41.3312 100.936 41.4718 100.922 41.6 100.891C41.8785 100.824 42.0934 100.714 42.2569 100.586C42.5028 100.394 42.631 100.159 42.6964 99.9644C42.7619 99.7704 42.7672 99.6154 42.7672 99.5724V99.5614V99.5574L42.7388 99.3214L42.6946 99.0025L42.4913 97.4976L42.4037 97.5086L42.3754 97.5926C42.3922 97.5986 42.4161 97.6076 42.4533 97.6086V97.5206L42.4285 97.6056C43.0244 97.7796 43.5736 97.8106 43.8875 97.8106C44.0572 97.8106 44.1581 97.8016 44.1607 97.8016L44.1872 97.7985L44.2084 97.7826C45.213 96.9706 45.9195 96.2667 46.3775 95.5837C46.8356 94.9008 47.0425 94.2358 47.0417 93.5209C47.0417 93.3949 47.0355 93.2689 47.0231 93.1409C46.9523 92.416 46.9258 91.769 46.9258 91.17C46.9258 90.1901 46.9966 89.3382 47.062 88.4862L46.9717 88.4782Z" fill="#3D5C9B"/>
<path d="M37.4352 91.0344C37.4352 91.0344 37.4449 91.0454 37.4635 91.0654C37.5262 91.1354 37.6844 91.3164 37.8258 91.5234C37.9681 91.7294 38.0918 91.9624 38.0909 92.1274C38.0909 92.1534 38.0882 92.1774 38.0821 92.1994C38.0423 92.3464 37.9601 92.4294 37.8841 92.5134C37.8081 92.5964 37.7374 92.6824 37.7374 92.8244C37.7374 92.8934 37.7533 92.9734 37.7913 93.0714C37.9804 93.5704 38.1015 93.7774 38.1024 93.7784C38.1086 93.7894 38.1218 93.7924 38.1324 93.7864C38.143 93.7804 38.1466 93.7664 38.1404 93.7564C38.1404 93.7564 38.1333 93.7434 38.1192 93.7174C38.0768 93.6374 37.9743 93.4284 37.8329 93.0554C37.7966 92.9604 37.7825 92.8854 37.7825 92.8244C37.7825 92.6984 37.8417 92.6274 37.9177 92.5434C37.9928 92.4604 38.0829 92.3684 38.1254 92.2104C38.1324 92.1844 38.136 92.1564 38.136 92.1274C38.1351 91.9164 37.9672 91.6394 37.8011 91.4114C37.6349 91.1834 37.4688 91.0054 37.4679 91.0054C37.46 90.9964 37.4458 90.9954 37.437 91.0044C37.4273 91.0114 37.4264 91.0254 37.4352 91.0344Z" fill="#273B63"/>
<path d="M46.4539 88.9933C46.4539 88.9933 45.8012 88.7873 44.9247 89.4053C44.9247 89.4053 45.0795 88.7003 45.5951 88.6153C46.1108 88.5303 46.4539 88.9933 46.4539 88.9933Z" fill="#273B63"/>
<path d="M42.9323 89.6186C42.9323 89.6186 42.4643 89.0506 41.7798 89.1506C41.0952 89.2506 40.5778 89.5176 40.5778 89.5176C40.5778 89.5176 40.8785 88.8506 41.5463 88.7006C42.215 88.5506 42.7491 88.9346 42.9323 89.6186Z" fill="#273B63"/>
<path d="M45.1572 90.7276C45.1334 91.0726 45.2244 91.3606 45.3614 91.3696C45.4984 91.3796 45.6292 91.1076 45.654 90.7616C45.6778 90.4166 45.5868 90.1286 45.4498 90.1196C45.3128 90.1106 45.1811 90.3826 45.1572 90.7276Z" fill="#273B63"/>
<path d="M42.1507 91.1392C42.1269 91.4852 42.2179 91.7722 42.3549 91.7822C42.4919 91.7922 42.6227 91.5202 42.6475 91.1742C42.6713 90.8282 42.5803 90.5412 42.4433 90.5312C42.3054 90.5222 42.1746 90.7942 42.1507 91.1392Z" fill="#273B63"/>
<path d="M44.3269 91.2021C44.3269 91.2021 44.3764 91.2891 44.4516 91.4251C44.5638 91.6291 44.7317 91.9461 44.8723 92.2521C45.0128 92.5571 45.1233 92.8551 45.1233 93.0091C45.1233 93.0541 45.1136 93.0851 45.0986 93.0991C45.0482 93.1491 44.9492 93.2051 44.8307 93.2581C44.6531 93.3371 44.4303 93.4111 44.2518 93.4641C44.1625 93.4901 44.0848 93.5131 44.0291 93.5281C43.9734 93.5431 43.9407 93.5511 43.9407 93.5511C43.9292 93.5541 43.9221 93.5661 43.9248 93.5781C43.9274 93.5891 43.9398 93.5961 43.9513 93.5941C43.9513 93.5941 44.1891 93.5341 44.4551 93.4461C44.5877 93.4021 44.7273 93.3521 44.8484 93.2991C44.9695 93.2451 45.0712 93.1891 45.1295 93.1311C45.1578 93.1021 45.1675 93.0601 45.1675 93.0091C45.1675 92.8941 45.1162 92.7261 45.0411 92.5331C44.8157 91.9591 44.3658 91.1801 44.3658 91.1801C44.3596 91.1691 44.3464 91.1661 44.3358 91.1721C44.3252 91.1771 44.3208 91.1911 44.3269 91.2021Z" fill="#273B63"/>
<path d="M44.0691 94.4201C44.0691 94.4201 44.0443 94.4231 43.9984 94.4271C43.9523 94.4301 43.8869 94.4341 43.8064 94.4341C43.4977 94.4341 42.9724 94.3801 42.5266 94.0681C42.5169 94.0611 42.5027 94.0631 42.4956 94.0731C42.4885 94.0831 42.4912 94.0971 42.5009 94.1041C42.9583 94.4231 43.4924 94.4781 43.8055 94.4781C43.9701 94.4781 44.0735 94.4631 44.0744 94.4631C44.0868 94.4611 44.0947 94.4501 44.093 94.4381C44.0921 94.4271 44.0806 94.4181 44.0691 94.4201Z" fill="#273B63"/>
<path d="M39.7316 87.0935C39.7316 87.0935 40.1091 87.8144 39.9031 89.4283C39.697 91.0412 39.5936 90.4582 39.4565 91.1792C39.3195 91.9001 39.697 92.4501 39.216 93.0331C38.735 93.617 39.4566 91.4872 37.9444 90.2172C36.4324 88.9463 36.8109 92.6891 37.1884 93.41C37.566 94.131 38.185 94.406 38.185 94.406L37.223 95.5389C37.223 95.5389 32.5841 93.341 32.8247 88.7064C33.0652 84.0707 35.7799 82.7998 35.7799 82.7998C35.7799 82.7998 38.0479 79.607 43.7858 81.0839C49.5247 82.5598 48.8208 87.2575 48.7685 87.9504C48.6315 89.7713 46.8444 89.8043 46.8444 89.8043C46.8444 89.8043 47.0159 87.8814 45.7789 86.7485C45.7789 86.7485 45.435 87.5385 44.2323 87.8474C43.0298 88.1564 43.6143 87.0575 43.8548 86.5765C43.8548 86.5765 43.1677 87.5035 42.0678 87.5035C40.9686 87.5055 39.7316 87.0935 39.7316 87.0935Z" fill="#1C2A47"/>
<path d="M42.6502 99.3338C42.1276 99.1968 41.3194 98.8888 40.314 98.2188C38.4615 96.9828 38.7692 94.6478 38.7692 94.6478C39.5606 96.5378 42.0683 97.3618 42.0683 97.3618L42.453 97.5208C42.4362 97.5208 42.4203 97.5158 42.4035 97.5098L42.6069 99.0158L42.6502 99.3338Z" fill="#273B63"/>
<path d="M31.3012 102.384C33.7205 102.134 35.5624 104.764 37.8986 109.526C40.2347 114.287 42.7089 121.567 42.7089 121.567C42.7089 121.567 53.7505 120.33 57.3238 117.492C57.3238 117.492 58.1028 114.608 58.6528 113.921C59.2028 113.235 60.256 112.731 60.9438 112.365C61.6309 111.999 62.089 111.633 62.089 111.633L59.3859 118.82C59.3859 118.82 57.5528 120.514 56.5457 121.476C55.5376 122.437 44.725 128.113 40.4186 127.014C36.1124 125.916 30.7511 114.608 30.156 111.862C29.5609 109.114 28.186 102.704 31.3012 102.384Z" fill="#B5C4E2"/>
<path d="M31.3011 102.385L31.3099 102.472C31.4125 102.461 31.5134 102.456 31.6132 102.456C32.1632 102.456 32.6823 102.613 33.1916 102.922C33.9556 103.384 34.6957 104.19 35.4517 105.308C36.2078 106.427 36.9815 107.859 37.8189 109.564C38.9853 111.94 40.187 114.949 41.0968 117.362C41.5522 118.568 41.9342 119.626 42.2022 120.382C42.3365 120.761 42.4418 121.064 42.5143 121.271C42.5868 121.48 42.6248 121.593 42.6248 121.593L42.6478 121.66L42.7185 121.652C42.7203 121.652 45.4827 121.343 48.6943 120.678C50.3001 120.345 52.0181 119.924 53.5612 119.407C55.1043 118.89 56.4713 118.279 57.3794 117.559L57.4024 117.542L57.4103 117.513C57.4103 117.513 57.4227 117.468 57.4449 117.389C57.5226 117.109 57.726 116.399 57.9692 115.685C58.0903 115.328 58.2221 114.971 58.3521 114.666C58.4821 114.362 58.613 114.11 58.7225 113.973C58.9869 113.643 59.3805 113.35 59.7934 113.095C60.2072 112.841 60.6405 112.623 60.9854 112.439C61.6794 112.069 62.1411 111.7 62.1447 111.698L62.0898 111.629L62.0067 111.598L59.3035 118.786L59.3867 118.817L59.3265 118.752C59.3265 118.752 57.4935 120.446 56.4845 121.408C56.4324 121.458 56.3457 121.527 56.2298 121.608C55.793 121.916 54.945 122.414 53.8521 122.985C52.2119 123.841 50.0171 124.862 47.8083 125.668C45.6003 126.474 43.3765 127.065 41.6893 127.064C41.2286 127.064 40.8086 127.02 40.4407 126.926C39.3946 126.661 38.2593 125.759 37.1486 124.507C35.481 122.63 33.8628 119.972 32.6089 117.529C31.982 116.307 31.4452 115.139 31.0376 114.148C30.63 113.158 30.3523 112.344 30.2427 111.839C29.9358 110.425 29.4238 108.042 29.4247 106.029C29.4247 105.083 29.5388 104.221 29.8332 103.586C29.98 103.268 30.171 103.008 30.4124 102.818C30.6547 102.628 30.9483 102.506 31.3117 102.469L31.3011 102.385L31.2923 102.297C30.8996 102.337 30.5707 102.472 30.3019 102.683C29.8996 103 29.637 103.481 29.4743 104.059C29.3116 104.637 29.247 105.314 29.247 106.034C29.247 108.074 29.7625 110.464 30.0694 111.88C30.2215 112.58 30.6689 113.802 31.3241 115.27C32.3065 117.47 33.754 120.212 35.3634 122.512C36.168 123.663 37.0125 124.702 37.8622 125.508C38.712 126.313 39.5662 126.888 40.3965 127.1C40.7829 127.199 41.2171 127.243 41.6884 127.243C42.9166 127.243 44.4003 126.941 45.954 126.475C48.284 125.777 50.7687 124.711 52.7592 123.737C53.7548 123.25 54.6258 122.785 55.2926 122.401C55.6259 122.209 55.908 122.037 56.13 121.891C56.3519 121.745 56.5119 121.627 56.6066 121.538C57.1097 121.058 57.8197 120.394 58.4042 119.85C58.696 119.578 58.9569 119.337 59.1443 119.163C59.2381 119.076 59.3132 119.007 59.3655 118.958C59.4176 118.909 59.4459 118.884 59.4459 118.884L59.4609 118.87L62.2844 111.362L62.0332 111.563L62.0288 111.566C61.9783 111.606 61.5397 111.946 60.9022 112.287C60.5601 112.469 60.1232 112.688 59.7006 112.948C59.2779 113.208 58.8693 113.51 58.5837 113.866C58.5086 113.959 58.4343 114.084 58.3592 114.231C58.0956 114.748 57.8171 115.554 57.6023 116.235C57.3882 116.915 57.2388 117.468 57.2388 117.469L57.3246 117.492L57.2697 117.423C56.3908 118.121 55.0379 118.729 53.5055 119.242C51.2064 120.012 48.5033 120.572 46.3767 120.938C45.3129 121.121 44.3933 121.256 43.7398 121.346C43.4127 121.39 43.1527 121.423 42.9741 121.445C42.8848 121.456 42.8158 121.465 42.7698 121.47C42.7229 121.476 42.6991 121.478 42.6991 121.478L42.7088 121.566L42.7929 121.537C42.792 121.536 40.3187 114.257 37.9781 109.486C36.8595 107.206 35.8532 105.413 34.8363 104.183C34.3279 103.568 33.8159 103.092 33.2836 102.77C32.7513 102.447 32.1977 102.279 31.6132 102.279C31.5071 102.279 31.4002 102.285 31.2923 102.296L31.3011 102.385Z" fill="#3D5C9B"/>
<path d="M38.5633 128.571C38.5633 128.571 35.9291 137.773 42.5265 142.443C49.1238 147.113 66.1677 136.675 72.2152 129.533C72.2152 129.533 81.4697 142.26 89.3501 146.105L93.1076 142.625C93.1076 142.625 82.4774 127.06 76.8885 123.489C71.299 119.918 53.5221 126.876 53.5221 126.876C53.5221 126.876 43.2135 129.349 38.5633 128.571Z" fill="#3D5C9B"/>
<path d="M105.66 144.045C105.294 143.953 105.02 144.319 104.606 144.41C104.194 144.502 99.0627 146.242 96.9092 146.7L93.1066 142.625L89.35 146.105L93.2227 149.206C93.623 149.943 94.4725 151.356 95.5813 152.332C97.1393 153.705 98.3762 153.111 99.0627 152.607C99.7501 152.103 100.987 150.73 102.224 149.768C103.462 148.806 105.203 147.021 105.66 145.83C106.118 144.64 106.026 144.136 105.66 144.045Z" fill="#B5C4E2"/>
<path d="M105.66 144.044L105.681 143.959C105.634 143.947 105.587 143.941 105.542 143.942C105.451 143.942 105.365 143.964 105.284 143.996C105.163 144.044 105.053 144.114 104.94 144.177C104.827 144.241 104.713 144.297 104.587 144.325C104.557 144.332 104.512 144.344 104.451 144.362C103.992 144.497 102.607 144.953 101.082 145.428C99.558 145.905 97.8949 146.4 96.8922 146.613L96.9102 146.7L96.9753 146.64L93.1116 142.501L89.215 146.11L93.1677 149.275L93.2227 149.206L93.1456 149.248C93.5489 149.99 94.4005 151.409 95.5223 152.399C96.2488 153.04 96.9202 153.267 97.5016 153.267C98.1851 153.267 98.7355 152.956 99.1147 152.679C99.468 152.42 99.9483 151.95 100.498 151.424C101.047 150.898 101.664 150.316 102.278 149.839C102.901 149.354 103.649 148.665 104.299 147.945C104.95 147.225 105.504 146.478 105.742 145.863C105.96 145.295 106.058 144.879 106.058 144.575C106.058 144.405 106.027 144.268 105.962 144.163C105.898 144.057 105.796 143.988 105.681 143.96L105.66 144.044L105.639 144.13C105.716 144.151 105.77 144.188 105.812 144.254C105.853 144.321 105.882 144.424 105.882 144.573C105.883 144.839 105.792 145.241 105.578 145.798C105.357 146.373 104.813 147.114 104.168 147.825C103.525 148.536 102.783 149.22 102.17 149.697C101.546 150.181 100.927 150.767 100.376 151.294C99.8272 151.821 99.3449 152.29 99.0107 152.535C98.6464 152.801 98.1311 153.09 97.5016 153.089C96.9673 153.088 96.3428 152.885 95.6394 152.264C94.5456 151.301 93.697 149.895 93.2998 149.163L93.2918 149.147L89.4842 146.099L93.1016 142.749L96.8782 146.796L96.9272 146.786C98.011 146.555 99.8322 146.005 101.437 145.502C102.239 145.25 102.987 145.009 103.559 144.827C103.846 144.735 104.088 144.658 104.272 144.6C104.364 144.572 104.44 144.548 104.5 144.53C104.561 144.513 104.604 144.5 104.625 144.496C104.828 144.451 104.992 144.349 105.139 144.265C105.213 144.223 105.283 144.185 105.35 144.158C105.417 144.132 105.48 144.117 105.542 144.117C105.573 144.117 105.605 144.12 105.639 144.129L105.66 144.044Z" fill="#3D5C9B"/>
<path d="M68.9694 144.892C68.9694 144.892 68.1886 147.836 67.7209 148.614C67.2523 149.391 65.4315 151.391 65.7437 152.558C66.0558 153.724 67.3618 154.19 69.4434 154.69C71.5249 155.19 71.8309 156.387 73.1316 156.887C74.4324 157.388 75.9285 157.601 76.2928 157.322C76.6571 157.045 77.2089 157.276 77.8738 156.544C78.5698 155.776 77.0949 155.17 76.3158 154.506C75.8118 154.077 74.4863 152.779 72.9769 151.446C71.4674 150.113 73.0396 146.562 73.0396 146.562L68.9694 144.892Z" fill="#B5C4E2"/>
<path d="M68.9694 144.892L68.8836 144.869C68.8836 144.869 68.8712 144.915 68.8491 144.996C68.7714 145.282 68.5706 146.01 68.3381 146.75C68.2222 147.12 68.0975 147.493 67.9781 147.815C67.8587 148.137 67.7412 148.408 67.6448 148.568C67.5404 148.741 67.3618 148.985 67.1523 149.269C66.8383 149.695 66.4581 150.212 66.154 150.737C65.8507 151.263 65.6198 151.796 65.619 152.269C65.619 152.376 65.6313 152.481 65.6578 152.581C65.7392 152.885 65.8878 153.148 66.0955 153.372C66.4078 153.71 66.8499 153.965 67.4078 154.185C67.9657 154.404 68.6405 154.587 69.4221 154.776C70.4478 155.023 71.027 155.436 71.5222 155.855C71.7698 156.066 71.9953 156.279 72.2437 156.472C72.4922 156.666 72.7637 156.84 73.0988 156.969C74.0166 157.321 75.0238 157.532 75.6888 157.532C75.8329 157.532 75.9612 157.523 76.0716 157.501C76.1813 157.479 76.2742 157.446 76.3458 157.391C76.4236 157.332 76.5129 157.298 76.6208 157.271C76.7826 157.229 76.9825 157.206 77.2079 157.12C77.4334 157.034 77.681 156.886 77.9383 156.602C78.0754 156.452 78.1435 156.294 78.1426 156.137C78.1426 155.962 78.0604 155.802 77.9401 155.656C77.7588 155.436 77.4838 155.233 77.1955 155.033C76.9073 154.833 76.6049 154.636 76.3724 154.437C76.1239 154.225 75.6658 153.793 75.0831 153.249C74.5004 152.704 73.7903 152.046 73.0352 151.378C72.8035 151.174 72.6487 150.914 72.5497 150.617C72.4507 150.321 72.4101 149.988 72.4101 149.644C72.4101 148.928 72.5869 148.162 72.7646 147.58C72.8538 147.288 72.9423 147.042 73.0096 146.869C73.0431 146.782 73.0705 146.714 73.09 146.667C73.0997 146.644 73.1076 146.626 73.1121 146.614C73.1174 146.603 73.12 146.596 73.12 146.596L73.1572 146.513L68.9102 144.769L68.8845 144.866L68.9694 144.892L68.9358 144.973L73.006 146.644L73.0396 146.563L72.9591 146.528C72.9582 146.53 72.7778 146.938 72.5966 147.53C72.4162 148.123 72.234 148.901 72.234 149.647C72.234 150.005 72.2756 150.355 72.3826 150.676C72.4887 150.996 72.6611 151.286 72.9193 151.514C73.6727 152.179 74.381 152.837 74.9637 153.381C75.5464 153.925 76.0036 154.357 76.2592 154.575C76.5863 154.853 77.0222 155.115 77.3715 155.378C77.5467 155.51 77.6996 155.641 77.8048 155.77C77.9109 155.9 77.9675 156.021 77.9666 156.139C77.9666 156.244 77.9242 156.355 77.8074 156.484C77.4856 156.838 77.2053 156.951 76.9479 157.018C76.8198 157.051 76.6969 157.071 76.5775 157.101C76.459 157.131 76.3431 157.173 76.238 157.252C76.1999 157.282 76.1309 157.311 76.0363 157.329C75.9426 157.348 75.8241 157.358 75.6879 157.358C75.0584 157.358 74.06 157.151 73.1617 156.805C72.8468 156.684 72.5922 156.521 72.3516 156.334C71.9918 156.054 71.6663 155.717 71.2321 155.402C70.7981 155.087 70.2533 154.794 69.4619 154.604C68.4229 154.355 67.5812 154.114 66.9683 153.796C66.6615 153.636 66.4131 153.459 66.2229 153.253C66.0328 153.047 65.901 152.813 65.8259 152.535C65.8037 152.452 65.7931 152.364 65.7931 152.27C65.7931 151.994 65.8869 151.672 66.039 151.337C66.2672 150.834 66.6226 150.3 66.963 149.825C67.3035 149.351 67.6262 148.937 67.7933 148.66C67.9172 148.454 68.0533 148.123 68.193 147.735C68.6122 146.573 69.0508 144.917 69.0517 144.915L68.9694 144.892L68.9358 144.973L68.9694 144.892Z" fill="#3D5C9B"/>
<path d="M75.7648 103.207L71.4382 115.705L70.5699 118.187C70.5098 118.353 70.3718 118.479 70.2011 118.522L59.156 121.407C58.9305 121.468 58.7218 121.375 58.6059 121.215C58.5017 121.083 58.4627 120.902 58.5238 120.72L59.1118 119.05L64.4941 103.278C64.5658 103.069 64.7524 102.926 64.9726 102.921L74.3686 102.542L75.2432 102.509C75.6163 102.493 75.886 102.856 75.7648 103.207Z" fill="#6C8AC5"/>
<path d="M75.7646 103.207L71.4379 115.705L70.5696 118.188C70.5095 118.353 70.3715 118.479 70.2009 118.522L59.1557 121.408C58.9302 121.468 58.7215 121.375 58.6057 121.215C60.612 119.561 66.0997 114.843 69.7879 109.799C72.4159 106.206 73.7299 103.871 74.3674 102.543L75.242 102.51C75.616 102.493 75.8856 102.856 75.7646 103.207Z" fill="#486DB7"/>
<path d="M73.5266 110.45C73.5213 110.442 73.5134 110.435 73.5081 110.426C73.6381 110.294 73.8087 110.068 73.7406 109.833C73.6354 109.468 73.096 109.237 72.3356 109.257C71.5751 109.277 71.1772 109.533 71.3363 109.69C71.4955 109.848 71.9191 110.045 72.3904 109.979L72.4974 110.108C72.3515 110.121 72.1967 110.144 72.0323 110.184C71.2939 110.365 70.9587 110.7 71.1471 110.82C71.3363 110.94 71.7917 111.043 72.2383 110.88L72.3435 110.962C72.2303 110.976 72.1127 110.996 71.9898 111.026C71.2514 111.206 70.9163 111.541 71.1046 111.661C71.2939 111.781 71.7493 111.885 72.1958 111.721L72.4426 111.916C72.0217 112.049 71.5548 112.247 71.637 112.4C71.7573 112.623 72.4444 112.675 72.4444 112.675L72.1525 113.585C72.1525 113.585 73.0633 113.155 73.3719 112.692C73.5505 112.425 73.4966 112.144 73.3533 111.964C73.4559 111.816 73.6115 111.53 73.4833 111.293C73.4559 111.242 73.417 111.198 73.3719 111.157C73.4701 111.023 73.6646 110.708 73.5266 110.45Z" fill="#B5C4E2"/>
<path d="M73.5268 110.45L73.6046 110.408C73.5966 110.394 73.5896 110.385 73.5851 110.381L73.5816 110.376L73.5807 110.377L73.5816 110.376L73.5807 110.377L73.5816 110.376L73.5569 110.394L73.5825 110.378L73.5816 110.376L73.5569 110.394L73.5825 110.378L73.5074 110.425L73.5701 110.487C73.6284 110.427 73.6948 110.351 73.7487 110.259C73.8018 110.167 73.8434 110.06 73.8434 109.941C73.8434 109.897 73.8372 109.852 73.8248 109.807C73.7948 109.703 73.7354 109.61 73.6542 109.531C73.5312 109.411 73.3606 109.321 73.1536 109.26C72.9459 109.199 72.7009 109.166 72.4267 109.166C72.3958 109.166 72.3649 109.166 72.334 109.167C72.0014 109.176 71.7345 109.228 71.5443 109.302C71.4488 109.339 71.3727 109.38 71.3153 109.429C71.287 109.454 71.2622 109.48 71.2445 109.51C71.2268 109.54 71.2145 109.576 71.2145 109.614C71.2136 109.666 71.2392 109.716 71.2754 109.751C71.3568 109.831 71.4833 109.911 71.6433 109.973C71.8025 110.035 71.9952 110.079 72.2049 110.079C72.2702 110.079 72.3366 110.075 72.4038 110.066L72.3914 109.979L72.3234 110.035L72.4303 110.164L72.4984 110.108L72.4914 110.019C72.341 110.032 72.1819 110.055 72.012 110.097C71.7034 110.172 71.4612 110.275 71.2914 110.381C71.2065 110.434 71.1393 110.488 71.0907 110.545C71.0659 110.573 71.0465 110.602 71.0315 110.633C71.0173 110.664 71.0076 110.697 71.0076 110.732C71.0076 110.764 71.0164 110.797 71.0332 110.825C71.05 110.853 71.0739 110.875 71.1004 110.893C71.1703 110.937 71.264 110.976 71.3745 111.004C71.4851 111.033 71.6142 111.051 71.7521 111.051C71.9148 111.051 72.0925 111.026 72.2685 110.961L72.2384 110.878L72.1836 110.948L72.2888 111.03L72.3437 110.96L72.3331 110.873C72.2172 110.887 72.097 110.906 71.9687 110.938C71.6601 111.013 71.4178 111.116 71.2481 111.222C71.1632 111.275 71.096 111.33 71.0474 111.386C71.0226 111.414 71.0032 111.444 70.9881 111.475C70.9739 111.506 70.9642 111.538 70.9642 111.574C70.9642 111.605 70.973 111.638 70.9898 111.666C71.0067 111.695 71.0306 111.717 71.0571 111.734C71.1269 111.779 71.2207 111.817 71.3312 111.846C71.4418 111.874 71.5708 111.893 71.7087 111.893C71.8714 111.893 72.0492 111.867 72.2252 111.802L72.1951 111.719L72.1402 111.789L72.387 111.984L72.4418 111.914L72.4153 111.83C72.2181 111.893 72.012 111.969 71.8493 112.05C71.768 112.091 71.6972 112.133 71.6425 112.18C71.6151 112.204 71.5912 112.227 71.5717 112.257C71.5531 112.286 71.5381 112.321 71.5381 112.361C71.5381 112.387 71.5452 112.416 71.5584 112.44C71.5815 112.482 71.6151 112.516 71.6522 112.544C71.7176 112.592 71.7981 112.627 71.8821 112.655C72.135 112.738 72.4329 112.759 72.4365 112.76L72.4427 112.672L72.3587 112.645L72.0041 113.748L72.1881 113.662C72.1898 113.661 72.4197 113.552 72.6912 113.384C72.9618 113.215 73.2739 112.991 73.4436 112.738C73.5321 112.606 73.5719 112.466 73.571 112.334C73.571 112.17 73.5118 112.021 73.4207 111.907L73.3518 111.961L73.4242 112.012C73.464 111.954 73.5118 111.877 73.5498 111.787C73.5878 111.698 73.6178 111.596 73.6178 111.488C73.6178 111.409 73.601 111.326 73.5595 111.248C73.525 111.186 73.479 111.134 73.4295 111.09L73.3703 111.156L73.4419 111.208C73.4816 111.154 73.5348 111.073 73.5798 110.977C73.624 110.881 73.6612 110.768 73.6612 110.647C73.6612 110.567 73.6444 110.485 73.6028 110.407L73.5268 110.45L73.449 110.492C73.4755 110.541 73.4861 110.593 73.4861 110.647C73.4861 110.731 73.4587 110.822 73.4207 110.904C73.3827 110.985 73.3349 111.057 73.3004 111.104L73.2527 111.169L73.3119 111.223C73.3526 111.259 73.3844 111.295 73.4048 111.334C73.4313 111.384 73.4419 111.435 73.4419 111.49C73.4419 111.565 73.4198 111.645 73.388 111.719C73.3562 111.794 73.3145 111.862 73.2792 111.913L73.2421 111.967L73.2827 112.018C73.3509 112.103 73.395 112.215 73.395 112.335C73.395 112.432 73.3677 112.536 73.2969 112.641C73.158 112.851 72.8592 113.074 72.5983 113.235C72.4675 113.316 72.3455 113.383 72.257 113.43C72.2128 113.453 72.1766 113.472 72.1517 113.484C72.1394 113.49 72.1296 113.495 72.1235 113.498L72.1137 113.503L72.1517 113.582L72.2358 113.609L72.562 112.592L72.4506 112.584H72.4435C72.4082 112.581 72.2393 112.564 72.0704 112.524C71.9864 112.505 71.9016 112.478 71.8361 112.447C71.7698 112.417 71.7265 112.379 71.714 112.356L71.7034 112.361H71.7149L71.714 112.356L71.7034 112.361H71.7149H71.7061L71.7149 112.363V112.361H71.7061L71.7149 112.363L71.7167 112.359C71.7211 112.348 71.7477 112.318 71.7928 112.287C71.8599 112.239 71.9652 112.187 72.0846 112.136C72.204 112.087 72.3384 112.039 72.4693 111.998L72.6284 111.947L72.211 111.619L72.165 111.636C72.0103 111.693 71.8537 111.715 71.7087 111.715C71.5859 111.715 71.4718 111.699 71.3754 111.674C71.279 111.65 71.2003 111.616 71.1517 111.585C71.1437 111.58 71.142 111.576 71.1411 111.576V111.574C71.1411 111.571 71.142 111.563 71.1482 111.551C71.1588 111.528 71.1844 111.494 71.2268 111.457C71.3551 111.343 71.6248 111.204 72.0103 111.111C72.1296 111.081 72.2429 111.063 72.3543 111.049L72.5647 111.022L72.2543 110.778L72.2084 110.795C72.0537 110.852 71.8971 110.874 71.7521 110.874C71.6292 110.874 71.5151 110.858 71.4187 110.833C71.3224 110.808 71.2436 110.775 71.195 110.744C71.1871 110.738 71.1853 110.735 71.1844 110.735V110.732C71.1844 110.73 71.1853 110.722 71.1915 110.709C71.2021 110.687 71.2277 110.653 71.2701 110.616C71.3984 110.502 71.6681 110.363 72.0537 110.269C72.2137 110.23 72.364 110.207 72.5055 110.196L72.6744 110.182L72.4276 109.884L72.379 109.891C72.3198 109.899 72.2614 109.903 72.204 109.903C72.0201 109.903 71.8476 109.864 71.707 109.809C71.5664 109.754 71.4559 109.683 71.3993 109.626C71.3886 109.614 71.3913 109.614 71.3904 109.614C71.3904 109.614 71.3904 109.61 71.3957 109.601C71.4046 109.585 71.4329 109.556 71.4798 109.528C71.5505 109.485 71.6619 109.44 71.8069 109.407C71.9519 109.373 72.1305 109.349 72.3384 109.344C72.3684 109.343 72.3976 109.343 72.4267 109.343C72.7734 109.343 73.0652 109.399 73.2765 109.493C73.3827 109.539 73.4675 109.595 73.5304 109.657C73.5931 109.719 73.6347 109.785 73.655 109.857C73.663 109.886 73.6674 109.914 73.6674 109.942C73.6674 110.018 73.64 110.097 73.5966 110.17C73.5533 110.244 73.4959 110.312 73.4445 110.364L73.395 110.413L73.4322 110.473C73.4401 110.485 73.4463 110.491 73.449 110.495L73.4507 110.496L73.479 110.475L73.4481 110.492L73.4507 110.496L73.479 110.475L73.4481 110.492L73.5268 110.45Z" fill="#3D5C9B"/>
<path d="M70.3063 111.584C69.9978 112.605 69.1621 113.256 68.4397 113.038C67.7172 112.819 67.383 111.816 67.6916 110.794C68.0002 109.774 68.8358 109.122 69.5583 109.341C70.2806 109.559 70.6149 110.564 70.3063 111.584Z" fill="#486DB7"/>
<path d="M102.709 152.623C100.456 162.352 90.3448 169.098 72.3064 170.323C35.8832 172.796 15.8161 170.598 8.66866 153.293C7.05225 149.381 6.42533 144.326 6.51379 138.805C9.26296 139.905 14.381 142.909 19.9394 150.957C28.1859 162.906 44.8168 168.95 64.8849 166.34C84.4128 163.803 96.2658 161.001 102.709 152.623Z" fill="#65BAA6"/>
</svg>
