<svg width="500" height="388" viewBox="0 0 500 388" fill="none" xmlns="http://www.w3.org/2000/svg">
<path d="M153.86 68.8968C55.8289 83.4254 7.32091 166.025 1.08824 224.309C-6.52642 295.455 26.4985 333.06 88.1208 328.179C154.932 322.875 231.784 315.654 314.698 328.179C397.642 340.704 459.686 352.187 490.146 275.933C520.605 199.682 480.558 54.4249 368.34 28.8944C285.678 10.0781 255.953 53.7761 153.86 68.8968Z" fill="#ECF0F7"/>
<path d="M381.65 350.888C381.65 350.888 382.384 298.982 365.21 283.578C348.033 268.176 301.867 199.313 339.207 182.359C376.546 165.405 387.771 227.608 411.715 248.682C435.659 269.756 415.38 348.97 415.38 348.97L381.65 350.888Z" fill="#DAE1F0"/>
<path d="M405.116 361.242L403.423 361.072C403.478 360.453 409.657 299.178 398.517 271.674C393.355 258.95 383.09 246.736 372.175 233.787C359.032 218.187 345.467 202.077 338.388 182.613L339.968 182.048C346.933 201.233 360.414 217.228 373.445 232.716C384.443 245.748 394.794 258.075 400.066 271.052C411.404 298.924 405.2 360.649 405.116 361.242Z" fill="#B5C4E2"/>
<path d="M367.493 229.131C365.97 224.956 366.054 216.013 366.14 206.534C366.224 197.424 366.307 187.098 364.531 184.53L365.913 183.571C367.971 186.591 367.888 196.295 367.804 206.563C367.718 215.478 367.663 224.674 369.071 228.567L367.493 229.131Z" fill="#B5C4E2"/>
<path d="M375.645 237.907C374.318 236.328 366.054 232.885 357.341 229.245C339.602 221.882 325.923 215.846 324.541 211.247L326.148 210.766C327.418 214.999 345.102 222.334 357.989 227.695C368.763 232.179 375.446 235.001 376.941 236.835L375.645 237.907Z" fill="#B5C4E2"/>
<path d="M393.608 261.659C392.566 259.627 391.86 252.068 390.844 239.823C389.971 229.244 388.984 217.283 387.659 214.913L389.125 214.067C390.648 216.747 391.55 227.89 392.537 239.684C393.326 249.189 394.117 259.007 395.103 260.868L393.608 261.659Z" fill="#B5C4E2"/>
<path d="M401.393 280.76C398.543 276.216 384.527 272.663 372.146 269.53C359.455 266.314 347.469 263.296 344.566 259.008L345.948 258.049C348.514 261.801 360.753 264.905 372.57 267.894C386.473 271.421 399.617 274.75 402.83 279.856L401.393 280.76Z" fill="#B5C4E2"/>
<path d="M404.411 324.063C403.196 314.131 390.789 308.461 381.734 304.314C378.549 302.875 375.812 301.605 374.234 300.421L375.248 299.065C376.687 300.139 379.367 301.351 382.44 302.762C391.325 306.825 404.748 312.974 406.075 323.835L404.411 324.063Z" fill="#B5C4E2"/>
<path d="M406.498 307.444L404.805 307.331C405.059 303.663 408.442 295.794 412.024 287.444C415.833 278.529 420.175 268.429 419.864 264.875L421.557 264.734C421.925 268.682 417.863 278.134 413.604 288.092C410.221 295.963 406.752 304.058 406.498 307.444Z" fill="#B5C4E2"/>
<path d="M397.389 348.492C417.468 320.14 394.371 226.143 440.114 188.029C485.83 149.918 518.066 171.893 488.792 225.944C459.519 279.996 449.563 343.526 433.684 349.394C417.808 355.262 397.389 348.492 397.389 348.492Z" fill="#DAE1F0"/>
<path d="M413.633 361.524L411.969 361.214C412.053 360.762 420.57 315.682 438.789 256.298C450.747 217.312 465.468 198.947 475.199 186.788C480.613 180.018 484.534 175.109 486.028 169.468L487.664 169.889C486.086 175.872 482.081 180.891 476.524 187.833C466.879 199.877 452.298 218.101 440.425 256.779C422.234 316.105 413.717 361.101 413.633 361.524Z" fill="#B5C4E2"/>
<path d="M448.828 233.419L447.504 232.347C452.862 225.661 464.002 220.47 474.804 215.422C485.803 210.288 496.209 205.434 498.043 199.989L499.649 200.527C497.562 206.649 486.874 211.641 475.536 216.945C464.903 221.938 453.933 227.072 448.828 233.419Z" fill="#B5C4E2"/>
<path d="M440.424 256.808L438.817 256.327C440.03 252.35 439.86 240.473 439.692 227.919C439.382 204.476 439.465 187.606 443.413 184.306L444.515 185.604C440.876 188.65 441.158 210.428 441.383 227.891C441.553 241.121 441.722 252.547 440.424 256.808Z" fill="#B5C4E2"/>
<path d="M429.172 295.936L427.537 295.484C429.483 288.458 440.283 280.983 451.734 273.114C461.803 266.172 472.237 258.979 475.085 252.688L476.636 253.393C473.619 260.108 462.986 267.442 452.721 274.522C442.005 281.858 430.949 289.503 429.172 295.936Z" fill="#B5C4E2"/>
<path d="M425.674 309.221L424.038 308.798C425.815 301.717 420.203 279.826 416.114 263.859C413.097 252.123 411.404 245.353 411.77 243.321L413.434 243.603C413.126 245.382 415.381 254.156 417.75 263.436C422.121 280.504 427.536 301.717 425.674 309.221Z" fill="#B5C4E2"/>
<path d="M418.061 340.962L416.397 340.594C417.269 336.588 424.772 332.582 433.459 327.955C441.553 323.639 450.717 318.758 452.24 314.384L453.849 314.948C452.099 319.915 443.018 324.767 434.248 329.45C426.661 333.513 418.764 337.717 418.061 340.962Z" fill="#B5C4E2"/>
<path d="M141.339 255.622C141.339 255.622 141.282 227.467 140.662 204.11C140.041 180.752 162.152 155.051 167.341 141.737C172.53 128.392 167.087 107.996 185.814 98.969C185.814 98.969 174.815 118.603 184.77 128.788C194.726 138.97 181.979 174.009 180.004 189.045C178.029 204.024 166.692 243.831 141.339 255.622Z" fill="#DAE1F0"/>
<path d="M115.026 301.971C115.026 301.971 101.488 239.063 80.224 212.348C58.9592 185.631 60.3977 189.693 29.3467 183.148C-1.67575 176.604 0.0163708 199.371 0.0163708 199.371C0.0163708 199.371 17.389 189.497 27.4009 202.529C37.4408 215.564 40.3174 232.743 59.9747 259.742C79.6317 286.739 115.026 301.971 115.026 301.971Z" fill="#DAE1F0"/>
<path d="M48.8628 111.099C55.0954 133.894 102.363 145.912 113.221 170.145C124.078 194.377 119.397 252.998 119.397 252.998C119.397 252.998 89.8689 227.525 87.8667 205.011C85.8642 182.5 70.4941 173.557 58.5925 150.651C46.7192 127.715 48.8628 111.099 48.8628 111.099Z" fill="#DAE1F0"/>
<path d="M132.229 359.353L130.537 359.466C130.509 358.816 126.137 294.496 118.579 253.169L117.987 249.924C110.626 209.61 106.198 185.265 83.8621 163.684C60.9055 141.455 48.2144 111.749 48.1016 111.438L49.6526 110.789C49.7655 111.072 62.3437 140.494 85.0466 162.472C107.75 184.418 112.234 208.962 119.651 249.613L120.243 252.858C127.83 294.271 132.201 358.703 132.229 359.353Z" fill="#DAE1F0"/>
<path d="M128.873 337.94C126.899 317.318 108.708 293.198 89.4744 267.669C78.0243 252.463 66.1792 236.776 56.252 220.162L57.6904 219.287C67.5612 235.818 79.3781 251.475 90.8 266.624C110.203 292.351 128.507 316.67 130.537 337.77L128.873 337.94Z" fill="#B5C4E2"/>
<path d="M125.32 301.266C123.12 283.692 131.073 270.744 138.744 258.245C143.623 250.289 148.671 242.08 151.04 232.743C157.076 208.962 161.644 163.995 161.673 163.543L163.365 163.712C163.308 164.164 158.74 209.244 152.676 233.137C150.25 242.731 145.118 251.052 140.182 259.12C132.314 271.956 124.868 284.058 126.984 301.041L125.32 301.266Z" fill="#B5C4E2"/>
<path d="M212.099 270.545C212.099 270.545 205.865 329.223 200.507 335.993C195.177 342.765 177.128 346.149 177.128 355.178C177.128 364.205 327.164 363.076 328.293 355.178C329.421 347.277 314.023 341.636 308.184 335.993C302.345 330.352 295.579 270.545 295.579 270.545H212.099Z" fill="#273B63"/>
<path d="M200.564 348.124L200.478 346.431C201.126 346.402 264.809 343.074 308.213 346.431L308.072 348.124C264.78 344.795 201.212 348.095 200.564 348.124Z" fill="#C8F2E9"/>
<path d="M88.8259 60.8844C77.9962 65.2288 76.3041 274.608 88.713 285.892C101.122 297.176 409.092 294.919 413.604 285.892C418.116 276.865 427.761 70.3914 410.108 59.107C392.453 47.8228 115.167 50.2771 88.8259 60.8844Z" fill="#273B63"/>
<path d="M98.9789 72.931C90.4616 79.0245 93.3383 243.013 98.9789 249.783C104.619 256.552 392.284 256.552 400.181 249.783C408.076 243.013 405.821 80.0119 400.181 72.931C394.541 65.8501 108.004 66.4708 98.9789 72.931Z" fill="#DAE1F0"/>
<path d="M286.242 254.862C286.242 254.862 286.242 232.858 290.192 224.957C294.139 217.059 309.368 191.104 315.573 164.024C321.777 136.941 314.444 69.2355 305.984 69.2355C297.523 69.2355 298.087 119.45 298.087 119.45C298.087 119.45 298.651 56.2588 288.499 56.2588C278.347 56.2588 277.782 115.501 277.782 115.501C277.782 115.501 278.347 44.9745 266.502 44.9745C254.657 44.9745 255.221 114.937 255.221 114.937C255.221 114.937 254.74 57.3872 243.684 57.3872C232.63 57.3872 234.914 145.403 232.095 171.358C229.274 197.312 243.684 254.862 243.684 254.862H286.242Z" fill="white"/>
<path d="M311.568 178.127C313.119 173.529 314.473 168.789 315.573 164.023C316.955 157.986 317.66 149.946 317.83 141.087C291.404 145.403 249.382 161.85 232.32 168.789C232.236 169.693 232.15 170.539 232.066 171.329C231.954 172.374 231.868 173.502 231.813 174.629C246.929 179.99 283.141 190.203 311.568 178.127Z" fill="#ECF0F7"/>
<path d="M133.865 8.86445C129.325 16.1426 128.309 157.816 133.865 167.323C139.421 176.83 354.07 170.568 363.574 158.239C373.079 145.912 367.522 27.0603 363.574 11.9958C359.625 -3.01229 141.79 -3.80213 133.865 8.86445Z" fill="#B5C4E2"/>
<path d="M249.468 129.351C227.863 129.351 137.08 14.2813 133.216 9.37263L134.542 8.32886C135.472 9.51371 228.654 127.659 249.468 127.659C270.279 127.659 362.022 12.6732 362.924 11.5166L364.251 12.5604C360.442 17.328 271.071 129.351 249.468 129.351Z" fill="#3D5C9B"/>
<path d="M134.485 167.917L133.244 166.759C133.668 166.307 176.31 119.986 209.758 97.0509L210.717 98.4615C177.438 121.284 134.909 167.465 134.485 167.917Z" fill="#3D5C9B"/>
<path d="M362.953 158.86C326.205 119.393 293.632 93.806 293.322 93.552L294.364 92.2263C294.704 92.48 327.362 118.152 364.194 157.732L362.953 158.86Z" fill="#3D5C9B"/>
<path d="M231.191 110.14C219.91 110.14 228.145 135.247 224.762 147.096C221.376 158.944 211.224 169.664 214.045 189.411C216.864 209.16 232.657 222.135 236.043 231.164C239.426 240.191 236.043 254.861 236.043 254.861H273.833C273.833 254.861 271.578 240.755 270.449 211.415C269.321 182.077 246.843 176.436 243.684 171.922C240.555 167.407 249.581 155.558 249.016 140.326C248.452 125.092 237.085 110.14 231.191 110.14Z" fill="white"/>
<path d="M252.23 283.383C251.947 283.383 251.665 283.383 251.385 283.355C245.406 282.876 243.459 278.333 243.6 274.609C243.77 270.18 246.759 265.608 251.469 265.608C255.926 265.608 259.252 267.16 260.887 269.953C262.327 272.464 262.214 275.767 260.608 278.586C258.829 281.578 255.699 283.383 252.23 283.383ZM251.469 267.275C247.804 267.275 245.434 271.027 245.293 274.664C245.181 277.797 246.73 281.296 251.524 281.662C251.751 281.69 252.005 281.69 252.23 281.69C255.106 281.69 257.674 280.196 259.111 277.685C260.438 275.399 260.55 272.746 259.393 270.745C258.097 268.516 255.276 267.275 251.469 267.275Z" fill="#C8F2E9"/>
<path d="M114.603 4.52076C143.961 9.40126 147.43 29.1485 146.866 54.3123C146.33 79.4762 161.644 95.8946 172.023 95.8946C172.023 95.8946 158.345 100.832 147.966 95.8946C137.559 90.9579 127.181 104.64 100.389 98.095C73.5964 91.522 49.5117 72.0567 61.0182 38.2887C72.4965 4.52077 94.9176 1.22015 114.603 4.52076Z" fill="#7BE1C9"/>
<path d="M101.066 44.1552C101.066 44.1552 111.219 23.6179 121.371 33.9712C131.524 44.3245 106.481 62.5203 101.743 74.0867C101.743 74.0867 75.345 48.6689 86.1749 33.9712C97.0045 19.2735 101.066 44.1552 101.066 44.1552Z" fill="white"/>
<path d="M312.809 117.982C312.809 117.982 322.961 97.445 333.115 107.798C343.268 118.152 318.224 136.347 313.485 147.913C313.485 147.913 287.088 122.496 297.917 107.798C308.749 93.1006 312.809 117.982 312.809 117.982Z" fill="#65BAA6"/>
<path d="M326.261 79.1081C355.113 83.9321 358.525 103.313 357.989 128.054C357.454 152.793 372.513 168.929 382.722 168.929C382.722 168.929 369.27 173.783 359.061 168.929C348.851 164.078 338.615 177.535 312.273 171.074C285.931 164.613 262.27 145.459 273.551 112.284C284.86 79.1081 306.915 75.8921 326.261 79.1081Z" fill="white"/>
<path d="M312.809 117.982C312.809 117.982 322.961 97.445 333.115 107.798C343.268 118.151 318.224 136.347 313.485 147.913C313.485 147.913 287.088 122.496 297.917 107.798C308.749 93.1006 312.809 117.982 312.809 117.982Z" fill="#7BE1C9"/>
<path d="M227.08 331.281C226.9 333.049 226.62 334.779 226.232 336.463C221.268 357.912 198.997 372.783 159.265 375.485C79.0379 380.934 34.8373 376.091 19.0939 337.94C15.5336 329.317 14.1527 318.174 14.3475 306.001C15.0019 264.266 34.0621 210.3 46.948 203.506C63.5988 194.724 75.4055 199.267 75.4055 199.267C102.35 205.019 145.339 284.045 178.944 287.072C212.548 290.101 229.43 307.76 227.08 331.281Z" fill="#95E7D4"/>
<path d="M50.5785 251.647C50.5785 251.647 70.5598 267.695 77.5227 285.559C84.4858 303.424 84.4858 319.167 99.0173 322.194C113.549 325.22 140.797 327.039 168.347 318.863C195.898 310.689 196.502 300.999 167.44 295.854C138.376 290.706 106.588 263.154 97.5059 243.473C88.424 223.79 88.7257 215.919 82.9742 210.774C77.2227 205.626 68.7444 203.81 60.2682 213.8C51.7919 223.79 46.9461 240.444 50.5785 251.647Z" fill="#65BAA6"/>
<path d="M111.309 198.086C111.658 197.609 112.088 197.182 112.419 196.699C113.904 194.543 112.277 192.098 110.425 190.838C109.167 189.98 108.98 189.299 109.287 187.725C109.531 186.484 110.236 185.659 109.996 184.363C109.798 183.283 109.324 181.738 108.479 181.035C107.614 180.314 106.341 180.373 105.344 179.948C102.87 178.894 105.168 176.924 104.112 175.074C102.531 172.308 98.0103 172.971 95.3206 172.561C95.3402 172.565 95.3536 172.559 95.3576 172.541C93.0477 171.62 92.6445 169.193 89.6822 169.687C88.2836 169.918 87.3136 170.798 86.1469 171.485C84.1233 172.678 82.419 171.038 80.4598 171.774C78.2453 172.61 76.4787 174.605 75.8555 176.886C74.9886 180.06 73.1502 179.132 70.6474 180.272C69.3189 180.878 67.6654 181.299 67.942 183.16C68.0901 184.154 68.9665 185.007 69.0366 185.99C69.1243 187.247 67.936 187.961 67.2369 188.896C66.485 189.903 65.9944 191.371 66.5027 192.579C67.05 193.884 68.5827 194.523 68.6548 196.113C68.7542 198.328 65.6398 200.144 66.9098 202.563C67.7491 204.163 69.5682 204.163 70.7778 205.186C71.5901 205.874 71.475 206.899 71.3816 207.818C71.1265 210.34 72.2969 212.575 75.2516 211.993C77.4039 211.568 78.9757 211.325 80.5045 213.177C81.8387 214.795 83.1495 215.595 85.405 215.403C86.8384 215.282 88.1668 214.687 89.538 214.303C90.8235 213.942 91.2189 214.158 92.3719 214.513C94.8046 215.264 96.2126 212.945 98.4738 212.974C99.3425 212.987 99.9134 213.642 100.799 213.79C101.828 213.959 102.952 213.622 103.832 213.104C104.989 212.421 105.536 211.614 105.93 210.348C106.269 209.257 106.512 208.869 107.566 208.426C110.236 207.298 111.689 206.063 111.514 202.944C111.443 201.707 110.565 200.718 110.7 199.505C110.762 198.952 111.005 198.5 111.309 198.086Z" fill="#1C2A47"/>
<path d="M208.713 380.229C208.713 384.519 168.864 388 119.706 388C70.5484 388 30.6987 384.521 30.6987 380.229C30.6987 375.935 70.5484 372.456 119.706 372.456C168.864 372.458 208.713 375.937 208.713 380.229Z" fill="#DAE1F0"/>
<path d="M111.734 237.317C111.734 237.317 128.587 255.081 135.449 256.799L124.448 263.763L109.815 255.586C109.817 255.586 104.368 241.052 111.734 237.317Z" fill="#B5C4E2"/>
<path d="M111.734 237.316L111.592 237.451C111.594 237.453 115.809 241.897 120.886 246.556C123.424 248.886 126.178 251.273 128.732 253.185C130.009 254.141 131.234 254.979 132.362 255.636C133.49 256.291 134.516 256.765 135.402 256.985L135.449 256.798L135.346 256.632L124.445 263.535L109.913 255.416L109.818 255.585L110.001 255.517C110.001 255.517 109.993 255.497 109.979 255.462C109.769 254.886 108.071 250.054 108.073 245.444C108.073 243.782 108.293 242.151 108.873 240.762C109.453 239.371 110.385 238.222 111.824 237.49L111.734 237.316L111.592 237.451L111.734 237.316L111.647 237.144C110.116 237.918 109.117 239.155 108.513 240.61C107.907 242.067 107.683 243.747 107.683 245.444C107.685 250.46 109.633 255.645 109.637 255.656L109.662 255.722L124.458 263.989L135.94 256.718L135.498 256.608C134.668 256.401 133.667 255.945 132.559 255.299C128.677 253.044 123.496 248.509 119.299 244.545C117.2 242.561 115.343 240.72 114.013 239.375C113.347 238.703 112.813 238.154 112.445 237.775C112.262 237.583 112.12 237.435 112.023 237.336C111.927 237.235 111.877 237.182 111.877 237.182L111.777 237.078L111.649 237.144L111.734 237.316Z" fill="#3D5C9B"/>
<path d="M120.664 275.414C120.664 275.414 147.558 271.228 164.109 278.697C180.659 286.163 176.22 298.679 170.971 309.377C165.722 320.075 160.88 324.113 160.88 324.113L150.789 319.874C150.789 319.874 154.421 301.708 160.477 292.624C160.477 292.624 136.863 305.138 124.147 304.532C111.432 303.926 111.633 280.107 111.633 280.107L120.664 275.414Z" fill="#1C2A47"/>
<path d="M82.0415 217.993C82.0415 217.993 75.1017 221.675 69.8547 223.692C64.6078 225.711 62.993 233.481 66.0197 239.133C69.0465 244.785 76.6151 259.217 79.8444 267.797C83.0737 276.374 84.9415 283.439 84.9415 283.439C84.9415 283.439 102.551 286.821 112.34 283.287C122.129 279.756 120.666 275.417 120.666 275.417C120.666 275.417 114.359 253.263 113.45 247.307C113.45 247.307 116.175 241.15 113.954 235.703C111.734 230.252 105.982 228.032 103.156 224.701C100.33 221.373 89.3822 217.037 82.0415 217.993Z" fill="white"/>
<path d="M103.462 195.054C103.232 198.08 102.965 201.12 103.376 205.348C103.703 208.8 102.044 211.536 97.2489 215.414C97.2489 215.414 95.4922 215.57 93.5075 214.988C93.4705 214.988 93.4355 214.977 93.3984 214.964L93.8463 218.284L93.9437 218.987L94.0041 219.496C94.0041 219.496 94.0762 221.625 91.5811 222.232C89.0746 222.838 83.9288 220.415 82.0394 217.993C82.0394 217.993 82.3413 208.911 81.5798 205.351C81.5798 205.351 79.2425 201.486 77.9474 196.196C76.6639 190.89 80.6351 185.732 84.3299 183.829C88.0364 181.94 99.2258 181.881 102.629 189.607C102.627 189.602 103.694 192.025 103.462 195.054Z" fill="#B5C4E2"/>
<path d="M103.462 195.054L103.267 195.038C103.125 196.916 102.967 198.805 102.967 200.983C102.967 202.317 103.026 203.757 103.184 205.366C103.209 205.637 103.223 205.906 103.223 206.168C103.221 207.669 102.798 209.043 101.826 210.5C100.852 211.955 99.3253 213.487 97.1282 215.261L97.251 215.413L97.2333 215.217H97.2256C97.1829 215.221 96.9823 215.235 96.6667 215.235C96.0006 215.235 94.8262 215.169 93.5641 214.798L93.5368 214.792H93.5094V214.811L93.5114 214.792H93.5094V214.811L93.5114 214.792L93.4997 214.789L93.4627 214.778L93.1667 214.677L93.6576 218.305L93.755 219.009L93.9476 218.98L93.755 219.004L93.8152 219.513L94.008 219.489L93.8134 219.494V219.496V219.507C93.8134 219.593 93.7977 220.1 93.5094 220.638C93.3653 220.909 93.153 221.189 92.8394 221.436C92.524 221.683 92.1052 221.899 91.5402 222.035C91.2949 222.095 91.0146 222.126 90.7106 222.123C89.4212 222.126 87.6918 221.592 86.0927 220.788C84.4916 219.985 83.0115 218.912 82.1973 217.865L82.0435 217.986L82.2381 217.992C82.2381 217.99 82.2965 216.209 82.2965 213.914C82.2965 212.468 82.2731 210.819 82.1953 209.281C82.1175 207.74 81.9888 206.314 81.7726 205.302L81.7649 205.269L81.7474 205.242C81.7474 205.242 81.7395 205.229 81.7221 205.2C81.4669 204.766 79.3438 201.074 78.1364 196.14C77.9709 195.459 77.8948 194.782 77.8948 194.112C77.8948 191.897 78.7324 189.774 79.9711 187.997C81.2079 186.223 82.8458 184.801 84.4175 183.992C85.0136 183.69 85.8278 183.428 86.7802 183.245C87.7326 183.062 88.8272 182.956 89.9861 182.956C92.2941 182.956 94.8612 183.377 97.1225 184.426C99.3837 185.48 101.337 187.155 102.447 189.675L102.449 189.679C102.494 189.783 103.3 191.692 103.298 194.181C103.298 194.456 103.289 194.741 103.267 195.032L103.462 195.054L103.657 195.069C103.68 194.769 103.69 194.474 103.69 194.187C103.69 191.535 102.812 189.54 102.806 189.525C101.653 186.904 99.6136 185.16 97.288 184.08C94.9604 183 92.3408 182.572 89.9861 182.572C88.8038 182.572 87.6878 182.68 86.7081 182.87C85.7284 183.057 84.8851 183.324 84.2423 183.655C82.6044 184.497 80.9293 185.956 79.6535 187.784C78.3797 189.609 77.5091 191.807 77.5073 194.119C77.5073 194.82 77.5871 195.528 77.7584 196.24C79.0615 201.563 81.4084 205.438 81.4144 205.449L81.5819 205.348L81.391 205.388C81.5993 206.36 81.7298 207.777 81.8059 209.305C81.8817 210.835 81.905 212.479 81.905 213.921C81.905 215.063 81.8896 216.081 81.8759 216.811C81.868 217.175 81.8603 217.47 81.8563 217.673C81.8506 217.876 81.8466 217.984 81.8466 217.984L81.8446 218.054L81.8876 218.109C82.762 219.231 84.2754 220.32 85.9155 221.142C87.5554 221.965 89.3161 222.516 90.7086 222.518C91.0379 222.518 91.3476 222.487 91.63 222.419C92.2434 222.271 92.7168 222.029 93.077 221.746C93.6185 221.323 93.9009 220.805 94.045 220.375C94.1892 219.948 94.2009 219.606 94.2009 219.511V219.487V219.478L94.1385 218.958L94.0411 218.255L93.5932 214.937L93.4003 214.961L93.338 215.147C93.375 215.16 93.4277 215.18 93.5094 215.182V214.988L93.455 215.175C94.7676 215.559 95.9772 215.627 96.6686 215.627C97.0425 215.627 97.2646 215.607 97.2704 215.607L97.3288 215.601L97.3755 215.565C99.5883 213.775 101.144 212.224 102.153 210.718C103.162 209.212 103.618 207.746 103.616 206.17C103.616 205.893 103.602 205.615 103.575 205.333C103.419 203.734 103.361 202.308 103.361 200.988C103.361 198.828 103.517 196.949 103.661 195.071L103.462 195.054Z" fill="#3D5C9B"/>
<path d="M82.4564 200.689C82.4564 200.689 82.4778 200.714 82.5188 200.758C82.657 200.912 83.0057 201.311 83.3173 201.767C83.631 202.221 83.9036 202.735 83.9016 203.099C83.9016 203.156 83.8957 203.209 83.8822 203.258C83.7945 203.582 83.6133 203.765 83.4458 203.95C83.2783 204.133 83.1225 204.322 83.1225 204.635C83.1225 204.788 83.1575 204.964 83.2413 205.18C83.6581 206.28 83.925 206.736 83.927 206.739C83.9407 206.763 83.9698 206.769 83.9931 206.756C84.0165 206.743 84.0244 206.712 84.0107 206.69C84.0107 206.69 83.9951 206.661 83.964 206.604C83.8706 206.428 83.6446 205.967 83.333 205.145C83.253 204.935 83.2219 204.77 83.2219 204.635C83.2219 204.358 83.3524 204.201 83.5199 204.016C83.6854 203.833 83.884 203.63 83.9777 203.282C83.9931 203.225 84.0011 203.163 84.0011 203.099C83.9991 202.634 83.629 202.023 83.2629 201.52C82.8966 201.018 82.5304 200.625 82.5285 200.625C82.511 200.606 82.4797 200.603 82.4604 200.623C82.439 200.639 82.437 200.669 82.4564 200.689Z" fill="#273B63"/>
<path d="M102.321 196.189C102.321 196.189 100.884 195.735 98.9531 197.097C98.9531 197.097 99.2941 195.543 100.43 195.355C101.566 195.168 102.321 196.189 102.321 196.189Z" fill="#273B63"/>
<path d="M94.5644 197.567C94.5644 197.567 93.5338 196.315 92.0259 196.536C90.5181 196.756 89.3783 197.344 89.3783 197.344C89.3783 197.344 90.0406 195.874 91.5117 195.544C92.9845 195.213 94.1611 196.059 94.5644 197.567Z" fill="#273B63"/>
<path d="M99.4651 200.012C99.4127 200.773 99.6132 201.408 99.9152 201.427C100.217 201.449 100.505 200.85 100.56 200.087C100.613 199.327 100.412 198.692 100.11 198.672C99.8081 198.652 99.5178 199.252 99.4651 200.012Z" fill="#273B63"/>
<path d="M92.8431 200.92C92.7906 201.682 92.9912 202.315 93.2931 202.337C93.5951 202.359 93.8834 201.76 93.9381 200.997C93.9905 200.234 93.7899 199.602 93.488 199.58C93.184 199.56 92.8957 200.159 92.8431 200.92Z" fill="#273B63"/>
<path d="M97.6371 201.059C97.6371 201.059 97.7462 201.251 97.9119 201.55C98.1592 202 98.5293 202.699 98.8392 203.373C99.1489 204.046 99.3924 204.702 99.3924 205.042C99.3924 205.141 99.3711 205.209 99.338 205.24C99.2269 205.35 99.0087 205.474 98.7475 205.591C98.3561 205.765 97.865 205.928 97.4715 206.045C97.2747 206.102 97.1034 206.153 96.9807 206.186C96.8579 206.219 96.7858 206.236 96.7858 206.236C96.7605 206.243 96.7448 206.27 96.7508 206.296C96.7565 206.32 96.7838 206.336 96.8092 206.331C96.8092 206.331 97.3333 206.199 97.9196 206.005C98.2119 205.908 98.5196 205.798 98.7865 205.681C99.0534 205.562 99.2776 205.439 99.4061 205.311C99.4685 205.247 99.4899 205.154 99.4899 205.042C99.4899 204.788 99.3768 204.418 99.2113 203.993C98.7145 202.728 97.7228 201.01 97.7228 201.01C97.7091 200.986 97.68 200.98 97.6567 200.993C97.6333 201.004 97.6236 201.035 97.6371 201.059Z" fill="#273B63"/>
<path d="M97.0686 208.153C97.0686 208.153 97.014 208.159 96.9128 208.168C96.8114 208.175 96.6672 208.184 96.49 208.184C95.8101 208.184 94.6529 208.065 93.6709 207.377C93.6495 207.361 93.6185 207.366 93.6028 207.388C93.5872 207.41 93.5931 207.441 93.6145 207.456C94.6218 208.159 95.7984 208.28 96.4881 208.28C96.8504 208.28 97.0783 208.247 97.0803 208.247C97.1076 208.243 97.125 208.219 97.1213 208.192C97.1193 208.168 97.094 208.148 97.0686 208.153Z" fill="#273B63"/>
<path d="M87.5144 192.001C87.5144 192.001 88.346 193.59 87.8922 197.148C87.4383 200.704 87.2104 199.419 86.9085 201.008C86.6067 202.597 87.4383 203.81 86.3788 205.095C85.3193 206.382 86.9087 201.687 83.578 198.887C80.2475 196.086 81.0811 204.337 81.9128 205.926C82.7444 207.515 84.1079 208.122 84.1079 208.122L81.9888 210.619C81.9888 210.619 71.771 205.774 72.3009 195.557C72.8308 185.337 78.8102 182.535 78.8102 182.535C78.8102 182.535 83.8059 175.497 96.4445 178.753C109.085 182.006 107.535 192.362 107.42 193.89C107.118 197.904 103.181 197.977 103.181 197.977C103.181 197.977 103.559 193.738 100.835 191.24C100.835 191.24 100.077 192.982 97.428 193.663C94.7793 194.344 96.0667 191.922 96.5964 190.861C96.5964 190.861 95.083 192.905 92.6602 192.905C90.2392 192.909 87.5144 192.001 87.5144 192.001Z" fill="#1C2A47"/>
<path d="M93.9432 218.986C92.792 218.684 91.012 218.005 88.7974 216.528C84.7169 213.803 85.3947 208.655 85.3947 208.655C87.1379 212.822 92.6615 214.638 92.6615 214.638L93.5088 214.989C93.4718 214.989 93.4367 214.978 93.3997 214.965L93.8478 218.285L93.9432 218.986Z" fill="#273B63"/>
<path d="M68.9454 225.71C74.2741 225.159 78.3313 230.957 83.4771 241.454C88.6227 251.951 94.0724 267.999 94.0724 267.999C94.0724 267.999 118.393 265.272 126.264 259.016C126.264 259.016 127.98 252.659 129.191 251.144C130.403 249.632 132.722 248.521 134.238 247.712C135.751 246.905 136.76 246.098 136.76 246.098L130.806 261.943C130.806 261.943 126.768 265.678 124.55 267.798C122.329 269.917 98.5131 282.431 89.0278 280.008C79.5427 277.586 67.7338 252.659 66.423 246.603C65.1122 240.546 62.0837 226.416 68.9454 225.71Z" fill="#B5C4E2"/>
<path d="M68.9451 225.711L68.9645 225.902C69.1904 225.878 69.4126 225.867 69.6326 225.867C70.844 225.867 71.9873 226.213 73.1092 226.894C74.792 227.913 76.4222 229.69 78.0875 232.156C79.7527 234.623 81.4569 237.78 83.3014 241.538C85.8705 246.776 88.5175 253.409 90.5215 258.728C91.5246 261.389 92.3659 263.721 92.9562 265.387C93.2522 266.223 93.4841 266.891 93.6437 267.347C93.8035 267.808 93.8872 268.057 93.8872 268.057L93.9377 268.204L94.0935 268.187C94.0975 268.187 100.182 267.506 107.256 266.04C110.793 265.306 114.577 264.378 117.976 263.238C121.375 262.098 124.386 260.749 126.386 259.162L126.437 259.125L126.454 259.061C126.454 259.061 126.482 258.962 126.53 258.787C126.702 258.17 127.15 256.605 127.685 255.031C127.952 254.244 128.242 253.457 128.529 252.785C128.815 252.115 129.103 251.559 129.345 251.257C129.927 250.53 130.794 249.884 131.703 249.322C132.615 248.762 133.569 248.281 134.329 247.876C135.858 247.06 136.875 246.247 136.882 246.242L136.762 246.09L136.578 246.022L130.624 261.869L130.808 261.937L130.675 261.794C130.675 261.794 126.638 265.528 124.415 267.649C124.3 267.759 124.109 267.911 123.854 268.09C122.892 268.769 121.024 269.867 118.617 271.125C115.004 273.012 110.17 275.263 105.304 277.04C100.441 278.816 95.5428 280.119 91.8266 280.117C90.8118 280.117 89.8867 280.02 89.0765 279.813C86.7723 279.229 84.2714 277.24 81.825 274.48C78.1518 270.343 74.5875 264.483 71.8257 259.096C70.4448 256.402 69.2625 253.828 68.3648 251.643C67.4668 249.461 66.8551 247.666 66.6138 246.553C65.9378 243.436 64.8101 238.183 64.8121 233.746C64.8121 231.66 65.0634 229.758 65.7118 228.358C66.0352 227.657 66.456 227.084 66.9876 226.665C67.5212 226.246 68.1679 225.977 68.9685 225.896L68.9451 225.711L68.9257 225.517C68.0608 225.605 67.3363 225.902 66.7443 226.368C65.858 227.066 65.2796 228.127 64.9212 229.401C64.5628 230.675 64.4207 232.17 64.4207 233.757C64.4207 238.254 65.556 243.522 66.232 246.643C66.5671 248.187 67.5525 250.88 68.9958 254.116C71.1596 258.966 74.3479 265.013 77.8928 270.083C79.6652 272.62 81.5253 274.91 83.3968 276.687C85.2686 278.461 87.15 279.729 88.979 280.196C89.8301 280.415 90.7864 280.512 91.8246 280.512C94.53 280.512 97.7981 279.846 101.22 278.819C106.352 277.28 111.825 274.93 116.21 272.783C118.403 271.709 120.321 270.684 121.79 269.838C122.524 269.415 123.145 269.036 123.634 268.714C124.123 268.392 124.476 268.132 124.684 267.936C125.792 266.877 127.356 265.414 128.644 264.215C129.286 263.615 129.861 263.084 130.274 262.7C130.48 262.508 130.646 262.356 130.761 262.248C130.876 262.14 130.938 262.085 130.938 262.085L130.971 262.054L137.19 245.502L136.637 245.945L136.627 245.951C136.516 246.039 135.55 246.789 134.146 247.541C133.392 247.942 132.43 248.425 131.499 248.998C130.568 249.571 129.668 250.237 129.039 251.021C128.873 251.226 128.71 251.502 128.544 251.826C127.964 252.966 127.35 254.742 126.877 256.244C126.406 257.743 126.077 258.962 126.077 258.964L126.265 259.014L126.145 258.862C124.209 260.401 121.229 261.743 117.853 262.874C112.789 264.572 106.835 265.806 102.151 266.613C99.808 267.016 97.7826 267.314 96.3431 267.512C95.6226 267.609 95.0499 267.682 94.6565 267.731C94.4599 267.755 94.3078 267.775 94.2066 267.786C94.1032 267.799 94.0508 267.803 94.0508 267.803L94.0722 267.997L94.2573 267.933C94.2553 267.931 88.8076 251.883 83.6521 241.366C81.1883 236.34 78.9718 232.388 76.7319 229.674C75.612 228.318 74.4843 227.269 73.3117 226.559C72.1394 225.847 70.92 225.477 69.6326 225.477C69.3989 225.477 69.1633 225.49 68.9257 225.515L68.9451 225.711Z" fill="#3D5C9B"/>
<path d="M84.9412 283.441C84.9412 283.441 79.139 303.725 93.6707 314.022C108.202 324.316 145.744 301.305 159.064 285.561C159.064 285.561 179.449 313.619 196.806 322.094L205.083 314.423C205.083 314.423 181.668 280.11 169.358 272.236C157.046 264.364 117.89 279.704 117.89 279.704C117.89 279.704 95.1839 285.156 84.9412 283.441Z" fill="#3D5C9B"/>
<path d="M232.732 317.553C231.925 317.351 231.321 318.158 230.411 318.358C229.503 318.561 218.2 322.397 213.456 323.407L205.081 314.423L196.806 322.095L205.336 328.931C206.218 330.556 208.089 333.671 210.531 335.822C213.963 338.849 216.688 337.54 218.2 336.429C219.714 335.318 222.438 332.291 225.163 330.17C227.889 328.049 231.724 324.114 232.732 321.489C233.741 318.865 233.538 317.754 232.732 317.553Z" fill="#B5C4E2"/>
<path d="M232.732 317.551L232.778 317.364C232.674 317.337 232.571 317.324 232.472 317.326C232.271 317.326 232.081 317.375 231.903 317.445C231.636 317.551 231.394 317.705 231.145 317.844C230.896 317.985 230.644 318.109 230.369 318.171C230.303 318.186 230.203 318.212 230.069 318.252C229.057 318.55 226.007 319.555 222.648 320.602C219.291 321.654 215.627 322.745 213.419 323.215L213.459 323.406L213.602 323.274L205.092 314.15L196.509 322.106L205.215 329.083L205.336 328.931L205.167 329.024C206.055 330.659 207.931 333.788 210.401 335.97C212.002 337.383 213.481 337.884 214.761 337.884C216.267 337.884 217.479 337.198 218.314 336.587C219.092 336.016 220.15 334.98 221.36 333.821C222.571 332.661 223.93 331.378 225.282 330.326C226.655 329.257 228.301 327.738 229.734 326.151C231.167 324.564 232.388 322.917 232.912 321.561C233.393 320.309 233.609 319.392 233.609 318.722C233.609 318.347 233.541 318.045 233.397 317.813C233.256 317.58 233.031 317.428 232.778 317.366L232.732 317.551L232.685 317.741C232.855 317.787 232.974 317.869 233.067 318.014C233.157 318.162 233.221 318.389 233.221 318.717C233.223 319.304 233.023 320.19 232.551 321.418C232.064 322.686 230.865 324.319 229.445 325.886C228.028 327.454 226.395 328.962 225.044 330.013C223.67 331.08 222.306 332.372 221.092 333.534C219.884 334.696 218.821 335.73 218.085 336.27C217.283 336.856 216.148 337.493 214.761 337.491C213.584 337.489 212.209 337.041 210.659 335.672C208.25 333.549 206.381 330.45 205.506 328.836L205.488 328.801L197.102 322.081L205.07 314.696L213.388 323.618L213.496 323.596C215.883 323.087 219.895 321.874 223.43 320.765C225.196 320.21 226.844 319.679 228.103 319.277C228.736 319.074 229.269 318.905 229.674 318.777C229.877 318.715 230.045 318.662 230.177 318.623C230.311 318.585 230.406 318.556 230.453 318.548C230.898 318.448 231.259 318.224 231.583 318.038C231.746 317.946 231.901 317.862 232.048 317.802C232.196 317.745 232.335 317.712 232.472 317.712C232.54 317.712 232.61 317.719 232.685 317.739L232.732 317.551Z" fill="#3D5C9B"/>
<path d="M151.915 319.42C151.915 319.42 150.195 325.91 149.165 327.625C148.133 329.338 144.122 333.747 144.81 336.32C145.497 338.891 148.374 339.918 152.959 341.02C157.544 342.122 158.218 344.761 161.083 345.864C163.948 346.968 167.243 347.438 168.046 346.822C168.848 346.212 170.064 346.721 171.528 345.107C173.061 343.414 169.813 342.078 168.097 340.615C166.986 339.669 164.067 336.807 160.742 333.869C157.417 330.93 160.88 323.102 160.88 323.102L151.915 319.42Z" fill="#B5C4E2"/>
<path d="M151.915 319.42L151.726 319.369C151.726 319.369 151.699 319.471 151.65 319.649C151.479 320.28 151.037 321.885 150.524 323.516C150.269 324.332 149.995 325.154 149.732 325.864C149.469 326.574 149.21 327.171 148.997 327.524C148.767 327.905 148.374 328.443 147.912 329.069C147.221 330.008 146.383 331.148 145.714 332.306C145.046 333.465 144.537 334.64 144.535 335.683C144.535 335.919 144.562 336.15 144.621 336.371C144.8 337.041 145.127 337.621 145.585 338.115C146.273 338.86 147.246 339.422 148.475 339.907C149.704 340.39 151.19 340.793 152.912 341.21C155.171 341.754 156.447 342.665 157.538 343.588C158.083 344.054 158.58 344.523 159.127 344.949C159.674 345.376 160.272 345.76 161.011 346.044C163.032 346.82 165.251 347.285 166.715 347.285C167.033 347.285 167.315 347.266 167.559 347.217C167.8 347.169 168.005 347.096 168.163 346.975C168.334 346.845 168.531 346.77 168.768 346.71C169.125 346.618 169.565 346.567 170.061 346.377C170.558 346.188 171.104 345.861 171.67 345.235C171.972 344.905 172.122 344.556 172.12 344.21C172.12 343.824 171.939 343.472 171.674 343.15C171.275 342.665 170.669 342.217 170.034 341.776C169.399 341.335 168.733 340.901 168.221 340.462C167.674 339.995 166.665 339.043 165.381 337.843C164.098 336.642 162.534 335.191 160.87 333.719C160.36 333.269 160.019 332.696 159.801 332.041C159.583 331.389 159.494 330.654 159.494 329.896C159.494 328.318 159.883 326.629 160.274 325.346C160.471 324.702 160.666 324.16 160.814 323.778C160.888 323.587 160.948 323.437 160.991 323.333C161.013 323.282 161.03 323.243 161.04 323.216C161.052 323.192 161.057 323.177 161.057 323.177L161.139 322.994L151.784 319.149L151.728 319.363L151.915 319.42L151.841 319.599L160.806 323.282L160.88 323.104L160.703 323.027C160.701 323.031 160.304 323.931 159.904 325.236C159.507 326.543 159.106 328.258 159.106 329.903C159.106 330.692 159.197 331.464 159.433 332.171C159.667 332.877 160.047 333.516 160.615 334.019C162.275 335.485 163.835 336.935 165.118 338.134C166.402 339.334 167.409 340.286 167.972 340.767C168.692 341.379 169.652 341.957 170.422 342.537C170.808 342.828 171.144 343.117 171.376 343.401C171.61 343.688 171.735 343.954 171.733 344.215C171.733 344.446 171.639 344.691 171.382 344.975C170.673 345.756 170.056 346.005 169.489 346.152C169.207 346.225 168.936 346.269 168.673 346.335C168.412 346.401 168.157 346.494 167.925 346.668C167.841 346.734 167.689 346.798 167.481 346.838C167.274 346.88 167.013 346.902 166.713 346.902C165.327 346.902 163.128 346.446 161.149 345.683C160.456 345.416 159.895 345.057 159.365 344.644C158.572 344.027 157.855 343.284 156.899 342.59C155.943 341.895 154.743 341.249 153 340.831C150.711 340.282 148.857 339.75 147.507 339.049C146.832 338.697 146.284 338.306 145.865 337.852C145.447 337.398 145.156 336.882 144.991 336.269C144.942 336.086 144.919 335.892 144.919 335.685C144.919 335.077 145.125 334.367 145.46 333.628C145.963 332.519 146.746 331.342 147.496 330.295C148.246 329.25 148.956 328.337 149.324 327.727C149.597 327.273 149.897 326.543 150.205 325.688C151.128 323.126 152.094 319.475 152.096 319.471L151.915 319.42L151.841 319.599L151.915 319.42Z" fill="#3D5C9B"/>
<path d="M166.883 227.523L157.353 255.075L155.44 260.549C155.308 260.915 155.004 261.192 154.628 261.287L130.3 267.647C129.803 267.781 129.343 267.576 129.088 267.224C128.858 266.933 128.773 266.534 128.907 266.132L130.202 262.451L142.058 227.679C142.215 227.219 142.626 226.903 143.111 226.892L163.807 226.057L165.734 225.984C166.556 225.949 167.15 226.749 166.883 227.523Z" fill="#6C8AC5"/>
<path d="M166.882 227.523L157.352 255.075L155.44 260.551C155.307 260.915 155.003 261.193 154.628 261.287L130.299 267.649C129.802 267.781 129.343 267.576 129.087 267.224C133.507 263.578 145.594 253.175 153.718 242.056C159.506 234.136 162.401 228.989 163.805 226.059L165.731 225.986C166.555 225.949 167.149 226.749 166.882 227.523Z" fill="#486DB7"/>
<path d="M161.953 243.491C161.941 243.473 161.924 243.458 161.912 243.438C162.198 243.147 162.574 242.649 162.424 242.131C162.192 241.326 161.004 240.817 159.329 240.861C157.654 240.905 156.778 241.469 157.128 241.815C157.479 242.164 158.412 242.598 159.45 242.453L159.686 242.737C159.365 242.766 159.024 242.816 158.661 242.904C157.035 243.304 156.297 244.042 156.712 244.307C157.128 244.571 158.132 244.798 159.115 244.439L159.347 244.62C159.098 244.65 158.839 244.695 158.568 244.761C156.942 245.158 156.203 245.896 156.618 246.161C157.035 246.425 158.038 246.654 159.022 246.293L159.565 246.723C158.638 247.016 157.61 247.452 157.791 247.79C158.056 248.281 159.569 248.396 159.569 248.396L158.926 250.402C158.926 250.402 160.932 249.454 161.612 248.433C162.006 247.845 161.887 247.225 161.571 246.829C161.797 246.502 162.14 245.872 161.857 245.349C161.797 245.237 161.712 245.14 161.612 245.05C161.828 244.754 162.257 244.06 161.953 243.491Z" fill="#B5C4E2"/>
<path d="M161.953 243.491L162.125 243.398C162.107 243.367 162.092 243.347 162.082 243.339L162.074 243.328L162.072 243.33L162.074 243.328L162.072 243.33L162.074 243.328L162.02 243.367L162.076 243.332L162.074 243.328L162.02 243.367L162.076 243.332L161.91 243.436L162.049 243.572C162.177 243.44 162.323 243.273 162.442 243.07C162.559 242.867 162.651 242.631 162.651 242.369C162.651 242.272 162.637 242.172 162.61 242.073C162.543 241.844 162.413 241.639 162.234 241.465C161.963 241.2 161.587 241.002 161.131 240.867C160.674 240.733 160.134 240.66 159.53 240.66C159.462 240.66 159.394 240.66 159.326 240.662C158.593 240.682 158.005 240.797 157.587 240.96C157.376 241.042 157.209 241.132 157.082 241.24C157.02 241.295 156.965 241.352 156.926 241.419C156.887 241.485 156.86 241.564 156.86 241.648C156.858 241.762 156.915 241.873 156.994 241.95C157.174 242.126 157.452 242.303 157.805 242.439C158.155 242.576 158.58 242.673 159.042 242.673C159.185 242.673 159.332 242.664 159.48 242.644L159.452 242.452L159.303 242.576L159.538 242.86L159.688 242.737L159.673 242.541C159.341 242.569 158.991 242.62 158.617 242.713C157.937 242.878 157.403 243.105 157.029 243.339C156.842 243.456 156.695 243.575 156.587 243.7C156.533 243.762 156.49 243.826 156.457 243.894C156.426 243.963 156.404 244.035 156.404 244.112C156.404 244.183 156.424 244.256 156.461 244.317C156.498 244.379 156.55 244.428 156.609 244.467C156.763 244.564 156.969 244.65 157.213 244.712C157.456 244.776 157.74 244.816 158.044 244.816C158.403 244.816 158.794 244.761 159.182 244.617L159.115 244.434L158.995 244.589L159.226 244.769L159.347 244.615L159.324 244.423C159.069 244.454 158.804 244.496 158.521 244.567C157.842 244.732 157.308 244.959 156.934 245.193C156.747 245.31 156.599 245.431 156.492 245.554C156.437 245.616 156.395 245.682 156.362 245.75C156.33 245.819 156.309 245.889 156.309 245.969C156.309 246.037 156.328 246.11 156.365 246.172C156.402 246.235 156.455 246.284 156.513 246.321C156.667 246.421 156.874 246.504 157.117 246.568C157.361 246.63 157.645 246.672 157.949 246.672C158.307 246.672 158.699 246.615 159.086 246.471L159.02 246.288L158.899 246.443L159.443 246.873L159.563 246.718L159.505 246.533C159.071 246.672 158.617 246.839 158.258 247.018C158.079 247.108 157.923 247.201 157.803 247.305C157.742 247.358 157.69 247.408 157.647 247.474C157.606 247.538 157.573 247.615 157.573 247.704C157.573 247.761 157.589 247.825 157.618 247.878C157.668 247.97 157.742 248.045 157.824 248.107C157.968 248.213 158.146 248.29 158.33 248.352C158.888 248.535 159.544 248.581 159.552 248.583L159.565 248.389L159.38 248.33L158.599 250.761L159.005 250.572C159.008 250.57 159.515 250.329 160.113 249.959C160.709 249.586 161.396 249.092 161.77 248.535C161.965 248.244 162.053 247.935 162.051 247.644C162.051 247.283 161.92 246.954 161.72 246.703L161.568 246.822L161.727 246.934C161.815 246.806 161.92 246.637 162.004 246.438C162.088 246.242 162.154 246.017 162.154 245.779C162.154 245.605 162.117 245.422 162.025 245.25C161.949 245.113 161.848 244.999 161.739 244.902L161.608 245.047L161.766 245.162C161.854 245.043 161.971 244.864 162.07 244.653C162.167 244.441 162.249 244.192 162.249 243.925C162.249 243.749 162.212 243.568 162.121 243.396L161.953 243.491L161.782 243.583C161.84 243.691 161.864 243.806 161.864 243.925C161.864 244.11 161.803 244.311 161.72 244.492C161.636 244.67 161.531 244.829 161.455 244.933L161.349 245.076L161.48 245.195C161.569 245.274 161.64 245.354 161.685 245.44C161.743 245.55 161.766 245.662 161.766 245.783C161.766 245.949 161.718 246.125 161.647 246.288C161.577 246.454 161.486 246.604 161.408 246.716L161.326 246.835L161.416 246.947C161.566 247.135 161.663 247.382 161.663 247.646C161.663 247.86 161.603 248.089 161.447 248.321C161.141 248.784 160.483 249.275 159.908 249.63C159.62 249.809 159.351 249.957 159.156 250.06C159.059 250.111 158.979 250.153 158.924 250.179C158.897 250.193 158.876 250.204 158.862 250.21L158.841 250.221L158.924 250.395L159.11 250.455L159.828 248.213L159.583 248.195H159.567C159.489 248.189 159.117 248.151 158.745 248.063C158.56 248.021 158.373 247.962 158.229 247.893C158.083 247.827 157.988 247.743 157.96 247.693L157.937 247.704H157.962L157.96 247.693L157.937 247.704H157.962H157.943L157.962 247.708V247.704H157.943L157.962 247.708L157.966 247.699C157.976 247.675 158.034 247.609 158.134 247.541C158.282 247.435 158.514 247.32 158.777 247.208C159.04 247.1 159.336 246.994 159.624 246.903L159.974 246.791L159.055 246.068L158.954 246.105C158.613 246.231 158.268 246.28 157.949 246.28C157.678 246.28 157.427 246.244 157.215 246.189C157.002 246.136 156.829 246.061 156.722 245.993C156.704 245.982 156.7 245.973 156.698 245.973V245.969C156.698 245.962 156.7 245.944 156.714 245.918C156.737 245.867 156.794 245.792 156.887 245.711C157.17 245.459 157.764 245.153 158.613 244.948C158.876 244.882 159.125 244.842 159.371 244.811L159.834 244.752L159.15 244.214L159.049 244.251C158.708 244.377 158.364 244.425 158.044 244.425C157.773 244.425 157.522 244.39 157.31 244.335C157.098 244.28 156.924 244.207 156.817 244.139C156.8 244.126 156.796 244.119 156.794 244.119V244.112C156.794 244.108 156.796 244.09 156.809 244.062C156.833 244.013 156.889 243.938 156.983 243.857C157.265 243.605 157.859 243.299 158.708 243.092C159.061 243.006 159.392 242.955 159.704 242.931L160.076 242.9L159.532 242.243L159.425 242.258C159.295 242.276 159.166 242.285 159.04 242.285C158.634 242.285 158.255 242.199 157.945 242.078C157.635 241.956 157.392 241.8 157.267 241.674C157.244 241.648 157.25 241.648 157.248 241.648C157.248 241.648 157.248 241.639 157.259 241.619C157.279 241.584 157.341 241.52 157.444 241.458C157.6 241.363 157.846 241.264 158.165 241.191C158.484 241.116 158.878 241.064 159.336 241.053C159.402 241.05 159.466 241.05 159.53 241.05C160.294 241.05 160.936 241.174 161.402 241.381C161.636 241.482 161.823 241.606 161.961 241.743C162.099 241.879 162.191 242.025 162.236 242.183C162.253 242.247 162.263 242.309 162.263 242.371C162.263 242.538 162.203 242.713 162.107 242.874C162.012 243.037 161.885 243.187 161.772 243.301L161.663 243.409L161.745 243.541C161.762 243.568 161.776 243.581 161.782 243.59L161.786 243.592L161.848 243.546L161.78 243.583L161.786 243.592L161.848 243.546L161.78 243.583L161.953 243.491Z" fill="#3D5C9B"/>
<path d="M154.86 245.991C154.18 248.242 152.339 249.677 150.748 249.197C149.157 248.714 148.421 246.503 149.1 244.25C149.78 242.001 151.621 240.564 153.212 241.046C154.803 241.527 155.539 243.742 154.86 245.991Z" fill="#486DB7"/>
<path d="M226.232 336.462C221.268 357.911 198.997 372.782 159.265 375.484C79.0379 380.936 34.8373 376.09 19.0939 337.939C15.5336 329.316 14.1527 318.173 14.3475 306C20.403 308.425 31.6761 315.047 43.9192 332.79C62.0834 359.132 98.7154 372.455 142.918 366.702C185.931 361.11 212.039 354.933 226.232 336.462Z" fill="#65BAA6"/>
</svg>
