<svg width="16" height="16" viewBox="0 0 16 16" fill="none" xmlns="http://www.w3.org/2000/svg">
<path d="M6.84236 13.6825C8.42123 13.6825 9.87267 13.1395 11.0307 12.239L14.7906 15.9983L16 14.7891L12.2401 11.0298C13.1416 9.87109 13.6847 8.41988 13.6847 6.84126C13.6847 3.06916 10.6151 0 6.84236 0C3.06965 0 0 3.06916 0 6.84126C0 10.6134 3.06965 13.6825 6.84236 13.6825ZM6.84236 1.71032C9.67253 1.71032 11.9741 4.01154 11.9741 6.84126C11.9741 9.67098 9.67253 11.9722 6.84236 11.9722C4.01219 11.9722 1.71059 9.67098 1.71059 6.84126C1.71059 4.01154 4.01219 1.71032 6.84236 1.71032Z" fill="#414141"/>
<path d="M8.04743 5.63378C8.37173 5.95874 8.55056 6.38803 8.55056 6.84297H10.2619C10.2619 5.93223 9.90592 5.07365 9.25733 4.42458C7.96187 3.13158 5.71575 3.13158 4.42114 4.42458L5.62933 5.63549C6.27963 4.98728 7.40056 4.98899 8.04743 5.63378Z" fill="#414141"/>
</svg>
