<svg width="600" height="354" viewBox="0 0 600 354" fill="none" xmlns="http://www.w3.org/2000/svg">
<path d="M90.8279 272.04C93.3359 270.725 95.992 269.549 98.8526 268.789C104.667 267.244 111.195 267.406 117.256 269.245C121.542 270.546 125.545 272.667 129.415 274.717C131.337 275.735 133.324 276.782 135.335 277.735C140.69 280.261 148.488 282.866 155.248 280.949C155.344 281.072 155.436 281.194 155.539 281.325C158.876 285.704 161.502 290.527 164.04 295.195C167.615 301.768 171.314 308.568 177.086 314.284C177.771 314.964 178.484 315.622 179.215 316.262C173.68 318.801 167.022 318.565 162.277 317.879C157.013 317.129 151.793 315.534 146.745 314C145.704 313.686 144.661 313.367 143.618 313.061C139.48 311.833 134.661 310.508 129.869 310.375C128.996 310.351 128.147 310.375 127.314 310.414C125.333 305.677 123.258 300.974 119.754 296.665C111.561 286.574 99.6272 280.364 90.8279 272.04Z" fill="#DAE1F0"/>
<path d="M67.1064 194.66C69.8939 196.902 72.9422 198.993 75.8909 201.011C81.2219 204.664 86.731 208.442 90.6589 213.137C94.7856 218.066 97.1191 223.94 99.2669 229.718C94.6056 229.433 89.7679 226.99 84.5045 222.257C83.6285 221.471 82.7507 220.645 81.9029 219.847C78.5263 216.671 75.0373 213.388 70.5055 211.339C66.6245 209.584 62.3758 208.915 58.2171 208.748C57.1067 206.938 55.9888 205.105 54.8632 203.25C51.3574 197.445 48.0974 191.355 47.5478 185.513C47.1725 181.529 48.3635 177.685 51.0648 175.292C54.7395 182.479 60.2431 189.138 67.1064 194.66Z" fill="#DAE1F0"/>
<path d="M112.827 224.84C112.422 225.483 112.018 226.127 111.625 226.774C107.744 233.159 106.263 238.852 107.186 243.757C104.819 239.767 103.182 235.34 101.495 230.777C99.1562 224.449 96.7383 217.906 92.1163 212.374C88.0269 207.492 82.4035 203.629 76.9673 199.903C74.0504 197.903 71.0343 195.838 68.305 193.643C61.4847 188.154 56.0391 181.51 52.479 174.348C56.221 172.729 61.5052 172.96 66.4274 174.584C73.1989 176.817 79.419 181.192 85.2226 185.664C96.4269 194.302 106.474 202.581 117.558 209.717C117.822 211.587 117.762 213.489 117.381 215.339C116.659 218.73 114.71 221.836 112.827 224.84Z" fill="#DAE1F0"/>
<path d="M70.0046 212.198C74.3189 214.151 77.7328 217.358 81.0304 220.461C81.8839 221.263 82.7656 222.093 83.6566 222.891C89.2934 227.961 94.5363 230.522 99.6422 230.725L99.7772 231.085C102.833 239.348 105.992 247.903 114.106 253.827C117.807 256.528 122.204 258.389 126.456 260.19C128.207 260.931 130.021 261.693 131.741 262.506C140.866 266.796 148.718 272.849 154.554 280.064C148.259 281.745 140.93 279.275 135.86 276.885C133.879 275.945 131.908 274.905 130 273.895C126.061 271.813 122.003 269.658 117.582 268.317C111.261 266.398 104.452 266.23 98.3929 267.84C95.3916 268.64 92.6154 269.864 90.0099 271.245C85.2884 266.595 81.5782 261.252 80.0213 254.218C76.4892 238.29 68.0163 224.698 58.8474 209.77C62.6514 209.969 66.5082 210.62 70.0046 212.198Z" fill="#DAE1F0"/>
<path d="M123.573 110.01C113.53 100.103 98.4922 99.7649 92.0919 109.303C92.0563 109.353 92.0225 109.404 91.9889 109.456C87.5432 116.174 86.11 125.747 90.7132 134.222C93.0767 138.574 96.9333 142.557 97.8244 147.147C99.325 154.927 91.8894 159.43 88.4343 165.569C85.0878 171.51 85.6542 179.936 89.8693 186.939C93.8083 193.483 100.798 199.224 101.621 206.23C102.161 210.838 99.7865 214.645 97.5167 218.145C93.9095 223.713 90.3287 229.449 88.9012 236.225C87.4738 242.999 88.4866 251.078 93.2775 257.577C97.2316 262.935 103.495 266.966 106.007 272.901C108.471 278.723 106.534 284.526 107.102 290.45C108.179 301.63 118.961 312.56 130.341 315.7C135.093 317.029 140.098 317.164 144.914 316.098C145.968 315.873 147.06 315.897 148.103 316.168C153.11 317.409 158.114 317.597 162.65 316.428C172.944 313.775 179.708 303.243 176.587 292.015C174.932 286.069 170.798 280.134 171.091 274.363C171.389 268.492 176.189 264.709 178.161 259.484C180.551 253.149 178.536 245.049 174.544 238.152C170.553 231.254 164.79 225.306 159.054 219.528C155.449 215.895 151.62 211.948 150.425 207.323C148.621 200.294 153.509 194.82 155.019 188.4C156.636 181.529 154.036 173.058 148.429 166.913C142.633 160.566 133.433 155.689 132.029 147.911C131.2 143.322 133.59 139.48 134.337 135.198C135.79 126.861 130.745 117.141 123.735 110.164L123.573 110.01Z" fill="#6C8AC5"/>
<path d="M134.806 180.306C138.261 180.422 141.78 180.792 145.274 181.718C152.367 183.596 159.213 187.727 164.556 193.361C168.33 197.34 171.309 202.02 174.201 206.545C175.634 208.799 177.116 211.114 178.686 213.341C182.867 219.272 189.594 226.765 197.922 228.83C197.951 229.018 197.984 229.206 198.011 229.394C198.948 236.07 198.843 242.785 198.761 249.282C198.63 258.435 198.494 267.902 201.199 277.475C201.522 278.611 201.882 279.743 202.28 280.866C194.878 280.208 187.939 275.915 183.316 272.316C178.178 268.315 173.58 263.468 169.135 258.778C168.215 257.813 167.296 256.847 166.375 255.881C162.712 252.065 158.384 247.739 153.37 244.69C152.461 244.127 151.547 243.639 150.634 243.187C151.363 236.953 151.969 230.699 150.821 223.999C148.142 208.318 139.184 194.488 134.806 180.306Z" fill="#DAE1F0"/>
<path d="M155.863 83.7149C157.482 87.7859 159.472 91.8534 161.397 95.7876C164.877 102.899 168.474 110.247 169.838 117.627C171.269 125.362 170.241 133.025 169.071 140.462C164.287 137.337 160.609 131.809 157.846 123.585C157.386 122.218 156.948 120.81 156.533 119.454C154.845 114.035 153.1 108.431 149.51 103.507C146.436 99.2898 142.32 95.996 138.004 93.305C137.905 90.7059 137.813 88.0809 137.726 85.4291C137.471 77.1348 137.649 68.6882 140.564 62.1532C142.555 57.6952 146.113 54.33 150.412 53.4269C150.007 63.2725 151.872 73.687 155.863 83.7149Z" fill="#DAE1F0"/>
<path d="M209.136 174.145C207.656 175.38 206.011 176.496 204.418 177.574C202.453 178.907 200.419 180.287 198.645 181.921C193.327 186.822 190.415 194.056 190.519 201.965C189.002 199.26 187.347 196.635 185.559 194.101C184.182 192.153 182.702 190.227 181.267 188.349C177.917 183.977 174.452 179.457 172.263 174.609C170.931 171.668 170.014 168.556 169.54 165.362C169.915 157.982 175.039 151.481 184.822 146.02C185.621 145.573 186.429 145.138 187.242 144.706C191.113 142.616 195.12 140.456 198.022 137.166C199.383 135.611 200.503 133.859 201.344 131.97C205.412 139.549 210.014 146.969 215.575 154.298C216.887 156.023 218.105 157.817 219.225 159.674C216.889 165.233 213.717 170.321 209.136 174.145Z" fill="#DAE1F0"/>
<path d="M200.786 249.756C200.88 243.183 200.974 236.393 200.036 229.567C198.823 220.848 195.909 212.104 191.52 203.802L191.946 203.866C191.398 195.641 194.219 188.033 199.687 182.993C201.409 181.406 203.413 180.049 205.35 178.736C206.962 177.643 208.627 176.515 210.145 175.247C214.628 171.506 217.791 166.609 220.135 161.257C231.888 182.381 223.73 201.147 230.02 223.492C233.843 237.071 244.01 248.722 248.612 262.187C252.637 273.972 251.945 285.956 249.218 296.101C247.981 300.706 246.316 305.1 243.665 308.439C239.762 313.353 234.048 315.628 227.983 316.865C218.002 305.41 207.282 291.891 203.163 277.359C200.522 268.074 200.659 258.754 200.786 249.756Z" fill="#DAE1F0"/>
<path d="M165.488 256.683C166.407 257.642 167.324 258.604 168.238 259.572C172.74 264.309 177.379 269.21 182.625 273.295C187.502 277.095 194.874 281.631 202.775 282.223C207.652 295.109 217.031 306.979 225.927 317.236C224.876 317.411 223.815 317.564 222.759 317.698C219.122 318.176 215.451 318.347 211.784 318.205C208.057 318.388 204.321 318.266 200.614 317.842C192.293 316.946 183.438 315.102 175.589 308.869C171.438 305.576 167.793 301.217 164.479 296.641C157.178 286.563 151.074 274.621 149.765 262.821C149.058 256.445 149.774 250.457 150.482 244.481C151.273 244.883 152.065 245.309 152.855 245.794C157.679 248.724 161.905 252.948 165.488 256.683Z" fill="#DAE1F0"/>
<path d="M186.396 143.496C185.582 143.936 184.767 144.373 183.957 144.822C176.013 149.26 171.04 154.399 169.09 160.177C168.958 154.502 169.864 148.807 170.8 142.935C172.098 134.794 173.441 126.376 171.836 117.697C170.421 110.022 166.758 102.518 163.194 95.2636C161.29 91.3709 159.32 87.3467 157.735 83.36C153.768 73.3941 151.956 63.0341 152.455 53.2654C157.398 53.8137 162.873 57.2635 167.133 61.973C172.993 68.4516 176.985 76.872 180.477 85.1438C187.217 101.106 192.942 116.001 200.449 130.304C199.614 132.45 198.414 134.434 196.902 136.169C194.12 139.337 190.194 141.448 186.396 143.496Z" fill="#DAE1F0"/>
<path d="M148.456 104.108C151.877 108.803 153.582 114.275 155.229 119.569C155.657 120.94 156.098 122.357 156.563 123.741C159.521 132.547 163.552 138.441 168.866 141.756C168.84 141.91 168.816 142.065 168.791 142.221C167.103 152.857 165.342 163.858 170.421 175.069C172.738 180.184 176.296 184.834 179.739 189.318C181.155 191.166 182.62 193.074 183.966 194.983C191.094 205.073 195.823 216.263 197.71 227.471C190.02 225.441 183.706 218.374 179.748 212.759C178.202 210.566 176.732 208.252 175.31 206.031C172.378 201.434 169.345 196.681 165.451 192.574C159.881 186.706 152.742 182.394 145.348 180.436C141.673 179.461 137.998 179.084 134.406 178.971C132.17 171.168 131.424 163.242 133.971 154.825C139.747 135.758 138.874 116.185 138.058 94.7586C141.981 97.2729 145.685 100.308 148.456 104.108Z" fill="#DAE1F0"/>
<path d="M492.175 324.917L211.115 324.183C197.51 324.15 187.907 312.652 189.665 298.501L216.734 81.0671C218.291 69.46 222.578 64.2377 236.182 64.2715L534.434 65.0057C544.235 65.0057 550.069 70.9116 548.863 81.0671L523.497 299.359C521.738 313.511 505.78 324.955 492.175 324.917Z" fill="#324B7F"/>
<path d="M531.469 71.2666L240.635 70.6073C227.675 70.5754 224.382 75.0109 222.648 87.9043L197.806 295.557C196.071 308.452 204.371 307.364 217.331 307.388L487.87 308.054C500.83 308.089 512.841 309.239 514.577 296.348L540.07 90.2198C541.475 81.852 541.056 71.2666 531.469 71.2666Z" fill="white"/>
<path d="M545.551 308.188H199.841C195.632 308.188 192.222 310.441 192.222 313.205V323.687C192.222 326.46 195.632 328.707 199.841 328.707H545.441C549.65 328.707 551.193 326.451 551.193 323.687V313.205C551.193 310.436 549.759 308.188 545.551 308.188Z" fill="#324B7F"/>
<path d="M391.152 308.188H31.0011C26.5932 308.188 24.9387 310.441 24.9387 313.205V323.687C24.9387 326.46 26.5932 328.707 31.0011 328.707H391.152C395.564 328.707 399.138 326.451 399.138 323.687V313.205C399.138 310.436 395.564 308.188 391.152 308.188Z" fill="#1C2A47"/>
<path d="M557.924 287.293C550.551 299.298 556.61 314.61 555.914 328.643H491.876C491.788 328.324 491.688 328.003 491.612 327.684C487.427 311.723 485.893 293.818 494.465 279.649C498.766 272.536 505.464 266.632 507.679 258.656C512.066 242.857 497.247 225.347 504.441 210.568C506.716 205.892 510.899 202.392 513.777 198.046C520.822 187.406 519.135 173.651 518.777 160.975C518.671 157.207 518.917 152.946 521.804 150.459C528.013 145.094 537.7 151.862 541.364 156.989C547.724 165.894 552.002 179.196 550.462 190.02C549.419 197.353 545.721 204.512 546.958 211.815C548.592 221.458 557.967 227.589 564.724 234.774C574.034 244.693 578.825 260.367 571.499 271.769C567.783 277.547 561.517 281.439 557.924 287.293Z" fill="#91A7D3"/>
<path d="M513.905 311.859C518.055 316.555 522.312 321.126 526.567 325.49C525.844 319.669 525.436 313.812 525.343 307.945L525.262 307.851C521.321 303.262 517.436 298.553 513.377 293.444L514.095 292.642C517.922 297.463 521.599 301.925 525.31 306.265C525.253 300.365 525.463 294.471 525.838 288.597C522.46 284.264 518.897 279.553 514.916 274.19L515.655 273.421C519.391 278.452 522.764 282.907 525.947 287.013C526.357 281.076 526.922 275.158 527.553 269.276C524.928 265.705 522.316 262.133 519.718 258.56L517.091 254.952L517.841 254.187L520.468 257.797C522.881 261.106 525.299 264.414 527.725 267.722C528.083 264.44 528.452 261.167 528.829 257.906C529.13 255.278 529.429 252.636 529.726 249.983C525.53 244.256 522.255 239.842 519.133 235.722L519.866 234.94C522.849 238.884 525.971 243.082 529.896 248.434C530.54 242.556 531.133 236.64 531.585 230.703C527.644 225.601 523.961 220.953 520.303 216.502L521.009 215.685C524.483 219.913 527.989 224.322 531.7 229.119C532.111 223.241 532.361 217.345 532.357 211.443C528.151 206.472 524.049 201.837 519.831 197.289L520.492 196.426C524.487 200.732 528.371 205.118 532.351 209.79C532.252 199.098 531.286 188.394 528.857 177.773L529.807 177.467C532.27 188.238 533.245 199.062 533.337 209.886C537.137 205.344 540.548 201.09 543.729 196.918L544.46 197.701C541.084 202.14 537.439 206.667 533.343 211.537C533.343 217.377 533.099 223.21 532.697 229.023C536.897 224.436 540.672 220.197 544.202 216.128L544.892 216.964C541.139 221.302 537.1 225.81 532.577 230.742C532.143 236.581 531.563 242.385 530.932 248.178C535.732 243.143 539.509 239.14 543.039 235.349L543.703 236.216C539.961 240.23 535.953 244.478 530.738 249.941C530.437 252.655 530.132 255.363 529.822 258.064C529.466 261.154 529.117 264.254 528.772 267.364C532.023 263.953 535.285 260.542 538.556 257.131L540.993 254.583L541.645 255.459L539.206 258.007C535.658 261.711 532.119 265.417 528.583 269.123C527.963 274.905 527.402 280.72 526.99 286.552C528.692 284.688 530.476 282.752 532.344 280.746C532.481 281.109 532.639 281.467 532.815 281.815C530.723 284.068 528.753 286.209 526.87 288.276C526.495 294.098 526.279 299.93 526.32 305.769C528.103 303.634 529.953 301.459 531.89 299.22C532.047 299.569 532.224 299.91 532.416 300.244C530.293 302.696 528.277 305.074 526.342 307.405C526.418 313.292 526.813 319.17 527.522 325.016C528.792 323.243 530.119 321.441 531.5 319.607C531.713 319.898 531.943 320.171 532.183 320.453C530.629 322.516 529.145 324.544 527.727 326.534C527.823 327.238 527.906 327.942 528.011 328.643H527.005C526.937 328.189 526.887 327.734 526.817 327.28L526.654 327.113C522.151 322.516 517.636 317.669 513.24 312.702L513.905 311.859Z" fill="#1C2A47"/>
<path d="M505.994 303.485C506.156 308.706 506.893 314.592 503.946 318.532C500.503 323.139 493.966 322.463 489.515 325.774C488.466 326.554 487.575 327.529 486.89 328.643H480.325C480.932 323.735 482.939 318.784 485.232 316.688C487.412 314.697 490.268 313.731 492.225 311.461C495.729 307.397 495.205 300.804 496.641 295.326C498.919 286.631 506.191 280.96 513.535 277.473C508.021 284.369 505.702 294.071 505.994 303.485Z" fill="#486DB7"/>
<path d="M486.956 320.248C485.387 322.125 483.943 325.129 482.655 328.643H474.249C474.028 326.038 473.845 323.79 473.73 322.216C472.979 312.114 472.479 301.053 478.372 292.869C481.669 288.289 486.692 285.099 489.519 280.208C491.708 276.419 492.382 271.929 492.522 267.543C492.668 263.634 492.321 259.722 491.485 255.9C490.879 253.226 489.786 249.5 488.985 246.268C494.437 252.693 498.831 260.974 501.552 268.961C504.886 278.709 505.578 289.688 501.74 299.239C498.515 307.25 492.452 313.648 486.956 320.248Z" fill="#DAE1F0"/>
<path d="M484.499 328.643H474.862C473.568 319.693 469.423 311.155 465.109 303.105C461.356 296.09 457.324 288.63 457.933 280.678C458.736 270.224 467.193 262.277 475.058 255.461C470.913 262.653 472.244 271.839 475.29 279.573C478.335 287.308 482.932 294.408 485.276 302.382C487.525 310.08 487.449 318.421 485.289 326.132C485.058 326.971 484.785 327.808 484.499 328.643Z" fill="#6C8AC5"/>
<path d="M472.623 328.643C472.252 328.37 471.866 328.119 471.465 327.891C466.025 324.81 458.505 325.992 454.137 321.508C450.397 317.665 450.772 311.555 450.537 306.153C450.111 296.438 446.631 286.607 439.673 279.909C448.475 282.957 457.372 288.263 460.721 297.052C462.836 302.591 462.761 309.424 467.156 313.351C469.612 315.547 473.003 316.33 475.693 318.22C478.237 320.007 480.7 324.19 481.977 328.656L472.623 328.643Z" fill="#DAE1F0"/>
<path fill-rule="evenodd" clip-rule="evenodd" d="M326.184 65.6591C315.757 65.1917 308.282 81.9685 308.282 81.9685C307.588 83.2442 306.84 84.5699 306.083 85.9154C305.393 87.1382 304.695 88.3772 304.019 89.6094C301.647 93.937 299.19 98.3065 296.69 102.751C282.831 127.392 267.67 154.351 258.526 189.376C253.237 209.62 270.877 205.659 309.55 196.976C311.518 196.534 313.542 196.08 315.62 195.616L310.34 164.707C308.424 165.116 298.793 167.862 293.319 169.435C292.94 169.549 292.538 169.559 292.152 169.464C291.768 169.368 291.417 169.171 291.135 168.892C290.854 168.613 290.651 168.264 290.551 167.88C290.452 167.497 290.457 167.093 290.566 166.712L291.77 162.393C297.818 140.687 307.014 117.178 315.908 94.4562C316.333 93.3706 316.724 92.2978 317.11 91.2282L326.184 89.5738V65.6591Z" fill="#B5C4E2"/>
<path fill-rule="evenodd" clip-rule="evenodd" d="M308.817 82.2322L308.806 82.2532C308.108 83.5335 307.359 84.8632 306.6 86.2075C305.91 87.431 305.214 88.6669 304.54 89.8955C302.166 94.2263 299.708 98.5982 297.209 103.042L297.207 103.043C283.348 127.686 268.224 154.584 259.102 189.526C257.788 194.552 257.956 197.883 259.326 200.001C260.684 202.096 263.35 203.205 267.585 203.429C271.802 203.653 277.409 202.988 284.413 201.713C291.408 200.44 299.747 198.567 309.421 196.395C311.214 195.993 313.054 195.58 314.937 195.159L309.86 165.431C307.049 166.127 298.534 168.555 293.487 170.006C293.007 170.15 292.497 170.162 292.01 170.041L292.152 169.464C292.538 169.559 292.94 169.549 293.319 169.435C298.368 167.983 306.953 165.535 309.759 164.842C309.997 164.784 310.191 164.738 310.34 164.707L315.62 195.616C313.542 196.08 311.518 196.534 309.55 196.976C270.877 205.659 253.237 209.62 258.526 189.376C267.67 154.351 282.831 127.392 296.69 102.751C299.19 98.3065 301.647 93.937 304.019 89.6094C304.695 88.3772 305.393 87.1382 306.083 85.9154C306.84 84.5699 307.588 83.2442 308.282 81.9685C308.282 81.9685 315.757 65.1917 326.184 65.6591V89.5738L317.11 91.2282C316.724 92.2978 316.333 93.3706 315.908 94.4562L315.353 94.2392C315.777 93.1614 316.165 92.0948 316.551 91.0261L316.667 90.7042L325.588 89.0773V66.2463C323.363 66.2876 321.26 67.1544 319.326 68.499C317.23 69.9585 315.36 71.9605 313.796 74.0009C312.233 76.0381 310.988 78.0937 310.134 79.6419C309.707 80.4152 309.38 81.0603 309.157 81.5109C309.048 81.736 308.963 81.9125 308.908 82.0318C308.88 82.0917 308.858 82.1372 308.845 82.1671C308.838 82.1822 308.834 82.1935 308.83 82.2008L308.828 82.2088L308.825 82.2106V82.2108L308.817 82.2322ZM291.196 162.233C297.255 140.493 306.462 116.954 315.353 94.2392L315.908 94.4562C307.014 117.178 297.818 140.687 291.77 162.393L290.566 166.712C290.457 167.093 290.452 167.497 290.551 167.88C290.651 168.264 290.854 168.613 291.135 168.892C291.417 169.171 291.768 169.368 292.152 169.464L292.01 170.041C291.521 169.92 291.074 169.669 290.716 169.315C290.358 168.962 290.103 168.518 289.977 168.031C289.85 167.545 289.854 167.033 289.994 166.55C289.994 166.55 289.994 166.549 289.994 166.548L291.196 162.233C291.196 162.233 291.196 162.233 291.196 162.233Z" fill="#1C2A47"/>
<path d="M327.46 98.4146C333.063 98.4146 337.606 91.9307 337.606 83.9327C337.606 75.9345 333.063 69.4506 327.46 69.4506C321.858 69.4506 317.317 75.9345 317.317 83.9327C317.317 91.9307 321.858 98.4146 327.46 98.4146Z" fill="#ECF0F7"/>
<path d="M452.232 50.6438C453.046 54.5422 453.087 58.7188 454.957 62.2039C456.563 65.1766 459.349 67.3061 461.184 70.1359C463.019 72.9659 463.603 77.2625 460.996 79.5517C459.759 80.6388 458.055 81.0369 456.82 82.1186C453.347 85.172 455.673 90.631 456.174 95.1565C456.737 100.227 454.318 105.612 450.12 108.63C447.102 110.801 442.963 112.211 441.905 115.766C441.076 118.57 442.577 121.839 441.013 124.325C438.713 127.972 432.864 125.944 429.242 128.256C426.694 129.886 425.923 133.187 424.494 135.861C421.833 140.85 416.121 144.06 410.614 143.661C407.668 143.448 404.727 142.304 401.836 143.055C398.103 144.028 395.402 147.953 391.584 148.332C383.655 149.107 383.315 139.673 378.894 134.004C373.335 126.868 360.58 125.741 359.011 116.714C358.636 114.598 358.97 112.17 357.639 110.517C356.306 108.865 353.721 108.653 352.198 107.137C349.335 104.292 351.582 98.9367 350.729 95.1189C350.553 94.7828 349.682 92.828 349.455 92.614C339.188 70.9077 340.791 47.1399 355.46 34.0869C367.601 23.2722 385.795 22.4178 403.056 29.9556C403.243 29.8317 403.357 29.6794 403.547 29.5612C408.048 26.7257 413.046 26.5904 418.084 27.6832C427.324 29.67 428.886 38.6856 436.339 41.4593C439.191 42.5165 442.494 41.0612 445.464 41.7447C449.304 42.6273 451.42 46.7472 452.232 50.6438Z" fill="#273B63"/>
<path d="M362.935 88.9729C368.075 86.9955 377.466 86.31 381.487 84.5411C384.199 83.3467 386.978 82.0454 389.265 80.2107C390.425 79.2717 392.031 77.67 393.371 74.6372C393.351 74.673 392.505 70.8533 393.253 73.6984C391.475 66.9868 392.252 61.143 394.632 56.362C394.75 53.2859 394.42 49.7088 392.051 44.9971C386.784 34.515 382.263 34.2934 377.828 30.8812C373.471 27.5368 373.549 28.1321 367.51 25.3492C362.228 22.9079 355.931 23.0281 350.629 25.3829C350.629 25.3829 347.516 27.0054 346.357 27.9293C345.109 28.9246 343.957 30.0306 342.77 31.1011C341.156 31.4953 335.099 33.3713 333.351 37.0443C329.919 44.2592 331.226 48.1239 331.226 48.1239C335.208 48.6402 340.191 44.524 343.268 46.1577C344.609 47.0234 345.183 47.4404 345.879 48.2233C349.63 52.4298 352.732 55.8719 352.632 61.943C352.551 66.923 349.255 72.0665 351.604 76.5903C353.697 80.6276 359.389 82.0699 361.807 85.9514C362.365 86.8808 362.747 87.905 362.935 88.9729Z" fill="#273B63"/>
<path d="M347.987 198.865L309.216 208.067C303.775 209.358 299.361 205.777 299.588 200.249L300.912 168.185C301.124 163.114 303.225 161.8 308.228 160.636C326.522 156.354 365.308 143.568 365.308 143.568L368.73 170.213C370.305 182.528 360.652 195.86 347.987 198.865Z" fill="#95E7D4"/>
<path d="M339.366 288.25C339.203 295.745 338.919 302.132 338.555 307.65H447.75C439.062 295.446 430.628 283.947 429.912 262.983C429.161 241.17 434.79 231.748 436.852 212.166C436.852 212.177 444.131 171.991 416.956 154.431L411.174 150.702C394.444 140.405 370.501 131.36 347.526 152.739C341.11 158.714 336.604 166.506 334.497 175.183C333.558 179.014 332.808 182.856 332.123 186.135C332.103 186.189 332.09 186.246 332.084 186.304C331.826 187.534 331.638 188.777 331.521 190.028C331.442 190.899 331.39 191.772 331.361 192.657L331.466 192.739C331.078 215.753 340.329 243.982 339.366 288.25Z" fill="#95E7D4"/>
<path d="M371.708 103.77C377.016 99.7574 387.674 95.8195 391.752 92.4243C394.503 90.1371 397.292 87.6958 399.336 84.8002C400.374 83.3279 401.705 80.9298 402.257 76.9657C402.257 77.0127 400.006 72.8702 401.81 75.9067C397.534 68.7238 396.504 61.6895 397.684 55.3516C396.803 51.7443 395.245 47.7087 390.932 43.0405C381.364 32.6521 376.054 33.9009 369.785 31.4391C363.63 29.0203 363.918 29.6833 356.001 28.4777C350.793 27.6852 344.574 28.7913 339.528 31.2944C336.947 32.5789 334.817 34.6371 333.286 37.0913C332.954 37.6227 332.62 38.1354 332.332 38.5412C332.16 38.784 331.99 39.0293 331.824 39.2771C330.111 41.7707 328.041 43.9969 325.678 45.8836C323.348 47.7782 320.969 50.5424 320.265 53.4588C317.483 64.9494 321.46 72.474 321.46 72.474C326.245 71.7396 330.663 59.8454 334.778 60.7092C336.615 61.2726 337.418 61.5562 338.485 62.2284C344.219 65.8507 348.953 68.801 350.845 75.8709C352.396 81.6697 350.282 88.7325 354.484 93.1848C358.237 97.164 365.315 96.9405 369.401 100.621C370.359 101.518 371.14 102.586 371.708 103.77Z" fill="#273B63"/>
<path d="M383.457 101.633C381.98 106.112 379.99 109.838 377.542 112.656C377.518 112.683 377.527 112.792 377.5 112.767C370.573 105.644 370.975 97.2973 370.975 97.2973C372.873 95.8439 374.164 92.4862 374.088 88.5952C373.99 83.4312 371.529 79.2982 368.592 79.3657C368.367 79.3657 368.177 79.5329 367.966 79.6041L387.476 61.389C389.937 70.4722 389.483 83.3335 383.457 101.633Z" fill="#273B63"/>
<path fill-rule="evenodd" clip-rule="evenodd" d="M366.364 144.991L352.492 103.8C351.58 101.083 352.538 98.2757 354.626 97.5622L369.803 92.3792C371.891 91.6657 374.345 93.307 375.262 96.0243L392.431 147.006C392.658 147.672 392.769 148.344 392.78 148.989C394.39 151.48 393.831 154.925 391.119 157.366C385.924 162.046 380.808 166.79 375.77 171.598C372.844 174.391 367.985 174.049 366.441 170.928C362.88 163.726 361.979 162.016 361.202 160.253C360.655 159.013 360.168 157.746 358.857 154.523C357.207 150.461 361.355 147.106 366.364 144.991Z" fill="#B5C4E2"/>
<path fill-rule="evenodd" clip-rule="evenodd" d="M367.104 145.324L366.596 145.539C364.126 146.582 361.929 147.908 360.554 149.426C359.199 150.924 358.695 152.542 359.409 154.299C359.843 155.367 360.185 156.218 360.469 156.924C361.047 158.357 361.381 159.189 361.746 160.013C362.26 161.179 362.828 162.318 364.209 165.093C364.896 166.475 365.788 168.264 366.975 170.664C367.632 171.993 369.015 172.772 370.63 172.887C372.244 173.002 374.025 172.443 375.36 171.168C380.402 166.356 385.523 161.607 390.722 156.924C393.26 154.64 393.703 151.512 392.28 149.313L392.188 149.169L392.186 148.999C392.175 148.416 392.075 147.806 391.868 147.198V147.196L374.699 96.2142C374.699 96.2142 374.699 96.2144 374.699 96.2142C374.278 94.9703 373.514 93.992 372.642 93.4101C371.771 92.8282 370.826 92.6582 369.995 92.9423L354.818 98.1253C354.818 98.1253 354.818 98.1251 354.818 98.1253C353.987 98.4096 353.337 99.1246 352.996 100.122C352.656 101.12 352.639 102.367 353.057 103.61V103.611L367.104 145.324ZM352.492 103.8C351.58 101.083 352.538 98.2757 354.626 97.5622L369.803 92.3792C371.891 91.6657 374.345 93.307 375.262 96.0243L392.431 147.006C392.658 147.672 392.769 148.344 392.78 148.989C394.39 151.48 393.831 154.925 391.119 157.366C385.924 162.046 380.808 166.79 375.77 171.598C372.844 174.391 367.985 174.049 366.441 170.928C365.263 168.543 364.375 166.761 363.687 165.379C362.298 162.588 361.721 161.433 361.202 160.253C360.833 159.42 360.493 158.576 359.913 157.134C359.629 156.429 359.289 155.582 358.857 154.523C357.207 150.461 361.355 147.106 366.364 144.991L352.492 103.8Z" fill="#1C2A47"/>
<path fill-rule="evenodd" clip-rule="evenodd" d="M319.331 70.6632C319.152 61.8748 323.201 54.0123 329.509 48.7936L374.57 70.2576L374.773 80.2094C378.862 80.4347 382.176 84.4836 382.276 89.513C382.381 94.7448 378.975 99.0601 374.66 99.1484C374.5 99.1517 374.343 99.149 374.186 99.141C371.221 110.944 360.644 119.855 347.965 120.117C332.775 120.43 320.097 108.216 319.785 92.9739L319.331 70.6632Z" fill="#B5C4E2"/>
<path fill-rule="evenodd" clip-rule="evenodd" d="M374.773 80.2094L374.57 70.2576L329.509 48.7936C323.201 54.0123 319.152 61.8748 319.331 70.6632L319.785 92.9739C320.097 108.216 332.775 120.43 347.965 120.117C360.644 119.855 371.221 110.944 374.186 99.141C374.343 99.149 374.5 99.1517 374.66 99.1484C378.975 99.0601 382.381 94.7448 382.276 89.513C382.176 84.4836 378.862 80.4347 374.773 80.2094ZM320.38 92.9619C320.686 107.878 333.094 119.828 347.954 119.522C360.356 119.266 370.708 110.548 373.61 98.9959L373.728 98.5212L374.217 98.5466C374.359 98.554 374.503 98.5564 374.649 98.5534C378.532 98.474 381.781 94.5411 381.681 89.5251C381.585 84.7087 378.43 81.0068 374.74 80.8035L374.188 80.7732L373.983 70.637L329.599 49.4953C323.585 54.6069 319.752 62.1938 319.927 70.651L320.38 92.9619Z" fill="#1C2A47"/>
<path d="M382.606 59.3402C379.385 52.9274 378.347 44.7906 372.548 40.6724C368.959 38.1243 364.294 37.7749 359.932 38.0847C354.681 38.4604 349.523 39.6565 344.389 40.8509L333.192 43.4555C332.762 43.5549 332.315 43.6639 331.977 43.953C331.602 44.2743 331.427 44.7661 331.263 45.2338C330.626 47.0534 328.115 51.4777 328.636 53.3517C329.221 55.453 331.874 55.4832 333.635 55.5714C351.729 56.4746 362.444 66.8573 366.508 72.8683C369.862 77.8241 371.71 83.7204 375.179 88.5916C377.428 91.75 380.317 94.4004 383.653 96.3715C383.793 96.4543 383.945 96.5181 384.087 96.597L393.373 73.5256C389.579 68.9454 385.272 64.6564 382.606 59.3402Z" fill="#273B63"/>
<path d="M382.03 98.0654C387.633 98.0654 392.173 91.5815 392.173 83.5833C392.173 75.5851 387.633 69.1014 382.03 69.1014C376.427 69.1014 371.884 75.5851 371.884 83.5833C371.884 91.5815 376.427 98.0654 382.03 98.0654Z" fill="#ECF0F7"/>
<path d="M386.138 98.0654C391.739 98.0654 396.281 91.5815 396.281 83.5833C396.281 75.5851 391.739 69.1014 386.138 69.1014C380.535 69.1014 375.993 75.5851 375.993 83.5833C375.993 91.5815 380.535 98.0654 386.138 98.0654Z" fill="#1C2A47"/>
<path d="M385.532 72.9791C385.3 72.9789 385.076 72.8893 384.91 72.7287C384.742 72.5683 384.642 72.3491 384.631 72.1172C383.994 58.4238 379.639 47.8366 371.688 40.6442C359.553 29.6683 342.988 30.442 342.829 30.4512C342.711 30.458 342.591 30.4412 342.48 30.4021C342.369 30.3629 342.266 30.302 342.177 30.2229C342.09 30.1438 342.018 30.0481 341.965 29.9412C341.913 29.8341 341.884 29.7183 341.878 29.5997C341.871 29.4812 341.887 29.3626 341.926 29.2505C341.965 29.1386 342.026 29.0354 342.105 28.9469C342.183 28.8584 342.279 28.7863 342.386 28.7348C342.493 28.6834 342.609 28.6535 342.729 28.6467C343.438 28.6111 360.172 27.8111 372.884 39.2903C381.212 46.817 385.77 57.8322 386.433 72.0346C386.442 72.2728 386.356 72.5056 386.195 72.6815C386.036 72.8574 385.811 72.9623 385.573 72.9734L385.532 72.9791Z" fill="#1C2A47"/>
<path d="M356.775 112.778C356.655 112.781 356.542 112.735 356.454 112.652C356.369 112.569 356.319 112.455 356.317 112.335C356.315 112.216 356.361 112.1 356.444 112.014C356.526 111.928 356.642 111.879 356.76 111.877C381.308 111.024 384.454 93.876 384.484 93.7032C384.495 93.6448 384.515 93.5889 384.548 93.5384C384.578 93.4881 384.62 93.4447 384.668 93.4101C384.716 93.3758 384.77 93.3511 384.827 93.3378C384.886 93.3245 384.945 93.3225 385.004 93.3323C385.062 93.342 385.117 93.3632 385.167 93.3946C385.217 93.4259 385.261 93.467 385.296 93.515C385.331 93.5633 385.355 93.618 385.368 93.6756C385.381 93.7333 385.383 93.793 385.374 93.8516C385.344 94.0393 382.067 111.901 356.793 112.778H356.775Z" fill="#1C2A47"/>
<path d="M358.145 111.101H355.34C354.881 111.101 354.51 111.472 354.51 111.93V112.84C354.51 113.298 354.881 113.669 355.34 113.669H358.145C358.601 113.669 358.972 113.298 358.972 112.84V111.93C358.972 111.472 358.601 111.101 358.145 111.101Z" fill="#ECF0F7"/>
<path fill-rule="evenodd" clip-rule="evenodd" d="M306.582 230.069H306.454L293.574 226.98C290.919 226.344 288.135 227.764 287.241 230.36C286.728 231.877 286.398 233.421 286.728 234.42C287.998 238.275 291.395 243.185 294.541 244.983C299.494 247.813 310.254 246.869 317.038 244.186C317.223 244.282 317.411 244.378 317.598 244.472C318.7 245.036 319.817 245.606 320.93 246.157C323.668 247.512 326.404 248.882 329.156 250.26C352.772 262.095 377.402 274.437 412.911 280.508C433.302 284.004 431.631 266.243 426.925 223.315L395.81 231.918C395.998 233.795 397.584 243.01 398.531 248.506L398.592 248.86C398.878 250.545 397.206 252.267 395.592 251.958L391.453 251.172C370.684 247.225 348.491 240.244 327.028 233.483C325.804 233.098 324.153 232.593 322.532 232.097C321.321 231.726 320.127 231.361 319.139 231.055C318.857 230.795 318.606 230.559 318.375 230.345C316.228 228.347 316.054 228.184 312.918 226.178C310.525 224.641 307.872 223.56 305.088 222.985C303.82 222.732 303.29 224.148 304.178 224.984C305.241 225.987 306.262 227.299 307.302 229.617C307.431 229.901 306.908 230.028 306.582 230.069Z" fill="#B5C4E2"/>
<path fill-rule="evenodd" clip-rule="evenodd" d="M306.384 230.664L293.437 227.559C293.435 227.559 293.437 227.559 293.437 227.559C291.059 226.99 288.591 228.264 287.804 230.552C287.553 231.291 287.354 232.021 287.256 232.672C287.156 233.336 287.171 233.863 287.293 234.234C287.904 236.092 289.041 238.229 290.413 240.123C291.79 242.025 293.367 243.626 294.836 244.468C297.159 245.794 300.947 246.275 305.07 246.058C309.172 245.844 313.494 244.948 316.82 243.633L317.068 243.534L317.308 243.657C317.487 243.749 317.666 243.84 317.845 243.932L317.869 243.943C318.971 244.507 320.084 245.075 321.192 245.624C323.932 246.978 326.67 248.351 329.42 249.727L329.422 249.729C353.033 261.562 377.596 273.867 413.012 279.922C418.045 280.785 421.575 280.309 424.023 278.596C426.469 276.885 427.981 273.843 428.742 269.224C429.502 264.608 429.493 258.529 428.993 250.892C428.507 243.425 427.553 234.51 426.41 224.073L396.462 232.355C396.807 234.984 398.234 243.277 399.118 248.405L399.179 248.759C399.36 249.828 398.919 250.861 398.232 251.572C397.545 252.277 396.532 252.743 395.481 252.544L391.342 251.757C370.534 247.802 348.303 240.81 326.849 234.051C325.628 233.666 323.98 233.161 322.359 232.665H322.357C321.146 232.296 319.95 231.929 318.962 231.623L318.833 231.582L318.735 231.492C318.454 231.23 318.201 230.996 317.972 230.782C316.892 229.777 316.333 229.257 315.654 228.736C314.974 228.214 314.169 227.685 312.598 226.68L312.596 226.678C310.265 225.183 307.68 224.128 304.97 223.568C304.769 223.529 304.638 223.562 304.558 223.601C304.477 223.645 304.412 223.713 304.372 223.807C304.294 223.995 304.313 224.294 304.586 224.55V224.552C305.71 225.612 306.777 226.99 307.846 229.372V229.375C307.961 229.632 307.935 229.914 307.78 230.139C307.656 230.321 307.479 230.421 307.364 230.474C307.124 230.585 306.838 230.638 306.659 230.659L306.622 230.664H306.384ZM305.088 222.985C307.872 223.56 310.525 224.641 312.918 226.178C316.054 228.184 316.228 228.347 318.375 230.345C318.606 230.559 318.857 230.795 319.139 231.055C320.127 231.361 321.321 231.726 322.532 232.097C324.153 232.593 325.804 233.098 327.028 233.483C348.491 240.244 370.684 247.225 391.453 251.172L395.592 251.958C397.206 252.267 398.878 250.545 398.592 248.86L398.531 248.506C397.584 243.01 395.998 233.795 395.81 231.918L426.925 223.315C426.947 223.514 426.969 223.715 426.99 223.914C431.646 266.407 433.206 283.989 412.911 280.508C377.402 274.437 352.772 262.095 329.156 250.26C326.404 248.882 323.668 247.512 320.93 246.157C319.817 245.608 318.7 245.036 317.598 244.472L317.579 244.463C317.398 244.371 317.219 244.28 317.038 244.186C310.254 246.869 299.494 247.813 294.541 244.983C291.395 243.185 287.998 238.275 286.728 234.42C286.398 233.421 286.728 231.877 287.241 230.36C288.135 227.764 290.919 226.344 293.574 226.98L306.454 230.069H306.582C306.908 230.028 307.431 229.901 307.302 229.617C306.262 227.299 305.241 225.987 304.178 224.984C303.29 224.148 303.82 222.732 305.088 222.985Z" fill="#1C2A47"/>
<path d="M435.823 189.258L440.61 228.013C440.773 229.298 440.671 230.603 440.311 231.846C439.951 233.092 439.34 234.248 438.517 235.246C437.692 236.245 436.674 237.066 435.524 237.656C434.372 238.246 433.111 238.594 431.821 238.679L400.294 240.639C395.306 240.949 394.248 238.93 393.648 233.933C391.449 215.642 383.116 177.245 383.116 177.245L409.811 170.986C422.154 168.093 434.26 176.599 435.823 189.258Z" fill="#95E7D4"/>
<path d="M397.505 241.73C396.508 241.421 395.612 240.849 394.911 240.071C394.213 239.293 393.74 238.338 393.541 237.311L383.448 184.357C383.417 184.226 383.413 184.09 383.435 183.957C383.459 183.825 383.507 183.698 383.581 183.585C383.653 183.472 383.749 183.375 383.86 183.3C383.972 183.225 384.096 183.173 384.229 183.148C384.36 183.122 384.497 183.124 384.628 183.152C384.759 183.181 384.884 183.236 384.993 183.314C385.102 183.391 385.196 183.491 385.265 183.606C385.335 183.72 385.383 183.848 385.403 183.981L395.496 236.937C395.67 237.855 396.183 238.677 396.932 239.236C397.682 239.793 398.614 240.051 399.543 239.955L409.318 238.917C409.58 238.895 409.839 238.978 410.042 239.144C410.245 239.313 410.374 239.553 410.4 239.815C410.428 240.075 410.352 240.338 410.188 240.543C410.025 240.751 409.787 240.884 409.527 240.917L399.75 241.955C398.996 242.033 398.232 241.957 397.505 241.73Z" fill="#91A7D3"/>
<path d="M506.118 123.696C495.364 123.696 486.611 114.857 486.611 103.994C486.611 93.1304 495.358 84.2913 506.118 84.2913C516.877 84.2913 525.626 93.1284 525.626 103.994C525.626 114.859 516.873 123.696 506.118 123.696ZM506.118 84.6368C495.558 84.6368 486.966 93.3144 486.966 103.979C486.966 114.643 495.558 123.321 506.118 123.321C516.678 123.321 525.27 114.641 525.27 103.979C525.27 93.3164 516.678 84.6462 506.118 84.6462V84.6368Z" fill="#6C8AC5"/>
<path d="M499.25 101.059C495.443 103.216 493.608 107.579 494.4 111.695C494.468 112.035 494.616 112.354 494.83 112.625C495.046 112.897 495.321 113.114 495.635 113.258C495.951 113.402 496.294 113.47 496.641 113.455C496.986 113.44 497.324 113.343 497.625 113.173L502.056 110.66C502.394 110.468 502.643 110.15 502.748 109.776C502.852 109.402 502.807 109.001 502.619 108.66L501.118 105.96C500.943 105.648 500.902 105.28 500.998 104.936C501.092 104.592 501.321 104.3 501.631 104.123L509.376 99.733C509.529 99.646 509.697 99.5905 509.871 99.5693C510.046 99.5483 510.223 99.5623 510.393 99.6104C510.561 99.6582 510.718 99.7395 510.855 99.8492C510.993 99.9589 511.108 100.095 511.194 100.249L512.692 102.948C512.786 103.116 512.911 103.264 513.059 103.384C513.21 103.503 513.382 103.592 513.565 103.644C513.749 103.696 513.943 103.712 514.132 103.689C514.322 103.666 514.506 103.606 514.671 103.511L519.103 101C519.406 100.829 519.663 100.588 519.855 100.299C520.047 100.01 520.17 99.6792 520.213 99.3342C520.255 98.9889 520.215 98.6386 520.098 98.3115C519.98 97.9842 519.788 97.6889 519.537 97.4495C518.007 96.0326 516.07 95.1377 513.999 94.8934C511.931 94.6491 509.839 95.068 508.023 96.0898L499.25 101.059Z" fill="#6C8AC5"/>
<path d="M513.423 136.332C513.36 136.337 513.295 136.327 513.236 136.303C513.177 136.279 513.122 136.241 513.081 136.193C513.039 136.144 513.009 136.087 512.991 136.025C512.976 135.962 512.974 135.898 512.987 135.835C513.022 135.694 513.102 135.57 513.216 135.481C513.332 135.392 513.471 135.344 513.615 135.344C513.681 135.34 513.744 135.35 513.803 135.374C513.864 135.398 513.916 135.436 513.958 135.484C513.999 135.533 514.03 135.59 514.047 135.652C514.062 135.714 514.065 135.779 514.052 135.842C514.017 135.983 513.936 136.107 513.822 136.196C513.707 136.285 513.567 136.333 513.423 136.332Z" fill="#6C8AC5"/>
<path d="M512.922 138.896C512.858 138.9 512.795 138.89 512.734 138.865C512.675 138.841 512.623 138.803 512.581 138.754C512.538 138.706 512.507 138.648 512.492 138.586C512.474 138.524 512.474 138.459 512.487 138.396C512.522 138.256 512.603 138.131 512.716 138.043C512.83 137.954 512.972 137.906 513.116 137.906C513.179 137.901 513.244 137.912 513.303 137.936C513.362 137.961 513.415 137.999 513.458 138.047C513.5 138.096 513.53 138.153 513.546 138.215C513.563 138.277 513.563 138.343 513.55 138.405C513.515 138.546 513.434 138.67 513.321 138.759C513.207 138.848 513.066 138.896 512.922 138.896Z" fill="#6C8AC5"/>
<path d="M512.422 141.461C512.356 141.465 512.293 141.455 512.234 141.43C512.175 141.406 512.123 141.368 512.079 141.32C512.038 141.272 512.007 141.215 511.992 141.153C511.975 141.091 511.972 141.026 511.985 140.963C512.02 140.823 512.101 140.698 512.215 140.609C512.33 140.521 512.47 140.472 512.614 140.473C512.679 140.468 512.743 140.478 512.801 140.503C512.86 140.527 512.915 140.565 512.956 140.613C513 140.661 513.031 140.718 513.046 140.781C513.063 140.843 513.065 140.908 513.052 140.971C513.015 141.111 512.935 141.236 512.821 141.324C512.705 141.413 512.566 141.461 512.422 141.461Z" fill="#6C8AC5"/>
<path d="M511.922 144.031C511.859 144.036 511.794 144.026 511.735 144.001C511.676 143.977 511.623 143.939 511.58 143.89C511.538 143.842 511.508 143.784 511.49 143.722C511.475 143.66 511.473 143.595 511.486 143.532C511.521 143.392 511.602 143.268 511.715 143.179C511.828 143.091 511.97 143.042 512.114 143.042C512.178 143.037 512.243 143.048 512.302 143.072C512.361 143.097 512.413 143.135 512.457 143.183C512.498 143.231 512.529 143.289 512.546 143.351C512.562 143.413 512.564 143.478 512.551 143.541C512.516 143.681 512.433 143.805 512.319 143.894C512.206 143.983 512.066 144.031 511.922 144.031Z" fill="#6C8AC5"/>
<path d="M509.095 135.562L500.625 135.493L500.383 136.731L508.852 136.8L509.095 135.562Z" fill="#6C8AC5"/>
<path d="M508.621 137.981L500.151 137.912L499.911 139.149L508.381 139.219L508.621 137.981Z" fill="#6C8AC5"/>
<path d="M507.676 142.818L494.865 142.713L494.623 143.951L507.436 144.056L507.676 142.818Z" fill="#6C8AC5"/>
<path d="M496.279 135.457L496.036 136.695L499.049 136.719L499.292 135.482L496.279 135.457Z" fill="#6C8AC5"/>
<path d="M495.805 137.876L495.565 139.113L498.578 139.138L498.82 137.9L495.805 137.876Z" fill="#6C8AC5"/>
<path d="M209.183 310.742C208.984 310.742 208.793 310.67 208.643 310.541C208.493 310.412 208.394 310.233 208.365 310.036L200.447 257C200.42 256.786 200.478 256.567 200.609 256.394C200.739 256.222 200.932 256.106 201.147 256.075C201.361 256.043 201.579 256.095 201.755 256.222C201.93 256.348 202.049 256.541 202.086 256.753L210.002 309.789C210.034 310.006 209.979 310.226 209.848 310.403C209.718 310.578 209.523 310.696 209.306 310.729C209.266 310.738 209.224 310.742 209.183 310.742Z" fill="#324B7F"/>
<path fill-rule="evenodd" clip-rule="evenodd" d="M176.53 166.587C176.295 166.573 176.066 166.616 175.87 166.742C175.863 166.748 175.855 166.753 175.847 166.759C176.118 166.743 176.392 166.727 176.662 166.71C176.617 166.67 176.573 166.629 176.53 166.587ZM179.079 168.269C178.968 169.134 178.919 170.006 178.93 170.879C178.93 171.95 177.645 179.912 177.054 181.329C176.919 181.654 176.712 181.671 176.442 181.693C176.295 181.706 176.128 181.719 175.945 181.786C175.245 182.031 174.868 182.291 174.594 182.48C174.075 182.838 173.924 182.943 172.644 182.214C172.586 182.182 171.988 182.05 171.254 181.889C170.006 181.615 168.365 181.254 168.33 181.151C168.273 180.988 170.2 173.439 170.26 173.288C170.582 172.48 170.699 171.734 170.828 170.909C170.856 170.73 170.885 170.547 170.916 170.359C170.975 170.003 170.974 169.526 170.972 169.049C170.97 168.45 170.967 167.851 171.085 167.49C171.275 166.917 172.022 166.924 172.654 166.93C172.807 166.932 172.954 166.933 173.085 166.926C173.185 166.921 173.51 166.901 173.964 166.873L174.137 166.863L172.571 165.895C172.509 165.353 172.434 164.947 172.402 164.78C171.7 163.27 171.395 161.606 171.517 159.944L172.047 153.184C172.256 150.525 173.604 148.411 175.48 147.233L186.418 153.051C186.418 153.049 186.418 153.047 186.418 153.045L187.106 153.421L186.694 163.062C186.595 164.206 186.23 165.311 185.628 166.289C185.027 167.266 184.205 168.09 183.229 168.693C182.878 168.776 182.52 168.827 182.16 168.846C181.099 168.879 180.048 168.68 179.079 168.269ZM186.415 153.466C186.415 153.619 186.417 153.773 186.419 153.929C186.42 154.003 186.421 154.077 186.422 154.152C186.423 153.994 186.421 153.838 186.418 153.683C186.417 153.61 186.416 153.538 186.415 153.466Z" fill="white"/>
<path fill-rule="evenodd" clip-rule="evenodd" d="M176.656 166.297L176.735 166.372C176.777 166.412 176.819 166.451 176.862 166.491L177.383 166.965L176.68 167.007C176.41 167.024 176.136 167.04 175.865 167.056L175.091 167.103L173.986 167.17L173.982 167.17L173.952 167.172C173.514 167.199 173.2 167.218 173.102 167.223L173.101 167.223C172.961 167.231 172.806 167.229 172.657 167.228L172.651 167.228C172.325 167.225 172.02 167.223 171.773 167.282C171.536 167.339 171.417 167.434 171.368 167.583C171.322 167.725 171.294 167.932 171.28 168.196C171.267 168.455 171.268 168.746 171.269 169.047V169.067C171.271 169.529 171.273 170.026 171.21 170.408V170.408C171.178 170.594 171.15 170.776 171.122 170.955L171.12 170.967C170.992 171.785 170.871 172.559 170.536 173.399L176.656 166.297ZM170.536 173.399C170.538 173.393 170.538 173.395 170.533 173.411C170.53 173.424 170.523 173.445 170.514 173.478C170.497 173.541 170.474 173.628 170.445 173.739C170.387 173.959 170.307 174.266 170.213 174.632C170.025 175.362 169.78 176.325 169.54 177.287C169.299 178.25 169.062 179.212 168.888 179.943C168.802 180.309 168.731 180.616 168.685 180.835C168.674 180.885 168.665 180.93 168.657 180.97C168.673 180.975 168.691 180.98 168.71 180.986C168.881 181.036 169.122 181.098 169.407 181.166C169.974 181.303 170.693 181.461 171.318 181.598L171.319 181.599C171.685 181.679 172.019 181.753 172.269 181.81C172.394 181.839 172.5 181.864 172.579 181.884C172.619 181.894 172.654 181.904 172.683 181.912L172.685 181.913C172.703 181.918 172.749 181.932 172.788 181.954L172.791 181.955C173.441 182.325 173.742 182.444 173.927 182.458C174.07 182.469 174.152 182.423 174.425 182.235C174.708 182.04 175.11 181.763 175.846 181.505C176.065 181.426 176.264 181.409 176.41 181.397L176.417 181.397C176.566 181.385 176.628 181.376 176.673 181.355C176.696 181.344 176.735 181.322 176.779 181.215L176.78 181.215C176.915 180.891 177.1 180.156 177.305 179.187C177.508 178.23 177.723 177.072 177.92 175.924C178.117 174.775 178.296 173.638 178.425 172.723C178.556 171.798 178.632 171.124 178.632 170.881C178.621 169.994 178.672 169.109 178.784 168.231L178.834 167.842L179.195 167.995C180.124 168.389 181.131 168.579 182.148 168.548C182.473 168.531 182.796 168.487 183.114 168.415C184.033 167.838 184.806 167.057 185.375 166.133C185.951 165.196 186.301 164.138 186.397 163.042L186.801 153.593L186.714 153.545C186.714 153.589 186.715 153.634 186.716 153.678L186.716 153.68C186.718 153.834 186.721 153.993 186.719 154.154L186.125 154.155C186.124 154.082 186.123 154.009 186.122 153.935C186.122 153.935 186.122 153.934 186.122 153.934V153.933V153.931C186.12 153.776 186.118 153.62 186.118 153.465L186.559 153.463L175.495 147.578C173.776 148.72 172.54 150.707 172.344 153.207L171.813 159.966C171.813 159.966 171.813 159.967 171.813 159.967C171.695 161.577 171.991 163.191 172.672 164.654L172.687 164.688L172.694 164.724C172.724 164.88 172.79 165.237 172.849 165.718L174.985 167.037L175.669 166.522C175.678 166.515 175.687 166.508 175.697 166.501L175.703 166.496L175.71 166.492C175.97 166.324 176.265 166.273 176.548 166.29L176.656 166.297L170.536 173.399ZM172.571 165.895C172.509 165.353 172.434 164.947 172.402 164.78C171.7 163.27 171.395 161.606 171.517 159.944L172.047 153.184C172.256 150.525 173.604 148.411 175.48 147.233L186.418 153.051L186.418 153.045L187.106 153.421L186.694 163.062C186.595 164.206 186.23 165.311 185.628 166.289C185.027 167.266 184.205 168.09 183.229 168.693C182.878 168.776 182.52 168.827 182.16 168.846C181.203 168.875 180.253 168.717 179.364 168.383C179.268 168.347 179.173 168.309 179.079 168.269C179.066 168.371 179.054 168.474 179.042 168.576C178.957 169.34 178.92 170.109 178.93 170.879C178.93 171.95 177.645 179.912 177.054 181.329C176.919 181.654 176.712 181.671 176.442 181.693C176.295 181.706 176.128 181.719 175.945 181.786C175.245 182.031 174.868 182.291 174.594 182.48C174.075 182.838 173.924 182.943 172.644 182.214C172.586 182.182 171.988 182.05 171.254 181.889C170.006 181.615 168.365 181.254 168.33 181.151C168.273 180.988 170.2 173.439 170.26 173.288C170.582 172.48 170.699 171.734 170.828 170.909C170.856 170.73 170.885 170.547 170.916 170.359C170.975 170.003 170.974 169.526 170.972 169.049C170.97 168.45 170.967 167.851 171.085 167.49C171.275 166.917 172.022 166.924 172.654 166.93C172.807 166.932 172.954 166.933 173.085 166.926C173.157 166.922 173.349 166.911 173.621 166.894C173.718 166.888 173.824 166.882 173.94 166.875L173.964 166.873L174.137 166.863L173.956 166.751L173.953 166.749L172.571 165.895ZM186.422 154.152C186.421 154.077 186.42 154.003 186.419 153.929V153.929C186.418 153.847 186.417 153.765 186.416 153.683C186.416 153.61 186.415 153.538 186.415 153.466C186.416 153.538 186.417 153.61 186.418 153.683C186.42 153.765 186.421 153.847 186.422 153.929C186.423 154.003 186.423 154.077 186.422 154.152ZM175.881 166.757C175.881 166.757 175.88 166.757 175.88 166.757C175.869 166.758 175.858 166.758 175.847 166.759C175.855 166.753 175.863 166.748 175.87 166.742C176.066 166.616 176.295 166.573 176.53 166.587C176.573 166.629 176.617 166.67 176.662 166.71C176.615 166.713 176.569 166.716 176.522 166.719C176.48 166.721 176.439 166.724 176.398 166.726C176.225 166.737 176.053 166.747 175.881 166.757Z" fill="#273B63"/>
<path d="M188.063 148.914C187.442 147.372 185.426 147.158 183.936 146.563C181.595 145.624 182.49 145.842 181.31 144.685C180.777 144.163 178.266 143.603 177.549 143.523C177.435 143.699 178.211 144.223 178.06 144.383C177.728 144.732 178.21 144.978 177.684 145.22C174.891 146.522 173.152 148.6 171.854 151.019C171.963 151.196 172.052 151.386 172.119 151.582C172.21 151.863 172.208 152.166 172.114 152.446C172.019 152.726 171.837 152.968 171.594 153.135C171.352 153.277 171.068 153.332 170.791 153.289C169.853 155.528 169.114 157.939 168.189 160.271C168.355 160.687 168.465 161.122 168.517 161.567C168.694 163.49 166.765 165.935 170.311 166.878C173.177 167.64 172.423 167.972 173.471 168.645C173.73 168.807 174.031 168.89 174.336 168.885C177.889 168.819 180.787 166.744 182.214 163.556C183.33 162.487 184.315 161.289 185.148 159.988C185.191 160.132 185.253 160.251 185.371 160.245C185.81 160.219 185.88 158.453 185.957 158.007C186.157 156.825 187.549 155.378 187.981 154.277C188.57 152.816 188.686 150.463 188.063 148.914ZM170.134 163.174C170.454 163.645 170.838 164.067 171.277 164.429C170.814 164.093 170.425 163.666 170.134 163.174Z" fill="#91A7D3"/>
<path d="M183.64 164.312C184.715 164.489 185.621 163.373 185.662 161.834C185.701 160.941 185.416 160.064 184.859 159.366C184.689 159.253 184.497 159.175 184.296 159.137C183.22 158.959 182.316 160.076 182.274 161.616C182.237 162.507 182.522 163.382 183.077 164.079C183.248 164.192 183.439 164.271 183.64 164.312Z" fill="white"/>
<path fill-rule="evenodd" clip-rule="evenodd" d="M185.365 161.823L185.365 161.821C185.4 161.016 185.149 160.225 184.657 159.59C184.53 159.512 184.39 159.458 184.244 159.43C183.835 159.363 183.441 159.535 183.128 159.92C182.811 160.309 182.591 160.907 182.571 161.624V161.626V161.628C182.537 162.432 182.789 163.221 183.279 163.855C183.407 163.933 183.547 163.989 183.694 164.02C184.102 164.084 184.495 163.912 184.808 163.529C185.125 163.139 185.346 162.543 185.365 161.826V161.823ZM183.64 164.312C183.439 164.271 183.248 164.192 183.077 164.079C182.522 163.382 182.237 162.507 182.274 161.616C182.316 160.076 183.22 158.959 184.296 159.137C184.497 159.175 184.689 159.253 184.859 159.366C185.416 160.064 185.701 160.941 185.662 161.834C185.621 163.373 184.715 164.489 183.64 164.312Z" fill="#273B63"/>
<path d="M207.022 292.229L204.769 304.163L210.261 305.76L213.512 292.006L207.022 292.229Z" fill="white"/>
<path fill-rule="evenodd" clip-rule="evenodd" d="M205.111 303.953L210.044 305.386L213.133 292.317L207.27 292.518L205.111 303.953ZM207.022 292.229L204.769 304.163L210.261 305.76L213.512 292.006L207.022 292.229Z" fill="#273B63"/>
<path d="M173.436 292.758L171.183 304.693L176.703 305.135L179.926 292.537L173.436 292.758Z" fill="white"/>
<path fill-rule="evenodd" clip-rule="evenodd" d="M171.183 304.693L176.703 305.135L179.926 292.537L173.436 292.758L171.183 304.693ZM173.684 293.046L171.537 304.423L176.477 304.818L179.539 292.85L173.684 293.046Z" fill="#273B63"/>
<path d="M204.754 304.189C208.592 304.586 216.89 307.504 216.89 307.504C219.633 308.393 218.666 311.114 215.592 311.157L203.893 311.323C203.33 311.323 202.902 311.004 202.996 310.642L204.619 304.392C204.646 304.315 204.693 304.246 204.754 304.189Z" fill="#91A7D3"/>
<path d="M171.609 303.988C175.447 304.385 183.745 307.303 183.745 307.303C186.487 308.192 185.522 310.913 182.449 310.956L170.748 311.122C170.185 311.122 169.757 310.803 169.851 310.44L171.474 304.193C171.501 304.114 171.548 304.044 171.609 303.988Z" fill="#91A7D3"/>
<path d="M186.435 244.291L184.417 245.248C184.075 248.86 182.288 253.348 179.965 260.891C177.382 269.283 174.169 279.726 172.111 289.869C171.997 290.435 172.013 291.021 172.16 291.58C172.307 292.14 172.581 292.657 172.959 293.095C173.336 293.532 173.803 293.881 174.328 294.119C174.853 294.358 175.423 294.48 176 294.478H176.063L183.527 294.364C184.352 294.36 185.153 294.098 185.82 293.612C186.486 293.127 186.984 292.443 187.243 291.661C191.471 278.633 195.049 269.387 197.922 261.96C200.4 255.562 202.188 250.938 203.174 246.965L203.426 245.96L186.435 244.291Z" fill="#11192B"/>
<path d="M177.557 143.496C177.557 143.496 157.942 144.929 166.441 164.296C166.441 164.296 189.455 148.582 177.557 143.496Z" fill="#91A7D3"/>
<path d="M153.873 255.297C153.873 255.531 153.918 255.763 154.007 255.977C154.096 256.193 154.227 256.388 154.391 256.554C154.556 256.718 154.751 256.849 154.966 256.938C155.181 257.026 155.411 257.072 155.644 257.072H203.987C204.447 257.059 204.883 256.864 205.203 256.534C205.523 256.202 205.702 255.761 205.702 255.3C205.702 254.838 205.523 254.395 205.203 254.065C204.883 253.735 204.447 253.54 203.987 253.525H155.644C155.411 253.525 155.181 253.571 154.966 253.661C154.751 253.748 154.556 253.879 154.391 254.045C154.227 254.209 154.096 254.404 154.007 254.62C153.918 254.834 153.873 255.066 153.873 255.297Z" fill="#DAE1F0"/>
<path d="M148.596 311.347C148.555 311.352 148.514 311.352 148.473 311.347C148.256 311.317 148.061 311.199 147.93 311.024C147.8 310.847 147.744 310.626 147.775 310.41L155.691 257.365C155.728 257.15 155.847 256.96 156.023 256.834C156.198 256.707 156.416 256.652 156.631 256.685C156.845 256.718 157.038 256.831 157.169 257.004C157.299 257.177 157.357 257.395 157.33 257.609L149.414 310.646C149.384 310.843 149.285 311.02 149.135 311.149C148.985 311.277 148.794 311.35 148.596 311.347Z" fill="#324B7F"/>
<path d="M172.852 310.742C172.811 310.746 172.77 310.746 172.728 310.742C172.512 310.709 172.317 310.593 172.186 310.416C172.055 310.242 171.999 310.021 172.031 309.802L179.947 256.766C179.984 256.554 180.103 256.362 180.278 256.235C180.454 256.108 180.672 256.056 180.886 256.088C181.1 256.119 181.294 256.235 181.424 256.407C181.555 256.58 181.613 256.799 181.586 257.013L173.67 310.034C173.641 310.231 173.543 310.41 173.393 310.541C173.242 310.67 173.051 310.742 172.852 310.742Z" fill="#324B7F"/>
<path d="M255.295 69.6139C263.138 71.088 271.268 73.6156 276.576 79.5798C280.985 84.5354 282.89 91.3689 282.84 98.0071C282.79 104.645 280.935 111.152 278.588 117.349C275.873 124.53 272.485 131.437 268.471 137.979C266.147 141.769 263.533 145.513 259.9 148.071C252.151 153.528 241.636 152.442 232.449 150.114C220.625 147.116 209.284 142.469 198.755 136.308C192.94 132.903 187.225 128.873 183.7 123.127C180.536 117.969 179.397 111.86 178.315 105.902C176.926 98.2605 176.139 88.8581 180.643 81.9551C184.334 76.2935 192.46 74.5696 198.543 72.733C216.86 67.2141 236.498 66.078 255.295 69.6139Z" fill="#B5C4E2"/>
<path d="M254.435 104.514C254.105 104.262 253.765 104.028 253.414 103.804C253.294 103.364 253.139 102.934 252.953 102.518C253.809 99.9771 254.012 97.2335 253.274 94.6194C252.209 90.8375 249.36 87.4837 245.638 86.1166C244.82 85.8184 243.967 85.6252 243.1 85.5419C242.239 84.1589 241.189 82.9038 239.98 81.8125C234.164 76.6109 225.14 76.3386 218.546 80.2221C216.893 81.1866 215.414 82.4226 214.17 83.8781C213.599 84.5411 213.096 85.2603 212.67 86.0246C211.761 86.3037 210.992 86.9179 210.518 87.7429C209.691 89.1512 209.794 90.7831 210.286 92.2909L210.117 92.3435C208.016 93.0421 205.932 94.2383 204.786 96.2043C203.702 98.0654 203.553 100.458 204.881 102.238C204.97 102.356 205.069 102.46 205.168 102.57L205.754 103.164C206.486 103.793 207.308 104.31 208.192 104.696C206.54 106.559 206.011 109.303 206.442 111.793C205.657 112.26 204.959 112.859 204.379 113.565C203.756 114.35 203.328 115.319 203.471 116.341C203.613 117.362 204.296 118.16 205.114 118.75C206.052 119.424 207.146 119.895 208.203 120.339C208.676 120.538 209.158 120.714 209.64 120.891C209.57 121.136 209.53 121.387 209.518 121.642C209.455 123.569 210.633 125.319 211.957 126.609C213.543 128.149 215.42 129.358 217.477 130.165C221.265 131.676 225.478 131.721 229.294 130.289C231.314 131.692 233.74 132.126 236.164 132.054C238.255 131.988 240.323 131.619 242.306 130.958C246.231 129.627 249.761 127.336 252.578 124.293C255.085 121.606 257.101 118.333 258.168 114.801C258.321 114.273 258.423 113.731 258.473 113.184C258.7 110.892 258.063 108.598 256.687 106.752C256.172 106.067 255.578 105.443 254.919 104.891L254.435 104.514ZM254.042 104.959C253.929 105.102 253.811 105.242 253.693 105.383C253.673 105.132 253.639 104.884 253.595 104.632C253.748 104.741 253.896 104.848 254.042 104.959ZM253.126 105.964C252.641 106.336 252.046 106.531 251.437 106.514C251.363 106.39 251.295 106.26 251.219 106.138C251.675 105.423 252.076 104.675 252.419 103.9C252.578 103.988 252.735 104.088 252.89 104.176C253.032 104.762 253.111 105.361 253.126 105.964ZM210.241 103.158L210.154 103.194C210.023 103.258 209.899 103.333 209.779 103.404C209.789 103.323 209.805 103.243 209.817 103.162L210.241 103.158ZM209.925 102.559C210.084 101.871 210.337 101.208 210.676 100.589C210.725 100.501 210.783 100.418 210.835 100.332C210.531 101.038 210.341 101.789 210.273 102.555L209.925 102.559ZM210.282 103.808C210.322 104.188 210.39 104.565 210.486 104.935C210.235 104.85 209.987 104.762 209.736 104.67C209.727 104.497 209.719 104.322 209.723 104.148C209.901 104.024 210.086 103.911 210.276 103.808H210.282ZM210.631 105.612L210.7 105.633C211.056 106.638 211.607 107.561 212.323 108.35C212.561 108.612 212.818 108.857 213.09 109.083L212.212 109.383C211.207 108.687 210.456 107.681 210.072 106.519C209.949 106.134 209.859 105.738 209.805 105.336C210.089 105.432 210.359 105.524 210.631 105.612ZM214.945 93.0966C214.957 93.5034 215.003 93.9086 215.082 94.3078C214.566 95.0589 213.979 95.75 213.394 96.4429C212.397 95.3372 211.601 94.0663 211.04 92.6873C211.833 92.4674 212.642 92.3103 213.459 92.2177C213.916 92.5739 214.416 92.8693 214.949 93.0966H214.945ZM214.382 92.1408C214.57 92.1314 214.769 92.122 214.964 92.122C214.953 92.2308 214.951 92.3398 214.945 92.4486C214.91 92.4318 214.872 92.4205 214.836 92.4017C214.692 92.3247 214.542 92.2328 214.403 92.1408H214.382ZM222.201 95.5416C222.327 95.6204 222.441 95.7124 222.559 95.8007C222.836 96.2122 223.069 96.6529 223.25 97.1151C223.597 98.025 223.719 99.006 223.604 99.9733C221.756 99.7854 219.945 99.2935 218.391 98.2232C217.493 97.6127 216.759 96.7895 216.254 95.8269C218.155 94.9763 220.364 94.4035 222.212 95.5416H222.201ZM216.01 95.271C215.894 94.9907 215.798 94.7018 215.724 94.4072C215.911 94.1275 216.086 93.8439 216.247 93.5491C217.779 93.968 219.399 94.0768 221.003 94.0993C221.206 94.2645 221.402 94.4374 221.588 94.6214C220.462 94.2516 219.253 94.2228 218.113 94.5388C217.396 94.7276 216.695 94.9725 216.016 95.271H216.01ZM235.706 108.561C235.759 108.508 235.82 108.465 235.872 108.411C235.924 108.356 235.979 108.294 236.031 108.234C236.199 108.395 236.361 108.563 236.516 108.737C236.245 108.701 235.977 108.642 235.715 108.561H235.706ZM237.055 109.402C237.216 109.626 237.373 109.855 237.513 110.093C237.539 110.136 237.561 110.181 237.587 110.224C237.083 109.886 236.564 109.572 236.031 109.286C236.369 109.357 236.716 109.396 237.063 109.402H237.055ZM235.955 107.355C235.654 107.103 235.333 106.872 234.999 106.664C233.732 105.912 232.313 105.448 230.847 105.303C230.4 104.942 229.935 104.576 229.444 104.245C229.861 104.035 230.252 103.773 230.603 103.466C231.343 102.779 231.929 101.941 232.322 101.01C232.861 101.449 233.398 101.889 233.921 102.345C234.809 103.119 235.82 103.984 236.223 105.128C236.361 105.493 236.409 105.886 236.365 106.273C236.319 106.661 236.182 107.032 235.964 107.355H235.955ZM235.593 107.84C235.436 108.016 235.265 108.181 235.087 108.333C233.858 107.785 232.796 106.916 231.759 106.052C232.279 106.154 232.789 106.299 233.287 106.484C234.127 106.806 234.908 107.264 235.599 107.84H235.593ZM223.623 104.912L223.711 104.798C224.053 104.852 224.4 104.901 224.747 104.937C225.135 104.976 225.528 104.993 225.925 104.995C225.938 105.136 225.951 105.278 225.964 105.421C225.443 105.483 224.921 105.554 224.398 105.628C224.158 105.385 223.894 105.145 223.63 104.912H223.623ZM223.676 105.731L223.073 105.817C223.143 105.673 223.22 105.528 223.303 105.387C223.438 105.5 223.558 105.616 223.682 105.723L223.676 105.731ZM224.223 104.27C224.431 104.091 224.664 103.943 224.915 103.83C225.192 103.712 225.487 103.642 225.788 103.622C225.816 103.881 225.84 104.138 225.866 104.397C225.319 104.388 224.773 104.345 224.23 104.27H224.223ZM225.912 106.026L226.025 106.013C226.087 106.559 226.163 107.104 226.259 107.64C225.842 107.123 225.397 106.626 224.928 106.153C225.266 106.108 225.593 106.065 225.923 106.026H225.912ZM225.912 100.664C226.207 100.664 226.499 100.664 226.793 100.651C228.425 100.606 230.057 100.529 231.687 100.484L231.838 100.61C231.469 101.537 230.9 102.37 230.171 103.051C229.778 103.397 229.331 103.678 228.849 103.883C228.199 103.483 227.476 103.211 226.726 103.081C226.582 103.061 226.436 103.049 226.289 103.044C226.22 102.236 226.095 101.442 225.925 100.664H225.912ZM227.28 103.815C227.555 103.906 227.823 104.016 228.083 104.144C227.546 104.287 226.994 104.371 226.438 104.392C226.412 104.138 226.385 103.885 226.357 103.629C226.676 103.657 226.99 103.719 227.295 103.815H227.28ZM228.781 104.529C229.126 104.743 229.462 104.974 229.785 105.222C229.342 105.203 228.897 105.196 228.456 105.211C227.812 105.233 227.171 105.284 226.532 105.352L226.492 104.976C227.282 104.946 228.061 104.795 228.805 104.529H228.781ZM232.117 99.8719H231.884C231.166 99.2885 230.487 98.6568 229.857 97.9809C228.879 96.9106 227.98 95.5265 227.627 94.06C229.545 94.0406 231.46 94.166 233.361 94.4354C233.221 95.4762 233.023 96.5083 232.765 97.5264C232.601 98.3196 232.394 99.1025 232.143 99.8719H232.117ZM227.518 93.4702C227.428 92.8221 227.474 92.162 227.651 91.5324C227.93 90.5652 228.589 89.5963 229.593 89.2788C230.681 88.9427 231.768 89.5212 232.455 90.3531C233.269 91.339 233.472 92.5765 233.409 93.8478C231.465 93.5753 229.505 93.449 227.544 93.4702H227.518ZM230.959 99.8813C229.244 99.9733 227.503 100.069 225.761 100.069C225.367 98.5462 224.734 97.1171 223.584 95.9209C223.377 95.7065 223.15 95.5103 222.91 95.3351C222.593 94.8934 222.236 94.4835 221.841 94.1107H222.916C224.273 94.1107 225.65 94.0768 227.031 94.0731C227.031 94.0956 227.031 94.1181 227.031 94.1406C227.581 96.4711 229.233 98.3489 230.983 99.8813H230.959ZM223.927 97.2729C224.47 98.136 224.887 99.0735 225.161 100.056C224.854 100.056 224.544 100.033 224.234 100.013C224.326 99.0879 224.221 98.1542 223.927 97.2729ZM224.114 100.79C224.127 100.728 224.132 100.668 224.145 100.602C224.535 100.629 224.93 100.644 225.323 100.651C225.508 101.438 225.644 102.235 225.733 103.038C225.277 103.066 224.834 103.191 224.431 103.404C224.086 103.601 223.776 103.85 223.51 104.144C223.207 104.092 222.903 104.031 222.602 103.967C223.324 103.028 223.839 101.946 224.112 100.792L224.114 100.79ZM222.857 104.997C222.761 105.152 222.67 105.308 222.587 105.468C222.504 105.628 222.456 105.761 222.399 105.907C221.906 105.973 221.415 106.035 220.922 106.084C220.789 106.099 220.656 106.105 220.525 106.116C220.601 106.056 220.678 105.999 220.752 105.928C221.267 105.489 221.747 105.01 222.183 104.493L222.31 104.52C222.491 104.683 222.672 104.843 222.855 104.998L222.857 104.997ZM219.441 106.185C219.406 106.151 219.38 106.109 219.36 106.063C218.941 105.184 218.319 104.418 217.545 103.827C217.13 103.538 216.675 103.313 216.194 103.158C216.815 103.254 217.429 103.376 218.025 103.507C219.196 103.765 220.357 104.071 221.524 104.352C220.907 105.046 220.207 105.662 219.439 106.187L219.441 106.185ZM219.185 108.251C218.952 109.344 217.83 109.896 216.798 109.941C215.952 109.949 215.121 109.715 214.403 109.267C214.51 109.229 214.617 109.194 214.724 109.154C216.262 108.628 217.74 107.941 219.133 107.104C219.24 107.481 219.257 107.877 219.183 108.262L219.185 108.251ZM213.769 108.837C212.733 108.063 211.923 107.025 211.422 105.832C213.696 106.481 216.049 106.808 218.413 106.803C216.988 107.658 215.384 108.281 213.767 108.848L213.769 108.837ZM217.646 110.414C218.531 110.189 219.334 109.595 219.668 108.724C219.881 108.088 219.873 107.4 219.646 106.769C220.492 106.721 221.335 106.634 222.177 106.527C221.767 107.939 221.926 109.421 222.844 110.647C222.362 110.607 221.878 110.599 221.396 110.625C219.17 110.735 216.877 110.979 214.681 110.472C214.051 110.325 213.444 110.094 212.876 109.785C213.142 109.697 213.409 109.607 213.673 109.515C214.842 110.32 216.251 110.778 217.644 110.418L217.646 110.414ZM222.652 108.978C222.441 108.135 222.495 107.246 222.814 106.437L224.236 106.24C225.129 107.108 225.927 108.069 226.615 109.107C226.706 109.424 226.802 109.738 226.931 110.046C226.368 110.48 225.851 110.971 225.391 111.513C224.904 111.152 224.345 110.902 223.752 110.78C223.233 110.293 222.853 109.674 222.657 108.989L222.652 108.978ZM225.452 112.393C225.476 112.425 225.506 112.452 225.53 112.487C226.078 113.261 226.207 114.283 226.032 115.201C225.757 116.632 224.81 117.642 223.619 118.286C223.567 116.348 224.099 114.439 225.148 112.81C225.242 112.671 225.347 112.542 225.449 112.405L225.452 112.393ZM225.96 111.764C226.331 111.344 226.737 110.958 227.175 110.61C227.311 110.902 227.461 111.187 227.627 111.464C227.671 111.535 227.723 111.597 227.769 111.665C227.173 111.789 226.564 111.826 225.958 111.776L225.96 111.764ZM227.62 109.569C227.476 109.319 227.328 109.077 227.169 108.842C226.972 108.11 226.822 107.365 226.719 106.613C226.687 106.39 226.656 106.163 226.628 105.935C227.956 105.774 229.298 105.75 230.631 105.862C230.95 106.127 231.264 106.394 231.567 106.651C232.353 107.326 233.191 107.938 234.072 108.48C232.54 108.057 230.913 108.123 229.418 108.668C228.788 108.906 228.183 109.212 227.618 109.58L227.62 109.569ZM230.044 109.092C231.345 108.704 232.73 108.704 234.028 109.092C233.439 109.468 232.831 109.77 232.322 110.031C231.131 110.633 229.885 111.117 228.6 111.477L228.511 111.5C228.34 111.016 228.137 110.546 227.902 110.091C228.565 109.664 229.287 109.331 230.044 109.103V109.092ZM229.501 111.826C230.721 111.424 231.908 110.922 233.044 110.324C233.627 110.025 234.19 109.693 234.733 109.329C235.196 109.506 235.647 109.719 236.077 109.965C236.793 110.373 237.469 110.839 238.141 111.312C238.359 111.827 238.538 112.358 238.676 112.9C237.593 113.339 236.465 113.651 235.313 113.828C233.003 114.179 230.487 113.9 228.831 112.087C228.814 112.069 228.801 112.048 228.785 112.029C229.034 111.984 229.268 111.92 229.499 111.838L229.501 111.826ZM238.115 107.203C237.857 105.008 237.844 102.76 237.74 100.527C239.832 100.623 241.918 100.844 243.984 101.19C244.135 101.5 244.268 101.818 244.385 102.142C243.635 104.138 242.481 105.966 240.864 107.31C240.129 107.934 239.26 108.383 238.327 108.624C238.241 108.164 238.169 107.689 238.113 107.214L238.115 107.203ZM237.709 99.9264C237.646 98.409 237.471 96.8983 237.188 95.4063C237.613 95.5641 238.034 95.733 238.449 95.9283C240.5 96.8935 242.287 98.3301 243.487 100.27C243.537 100.353 243.58 100.439 243.631 100.524C241.667 100.22 239.69 100.025 237.707 99.9375L237.709 99.9264ZM237.735 108.724C237.604 108.741 237.471 108.756 237.34 108.762C237.052 108.399 236.74 108.057 236.402 107.74C236.797 107.177 236.996 106.498 236.965 105.81C236.895 104.72 236.249 103.789 235.519 103.021C234.609 102.107 233.638 101.253 232.617 100.465C233.267 100.452 233.919 100.446 234.572 100.454C235.429 100.462 236.287 100.483 237.144 100.52C237.271 103.254 237.26 106.05 237.733 108.728L237.735 108.724ZM233.441 99.8324C233.217 99.8324 232.996 99.8438 232.774 99.8475C232.972 99.2503 233.149 98.6437 233.28 98.0541C233.59 96.8981 233.823 95.7232 233.98 94.5368C234.842 94.6913 235.693 94.9033 236.527 95.1716C236.753 96.2281 236.915 97.2982 237.007 98.3753C237.052 98.8803 237.085 99.3912 237.113 99.9019C235.887 99.8593 234.661 99.84 233.439 99.8438L233.441 99.8324ZM234.026 93.9453C234.1 92.9947 233.967 92.0396 233.636 91.1454C232.92 89.3503 230.865 87.9249 228.967 88.9014C227.324 89.7465 226.78 91.7181 226.964 93.4608C225.161 93.4608 223.357 93.5135 221.577 93.4853H221.143C220.021 92.6265 218.719 92.0322 217.335 91.7463C217.226 91.7238 217.115 91.7127 217.007 91.6939C217.287 90.64 217.236 89.5253 216.86 88.5016C217.164 88.0389 217.518 87.6117 217.916 87.2282C221.219 84.0792 226.516 84.1937 230.297 86.355C232.244 87.4634 233.863 89.0699 234.986 91.0104C235.604 92.1108 236.071 93.2893 236.374 94.5143C235.601 94.2833 234.818 94.0972 234.024 93.9566L234.026 93.9453ZM218.644 92.7286C219.161 92.9204 219.659 93.1632 220.13 93.4534C218.913 93.437 217.7 93.2871 216.515 93.0065C216.629 92.7622 216.731 92.5125 216.823 92.2553C217.444 92.3591 218.054 92.5212 218.644 92.7397V92.7286ZM216.536 91.0742C216.504 91.2525 216.449 91.4216 216.403 91.5925C216.155 91.5643 215.906 91.5455 215.652 91.5324C215.794 90.7007 216.067 89.897 216.461 89.1512C216.629 89.7823 216.655 90.4431 216.536 91.0853V91.0742ZM216.219 92.1821C216.138 92.4017 216.056 92.6215 215.954 92.8337C215.815 92.7887 215.677 92.7436 215.542 92.691C215.542 92.5033 215.557 92.3154 215.575 92.1276C215.791 92.1521 216.005 92.1707 216.219 92.2028V92.1821ZM215.557 96.1482L215.716 96.0693C216.525 97.6109 217.907 98.7846 219.497 99.5114C220.774 100.071 222.135 100.419 223.523 100.54C223.331 101.478 222.962 102.371 222.434 103.169C222.327 103.335 222.209 103.487 222.096 103.641C220.783 102.608 219.425 101.633 218.111 100.636C216.645 99.5566 215.265 98.3637 213.985 97.0681C214.488 96.7314 215.014 96.4279 215.557 96.1593V96.1482ZM214.51 96.024C214.773 95.7011 215.03 95.3764 215.277 95.042C215.335 95.2297 215.401 95.3707 215.465 95.5171C215.132 95.6862 214.814 95.8588 214.51 96.0354V96.024ZM213.499 97.4138C215.739 99.8025 218.564 101.631 221.191 103.648C219.799 103.31 218.413 102.94 217.005 102.685C215.395 102.392 213.709 102.251 212.103 102.553C211.694 102.542 211.285 102.538 210.876 102.54C211.051 100.741 211.97 99.1602 213.127 97.7066C213.253 97.6184 213.373 97.5189 213.499 97.425V97.4138ZM212.169 103.145C213.516 103.173 214.866 103.301 216.108 103.748C216.963 104.063 217.703 104.629 218.232 105.372C218.431 105.633 218.607 105.91 218.762 106.198C216.808 106.234 214.856 106.037 212.947 105.612C212.347 105.477 211.752 105.318 211.165 105.139C211.031 104.718 210.938 104.286 210.886 103.847C210.873 103.738 210.886 103.633 210.871 103.524C211.291 103.362 211.726 103.238 212.169 103.156V103.145ZM212.1 110.042C213.214 110.71 214.461 111.125 215.753 111.255C218.016 111.531 220.255 111.13 222.506 111.201C222.812 111.211 223.117 111.242 223.42 111.295C223.848 111.675 224.35 111.959 224.895 112.131C224.854 112.189 224.806 112.245 224.764 112.303C223.519 114.093 222.969 116.269 223.008 118.436C223.008 118.481 223.008 118.526 223.008 118.572C222.484 118.789 221.941 118.952 221.385 119.056C218.804 119.541 216.183 118.891 213.598 118.791C213.307 118.78 213.011 118.776 212.715 118.791C211.967 118.396 211.257 117.932 210.595 117.405C209.046 116.17 207.821 114.643 207.249 112.724C207.189 112.523 207.136 112.318 207.089 112.112C207.251 112.02 207.408 111.924 207.558 111.856C209.026 111.146 210.544 110.543 212.1 110.054V110.042ZM223.145 120.038L223.102 120.055C221.049 120.729 218.734 120.656 216.643 120.209C215.753 120.017 214.881 119.746 214.039 119.4L214.778 119.465C216.112 119.578 217.44 119.768 218.78 119.817C220.207 119.866 221.708 119.721 223.052 119.208C223.076 119.497 223.106 119.773 223.145 120.05V120.038ZM214.448 120.202C217.239 121.216 220.42 121.49 223.241 120.601C223.348 121.173 223.488 121.737 223.663 122.292C221.716 122.354 219.766 122.291 217.828 122.104C215.318 121.863 212.842 121.344 210.445 120.558L210.389 120.536C210.545 120.264 210.763 120.032 211.025 119.858C211.488 119.571 212.018 119.409 212.563 119.388C213.173 119.704 213.802 119.979 214.448 120.213V120.202ZM223.639 118.96C224.136 118.722 224.599 118.42 225.015 118.063C226.42 116.857 227.101 114.797 226.46 113.017C226.377 112.785 226.27 112.563 226.139 112.354C226.8 112.384 227.461 112.33 228.107 112.194C228.502 113.537 228.563 114.955 227.93 116.235C227.101 117.914 225.454 119.124 223.726 119.82C223.691 119.546 223.663 119.259 223.643 118.972L223.639 118.96ZM226.477 118.895C228.212 117.507 229.228 115.552 228.945 113.297C228.929 113.176 228.903 113.06 228.881 112.942C229.951 113.854 231.277 114.408 232.678 114.527C234.74 114.729 236.895 114.268 238.815 113.496C238.929 114.058 239.005 114.627 239.044 115.199C237.742 116.424 236.873 118.043 236.577 119.807C236.522 120.17 236.487 120.535 236.476 120.902C235.235 121.005 234.002 121.171 232.815 121.341C230.343 121.7 227.88 122.07 225.386 122.224C225.022 122.245 224.655 122.256 224.291 122.271C224.092 121.664 223.933 121.045 223.817 120.417C224.78 120.056 225.679 119.546 226.481 118.906L226.477 118.895ZM237.072 120.844C237.072 120.695 237.072 120.547 237.092 120.397C237.262 118.762 237.958 117.226 239.075 116.021C239.079 117.651 238.793 119.269 238.228 120.797C237.844 120.812 237.46 120.831 237.076 120.855L237.072 120.844ZM237.98 121.407C237.766 121.907 237.521 122.394 237.249 122.864C237.142 122.401 237.079 121.928 237.061 121.452C237.373 121.435 237.681 121.421 237.984 121.411L237.98 121.407ZM238.961 111.169C238.752 110.542 238.582 109.904 238.444 109.257C241.305 108.574 243.497 105.629 244.647 103.006C244.957 104.152 244.999 105.354 244.765 106.518C244.233 109.01 242.494 110.863 240.345 112.104C239.88 111.809 239.42 111.494 238.964 111.169H238.961ZM245.444 103.954C245.361 103.323 245.212 102.702 245.001 102.101C245.081 101.879 245.169 101.66 245.241 101.434L245.393 101.466C245.592 102.046 245.86 102.599 246.194 103.113C247.132 104.638 248.302 106.236 250.001 106.852C248.828 108.428 247.403 109.801 245.784 110.916C244.615 111.723 243.347 112.356 242.099 113.053C241.693 112.876 241.298 112.675 240.916 112.452C242.09 111.75 243.118 110.83 243.945 109.74C245.173 108.08 245.712 106.007 245.448 103.958L245.444 103.954ZM250.606 107.026C250.767 107.061 250.933 107.087 251.097 107.104C251.577 107.92 251.969 108.786 252.268 109.686C252.072 110.058 251.843 110.411 251.581 110.741C250.305 112.299 248.503 113.339 246.517 113.667C245.278 113.869 244.008 113.755 242.825 113.336C244.006 112.685 245.206 112.067 246.305 111.285C247.959 110.109 249.412 108.67 250.606 107.026ZM250.073 106.255C248.948 105.813 248.097 104.85 247.418 103.881C246.947 103.211 246.384 102.433 246.072 101.611C246.358 101.675 246.635 101.744 246.934 101.817C248.269 103.136 249.471 104.583 250.523 106.136L250.372 106.358C250.265 106.322 250.163 106.287 250.065 106.255H250.073ZM250.868 105.592C250.028 104.359 249.087 103.198 248.055 102.122C249.382 102.5 250.669 103.003 251.9 103.624C251.599 104.303 251.252 104.96 250.861 105.592H250.868ZM247.239 101.273C246.803 100.833 246.362 100.403 245.926 99.9771C246.153 99.2465 246.864 98.8504 247.68 98.8504C248.655 98.8635 249.569 99.3066 250.305 99.917C251.164 100.635 251.854 101.532 252.327 102.546C252.268 102.715 252.201 102.882 252.14 103.049C250.573 102.278 248.926 101.683 247.228 101.275L247.239 101.273ZM246.113 101.004C246.035 100.987 245.959 100.968 245.878 100.954C245.867 100.886 245.865 100.82 245.856 100.753L246.113 101.004ZM239.753 112.433C239.671 112.476 239.585 112.514 239.5 112.555C239.441 112.423 239.389 112.288 239.335 112.155L239.753 112.433ZM239.873 114.498C239.78 114.57 239.686 114.647 239.603 114.722C239.575 114.435 239.537 114.147 239.489 113.864C239.609 114.074 239.738 114.284 239.873 114.493V114.498ZM239.764 113.1C239.952 113.006 240.14 112.912 240.327 112.806C240.683 113.024 241.043 113.235 241.42 113.422C241.08 113.663 240.713 113.9 240.356 114.149L240.327 114.106C240.118 113.774 239.935 113.436 239.762 113.094L239.764 113.1ZM242.127 113.74C243.716 114.392 245.468 114.538 247.141 114.157C249.046 113.728 250.754 112.677 252 111.171C252.175 110.948 252.338 110.717 252.491 110.478C252.545 110.69 252.598 110.904 252.644 111.124C253.093 113.377 252.644 115.79 250.652 117.15C249.86 117.669 248.967 118.016 248.031 118.166C247.097 118.316 246.142 118.268 245.225 118.023C243.351 117.524 241.809 116.2 240.692 114.643C241.156 114.313 241.636 114.016 242.125 113.734L242.127 113.74ZM252.615 108.916C252.589 108.844 252.565 108.769 252.537 108.7C252.316 108.153 252.065 107.618 251.786 107.1C252.253 107.058 252.707 106.918 253.115 106.688C253.063 107.452 252.892 108.203 252.615 108.916ZM243.633 86.2123C245.644 86.5541 247.514 87.4732 249.013 88.8582C250.562 90.2536 251.736 92.0175 252.423 93.9868C253.113 95.9561 253.294 98.0672 252.953 100.125C252.86 100.674 252.733 101.217 252.578 101.752C252.327 101.306 252.039 100.884 251.714 100.49C250.588 99.1377 248.815 97.9339 246.973 98.3189C246.545 98.409 246.153 98.624 245.847 98.9367C246.539 94.5464 245.714 90.0513 243.511 86.1936L243.633 86.2123ZM242.751 86.1241C244.63 89.2406 245.577 92.8306 245.481 96.4692C245.455 97.4145 245.354 98.3563 245.182 99.2859L244.951 99.0663C243.393 97.5884 241.82 96.12 240.395 94.5086C239.042 92.9764 237.471 90.6629 238.115 88.4996C238.702 86.5259 240.881 86.0264 242.751 86.1241ZM216.735 82.2032C218.254 80.9753 219.964 80.0077 221.799 79.3395C225.467 77.9801 229.466 77.7976 233.241 78.8175C236.987 79.8744 240.225 82.2489 242.361 85.5044C241.455 85.4794 240.556 85.6414 239.719 85.9794C238.791 86.352 238.049 87.0781 237.655 87.9983C237.279 88.9371 237.325 89.97 237.596 90.9238C238.193 93.0327 239.695 94.6983 241.185 96.2365C242.428 97.5227 243.737 98.7376 245.031 99.9714C244.972 100.232 244.907 100.492 244.844 100.749L244.388 100.668C243.951 99.8335 243.412 99.0564 242.786 98.3546C241.285 96.6851 239.308 95.5378 237.214 94.7866C237.157 94.766 237.098 94.751 237.041 94.7302C236.823 93.7943 236.522 92.8793 236.143 91.9961C234.401 87.9795 230.557 84.9259 226.2 84.3064C222.635 83.7975 218.714 84.9655 216.566 87.8742C216.252 87.3056 215.811 86.8166 215.279 86.4453C214.735 86.0638 214.082 85.8712 213.418 85.8968C214.26 84.4773 215.48 83.2265 216.735 82.2032ZM212.839 87.063C212.914 86.8753 213.002 86.6874 213.092 86.5108C213.203 86.4905 213.315 86.4785 213.428 86.4752C214.465 86.4508 215.371 87.1157 215.924 87.9531C216.025 88.1093 216.116 88.2719 216.196 88.4395C216.015 88.7288 215.853 89.0293 215.71 89.3389C215.396 90.0371 215.174 90.773 215.05 91.5285C214.58 91.523 214.11 91.5418 213.641 91.5848C213.304 91.2848 213.023 90.926 212.812 90.5257C212.251 89.4309 212.392 88.1692 212.839 87.063ZM210.963 88.1541C211.269 87.5805 211.731 87.1056 212.297 86.7851C211.889 87.7597 211.702 88.8 211.934 89.8555C212.088 90.5357 212.417 91.1638 212.889 91.6768C212.2 91.7793 211.518 91.9268 210.848 92.1182C210.82 92.0319 210.788 91.9491 210.762 91.8611C210.419 90.6516 210.349 89.2902 210.97 88.1541H210.963ZM204.529 99.7968C204.43 98.645 204.698 97.4912 205.294 96.5011C206.399 94.6026 208.432 93.4967 210.481 92.8505C210.662 93.3094 210.873 93.7558 211.111 94.1876C211.65 95.1552 212.291 96.0619 213.024 96.8918C212.923 97.0157 212.82 97.1396 212.722 97.2672C212.555 97.4025 212.39 97.5395 212.231 97.6841C210.8 98.9817 209.712 100.668 209.306 102.567H208.821C207.871 102.567 206.922 102.567 205.975 102.567C205.18 101.848 204.669 100.867 204.536 99.8025L204.529 99.7968ZM206.705 103.158C207.535 103.158 208.367 103.158 209.199 103.158C209.171 103.374 209.147 103.592 209.136 103.81C208.963 103.938 208.797 104.075 208.639 104.221C207.962 103.936 207.316 103.582 206.712 103.164L206.705 103.158ZM207.247 107.532C207.547 106.562 208.069 105.675 208.77 104.942L209.164 105.1C209.271 106.341 209.712 107.529 210.441 108.538C210.744 108.943 211.097 109.308 211.492 109.624C211.075 109.766 210.659 109.913 210.25 110.063C209.125 110.452 208.03 110.922 206.973 111.47C206.766 110.154 206.862 108.809 207.254 107.537L207.247 107.532ZM206.909 119.101C205.926 118.617 204.819 118.042 204.283 117.035C203.296 115.158 204.97 113.468 206.56 112.442C207.262 115.259 209.273 117.452 211.724 118.925C211.269 119.021 210.841 119.22 210.475 119.509C210.206 119.735 209.986 120.014 209.83 120.329C208.836 119.977 207.864 119.569 206.917 119.107L206.909 119.101ZM216.337 129.009C214.42 128.044 212.426 126.65 211.197 124.855C210.539 123.893 209.86 122.314 210.168 121.077C210.68 121.249 211.193 121.417 211.713 121.563C214.104 122.221 216.555 122.636 219.028 122.8C220.636 122.91 222.247 122.935 223.857 122.878C224.125 123.622 224.444 124.347 224.815 125.046C225.779 126.862 227.088 128.577 228.713 129.861C226.697 130.555 224.566 130.837 222.439 130.691C220.313 130.544 218.239 129.972 216.337 129.009ZM226.047 125.965C225.417 124.99 224.895 123.948 224.492 122.859C225.194 122.827 225.897 122.786 226.597 122.727C229.025 122.524 231.421 122.119 233.834 121.788C234.711 121.67 235.593 121.563 236.476 121.49C236.5 122.19 236.616 122.885 236.819 123.555C234.995 126.27 232.403 128.378 229.375 129.608C228.057 128.605 226.931 127.373 226.047 125.97V125.965ZM238.516 131.243C236.095 131.606 233.431 131.641 231.148 130.652C230.736 130.469 230.337 130.254 229.957 130.01C230.033 129.976 230.112 129.948 230.188 129.912C232.944 128.67 235.316 126.713 237.063 124.245C237.275 124.769 237.545 125.268 237.871 125.732C239.068 127.426 240.853 128.615 242.876 129.069C243.572 129.219 244.287 129.258 244.996 129.185C242.956 130.202 240.77 130.898 238.516 131.249V131.243ZM247.464 127.3C246.901 128.085 245.891 128.47 244.968 128.59C242.884 128.862 240.694 127.858 239.236 126.415C238.442 125.631 237.84 124.674 237.473 123.619C237.923 122.91 238.311 122.164 238.632 121.388C239.378 121.383 240.124 121.42 240.864 121.501C243.076 121.753 245.651 122.534 247.121 124.318C247.82 125.174 248.147 126.357 247.464 127.319V127.3ZM256.549 107.612C257.204 108.633 257.633 109.78 257.815 110.979C257.882 111.454 257.911 111.933 257.902 112.412C257.902 112.626 257.891 112.84 257.869 113.055C257.852 113.268 257.832 113.43 257.812 113.554C257.66 114.408 257.413 115.242 257.079 116.042C255.53 119.959 253.012 123.417 249.764 126.092C249.244 126.524 248.699 126.926 248.145 127.313C249.07 125.572 247.643 123.668 246.159 122.695C243.964 121.255 241.431 120.799 238.857 120.785C239.468 119.073 239.736 117.257 239.647 115.441C239.825 115.28 240.011 115.126 240.209 114.977C241.03 116.159 242.101 117.147 243.345 117.869C244.999 118.799 246.945 119.061 248.784 118.604C250.51 118.175 252.124 117.082 252.877 115.43C253.695 113.635 253.488 111.582 252.908 109.725C253.447 108.632 253.728 107.432 253.737 106.213C254.014 105.928 254.273 105.628 254.518 105.314C255.308 105.977 255.993 106.757 256.549 107.626V107.612Z" fill="#DAE1F0"/>
<path d="M347.359 67.3229L354.074 67.2161C354.55 67.2084 355.01 67.3906 355.353 67.7224C355.693 68.0541 355.889 68.5084 355.898 68.985C355.905 69.4616 355.724 69.9215 355.392 70.264C355.06 70.6062 354.607 70.8026 354.131 70.8102L347.415 70.9154C346.948 70.9095 346.501 70.7213 346.172 70.3911C345.84 70.0607 345.65 69.6143 345.644 69.1464C345.635 68.6788 345.812 68.2265 346.132 67.886C346.451 67.5456 346.892 67.3434 347.359 67.3229Z" fill="#11192B"/>
<path d="M322.213 67.71L327.428 67.6274C328.191 67.614 328.826 68.414 328.841 69.4017C328.857 70.3897 328.244 71.2082 327.482 71.2196L322.268 71.3022C321.506 71.3135 320.871 70.5153 320.856 69.5276C320.841 68.5399 321.449 67.7211 322.213 67.71Z" fill="#11192B"/>
<path d="M332.28 89.123L332.489 88.5203C332.677 89.8834 333.473 91.0947 334.711 91.4778L337.726 92.4167C338.764 92.738 339.694 92.1726 340.233 91.2656L340.3 91.6073C340.708 93.6581 339.113 95.4721 337.377 94.9349L334.359 93.996C332.555 93.4346 331.575 91.1436 332.28 89.123Z" fill="#91A7D3"/>
<path d="M348.556 78.8004C348.583 80.5169 349.495 81.8951 350.618 81.8782C351.744 81.8614 352.604 80.4548 352.578 78.7386C352.551 77.0221 351.639 75.6437 350.514 75.6607C349.388 75.6776 348.522 77.0842 348.556 78.8004Z" fill="#11192B"/>
<path d="M350.511 75.6607L347.101 75.7151L349.237 77.8013L350.511 75.6607Z" fill="#11192B"/>
<path d="M324.436 79.1817C324.463 80.8979 325.383 82.2744 326.5 82.2576C327.615 82.2407 328.486 80.8341 328.457 79.1179C328.431 77.4014 327.521 76.023 326.396 76.0418C325.27 76.0606 324.41 77.4635 324.436 79.1817Z" fill="#11192B"/>
<path d="M326.396 76.0418L322.981 76.0945L325.117 78.1807L326.396 76.0418Z" fill="#11192B"/>
<path d="M348.484 99.9019C348.273 101.804 348.092 103.699 343.996 104.322C343.996 104.322 337.15 105.419 337.732 100.925L348.484 99.9019Z" fill="white"/>
<path d="M195.741 253.698H158.814L159.189 252.221L156.188 232.724L157.771 233.172C160.264 233.876 167.253 233.127 169.776 232.7L169.751 232.582L170.9 232.427C181.124 231.064 206.631 228.673 222.593 235.895L222.26 236.942L222.672 235.926C227.943 238.233 230.738 244.081 229.324 249.824C227.42 257.559 223.713 273.218 220.298 291.176C220.18 291.873 219.827 292.507 219.299 292.972C218.771 293.438 218.097 293.709 217.393 293.737L208.344 294.012H208.252C207.834 294.01 207.42 293.921 207.038 293.75C206.656 293.58 206.314 293.331 206.033 293.02C205.737 292.695 205.512 292.312 205.37 291.895C205.228 291.478 205.173 291.036 205.208 290.599C206.035 280.007 207.993 268.966 209.569 260.092C209.756 259.03 209.94 257.992 210.119 256.98C210.189 256.589 210.176 256.189 210.08 255.802C209.985 255.418 209.81 255.057 209.566 254.745C209.322 254.434 209.014 254.176 208.664 253.991C208.314 253.805 207.929 253.696 207.534 253.669C203.606 253.436 199.667 253.444 195.741 253.698Z" fill="#273B63"/>
<path fill-rule="evenodd" clip-rule="evenodd" d="M197.005 207.043C197.005 207.043 199.774 215.512 200.862 219.692C201.106 220.632 202.306 221.6 203.24 221.368C205.958 220.697 208.654 219.865 211.368 219.028C214.567 218.04 217.791 217.045 221.11 216.298C221.162 216.261 221.217 216.225 221.273 216.19L221.878 215.794C222.528 215.477 223.191 215.153 223.879 215.092C224.363 215.067 224.847 215.112 225.321 215.225L227.854 215.704C228.273 215.782 228.694 215.863 229.102 215.983C229.196 216.001 229.279 216.052 229.335 216.128C229.359 216.19 229.368 216.259 229.355 216.325C229.344 216.392 229.313 216.454 229.268 216.504C229.18 216.601 229.067 216.671 228.938 216.703C228.609 216.779 228.266 216.786 227.935 216.721L226.464 216.534C226.143 216.494 225.796 216.461 225.491 216.633C225.454 216.65 225.423 216.677 225.404 216.712C225.347 216.83 225.497 216.909 225.615 216.913L228.574 217.041C228.733 217.053 228.892 217.049 229.049 217.029C229.455 216.967 229.828 216.708 230.193 216.455C230.243 216.421 230.293 216.386 230.343 216.351C230.568 216.199 230.889 216.072 231.031 216.284C231.14 216.447 231.048 216.703 230.93 216.889C230.747 217.163 230.533 217.415 230.291 217.64C229.551 218.368 228.79 219.065 228.002 219.729C227.764 219.95 227.496 220.136 227.206 220.282C226.933 220.387 226.643 220.435 226.353 220.42C226.063 220.407 225.777 220.332 225.517 220.203C225.227 220.077 224.954 219.913 224.681 219.749C224.463 219.618 224.245 219.487 224.016 219.373C223.501 219.117 222.925 218.956 222.345 219.122C222.068 219.203 221.738 219.281 221.42 219.268C220.519 219.707 219.602 220.155 218.677 220.608C212.849 223.464 206.599 226.527 200.957 228.76C198.07 230.36 195.594 227.408 195.33 226.931C193.732 224.036 190.991 216.797 189.164 210.091L197.005 207.043Z" fill="white"/>
<path fill-rule="evenodd" clip-rule="evenodd" d="M221.11 216.298C217.791 217.045 214.567 218.04 211.368 219.028C208.654 219.865 205.958 220.697 203.24 221.368C202.306 221.6 201.106 220.632 200.862 219.692C199.892 215.966 197.587 208.832 197.097 207.326C197.038 207.143 197.005 207.043 197.005 207.043L189.164 210.091C190.991 216.797 193.732 224.036 195.33 226.931C195.594 227.408 198.07 230.36 200.957 228.76C206.599 226.527 212.849 223.464 218.677 220.608C219.602 220.155 220.519 219.707 221.42 219.268C221.738 219.281 222.068 219.203 222.345 219.122C222.925 218.956 223.501 219.117 224.016 219.373C224.245 219.487 224.463 219.618 224.681 219.749C224.954 219.913 225.227 220.077 225.517 220.203C225.777 220.332 226.063 220.407 226.353 220.42C226.643 220.435 226.933 220.387 227.206 220.282C227.496 220.136 227.764 219.95 228.002 219.729C228.79 219.065 229.551 218.368 230.291 217.64C230.533 217.415 230.747 217.163 230.93 216.889C231.048 216.703 231.14 216.447 231.031 216.284C230.889 216.072 230.568 216.199 230.343 216.351C230.293 216.386 230.243 216.421 230.193 216.455C229.828 216.708 229.455 216.967 229.049 217.029C228.929 217.044 228.807 217.05 228.687 217.047C228.65 217.046 228.613 217.044 228.574 217.041L225.615 216.913C225.497 216.909 225.347 216.83 225.404 216.712C225.423 216.677 225.454 216.65 225.491 216.633C225.796 216.461 226.143 216.494 226.464 216.534L227.935 216.721C228.151 216.763 228.369 216.775 228.587 216.757C228.589 216.757 228.593 216.757 228.596 216.757C228.624 216.754 228.65 216.752 228.676 216.749C228.764 216.738 228.851 216.723 228.938 216.703C229.067 216.671 229.18 216.601 229.268 216.504C229.313 216.454 229.344 216.392 229.355 216.325C229.368 216.259 229.359 216.19 229.335 216.128C229.279 216.052 229.196 216.001 229.102 215.983C228.694 215.863 228.273 215.782 227.854 215.704L225.321 215.225C224.847 215.112 224.363 215.067 223.879 215.092C223.191 215.153 222.528 215.477 221.878 215.794L221.273 216.19C221.217 216.225 221.162 216.261 221.11 216.298ZM222.026 216.053L221.435 216.441L221.431 216.442C221.378 216.475 221.328 216.509 221.278 216.543L221.23 216.575L221.175 216.588C217.87 217.332 214.656 218.324 211.456 219.312L211.452 219.314C208.74 220.151 206.038 220.983 203.312 221.656C202.724 221.803 202.099 221.567 201.615 221.209C201.128 220.848 200.717 220.319 200.574 219.766C200.032 217.685 199.07 214.529 198.242 211.889C197.828 210.57 197.448 209.382 197.172 208.523C197.033 208.093 196.921 207.746 196.843 207.507C196.835 207.482 196.827 207.457 196.82 207.434L189.522 210.271C191.345 216.893 194.029 223.957 195.59 226.787C195.638 226.872 195.821 227.124 196.126 227.434C196.427 227.74 196.832 228.085 197.311 228.369C198.266 228.931 199.491 229.233 200.813 228.5L200.83 228.492L200.848 228.483C206.476 226.256 212.716 223.199 218.546 220.341C219.473 219.886 220.388 219.439 221.289 218.999L221.356 218.967L221.431 218.971C221.701 218.982 221.989 218.914 222.262 218.835H222.264C222.947 218.641 223.606 218.838 224.149 219.106C224.387 219.224 224.616 219.362 224.83 219.491L224.834 219.493C225.111 219.659 225.367 219.812 225.635 219.93L225.644 219.932L225.65 219.937C225.873 220.048 226.117 220.112 226.366 220.122C226.612 220.136 226.857 220.096 227.086 220.009C227.345 219.878 227.585 219.709 227.801 219.511L227.806 219.506L227.81 219.502C228.591 218.842 229.348 218.151 230.081 217.428L230.086 217.425L230.088 217.422C230.313 217.214 230.511 216.98 230.681 216.726C230.727 216.653 230.762 216.576 230.775 216.513C230.78 216.496 230.782 216.482 230.782 216.472C230.78 216.472 230.777 216.473 230.775 216.473C230.705 216.487 230.607 216.533 230.509 216.598C230.461 216.631 230.413 216.665 230.363 216.7L230.337 216.718C229.992 216.958 229.571 217.25 229.095 217.323L229.091 217.324L229.087 217.325C228.91 217.347 228.733 217.351 228.556 217.338L225.604 217.21C225.604 217.21 225.604 217.21 225.602 217.21C225.495 217.206 225.364 217.17 225.262 217.091C225.209 217.049 225.146 216.983 225.113 216.886C225.079 216.781 225.092 216.673 225.137 216.581L225.142 216.573L225.146 216.566C225.194 216.48 225.266 216.412 225.353 216.369C225.755 216.148 226.193 216.2 226.501 216.238V216.239L227.983 216.428L227.991 216.429C228.281 216.485 228.58 216.48 228.868 216.414C228.938 216.396 228.999 216.358 229.047 216.305L229.049 216.304C229.054 216.297 229.058 216.289 229.063 216.28C229.058 216.278 229.052 216.277 229.047 216.276L229.032 216.273L229.019 216.269C228.626 216.154 228.218 216.075 227.799 215.996L225.257 215.516L225.251 215.514C224.808 215.408 224.352 215.366 223.898 215.388C223.283 215.445 222.676 215.735 222.026 216.053Z" fill="#273B63"/>
<path d="M189.121 182.165C191.588 185.119 191.323 183.412 192.666 187.019C195.227 193.896 200.027 202.363 199.815 205.974C199.665 208.532 194.105 211.775 190.913 212.094C190.53 212.131 190.146 212.043 189.817 211.846C189.488 211.648 189.23 211.35 189.082 210.996C188.707 210.1 188.144 208.806 187.812 208.044C187.667 207.717 187.523 207.383 187.377 207.069C185.24 202.474 183.25 197.789 180.965 193.267C179.157 189.699 181.031 185.128 183.726 182.095C184.066 181.712 184.484 181.406 184.952 181.199C185.42 180.991 185.928 180.887 186.44 180.894C186.951 180.901 187.456 181.018 187.919 181.237C188.381 181.456 188.792 181.773 189.121 182.165Z" fill="#7BE1C9"/>
<path d="M160.136 184.144C160.136 184.144 169.44 169.035 188.954 181.688C189.875 182.35 190.687 183.151 191.361 184.064C192.353 185.435 191.325 187.16 191.535 189.098C191.785 191.41 191.07 199.098 190.642 201.421C189.318 208.619 190.019 214.284 190.027 220.782C189.997 224.213 191.574 231.824 191.796 235.43C191.636 236.603 190.897 239.56 190.155 240.285C189.592 240.831 184.143 244.487 177.212 245.114C170.612 245.711 169.868 241.17 157.703 241.69C156.956 241.712 156.227 241.45 155.667 240.954C155.107 240.458 154.758 239.765 154.691 239.02C153.233 224.351 156.191 215.546 158.017 193.892C157.874 192.835 157.897 187.436 160.136 184.144Z" fill="#7BE1C9"/>
<path d="M152.217 182.415C153.601 181.17 155.479 180.191 155.936 178.383C156.263 177.097 155.749 175.754 155.681 174.423C155.584 172.545 156.402 170.703 157.673 169.328C158.945 167.954 160.637 167.02 162.41 166.406C163.13 166.158 163.878 165.95 164.503 165.518C165.162 165.062 165.629 164.391 166.129 163.764C167.653 161.841 172.308 159.488 173.228 163.389C173.963 166.517 170.264 168.032 169.352 170.483C168.885 171.735 169.217 173.176 169.887 174.34C170.556 175.504 171.537 176.46 172.472 177.431C174.781 179.833 176.973 182.646 177.311 185.945C177.583 188.623 176.593 191.241 175.589 193.729C174.651 196.041 173.603 197.725 171.524 199.105C169.947 200.153 167.97 201.201 166.069 201.282C162.035 201.454 157.835 200.718 154.485 198.441C151.134 196.163 148.805 192.161 149.257 188.161C149.517 185.95 150.568 183.909 152.217 182.415Z" fill="#91A7D3"/>
<path d="M155.644 254.117C155.503 254.117 155.368 254.067 155.261 253.975C155.154 253.884 155.083 253.759 155.061 253.619L150.707 226.547C150.682 226.392 150.72 226.232 150.812 226.105C150.904 225.979 151.042 225.894 151.197 225.867C151.352 225.843 151.511 225.88 151.638 225.972C151.765 226.064 151.85 226.204 151.875 226.359L156.229 253.431C156.254 253.586 156.215 253.746 156.123 253.873C156.031 253.999 155.892 254.085 155.738 254.109C155.707 254.115 155.675 254.117 155.644 254.117Z" fill="#324B7F"/>
<path d="M185.786 253.814C185.645 253.811 185.509 253.761 185.403 253.669C185.296 253.58 185.225 253.453 185.203 253.313L180.849 226.241C180.824 226.086 180.862 225.926 180.954 225.8C181.046 225.673 181.184 225.585 181.339 225.561C181.494 225.537 181.653 225.575 181.78 225.666C181.907 225.758 181.993 225.898 182.018 226.053L186.371 253.134C186.396 253.289 186.357 253.449 186.265 253.575C186.173 253.702 186.035 253.787 185.88 253.814C185.849 253.816 185.817 253.816 185.786 253.814Z" fill="#324B7F"/>
<path d="M190.939 212.507C190.53 212.502 190.132 212.377 189.794 212.147C189.456 211.917 189.193 211.592 189.039 211.213C188.663 210.318 188.101 209.03 187.771 208.269L187.688 208.081C187.572 207.816 187.457 207.553 187.339 207.304C186.615 205.745 185.908 204.175 185.199 202.609C183.843 199.605 182.441 196.495 180.933 193.513C180.904 193.444 180.902 193.366 180.927 193.295C180.953 193.224 181.004 193.166 181.071 193.132C181.138 193.098 181.216 193.09 181.288 193.111C181.36 193.132 181.422 193.18 181.46 193.244C182.974 196.249 184.379 199.353 185.739 202.365C186.446 203.933 187.152 205.499 187.875 207.06C187.994 207.311 188.112 207.58 188.23 207.848L188.313 208.036C188.648 208.799 189.2 210.09 189.583 210.988C189.702 211.279 189.91 211.525 190.176 211.691C190.443 211.858 190.755 211.936 191.068 211.916C194.302 211.619 199.614 208.374 199.751 206.068C199.756 205.99 199.791 205.917 199.849 205.865C199.908 205.813 199.985 205.786 200.063 205.79C200.141 205.795 200.214 205.83 200.266 205.889C200.318 205.947 200.345 206.024 200.34 206.102C200.175 208.932 194.386 212.207 191.121 212.506C191.061 212.506 191.001 212.507 190.939 212.507Z" fill="#509283"/>
<path d="M151.29 231.422H182.597C183.298 231.422 183.992 231.273 184.632 230.987C185.272 230.699 185.844 230.279 186.311 229.755C186.777 229.23 187.128 228.614 187.339 227.943C187.551 227.275 187.618 226.569 187.538 225.869L183.938 194.865C183.563 191.564 180.77 188.856 177.748 188.856H147.932C144.91 188.856 142.751 191.558 143.134 194.865L146.925 227.539C147.051 228.61 147.566 229.595 148.37 230.312C149.175 231.029 150.214 231.422 151.29 231.422Z" fill="#324B7F"/>
<path d="M149.917 231.422H180.389C181.037 231.424 181.678 231.289 182.269 231.024C182.86 230.76 183.389 230.373 183.82 229.888C184.251 229.405 184.575 228.835 184.77 228.216C184.966 227.598 185.028 226.947 184.953 226.302L181.295 194.865C180.92 191.564 178.125 188.856 175.105 188.856H145.289C142.267 188.856 140.106 191.558 140.491 194.865L144.136 226.269C144.299 227.688 144.979 228.999 146.045 229.949C147.111 230.9 148.489 231.424 149.917 231.422Z" fill="#DAE1F0"/>
</svg>
